<?xml version="1.0" encoding="UTF-8" standalone="no"?>
<!-- Created with Inkscape (http://www.inkscape.org/) -->

<svg
   xmlns:osb="http://www.openswatchbook.org/uri/2009/osb"
   xmlns:dc="http://purl.org/dc/elements/1.1/"
   xmlns:cc="http://creativecommons.org/ns#"
   xmlns:rdf="http://www.w3.org/1999/02/22-rdf-syntax-ns#"
   xmlns:svg="http://www.w3.org/2000/svg"
   xmlns="http://www.w3.org/2000/svg"
   xmlns:sodipodi="http://sodipodi.sourceforge.net/DTD/sodipodi-0.dtd"
   xmlns:inkscape="http://www.inkscape.org/namespaces/inkscape"
   width="210mm"
   height="297mm"
   viewBox="0 0 210 297"
   version="1.1"
   id="svg8"
   inkscape:version="0.92.0 r15299"
   sodipodi:docname="Waffen_Icon.svg">
  <defs
     id="defs2">
    <linearGradient
       id="linearGradient6043"
       osb:paint="solid">
      <stop
         style="stop-color:#1e1629;stop-opacity:1;"
         offset="0"
         id="stop6041" />
    </linearGradient>
    <filter
       inkscape:collect="always"
       style="color-interpolation-filters:sRGB"
       id="filter6539"
       x="-0.0012925373"
       width="1.0025851"
       y="-0.0011198276"
       height="1.0022397">
      <feGaussianBlur
         inkscape:collect="always"
         stdDeviation="0.028931927"
         id="feGaussianBlur6541" />
    </filter>
  </defs>
  <sodipodi:namedview
     id="base"
     pagecolor="#ffffff"
     bordercolor="#666666"
     borderopacity="1.0"
     inkscape:pageopacity="0.0"
     inkscape:pageshadow="2"
     inkscape:zoom="1.4"
     inkscape:cx="501.29489"
     inkscape:cy="467.40339"
     inkscape:document-units="mm"
     inkscape:current-layer="layer1"
     showgrid="false"
     inkscape:window-width="1920"
     inkscape:window-height="1001"
     inkscape:window-x="-9"
     inkscape:window-y="-9"
     inkscape:window-maximized="1" />
  <metadata
     id="metadata5">
    <rdf:RDF>
      <cc:Work
         rdf:about="">
        <dc:format>image/svg+xml</dc:format>
        <dc:type
           rdf:resource="http://purl.org/dc/dcmitype/StillImage" />
        <dc:title />
      </cc:Work>
    </rdf:RDF>
  </metadata>
  <g
     inkscape:label="Ebene 1"
     inkscape:groupmode="layer"
     id="layer1">
    <path
       style="fill:#8b5a2b;stroke:#8b4513;stroke-width:0.26458332px;stroke-linecap:butt;stroke-linejoin:miter;stroke-opacity:1;fill-opacity:1;filter:url(#filter6539)"
       d="m 137.91107,187.95403 c 3.20724,-2.93996 3.47451,-2.93996 3.47451,-2.93996 l -50.513941,-59.06657 -3.207236,3.20724 z"
       id="path6193"
       inkscape:connector-curvature="0" />
    <path
       inkscape:connector-curvature="0"
       id="path6543"
       d="m 92.626022,130.60647 c -0.425452,0.40087 -0.81985,0.7097 -1.286381,1.00729 -0.567997,0.36232 -1.041572,0.71142 -1.345365,0.99177 l -0.192667,0.17781 -0.644021,0.0694 c -0.354193,0.0383 -0.756261,0.071 -0.893439,0.0729 -0.266397,0.004 -0.568065,-0.0626 -0.628634,-0.13834 -0.148955,-0.18628 -0.64096,-0.24174 -1.886662,-0.21268 -1.148627,0.0268 -1.181966,0.0255 -1.356344,-0.0521 -0.08135,-0.0362 -0.359132,-0.23216 -0.617306,-0.43547 -0.258179,-0.20333 -0.55804,-0.41939 -0.666358,-0.48014 l -0.196946,-0.11046 -0.30664,-0.46143 c -0.168653,-0.25378 -0.371452,-0.58275 -0.450666,-0.73102 -0.07922,-0.14828 -0.244452,-0.41399 -0.367193,-0.59046 -0.132089,-0.18991 -0.260832,-0.41563 -0.315461,-0.55309 -0.105596,-0.2657 -0.527775,-1.63886 -0.536279,-1.74429 -0.0031,-0.0385 0.0313,-0.34577 0.07644,-0.68289 0.100115,-0.74759 0.08099,-1.01298 -0.09573,-1.32836 -0.04104,-0.0733 -0.135513,-0.34591 -0.209939,-0.60594 -0.125416,-0.43816 -0.13494,-0.5132 -0.13009,-1.02469 0.0045,-0.47084 -0.01028,-0.60993 -0.100517,-0.94687 -0.200834,-0.74995 -0.3608,-2.73661 -0.30979,-3.84747 0.04328,-0.94262 0.03914,-2.03216 -0.0094,-2.47032 -0.02054,-0.18549 -0.07452,-0.47011 -0.119967,-0.63247 -0.04543,-0.16235 -0.07451,-0.34027 -0.06461,-0.39536 0.0099,-0.055 0.03374,-0.29104 0.05298,-0.52433 0.04322,-0.52429 0.114349,-0.78156 0.260929,-0.94384 0.296457,-0.3282 0.671642,-0.30052 1.396997,0.10309 0.925549,0.51498 1.986537,0.92313 2.77939,1.0692 0.169148,0.0312 0.521831,0.0962 0.783738,0.14441 0.707938,0.13048 0.934444,0.1982 1.216752,0.36378 0.361909,0.21226 0.886859,0.41199 1.824168,0.69403 0.920939,0.27712 1.471069,0.50599 1.802434,0.74988 0.242757,0.17867 0.282223,0.22829 0.699447,0.87929 0.204527,0.31911 0.274672,0.40438 0.570558,0.6935 0.185538,0.18131 0.569037,0.51128 0.852196,0.73327 0.283159,0.22198 0.605183,0.48612 0.715609,0.58699 0.110412,0.10085 0.419302,0.36738 0.686392,0.59228 0.453117,0.38154 0.514087,0.44438 0.910903,0.93871 0.39355,0.49025 0.439959,0.55997 0.621925,0.9341 0.10814,0.22238 0.220767,0.46608 0.250259,0.54156 0.03572,0.0915 0.06902,0.13819 0.09991,0.14008 0.07408,0.005 0.111826,0.21889 0.09817,0.55766 -0.02264,0.56054 -0.207787,1.9153 -0.28366,2.07528 -0.03945,0.0832 -0.210424,0.37713 -0.379964,0.65326 -0.420485,0.6848 -0.576047,1.07245 -0.685759,1.70889 -0.04313,0.25033 -0.181361,0.53675 -0.563219,1.1672 -0.14401,0.23777 -0.802554,1.0273 -1.056207,1.26628 z"
       style="fill:#808080;fill-opacity:1;stroke:#000000;stroke-width:0.03643093;stroke-miterlimit:4;stroke-dasharray:none;stroke-dashoffset:0;stroke-opacity:1" />
    <path
       inkscape:connector-curvature="0"
       id="path6549"
       d="m 164.3694,195.32457 c 3.20724,-2.93996 3.47451,-2.93996 3.47451,-2.93996 l -50.51394,-59.06657 -3.20723,3.20724 z"
       style="fill:#8b5a2b;fill-opacity:1;stroke:#8b4513;stroke-width:0.26458332px;stroke-linecap:butt;stroke-linejoin:miter;stroke-opacity:1;filter:url(#filter6539)"
       transform="rotate(80.618616,130.79222,143.27657)" />
    <path
       style="fill:#666666;fill-opacity:1;stroke:#000000;stroke-width:0.03643093;stroke-miterlimit:4;stroke-dasharray:none;stroke-dashoffset:0;stroke-opacity:1"
       d="m 133.04006,131.91515 c -0.47376,-0.34243 -0.85129,-0.67167 -1.23134,-1.07388 -0.46273,-0.48967 -0.89469,-0.88911 -1.22721,-1.13472 l -0.21088,-0.15577 -0.18936,-0.61946 c -0.10425,-0.34065 -0.21202,-0.72939 -0.23975,-0.86376 -0.0538,-0.26091 -0.0456,-0.56967 0.0176,-0.64343 0.15494,-0.18135 0.11683,-0.675 -0.14611,-1.89298 -0.24244,-1.12307 -0.24745,-1.15605 -0.20411,-1.34192 0.0203,-0.0867 0.16044,-0.3964 0.31155,-0.68821 0.15112,-0.29182 0.3069,-0.62698 0.34617,-0.7448 l 0.0715,-0.21422 0.39549,-0.38799 c 0.21751,-0.21339 0.50244,-0.47445 0.63316,-0.58016 0.13075,-0.10564 0.3606,-0.31797 0.51083,-0.47173 0.16166,-0.16546 0.35913,-0.33437 0.48385,-0.4139 0.24108,-0.15373 1.51029,-0.82671 1.61223,-0.85491 0.0373,-0.0103 0.3455,-0.0341 0.68506,-0.0536 0.75307,-0.0423 1.01012,-0.11107 1.28661,-0.34394 0.0643,-0.0541 0.31426,-0.19813 0.55563,-0.3202 0.40674,-0.20561 0.47864,-0.22907 0.98185,-0.32076 0.46328,-0.0842 0.59709,-0.12488 0.91102,-0.27692 0.69878,-0.33836 2.61984,-0.86932 3.72047,-1.0282 0.93392,-0.13485 2.00322,-0.34392 2.42443,-0.47402 0.17825,-0.0553 0.44768,-0.16168 0.5986,-0.23682 0.15092,-0.0752 0.32016,-0.13725 0.37616,-0.13782 0.0558,-8.5e-4 0.29221,-0.0214 0.52492,-0.0466 0.52307,-0.0562 0.78912,-0.0348 0.97608,0.0787 0.37811,0.22941 0.42153,0.6031 0.16165,1.39144 -0.33164,1.00591 -0.53286,2.12475 -0.52714,2.93092 0.001,0.17199 0.004,0.5306 0.006,0.79691 0.005,0.71984 -0.0188,0.95505 -0.12834,1.26346 -0.14037,0.39539 -0.23776,0.94855 -0.33839,1.92219 -0.0989,0.95662 -0.22016,1.54 -0.39734,1.91133 -0.12981,0.27204 -0.17112,0.32014 -0.73199,0.8524 -0.27493,0.26092 -0.34547,0.34585 -0.57375,0.69085 -0.14316,0.21634 -0.39508,0.65509 -0.55982,0.97495 -0.16474,0.31987 -0.36357,0.68584 -0.44187,0.81328 -0.0782,0.12742 -0.28192,0.48093 -0.45254,0.78558 -0.28948,0.51681 -0.3397,0.58851 -0.75054,1.07125 -0.40745,0.47876 -0.4672,0.53747 -0.8004,0.78658 -0.19806,0.14805 -0.41622,0.30452 -0.4848,0.34769 -0.0832,0.0523 -0.12273,0.0938 -0.11879,0.12449 0.009,0.0737 -0.19392,0.15102 -0.52921,0.20135 -0.55479,0.0833 -1.92019,0.15631 -2.09159,0.11191 -0.0891,-0.0231 -0.40999,-0.1357 -0.71308,-0.25026 -0.75168,-0.28412 -1.16169,-0.36396 -1.8074,-0.35196 -0.25398,0.005 -0.56129,-0.0771 -1.25234,-0.33353 -0.26061,-0.0967 -1.15994,-0.59494 -1.44239,-0.79909 z"
       id="path6551"
       inkscape:connector-curvature="0" />
  </g>
</svg>
