<?xml version="1.0" encoding="UTF-8" standalone="no"?>
<!-- Created with Inkscape (http://www.inkscape.org/) -->

<svg
   xmlns:dc="http://purl.org/dc/elements/1.1/"
   xmlns:cc="http://creativecommons.org/ns#"
   xmlns:rdf="http://www.w3.org/1999/02/22-rdf-syntax-ns#"
   xmlns:svg="http://www.w3.org/2000/svg"
   xmlns="http://www.w3.org/2000/svg"
   xmlns:sodipodi="http://sodipodi.sourceforge.net/DTD/sodipodi-0.dtd"
   xmlns:inkscape="http://www.inkscape.org/namespaces/inkscape"
   width="210mm"
   height="297mm"
   viewBox="0 0 210 297"
   version="1.1"
   id="svg8"
   inkscape:version="0.92.0 r15299"
   sodipodi:docname="Buchdruck_Icon.svg">
  <defs
     id="defs2" />
  <sodipodi:namedview
     id="base"
     pagecolor="#ffffff"
     bordercolor="#666666"
     borderopacity="1.0"
     inkscape:pageopacity="0.0"
     inkscape:pageshadow="2"
     inkscape:zoom="0.98994949"
     inkscape:cx="188.20244"
     inkscape:cy="890.76742"
     inkscape:document-units="mm"
     inkscape:current-layer="layer1"
     showgrid="false"
     inkscape:window-width="1920"
     inkscape:window-height="1001"
     inkscape:window-x="-9"
     inkscape:window-y="-9"
     inkscape:window-maximized="1" />
  <metadata
     id="metadata5">
    <rdf:RDF>
      <cc:Work
         rdf:about="">
        <dc:format>image/svg+xml</dc:format>
        <dc:type
           rdf:resource="http://purl.org/dc/dcmitype/StillImage" />
        <dc:title />
      </cc:Work>
    </rdf:RDF>
  </metadata>
  <g
     inkscape:label="Ebene 1"
     inkscape:groupmode="layer"
     id="layer1">
    <rect
       style="fill:#ccaae1;fill-opacity:1;stroke:#040000;stroke-width:0.30899999;stroke-miterlimit:4;stroke-dasharray:none;stroke-dashoffset:0;stroke-opacity:0.98777508"
       id="rect4485"
       width="63.877975"
       height="91.848213"
       x="21.923573"
       y="15.660395" />
    <path
       style="fill:none;stroke:#000000;stroke-width:0.26458332px;stroke-linecap:butt;stroke-linejoin:miter;stroke-opacity:1"
       d="m 21.923571,15.660391 2.999311,-3.10199 h 65.013311 v 93.060319 l -4.13465,1.88989"
       id="path4487"
       inkscape:connector-curvature="0" />
    <path
       style="fill:#e9ddaf;fill-opacity:1;stroke:#040000;stroke-width:0.15606856;stroke-miterlimit:4;stroke-dasharray:none;stroke-dashoffset:0;stroke-opacity:0.98777508"
       d="M 85.996245,61.279437 V 15.442992 l -31.74228,-0.03369 -31.742279,-0.03368 1.240145,-1.308778 1.240144,-1.308774 32.373213,0.0058 32.373212,0.0058 -0.0336,46.372028 -0.0336,46.372032 -1.7278,0.80104 c -0.950291,0.44058 -1.777154,0.80105 -1.837479,0.80105 -0.06032,0 -0.109677,-20.626408 -0.109677,-45.836455 z"
       id="path4489"
       inkscape:connector-curvature="0" />
    <rect
       style="fill:#fff6d5;fill-opacity:1;stroke:#040000;stroke-width:0.30899999;stroke-miterlimit:4;stroke-dasharray:none;stroke-dashoffset:0;stroke-opacity:0.98777508"
       id="rect4491"
       width="33.141422"
       height="17.506155"
       x="38.920139"
       y="26.38151" />
    <path
       style="fill:#fff6d5;fill-opacity:1;stroke:#040000;stroke-width:0.30899999;stroke-miterlimit:4;stroke-dasharray:none;stroke-dashoffset:0;stroke-opacity:0.98777508"
       id="path5064"
       d="m 44.007794,32.723951 c 0.02135,-0.50079 0.02351,-1.00225 0.02212,-1.50343 -0.01233,-0.57958 0.01279,-1.15775 0.04261,-1.73629 0.0033,-0.33729 0.03799,-0.67028 0.133168,-0.99426 0.02489,-0.0674 0.04203,-0.12748 0.08256,-0.18742 0.02825,-0.0418 0.07967,-0.0944 0.125326,-0.11868 0.713751,-0.38033 0.451853,-0.33482 0.845594,-0.37883 0.04702,-0.003 0.09396,-0.0118 0.14105,-0.01 0.16478,0.007 0.387839,0.0579 0.537373,0.12641 0.136595,0.0626 0.269976,0.1638 0.392034,0.24866 0.25926,0.18494 0.490292,0.40513 0.734865,0.60813 0.100505,0.0834 0.205409,0.16145 0.305673,0.24515 0.05102,0.0426 0.6473,0.56021 0.695965,0.60242 0.433426,0.40494 0.902895,0.79087 1.24547,1.28108 0.03889,0.0556 0.0723,0.11492 0.108443,0.17239 0.132282,0.24378 0.181478,0.45729 0.155203,0.7308 -0.04285,0.1977 -0.185778,0.31782 -0.346002,0.42531 -0.286111,0.15812 -0.585726,0.39437 -0.922805,0.47088 -0.147596,0.0335 -0.30085,0.0413 -0.451178,0.0533 -0.119254,-0.008 -0.429328,0.0576 -0.526597,-0.018 -0.05962,-0.0463 -0.03682,-0.0964 -0.02959,-0.15593 0.02371,-0.0289 0.04356,-0.0614 0.07113,-0.0866 0.06463,-0.0591 0.196122,-0.13739 0.268758,-0.17959 0.411638,-0.23917 0.634863,-0.38216 1.014604,-0.54907 0.200709,-0.0933 0.428806,-0.14837 0.622102,-0.25584 -0.182693,0.10376 -0.361993,0.21373 -0.548078,0.31127 -0.01802,0.009 0.03064,-0.0278 0.04082,-0.0454 0.01325,-0.0229 0.02118,-0.0488 0.0283,-0.0743 0.03572,-0.12812 0.03402,-0.26822 0.04029,-0.39957 0.0089,-0.38987 0.02897,-0.77939 0.03711,-1.1693 -0.01552,-0.21183 0.04348,-0.47789 -0.02266,-0.68195 -0.0087,-0.0269 -0.02324,-0.0516 -0.03486,-0.0774 -0.126848,-0.15302 -0.305034,-0.23389 -0.48979,-0.29325 -0.207081,-0.0556 -0.420905,-0.0748 -0.634335,-0.0842 -0.202236,-0.0224 -0.391999,0.0472 -0.584128,0.0986 -0.03646,0.009 -0.216511,0.0545 -0.254205,0.0711 -0.03554,0.0156 -0.133922,0.0784 -0.09947,0.0605 0.169436,-0.088 0.324142,-0.20863 0.504626,-0.27084 0.04377,-0.0151 -0.05124,0.0778 -0.06883,0.12064 -0.02153,0.0524 -0.03184,0.10872 -0.04775,0.16308 -0.04762,0.2267 -0.03058,0.45672 0.01968,0.68155 0.0202,0.0904 0.03887,0.18229 0.07553,0.26732 0.110907,0.25721 0.230546,0.37496 0.405489,0.5943 0.09502,0.0914 0.180541,0.19394 0.285074,0.27434 0.125306,0.0964 0.262426,0.17712 0.400934,0.25333 0.457415,0.25166 0.956114,0.41146 1.465159,0.51928 0.177212,0.0375 0.356936,0.062 0.535404,0.0931 0.174579,0.0207 0.348804,0.0446 0.523738,0.0621 0.378866,0.0378 0.59444,0.0497 0.975912,0.0457 0.415412,-0.004 0.829551,-0.0403 1.243025,-0.0769 0.214766,-0.0267 0.288686,-0.0326 0.488575,-0.0683 0.04681,-0.008 0.09412,-0.0153 0.139726,-0.0288 0.01963,-0.006 0.07204,-0.0389 0.05437,-0.0285 -0.670018,0.39202 -0.401326,0.43857 -0.764737,0.32893 -0.05498,-0.0128 -0.110282,-0.0243 -0.164949,-0.0383 -0.196871,-0.0507 -0.460708,-0.11104 -0.643125,-0.1978 -0.03366,-0.016 -0.06426,-0.0378 -0.09638,-0.0567 -0.113448,-0.084 -0.158034,-0.21387 -0.21747,-0.33505 -0.04409,-0.0899 -0.06075,-0.10968 -0.11636,-0.19535 -0.121174,-0.16363 -0.269518,-0.30809 -0.378177,-0.48117 -0.07437,-0.11847 -0.104608,-0.20064 -0.159968,-0.32775 -0.04146,-0.15397 -0.151188,-0.34928 -0.11817,-0.51502 0.02256,-0.11325 0.06269,-0.12707 0.144695,-0.21415 0.145086,-0.10556 0.167296,-0.12871 0.331398,-0.21723 0.269231,-0.14523 0.537217,-0.29316 0.811932,-0.42773 0.08496,-0.0416 0.176788,-0.0674 0.265584,-0.10008 0.298875,-0.10985 0.224873,-0.0827 0.525595,-0.17421 0.29238,-0.0838 0.591446,-0.14146 0.894933,-0.16396 0.06438,-0.005 0.129161,-0.0134 0.193505,-0.008 0.06162,0.005 0.120922,0.0258 0.181383,0.0388 0.125934,0.0527 0.194052,0.0681 0.296683,0.16266 0.190552,0.17551 0.369855,0.49666 0.497887,0.7215 0.100259,0.18036 0.196543,0.36303 0.286163,0.54894 0.04235,0.0878 0.08704,0.17168 0.103498,0.26924 0.0073,0.043 0.0034,0.0872 0.0052,0.13076 -0.0097,0.0403 -0.01166,0.0833 -0.02904,0.12087 -0.04912,0.10626 -0.16125,0.23537 -0.235612,0.31973 -0.158715,0.18004 -0.330144,0.34952 -0.498735,0.52018 -0.105725,0.10827 -0.136692,0.12331 -0.203336,0.23427 -0.0038,0.006 0.0101,-0.0108 0.01634,-0.0146 0.03333,-0.0203 0.0668,-0.0405 0.101982,-0.0574 0.23309,-0.11155 0.471085,-0.21255 0.70616,-0.31986 0.635616,-0.24516 1.267941,-0.50446 1.916841,-0.71355 0.600845,-0.19361 1.214558,-0.34012 1.829521,-0.47986 0.24671,-0.0669 0.532226,-0.13433 0.77238,-0.23261 0.08392,-0.0343 0.331544,-0.14158 0.242895,-0.1225 -0.661436,0.14234 -0.412725,0.34205 -0.420313,-0.0159 -0.0016,-0.0738 -0.02441,-0.14561 -0.03662,-0.21841 -0.04303,-0.0863 -0.07696,-0.17776 -0.129084,-0.25888 -0.220135,-0.34261 -0.608337,-0.66977 -0.958631,-0.87443 -0.07674,-0.0448 -0.158603,-0.0803 -0.237904,-0.12038 -0.247481,-0.10776 -0.509257,-0.161 -0.779275,-0.15401 -0.104766,0.003 -0.277796,0.0291 -0.378531,0.0426 -0.427608,0.085 -0.860722,0.13422 -1.295144,0.167 -0.299588,0.0255 -0.600446,0.0758 -0.879036,0.19166 -0.325608,0.19247 0.200815,-0.11942 0.384299,-0.21669 0.03465,-0.0184 -0.06455,0.0447 -0.09504,0.0693 -0.09302,0.0752 -0.134214,0.13331 -0.18801,0.23861 -0.0069,0.0433 -0.02413,0.0861 -0.02067,0.12983 0.0154,0.19475 0.125772,0.28355 0.27689,0.41788 0.119683,0.10639 0.248859,0.20232 0.381915,0.29143 0.45221,0.30282 0.670083,0.37788 1.189669,0.62294 1.258028,0.5264 2.585928,0.86606 3.921383,1.12904 0.01316,0.003 0.345019,0.0498 0.403361,0.10417 0.02238,0.0208 0.04287,0.074 0.01691,0.0902 -0.260146,0.16197 -0.534571,0.30561 -0.822244,0.41123 -0.14066,0.0516 -0.297229,0.0384 -0.446209,0.0545 -0.206434,0.0222 -0.413302,0.0402 -0.619954,0.0603 -0.637375,0.0571 -1.273607,0.12634 -1.907613,0.21331 -0.07442,0.0102 -0.659194,0.0898 -0.783738,0.12971 -0.0601,0.0193 -0.109472,0.0628 -0.164209,0.0943 0.181924,-0.0849 0.352638,-0.19989 0.545771,-0.2547 0.03093,-0.009 0.01512,0.0645 0.03479,0.09 0.03382,0.0437 0.07739,0.0796 0.121802,0.11253 0.172009,0.12749 0.372003,0.20207 0.570193,0.27645 0.436513,0.14483 0.903938,0.14503 1.359049,0.14647 0.899092,-10e-4 1.797754,-0.0219 2.696437,-0.0478 0.780465,-0.0458 1.537514,-0.23987 2.278746,-0.47768 0.17467,-0.056 0.349843,-0.11106 0.521507,-0.17573 0.158184,-0.0596 0.311579,-0.13119 0.467368,-0.19679 0.02543,-0.26244 0.659537,-0.0958 0.710927,-0.35573 0.0226,-0.11435 -0.196961,0.14701 -0.313216,0.15551 -0.07483,0.005 0.118319,-0.0927 0.171984,-0.14518 0.112607,-0.11001 0.125609,-0.1483 0.202698,-0.27598 0.01561,-0.0433 0.03777,-0.0848 0.0468,-0.12999 0.0338,-0.1691 -0.07877,-0.30863 -0.225004,-0.3779 -0.04446,-0.0211 -0.09281,-0.0327 -0.139214,-0.049 -0.110484,-0.0184 -0.23977,-0.0446 -0.352499,-0.0441 -0.116776,5.2e-4 -0.313602,0.0309 -0.427426,0.0475 -0.150384,0.022 -0.300501,0.0458 -0.450789,0.0685 -0.614696,0.0928 -1.233477,0.15242 -1.850467,0.22721 -0.25051,0.0306 -0.502143,0.0548 -0.750658,0.0999 -0.03413,0.006 -0.06886,0.0107 -0.101849,0.0214 -0.01149,0.004 -0.03928,0.0281 -0.02933,0.0213 0.197676,-0.13584 0.395001,-0.2722 0.592501,-0.40829 0.510483,0.01 0.979005,0.25806 1.433378,0.46256 0.218506,0.0983 0.436184,0.19852 0.654274,0.29778 0.599761,0.27754 1.199158,0.55636 1.807324,0.8152 0.154715,0.0659 0.476576,0.2281 0.681437,0.21958 0.04909,-0.002 0.08743,-0.0449 0.131141,-0.0673 -0.181031,0.078 -0.346424,0.22067 -0.543089,0.23398 -0.06741,0.005 -0.03343,-0.13171 -0.06168,-0.19308 -0.06651,-0.1445 -0.260083,-0.43868 -0.339228,-0.56124 -0.188341,-0.29165 -0.302461,-0.46252 -0.495403,-0.75439 -0.366488,-0.55609 -0.752496,-1.0987 -1.138259,-1.64145 0,0 0.559076,-0.32842 0.559076,-0.32842 v 0 c 0.364664,0.55659 0.748141,1.10052 1.113305,1.6568 0.547566,0.81 -0.02408,-0.0306 0.512951,0.74457 0.06773,0.0978 0.304919,0.4423 0.369183,0.56041 0.03887,0.0714 0.146275,0.15782 0.09813,0.22336 -0.15341,0.20886 -0.40881,0.3186 -0.613216,0.47791 -0.04447,0.007 -0.08882,0.0284 -0.133419,0.022 -0.190106,-0.0277 -0.496094,-0.19297 -0.640699,-0.2612 -0.592582,-0.27961 -1.182288,-0.56547 -1.781113,-0.83165 -0.544359,-0.22922 -1.085718,-0.48486 -1.663494,-0.62066 -0.174426,-0.041 -0.353584,-0.0444 -0.531167,-0.0575 0.180158,-0.14112 0.357188,-0.28634 0.540474,-0.42337 0.0075,-0.006 0.01868,-5.3e-4 0.02796,-0.002 0.0309,-0.003 0.06165,-0.008 0.09254,-0.0117 0.241066,-0.0277 0.482878,-0.0486 0.723703,-0.0785 0.622584,-0.0756 1.246659,-0.14029 1.865821,-0.24131 0.279927,-0.044 0.615395,-0.1144 0.896932,-0.10908 0.119081,0.002 0.250865,0.0332 0.36671,0.0558 0.05048,0.02 0.103479,0.0345 0.151456,0.0599 0.165118,0.0875 0.29315,0.26281 0.265919,0.45652 -0.007,0.0497 -0.02949,0.0961 -0.04423,0.14409 -0.07461,0.1338 -0.09363,0.18701 -0.2061,0.30203 -0.05552,0.0568 -0.113675,0.11239 -0.180022,0.15602 -0.47616,0.31313 -0.959877,0.59819 -1.485228,0.81721 -0.154644,0.0628 -0.307062,0.13145 -0.463931,0.1885 -0.16868,0.0614 -0.34072,0.11312 -0.51209,0.16651 -0.75287,0.23452 -1.519424,0.432 -2.309921,0.48079 -0.907969,0.0199 -1.815781,0.0463 -2.723738,0.0657 -0.465294,10e-4 -0.945974,0.009 -1.388261,-0.15589 -0.231921,-0.0935 -0.576565,-0.22408 -0.735066,-0.42612 -0.02917,-0.0372 -0.08976,-0.0947 -0.05776,-0.12946 0.171352,-0.18621 0.401485,-0.30813 0.602227,-0.4622 0.05138,-0.0208 0.100173,-0.0497 0.154143,-0.0624 0.109333,-0.0256 0.696374,-0.0923 0.746683,-0.0982 0.632034,-0.0738 1.264987,-0.13901 1.89784,-0.20532 0.214988,-0.0273 0.430592,-0.05 0.644963,-0.0818 0.159234,-0.0236 0.383718,-0.21639 0.475521,-0.0842 0.08389,0.12082 -0.226761,0.18784 -0.332664,0.28993 -0.01122,0.0108 0.05565,-0.001 0.04501,-0.0127 -0.02796,-0.0299 -0.07063,-0.0427 -0.109301,-0.0562 -0.07919,-0.0277 -0.161758,-0.0446 -0.242637,-0.067 -0.763546,-0.18571 -1.522101,-0.39077 -2.273456,-0.62136 -0.270264,-0.0829 -0.541154,-0.1644 -0.807985,-0.2578 -0.265059,-0.0928 -0.524709,-0.20033 -0.787064,-0.3005 -0.611794,-0.26058 -0.724642,-0.27585 -1.244095,-0.60237 -0.140718,-0.0884 -0.277998,-0.18316 -0.407597,-0.28722 -0.193625,-0.15548 -0.30423,-0.22061 -0.343144,-0.44751 -0.0083,-0.0481 0.0048,-0.0975 0.0072,-0.14633 0.01307,-0.037 0.02145,-0.076 0.03922,-0.11098 0.04469,-0.088 0.146206,-0.18591 0.229171,-0.23666 0.554259,-0.339 0.476046,-0.29759 0.793776,-0.45347 0.282514,-0.10014 0.580438,-0.14718 0.879053,-0.1668 0.433803,-0.0327 0.864786,-0.0865 1.292098,-0.16932 0.440114,-0.0561 0.762458,-0.0482 1.171072,0.1518 0.07915,0.0432 0.160996,0.0817 0.23745,0.12955 0.340135,0.21263 0.748702,0.57149 0.974639,0.90179 0.05803,0.0848 0.100006,0.1796 0.150009,0.2694 0.01255,0.0572 0.105359,0.37285 0.03524,0.44588 -0.52195,0.54359 -0.980539,0.66119 -1.660394,0.82206 -0.47383,0.10266 -0.642577,0.13282 -1.126391,0.26652 -0.895758,0.24755 -1.764569,0.58103 -2.619551,0.94329 -0.152949,0.0724 -0.305111,0.14638 -0.458846,0.21704 -0.06129,0.0282 -0.33336,0.1891 -0.465035,0.1448 -0.117994,-0.0397 -0.0017,-0.15548 0.02263,-0.18366 0.04581,-0.0531 0.09894,-0.0994 0.148406,-0.1491 0.168628,-0.16739 0.336326,-0.33651 0.495569,-0.51298 0.05292,-0.0586 0.186337,-0.21069 0.230678,-0.28726 0.01842,-0.0318 0.02605,-0.0688 0.03907,-0.10313 0.0016,-0.0385 0.0089,-0.0772 0.0048,-0.11551 -0.0098,-0.091 -0.05311,-0.18149 -0.08933,-0.26313 -0.08305,-0.1872 -0.173955,-0.37116 -0.274168,-0.54976 -0.136828,-0.23189 -0.286253,-0.51126 -0.494401,-0.68813 -0.100282,-0.0852 -0.158043,-0.0954 -0.278729,-0.14159 -0.05681,-0.009 -0.112958,-0.0245 -0.170424,-0.0275 -0.0627,-0.003 -0.125532,0.004 -0.1881,0.009 -0.297644,0.0243 -0.590946,0.0852 -0.877804,0.16697 -0.268959,0.0842 -0.253558,0.0753 -0.520727,0.17602 -0.08957,0.0338 -0.312084,0.18939 -0.267389,0.10474 0.0615,-0.11647 0.225098,-0.13807 0.328241,-0.21999 0.09964,-0.0791 -0.405561,0.2436 -0.325768,0.19895 -0.07025,0.0558 -0.12481,0.0795 -0.156621,0.16382 -0.05296,0.14038 0.053,0.35958 0.08858,0.49294 0.05647,0.1329 0.07467,0.19118 0.153392,0.31377 0.111482,0.17361 0.26455,0.31522 0.387998,0.47949 0.051,0.0764 0.08476,0.12187 0.126134,0.20322 0.05473,0.10761 0.08965,0.22518 0.19371,0.29883 0.270703,0.15805 0.588603,0.20805 0.889043,0.28322 0.353404,0.10339 0.21669,0.0179 -0.347306,0.48496 -0.02357,0.0195 -0.370339,0.0508 -0.377127,0.0515 -0.09043,0.009 -0.181037,0.0169 -0.271556,0.0253 -0.571376,0.0371 -1.146747,0.0781 -1.719489,0.0459 -0.16004,-0.009 -0.319456,-0.0273 -0.47876,-0.0451 -0.174513,-0.0195 -0.348369,-0.0445 -0.522553,-0.0667 -0.17998,-0.0318 -0.361292,-0.0568 -0.53994,-0.0954 -0.516429,-0.11158 -1.017491,-0.27826 -1.483521,-0.52944 -0.144727,-0.078 -0.29025,-0.15708 -0.42169,-0.25584 -0.107606,-0.0809 -0.1941,-0.18653 -0.29115,-0.2798 -0.16932,-0.20545 -0.322518,-0.36293 -0.436029,-0.6063 -0.04005,-0.0859 -0.05957,-0.1801 -0.0821,-0.27213 -0.0558,-0.22798 -0.08718,-0.46576 -0.04788,-0.69885 0.005,-0.023 0.05547,-0.28818 0.08951,-0.31483 0.206694,-0.16182 0.441969,-0.28348 0.666569,-0.41936 0.03333,-0.0202 0.06979,-0.035 0.106421,-0.0483 0.02658,-0.01 0.230613,-0.0632 0.253659,-0.0694 0.198284,-0.0557 0.396524,-0.11288 0.604857,-0.0862 0.216059,0.015 0.43176,0.0429 0.640725,0.10175 0.202277,0.0682 0.390026,0.16846 0.523662,0.34044 0.03477,0.082 0.05249,0.1092 0.06403,0.2019 0.02437,0.19572 -0.01763,0.39645 -0.0086,0.5925 -0.01321,0.38925 -0.03141,0.77847 -0.03409,1.16797 -0.0017,0.13557 0.0039,0.27329 -0.01817,0.40763 -0.002,0.0119 -0.0259,0.14764 -0.04569,0.16093 -0.206576,0.13881 -0.429052,0.25235 -0.643578,0.37853 -0.200702,0.0883 -0.411122,0.15397 -0.611423,0.24366 -0.04626,0.021 -0.09295,0.041 -0.138772,0.0629 -0.04869,0.0233 -0.190513,0.10104 -0.1447,0.0725 0.141404,-0.088 0.288089,-0.16715 0.431867,-0.25118 0.04795,-0.028 -0.09703,0.0541 -0.144383,0.0832 -0.04013,0.0246 -0.0789,0.0513 -0.117954,0.0776 -0.02607,0.0175 -0.0516,0.0359 -0.07739,0.0538 -0.04703,0.0514 -0.04892,0.0688 0.04081,0.0781 0.142557,0.0147 0.287451,-0.0103 0.429748,-0.0131 0.150949,-0.0143 0.300866,-0.0281 0.447503,-0.0693 0.235975,-0.0663 0.6778,-0.34001 -0.260655,0.1978 0.154108,-0.0908 0.303602,-0.19467 0.369255,-0.3687 0.03748,-0.25252 -0.0013,-0.47034 -0.11638,-0.7007 -0.03253,-0.0573 -0.06221,-0.11627 -0.0976,-0.17183 -0.31755,-0.49856 -0.773061,-0.89238 -1.202542,-1.29005 -0.572978,-0.49546 -1.162407,-0.97267 -1.769169,-1.42618 -0.06522,-0.0431 -0.128142,-0.09 -0.195669,-0.12944 -0.260519,-0.15219 -0.562251,-0.22437 -0.862529,-0.18384 -0.326117,0.0569 -0.149733,0.0437 0.346689,-0.28085 0.02269,-0.0148 -0.04945,0.0226 -0.07228,0.0373 -0.08592,0.055 -0.129056,0.13247 -0.162058,0.22747 -0.108349,0.32022 -0.152979,0.65162 -0.160701,0.98943 -0.04251,0.57881 -0.07239,1.15835 -0.0571,1.73903 -0.0014,0.49365 3.7e-4,0.98763 0.02212,1.48088 0,0 -0.621738,0.31679 -0.621738,0.31679 z"
       inkscape:connector-curvature="0" />
    <path
       style="fill:#fff6d5;fill-opacity:1;stroke:#040000;stroke-width:0.30899999;stroke-miterlimit:4;stroke-dasharray:none;stroke-dashoffset:0;stroke-opacity:0.98777508"
       id="path5070"
       d="m 44.166446,39.056161 c 0.113702,-0.12187 0.165195,-0.2727 0.206277,-0.43061 0.04541,-0.15934 0.0621,-0.33997 0.159086,-0.48009 0.01902,-0.0275 0.04295,-0.0513 0.06443,-0.0769 0.230272,-0.20606 0.522433,-0.33657 0.798986,-0.46537 0.01857,-0.009 0.04222,0.008 0.05773,0.021 0.04406,0.038 0.04834,0.0831 0.06192,0.13426 0.01836,0.14259 -0.03803,0.27272 -0.09383,0.3999 -0.0016,0.002 -0.0044,0.009 -0.0051,0.006 -0.0651,-0.23972 0.388983,-0.24492 -0.553019,0.24435 -0.03124,0.0162 0.0596,-0.0375 0.08908,-0.0567 0.107733,-0.0704 0.106368,-0.0714 0.217914,-0.15131 0.200535,-0.14965 0.408109,-0.28948 0.61129,-0.43541 0.270463,-0.19868 0.577239,-0.34298 0.862801,-0.51635 0.178771,-0.10854 -0.361767,0.21005 -0.545237,0.31044 -0.01543,0.008 0.02684,-0.0228 0.04026,-0.0341 0.103478,-0.16691 -0.0065,-0.33442 -0.09369,-0.48072 -0.12514,-0.18207 -0.299318,-0.31097 -0.486394,-0.42287 -0.169119,-0.12287 -0.375875,-0.16423 -0.567714,-0.23812 -0.304255,-0.1383 -0.276021,-0.0719 0.497951,-0.41122 0.02638,-0.0116 0.04043,0.0412 0.06247,0.0597 0.05575,0.0469 0.21903,0.16459 0.262149,0.1962 0.406358,0.2971 0.798097,0.61356 1.204452,0.91057 0.303993,0.22161 0.610013,0.4397 0.920612,0.652 0.200737,0.13168 0.398386,0.26628 0.559398,0.44573 0.122878,0.12875 0.187934,0.2814 0.219464,0.45392 0.02,0.16759 0.03503,0.33842 0.0019,0.50484 -0.03855,0.13856 -0.158829,0.22097 -0.277891,0.2895 -0.705022,0.40581 -0.470911,0.30098 -0.850588,0.46089 -0.212458,0.077 -0.414832,0.18098 -0.636572,0.2295 -0.179911,0.0344 -0.226758,-10e-4 -0.277767,-0.17348 -0.05723,-0.28727 0.04437,-0.40576 0.230351,-0.61328 0.386297,-0.332 0.848815,-0.56235 1.28873,-0.81143 0.182533,-0.0977 0.36988,-0.18697 0.550698,-0.28802 0.213718,-0.0991 0.443328,-0.13002 0.676355,-0.13504 0.175247,0.006 0.35343,0.0299 0.461568,0.1859 0.01963,0.0283 0.03176,0.0612 0.04764,0.0917 0.05408,0.1596 0.09308,0.37906 0.06838,0.54727 -0.0066,0.0446 -0.02172,0.0876 -0.03258,0.13132 -0.07628,0.21212 -0.190108,0.41375 -0.362942,0.56262 -0.03406,0.0293 -0.07181,0.0541 -0.107717,0.0812 -0.31971,0.009 -0.521108,0.35948 -0.818073,0.45558 -0.03699,0.012 -0.07779,0.0353 -0.114464,0.0224 -0.09488,-0.0334 -0.06224,-0.16168 -0.04016,-0.21755 0.02111,-0.0534 0.05883,-0.0987 0.08825,-0.14809 0.31959,-0.38553 0.721659,-0.69154 1.13733,-0.96606 0.05392,-0.0325 0.107127,-0.0662 0.161753,-0.0975 0.23831,-0.13647 0.477425,-0.27154 0.717008,-0.40577 0.04017,-0.0225 0.161885,-0.0877 0.122192,-0.0644 -0.162181,0.0953 -0.3263,0.18732 -0.489759,0.28044 -0.02601,0.0148 0.05142,-0.0306 0.07737,-0.0455 0.219623,-0.12604 0.439566,-0.25152 0.65935,-0.37728 0.281016,-0.15807 -0.317789,0.18548 -0.478684,0.27467 -0.02685,0.0149 0.05148,-0.0335 0.07613,-0.0518 0.108437,-0.0804 0.192845,-0.16846 0.282036,-0.26989 0.232465,-0.3478 0.478361,-0.68486 0.756137,-0.99802 0.08957,-0.0937 0.183012,-0.18872 0.296412,-0.2542 0.380998,-0.21998 0.494099,-0.35803 0.82504,-0.41144 0.02315,7.9e-4 0.0472,-0.004 0.06946,0.002 0.176006,0.0508 0.280747,0.29035 0.360587,0.43345 0.186936,0.34039 0.405697,0.66174 0.583915,1.00704 0.136821,0.25292 0.149899,0.53895 0.159924,0.81993 0.01109,0.27552 0.0047,0.55117 0.0024,0.82675 0.01246,0.16316 -0.05145,0.47901 0.07722,0.6052 0.02207,0.0216 0.05166,0.034 0.0775,0.0509 0.249934,0.0874 0.518705,0.0915 0.774034,0.0226 0.06465,-0.0174 0.127037,-0.0424 0.190552,-0.0636 0.421484,-0.16547 0.83946,-0.34345 1.24531,-0.54442 -0.105736,0.0597 -0.19957,0.14898 -0.317207,0.17901 -0.09327,0.0238 0.162237,-0.10379 0.240755,-0.15949 0.314188,-0.22285 0.557689,-0.46217 0.812372,-0.74885 0.205171,-0.25071 0.383611,-0.52904 0.504422,-0.83091 0.06375,-0.15929 0.07421,-0.22302 0.114888,-0.38538 0.04803,-0.25088 0.0642,-0.53505 -0.03517,-0.7778 -0.01326,-0.0324 -0.03331,-0.0615 -0.04996,-0.0923 -0.184814,-0.17374 -0.448355,-0.16833 -0.686697,-0.17929 -0.306668,-0.007 -0.615776,-0.006 -0.921724,0.0208 -0.104862,0.009 -0.374716,0.0464 -0.48128,0.0607 -0.401518,0.0539 -0.805513,0.0843 -1.209976,0.10433 -0.132075,0.0231 -0.267282,0.0415 -0.394621,0.0857 -0.127468,0.0442 -0.245478,0.11344 -0.363482,0.17756 -0.397788,0.22902 0.205706,-0.11979 0.309248,-0.17848 0.04274,-0.0242 -0.0846,0.05 -0.126389,0.0758 -0.156297,0.0966 -0.310721,0.19642 -0.464518,0.29694 -0.413563,0.25348 -0.832266,0.49772 -1.24123,0.75868 -0.112363,0.0789 -0.228936,0.15154 -0.342704,0.22836 -0.04041,0.0273 -0.08379,0.051 -0.120097,0.0835 -0.0097,0.009 -0.02429,0.029 -0.01363,0.0364 0.01717,0.0118 0.04162,-0.002 0.06244,-0.003 0.05955,-0.002 0.119119,-0.004 0.178679,-0.005 0.10814,-0.006 0.216559,-0.008 0.324424,-0.0174 0.30344,-0.0272 0.526164,-0.0681 0.829646,-0.11383 0.468223,-0.0706 0.934371,-0.14847 1.400987,-0.22901 0.576615,-0.10031 1.157399,-0.16988 1.74112,-0.20979 0.325287,-0.015 0.650475,-0.009 0.975752,-0.0247 0.33705,-0.0486 0.673102,-0.0927 1.013674,-0.10347 0.701707,-0.0148 1.403784,-0.008 2.105625,-0.006 0.147585,-2.1e-4 0.29517,-1.8e-4 0.442754,-5.3e-4 0.136882,-5.2e-4 0.273847,0.003 0.410644,-0.002 0.415163,-0.0146 0.828276,-0.0739 1.239917,-0.12586 0.161467,-0.005 0.317582,-0.059 0.478271,-0.0688 0.03071,-0.002 0.113483,-0.008 0.131496,0.0401 0.01058,0.0283 2.64e-4,0.0604 5.29e-4,0.0906 -0.07334,0.1034 -0.175374,0.17194 -0.284139,0.23409 -0.455848,0.26048 -0.609169,0.38506 -1.020575,0.50713 -0.08422,0.0102 -0.217995,0.0303 -0.304651,0.0262 -0.234852,-0.0111 -0.470818,-0.0897 -0.691301,-0.16407 -0.388334,-0.13725 -0.779354,-0.2718 -1.158277,-0.43367 -0.239152,-0.095 -0.424299,-0.26525 -0.603851,-0.44353 -0.06571,-0.0612 -0.106587,-0.14593 -0.181051,-0.19836 -0.01932,-0.0136 -0.03987,-0.0281 -0.06314,-0.0322 -0.0182,-0.003 -0.07021,0.0209 -0.05415,0.0118 0.176044,-0.0998 0.35736,-0.18996 0.536038,-0.28494 -0.0259,0.0383 -0.05753,0.0733 -0.07773,0.11495 -0.05265,0.10846 -0.0994,0.2936 -0.122296,0.40684 -0.05461,0.27014 -0.07538,0.54397 -0.09671,0.81814 -0.02466,0.37866 -0.02564,0.75825 -0.02461,1.13752 7.93e-4,0.32846 -0.05826,0.65059 -0.161206,0.96142 -0.04374,0.10144 -0.171029,0.3953 -0.272057,0.44862 -0.221637,0.11697 -0.450578,0.21954 -0.675865,0.32931 -0.07585,-0.0516 -0.108181,-0.063 -0.160036,-0.14639 -0.124963,-0.20089 -0.216927,-0.51472 -0.282721,-0.74181 -0.0706,-0.25373 -0.104888,-0.51606 -0.181427,-0.76828 -0.01373,-0.0452 -0.06773,-0.19272 -0.08562,-0.24213 -0.03093,-0.0991 -0.08428,-0.19455 -0.04632,-0.30101 0.09838,-0.27587 0.861216,-0.5317 0.965147,-0.58288 0.767723,-0.116 1.54845,-0.10511 2.323041,-0.12362 0.139986,-0.004 0.280012,-0.007 0.419963,-0.012 0.3512,-0.0128 0.42441,-0.0142 0.776793,-0.061 0.39048,-0.0519 0.776568,-0.1355 1.163711,-0.20705 0.504161,-0.0928 1.008325,-0.19155 1.517351,-0.25487 0.207542,-0.0258 0.381776,-0.0379 0.589161,-0.0549 0.320141,-0.0315 0.642438,-0.0183 0.963211,-0.034 0.157657,-0.008 0.201983,-0.0174 0.354602,-0.0392 0.154321,-0.0202 0.292759,-0.095 0.440645,-0.13714 0.0614,-0.0175 0.124415,-0.0288 0.186457,-0.0439 0.28406,-0.0865 0.57336,-0.17613 0.869305,-0.21086 0.03452,0.0187 0.11553,0.0497 0.01471,0.12111 -0.363818,0.25773 -0.793412,0.44098 -1.188884,0.65004 -0.425482,0.1996 -0.853118,0.40505 -1.297176,0.56124 -0.402592,0.14161 -0.63718,0.1928 -1.059783,0.30344 -0.800611,0.18692 -1.617364,0.28455 -2.433698,0.37046 -0.328063,0.0345 -1.32053,0.12917 -1.67499,0.1529 -0.226542,0.0152 -0.453612,0.0209 -0.680418,0.0314 -0.462243,0.017 -0.924648,0.0303 -1.381393,-0.0548 -0.20149,-0.0375 -0.348683,-0.0734 -0.525182,-0.17414 -0.06395,-0.0365 -0.11916,-0.0865 -0.178742,-0.12981 -0.04438,-0.0439 -0.08876,-0.0878 -0.133143,-0.13166 0,0 0.574574,-0.35176 0.574574,-0.35176 v 0 c 0.04072,0.0419 0.08144,0.0839 0.122164,0.12584 0.05554,0.0406 0.107137,0.0872 0.166632,0.1217 0.162271,0.0941 0.309861,0.13523 0.494895,0.17288 0.4373,0.089 0.883279,0.0837 1.327335,0.0796 0.220551,-0.007 0.441309,-0.009 0.661651,-0.0204 0.257937,-0.0137 0.515483,-0.0344 0.772883,-0.056 1.127699,-0.0945 2.256533,-0.22408 3.356954,-0.49668 0.196646,-0.0548 0.394676,-0.10495 0.589936,-0.16454 0.627652,-0.19154 1.228275,-0.46139 1.814025,-0.75487 0.209521,-0.11132 0.196319,-0.10548 0.395206,-0.20704 0.04099,-0.0209 0.162414,-0.0864 0.123298,-0.0621 -0.162523,0.10078 -0.329244,0.19464 -0.493866,0.29196 0.08089,0.0322 0.0973,0.009 0.07633,0.0354 -0.294839,0.0322 -0.578459,0.12976 -0.860809,0.21568 -0.208036,0.0524 -0.407453,0.1356 -0.620673,0.16626 -0.432612,0.0485 -0.868741,0.0209 -1.30252,0.0579 -0.699463,0.0538 -1.393131,0.15868 -2.080524,0.29899 -0.520171,0.1011 -1.04148,0.21083 -1.571308,0.24819 -0.125021,0.009 -0.250512,0.009 -0.375801,0.0121 -0.138715,0.004 -0.277465,0.006 -0.4162,0.009 -0.782963,0.0209 -1.576033,0.006 -2.346886,0.16262 0.122611,-0.0884 0.248947,-0.1719 0.367835,-0.26526 0.03466,-0.0272 -0.07962,0.0392 -0.114411,0.0662 -0.03625,0.0282 -0.09626,0.098 -0.09833,0.15161 -7.94e-4,0.0196 0.04947,0.18008 0.05347,0.19334 0.02146,0.0656 0.06228,0.18835 0.07961,0.25158 0.06965,0.25422 0.10329,0.51612 0.17214,0.77048 0.0567,0.18518 0.06122,0.21379 0.130538,0.38887 0.05043,0.12737 0.105915,0.29996 0.224263,0.38501 0.01971,0.0142 0.04466,0.0189 0.06699,0.0284 -0.176815,0.11211 -0.353628,0.22422 -0.530442,0.33633 0.02186,-0.0158 0.04566,-0.0291 0.06555,-0.0473 0.108458,-0.0992 0.16483,-0.24712 0.232958,-0.37319 0.110654,-0.30145 0.176623,-0.61866 0.171109,-0.94108 0.0033,-0.38454 0.01415,-0.76899 0.04318,-1.15257 0.03741,-0.46613 0.06465,-0.94309 0.23835,-1.38264 0.225094,-0.12424 0.443137,-0.2622 0.675283,-0.37271 0.08317,-0.0396 0.275516,0.21365 0.318566,0.26681 0.170945,0.17344 0.355423,0.32959 0.581268,0.42753 0.374126,0.16648 0.761204,0.30416 1.150337,0.43098 0.318836,0.0982 0.644737,0.18526 0.977411,0.0999 0.04883,-0.0162 0.09837,-0.0305 0.146478,-0.0487 0.04896,-0.0186 0.187791,-0.0911 0.144465,-0.0617 -0.141655,0.0961 -0.295129,0.17361 -0.441115,0.26302 -0.04175,0.0256 0.08703,-0.0451 0.128317,-0.0714 0.03104,-0.0198 0.05897,-0.0441 0.08813,-0.0665 0.02201,-0.017 0.04358,-0.0345 0.06538,-0.0517 0.01513,-5.3e-4 0.03105,0.003 0.04538,-0.001 0.0063,-0.002 -0.01183,-0.007 -0.01847,-0.008 -0.02397,-0.002 -0.04817,-0.002 -0.07217,-1.3e-4 -0.153852,0.011 -0.305342,0.0472 -0.459681,0.0541 -0.404831,0.0438 -0.810964,0.0917 -1.218465,0.10072 -0.135064,0.003 -0.27019,-0.002 -0.405289,-0.002 -0.147169,-2.6e-4 -0.294338,-1.4e-4 -0.44151,-2.1e-4 -0.713539,0.004 -1.427414,0.004 -2.140415,0.0353 -0.341816,0.0239 -0.680493,0.069 -1.020744,0.10797 -0.324443,0.0125 -0.649005,0.0133 -0.973471,0.0243 -0.568688,0.0279 -1.134626,0.0927 -1.696448,0.18529 -0.864039,0.14197 -1.726954,0.30653 -2.600126,0.38024 -0.06982,-0.002 -0.141658,0.0115 -0.209473,-0.005 -0.06202,-0.0153 -0.17031,-0.0825 -0.107405,-0.16863 0.0305,-0.0418 0.08441,-0.0598 0.127452,-0.0885 0.612659,-0.4085 -0.318677,0.22221 0.349462,-0.23178 0.406924,-0.25873 0.820271,-0.50612 1.233548,-0.75451 0.466106,-0.31076 0.945777,-0.5996 1.438971,-0.86608 0.08696,-0.0451 0.160594,-0.0859 0.251537,-0.12293 0.166547,-0.0678 0.345029,-0.0959 0.522856,-0.11468 0.399185,-0.0153 0.797705,-0.0448 1.193649,-0.0993 0.471707,-0.0589 0.945766,-0.0935 1.42159,-0.0805 0.265904,0.0128 0.543679,0.0206 0.733399,0.23384 0.0177,0.0351 0.03885,0.0687 0.05306,0.10535 0.06848,0.17665 0.08928,0.45172 0.07279,0.63819 -0.0053,0.0599 -0.0213,0.11839 -0.03193,0.17759 -0.03389,0.13537 -0.06287,0.26791 -0.113694,0.39862 -0.119777,0.30806 -0.303765,0.5946 -0.506957,0.85286 -0.150966,0.17369 -0.212095,0.25238 -0.380193,0.41172 -0.431903,0.40939 -0.952823,0.70074 -1.472957,0.98228 -0.411681,0.20039 -0.831654,0.38624 -1.261493,0.54434 -0.06572,0.0195 -0.130395,0.0429 -0.197163,0.0583 -0.273084,0.0633 -0.560411,0.0518 -0.819422,-0.0584 -0.07846,-0.0619 -0.11172,-0.0712 -0.150244,-0.16732 -0.06883,-0.17173 -0.01066,-0.37171 -0.02863,-0.5495 5.3e-4,-0.27471 0.0011,-0.54944 -0.0011,-0.82414 -0.01117,-0.27159 -0.02207,-0.54663 -0.14474,-0.79543 -0.167826,-0.34906 -0.382802,-0.67082 -0.580192,-1.00344 -0.07053,-0.11168 -0.179694,-0.35048 -0.337145,-0.36137 -0.02053,-10e-4 -0.04092,0.004 -0.06138,0.006 -0.248304,0.0619 -0.489622,0.2531 0.369985,-0.25699 0.03137,-0.0186 -0.06439,0.0345 -0.09478,0.0547 -0.107267,0.0712 -0.125288,0.0965 -0.223395,0.18844 -0.285094,0.30425 -0.53454,0.63701 -0.752954,0.99233 -0.03228,0.0435 -0.06139,0.0896 -0.09685,0.13058 -0.025,0.0289 -0.05563,0.0524 -0.08382,0.0782 -0.251634,0.23029 -0.561295,0.37991 -0.862309,0.53905 0.175467,-0.10196 0.350931,-0.20392 0.5264,-0.30588 0.027,-0.0157 -0.05394,0.0315 -0.081,0.0471 -0.227832,0.13119 -0.45498,0.26358 -0.683686,0.39325 -0.03891,0.0221 -0.157064,0.0854 -0.119057,0.0619 0.144516,-0.0896 0.29328,-0.17225 0.438825,-0.2602 0.0556,-0.0336 -0.112641,0.0648 -0.168963,0.0971 -0.41451,0.26415 -0.813689,0.56138 -1.137322,0.93449 -0.0285,0.0428 -0.05758,0.0853 -0.08548,0.12849 -0.01545,0.0239 -0.03422,0.0464 -0.04455,0.0729 -0.01439,0.037 0.03969,0.018 0.111925,-0.0107 0.151939,-0.0603 0.687972,-0.39434 -0.352555,0.22055 0.03658,-0.0239 0.07489,-0.0454 0.109738,-0.0718 0.178197,-0.13488 0.296223,-0.32401 0.37868,-0.52868 0.01214,-0.0384 0.02911,-0.0755 0.03645,-0.11509 0.0065,-0.0352 0.0041,-0.0715 0.0048,-0.10736 0.003,-0.13808 -0.01111,-0.27671 -0.05891,-0.40715 -0.01307,-0.0249 -0.02291,-0.0518 -0.03925,-0.0746 -0.09758,-0.13649 -0.272503,-0.13662 -0.42322,-0.1409 -0.229738,0.0127 -0.455787,0.0536 -0.660961,0.16325 -0.181647,0.0969 -0.365995,0.18891 -0.548553,0.28411 1.082821,-0.63738 0.08158,-0.0639 -0.125322,0.11947 -0.179777,0.18566 -0.296807,0.27099 -0.2462,0.54274 0.03867,0.14846 0.07768,0.11001 0.216707,0.0857 0.212672,-0.0582 0.413366,-0.15057 0.618416,-0.23042 0.300159,-0.13714 0.164279,-0.0808 -0.321575,0.20843 -0.0343,0.0204 0.06994,-0.0386 0.103672,-0.06 0.07652,-0.0484 0.155501,-0.0892 0.18764,-0.17729 0.04896,-0.15483 0.02595,-0.31966 0.01191,-0.4791 -0.02703,-0.1609 -0.08327,-0.30228 -0.199141,-0.42158 -0.154128,-0.17613 -0.348097,-0.30575 -0.538793,-0.43917 -0.307281,-0.21498 -0.6117,-0.43366 -0.909711,-0.66131 -0.404112,-0.3002 -0.790713,-0.62435 -1.209162,-0.90512 -0.13349,-0.0867 -0.167235,-0.10595 -0.284398,-0.19016 -0.02397,-0.0172 -0.09253,-0.0333 -0.07076,-0.0532 0.543406,-0.49754 0.37502,-0.48362 0.669332,-0.34606 0.195575,0.0747 0.403894,0.1215 0.57482,0.24904 0.192178,0.12347 0.371486,0.25983 0.500997,0.45197 0.117951,0.19239 0.200538,0.32431 0.144452,0.55725 -0.201999,0.24572 0.06048,-0.0632 -0.681128,0.42828 -0.17204,0.11401 0.356582,-0.20792 0.535316,-0.31113 0.02201,-0.0127 -0.04338,0.0265 -0.06516,0.0397 -0.106556,0.0642 -0.04163,0.022 -0.151403,0.0975 -0.202761,0.15054 -0.416578,0.28573 -0.618318,0.43782 -0.08418,0.0641 -0.199596,0.15712 -0.291859,0.20937 -0.01926,0.0109 -0.548513,0.5772 -0.726739,0.3188 -0.0059,-0.009 -7.94e-4,-0.0208 -0.0011,-0.0311 0.06259,-0.11127 0.121173,-0.22765 0.116562,-0.35892 -0.0011,-0.008 5.29e-4,-0.0565 -0.02019,-0.0631 -0.01159,-0.004 -0.04657,0.01 -0.03629,0.004 0.177044,-0.11137 0.360556,-0.21213 0.539634,-0.3202 0.02363,-0.0143 -0.04983,0.024 -0.07316,0.0387 -0.02674,0.0169 -0.05111,0.0372 -0.07666,0.0559 -0.0227,0.0209 -0.04773,0.0396 -0.06814,0.0628 -0.110156,0.12515 -0.133114,0.30682 -0.170696,0.46193 -0.03794,0.1625 -0.07569,0.32207 -0.183427,0.45481 0,0 -0.64443,0.2738 -0.64443,0.2738 z"
       inkscape:connector-curvature="0" />
  </g>
</svg>
