<?xml version="1.0" encoding="UTF-8" standalone="no"?>
<!-- Created with Inkscape (http://www.inkscape.org/) -->

<svg
   xmlns:osb="http://www.openswatchbook.org/uri/2009/osb"
   xmlns:dc="http://purl.org/dc/elements/1.1/"
   xmlns:cc="http://creativecommons.org/ns#"
   xmlns:rdf="http://www.w3.org/1999/02/22-rdf-syntax-ns#"
   xmlns:svg="http://www.w3.org/2000/svg"
   xmlns="http://www.w3.org/2000/svg"
   xmlns:xlink="http://www.w3.org/1999/xlink"
   xmlns:sodipodi="http://sodipodi.sourceforge.net/DTD/sodipodi-0.dtd"
   xmlns:inkscape="http://www.inkscape.org/namespaces/inkscape"
   width="210mm"
   height="297mm"
   viewBox="0 0 210 297"
   version="1.1"
   id="svg5078"
   inkscape:version="0.92.0 r15299"
   sodipodi:docname="Fernrohr_Icon1.svg"
   inkscape:export-filename="C:\Users\Florian\Desktop\fernrohr.png"
   inkscape:export-xdpi="96"
   inkscape:export-ydpi="96">
  <defs
     id="defs5072">
    <linearGradient
       inkscape:collect="always"
       id="linearGradient6541">
      <stop
         style="stop-color:#ff9955;stop-opacity:1;"
         offset="0"
         id="stop6537" />
      <stop
         style="stop-color:#ff9955;stop-opacity:0;"
         offset="1"
         id="stop6539" />
    </linearGradient>
    <linearGradient
       inkscape:collect="always"
       id="linearGradient6533">
      <stop
         style="stop-color:#ff9955;stop-opacity:1;"
         offset="0"
         id="stop6529" />
      <stop
         style="stop-color:#ff9955;stop-opacity:0;"
         offset="1"
         id="stop6531" />
    </linearGradient>
    <linearGradient
       inkscape:collect="always"
       id="linearGradient6525">
      <stop
         style="stop-color:#ff9955;stop-opacity:1;"
         offset="0"
         id="stop6521" />
      <stop
         style="stop-color:#ff9955;stop-opacity:0;"
         offset="1"
         id="stop6523" />
    </linearGradient>
    <linearGradient
       inkscape:collect="always"
       id="linearGradient6517">
      <stop
         style="stop-color:#ff9955;stop-opacity:1;"
         offset="0"
         id="stop6513" />
      <stop
         style="stop-color:#ff9955;stop-opacity:0;"
         offset="1"
         id="stop6515" />
    </linearGradient>
    <linearGradient
       id="linearGradient5967"
       osb:paint="solid">
      <stop
         style="stop-color:#803300;stop-opacity:0.72549021;"
         offset="0"
         id="stop5965" />
    </linearGradient>
    <linearGradient
       inkscape:collect="always"
       xlink:href="#linearGradient6517"
       id="linearGradient6519"
       x1="85.85308"
       y1="32.611405"
       x2="130.16907"
       y2="32.611405"
       gradientUnits="userSpaceOnUse"
       gradientTransform="rotate(-12.226332,75.996464,111.04726)" />
    <linearGradient
       inkscape:collect="always"
       xlink:href="#linearGradient6525"
       id="linearGradient6527"
       x1="61.108999"
       y1="42.348983"
       x2="97.467254"
       y2="42.348983"
       gradientUnits="userSpaceOnUse"
       gradientTransform="rotate(-12.226332,75.996464,111.04726)" />
    <linearGradient
       inkscape:collect="always"
       xlink:href="#linearGradient6533"
       id="linearGradient6535"
       x1="36.998407"
       y1="51.782588"
       x2="69.02261"
       y2="51.782588"
       gradientUnits="userSpaceOnUse"
       gradientTransform="rotate(-12.226332,75.996464,111.04726)" />
    <linearGradient
       inkscape:collect="always"
       xlink:href="#linearGradient6541"
       id="linearGradient6543"
       x1="22.77017"
       y1="60.324242"
       x2="41.189381"
       y2="60.324242"
       gradientUnits="userSpaceOnUse"
       gradientTransform="rotate(-12.226332,75.996464,111.04726)" />
  </defs>
  <sodipodi:namedview
     id="base"
     pagecolor="#ffffff"
     bordercolor="#666666"
     borderopacity="1.0"
     inkscape:pageopacity="0.0"
     inkscape:pageshadow="2"
     inkscape:zoom="1.4"
     inkscape:cx="139.14643"
     inkscape:cy="938.71505"
     inkscape:document-units="mm"
     inkscape:current-layer="layer1"
     showgrid="false"
     inkscape:window-width="1920"
     inkscape:window-height="1001"
     inkscape:window-x="-9"
     inkscape:window-y="-9"
     inkscape:window-maximized="1" />
  <metadata
     id="metadata5075">
    <rdf:RDF>
      <cc:Work
         rdf:about="">
        <dc:format>image/svg+xml</dc:format>
        <dc:type
           rdf:resource="http://purl.org/dc/dcmitype/StillImage" />
        <dc:title />
      </cc:Work>
    </rdf:RDF>
  </metadata>
  <g
     inkscape:label="Ebene 1"
     inkscape:groupmode="layer"
     id="layer1">
    <path
       style="fill:none;stroke:#000000;stroke-width:0.2801345px;stroke-linecap:butt;stroke-linejoin:miter;stroke-opacity:1"
       d="m 114.82066,32.352008 -2.10992,-5.072066 C 108.85277,21.663505 104.14162,16.065491 96.93997,12.068558 L 90.988637,9.5748018 Z"
       id="path5627"
       inkscape:connector-curvature="0"
       sodipodi:nodetypes="ccccc" />
    <path
       style="fill:#cccccc;fill-opacity:1;stroke:#040000;stroke-width:0.11684351;stroke-miterlimit:4;stroke-dasharray:none;stroke-dashoffset:0;stroke-opacity:0.98777508"
       d="M 106.29772,23.921291 C 101.97769,19.810612 97.018342,15.05194 95.276858,13.34653 l -3.166255,-3.1008 2.35959,0.988996 c 2.286246,0.958264 3.164664,1.407083 4.65455,2.37825 4.510397,2.939982 8.391397,6.796858 12.330497,12.253808 0.95734,1.32621 1.09331,1.576582 1.87,3.443309 0.46065,1.107198 0.83521,2.0293 0.83234,2.049109 -0.003,0.01966 -3.53982,-3.327246 -7.85985,-7.437923 z"
       id="path7163"
       inkscape:connector-curvature="0" />
    <path
       style="fill:#f2f2f2;fill-opacity:1;stroke:#040000;stroke-width:0.08778619;stroke-miterlimit:4;stroke-dasharray:none;stroke-dashoffset:0;stroke-opacity:0.98777508"
       d="M 15.998008,77.865305 C 14.959424,77.396435 14.87887,77.342226 14.345039,76.752848 13.656507,75.99268 13.350907,75.32083 13.158108,74.143363 l -0.138494,-0.845774 2.28469,2.402023 c 1.134455,1.382479 2.199931,2.30971 2.18474,2.318915 -0.01514,0.0094 -0.890531,0.117865 -1.491023,-0.153235 z"
       id="path7167"
       inkscape:connector-curvature="0"
       sodipodi:nodetypes="cscccccc" />
    <path
       style="fill:none;stroke:#000000;stroke-width:0.2801345px;stroke-linecap:butt;stroke-linejoin:miter;stroke-opacity:1"
       d="M 114.82066,32.352008 84.928541,46.711215 67.650728,27.352849 90.988637,9.5748018 Z"
       id="path4963"
       inkscape:connector-curvature="0"
       sodipodi:nodetypes="ccccc" />
    <path
       sodipodi:nodetypes="ccccc"
       inkscape:connector-curvature="0"
       id="path4965"
       d="M 84.264901,45.982857 58.290684,58.418579 46.157172,45.400514 68.447395,28.449286 Z"
       style="fill:none;stroke:#000000;stroke-width:0.2801345px;stroke-linecap:butt;stroke-linejoin:miter;stroke-opacity:1" />
    <path
       style="fill:none;stroke:#000000;stroke-width:0.2801345px;stroke-linecap:butt;stroke-linejoin:miter;stroke-opacity:1"
       d="M 25.384721,63.251462 46.749049,46.133004 c 6.716482,7.082239 7.217453,7.65515 10.919518,11.599154 L 32.275852,70.395496 Z"
       id="path4967"
       inkscape:connector-curvature="0"
       sodipodi:nodetypes="ccccc" />
    <path
       sodipodi:nodetypes="ccccc"
       inkscape:connector-curvature="0"
       id="path4969"
       d="m 31.86549,70.00708 -14.376447,8.011448 c -6.716486,-7.082238 6.427568,6.714369 -4.470067,-4.720493 l 12.976741,-9.488048 z"
       style="fill:none;stroke:#000000;stroke-width:0.2801345px;stroke-linecap:butt;stroke-linejoin:miter;stroke-opacity:1" />
    <path
       style="fill:url(#linearGradient6519);fill-opacity:1;stroke:none;stroke-width:0.60374707;stroke-miterlimit:4;stroke-dasharray:none;stroke-dashoffset:0;stroke-opacity:1"
       d="m 99.421716,39.554392 c -7.878146,3.777822 -14.358183,6.864352 -14.400069,6.85898 -0.0419,-0.0054 -3.90033,-4.293043 -8.574305,-9.528166 l -8.498127,-9.518395 11.435012,-8.709378 c 6.28927,-4.790164 11.505471,-8.7006623 11.591582,-8.6900044 0.08607,0.010649 5.229181,4.8865484 11.429041,10.8353094 6.19989,5.948754 11.44922,10.961906 11.6652,11.140324 0.36759,0.30365 0.36977,0.337751 0.0341,0.533486 -0.19721,0.114973 -6.80433,3.300039 -14.682463,7.077839 z"
       id="path4971"
       inkscape:connector-curvature="0" />
    <path
       style="fill:url(#linearGradient6527);fill-opacity:1;stroke:none;stroke-width:0.60374707;stroke-miterlimit:4;stroke-dasharray:none;stroke-dashoffset:0;stroke-opacity:1"
       d="m 83.194008,46.289346 c -0.0891,0.0275 -5.710901,2.714263 -12.49303,5.969566 l -12.33113,5.918748 -5.922773,-6.347839 c -3.257533,-3.491306 -5.915443,-6.380541 -5.906477,-6.420527 0.009,-0.04002 4.195417,-3.250261 9.303211,-7.133966 5.107812,-3.883712 9.998369,-7.603941 10.867926,-8.267177 0.869556,-0.663237 1.620265,-1.20612 1.668232,-1.206408 0.04803,-2.78e-4 3.31508,3.576124 7.260252,7.947578 3.945163,4.371459 7.431167,8.214365 7.746682,8.539798 0.536501,0.553385 0.55406,0.603299 0.271309,0.770562 -0.166275,0.09834 -0.375181,0.201719 -0.464222,0.22967 z"
       id="path4973"
       inkscape:connector-curvature="0" />
    <path
       style="fill:url(#linearGradient6535);fill-opacity:1;stroke:none;stroke-width:0.60374707;stroke-miterlimit:4;stroke-dasharray:none;stroke-dashoffset:0;stroke-opacity:1"
       d="m 44.430485,64.145809 -12.165451,6.059924 -3.261013,-3.47322 c -1.793552,-1.91029 -3.263786,-3.476107 -3.267171,-3.479631 -0.01625,-0.01684 20.937663,-16.819203 20.980627,-16.823694 0.02722,-0.0029 2.418684,2.527625 5.314427,5.623255 l 5.264961,5.628429 -0.350462,0.202512 c -0.192761,0.111347 -5.824912,2.929469 -12.515921,6.262416 z"
       id="path4975"
       inkscape:connector-curvature="0" />
    <path
       style="fill:url(#linearGradient6543);fill-opacity:1;stroke:none;stroke-width:0.60374707;stroke-miterlimit:4;stroke-dasharray:none;stroke-dashoffset:0;stroke-opacity:1"
       d="m 24.147406,74.102141 c -3.556407,1.968298 -6.48383,3.58504 -6.505382,3.59277 -0.02154,0.0077 -0.995635,-0.981657 -2.164628,-2.198627 l -2.125444,-2.212662 5.984696,-4.354182 c 3.291584,-2.394799 6.098583,-4.457738 6.237778,-4.584296 l 0.253082,-0.230105 2.830764,2.946928 2.830765,2.946938 -0.437713,0.257271 c -0.24074,0.141492 -3.347509,1.867677 -6.903913,3.835974 z"
       id="path4977"
       inkscape:connector-curvature="0" />
  </g>
</svg>
