<?xml version="1.0" encoding="UTF-8" standalone="no"?>
<!-- Created with Inkscape (http://www.inkscape.org/) -->

<svg
   xmlns:dc="http://purl.org/dc/elements/1.1/"
   xmlns:cc="http://creativecommons.org/ns#"
   xmlns:rdf="http://www.w3.org/1999/02/22-rdf-syntax-ns#"
   xmlns:svg="http://www.w3.org/2000/svg"
   xmlns="http://www.w3.org/2000/svg"
   xmlns:sodipodi="http://sodipodi.sourceforge.net/DTD/sodipodi-0.dtd"
   xmlns:inkscape="http://www.inkscape.org/namespaces/inkscape"
   width="210mm"
   height="297mm"
   viewBox="0 0 210 297"
   version="1.1"
   id="svg8"
   inkscape:version="0.92.0 r15299"
   sodipodi:docname="FEUER!!!!!1.svg"
   inkscape:export-filename="C:\Users\Florian\Desktop\Lernspiel\Feuer_Icon.png"
   inkscape:export-xdpi="96"
   inkscape:export-ydpi="96">
  <defs
     id="defs2" />
  <sodipodi:namedview
     id="base"
     pagecolor="#ffffff"
     bordercolor="#666666"
     borderopacity="1.0"
     inkscape:pageopacity="0.0"
     inkscape:pageshadow="2"
     inkscape:zoom="1.4"
     inkscape:cx="378.43745"
     inkscape:cy="625.16472"
     inkscape:document-units="mm"
     inkscape:current-layer="layer1"
     showgrid="false"
     inkscape:window-width="1920"
     inkscape:window-height="1001"
     inkscape:window-x="-9"
     inkscape:window-y="-9"
     inkscape:window-maximized="1" />
  <metadata
     id="metadata5">
    <rdf:RDF>
      <cc:Work
         rdf:about="">
        <dc:format>image/svg+xml</dc:format>
        <dc:type
           rdf:resource="http://purl.org/dc/dcmitype/StillImage" />
        <dc:title />
      </cc:Work>
    </rdf:RDF>
  </metadata>
  <g
     inkscape:label="Ebene 1"
     inkscape:groupmode="layer"
     id="layer1">
    <g
       id="g4528"
       transform="matrix(0.95744226,0,0,0.84987177,3.5036167,13.193517)">
      <path
         sodipodi:nodetypes="cccccccccccc"
         inkscape:connector-curvature="0"
         id="path4509"
         d="m 91.070802,158.52188 c -14.385097,-19.41513 -6.23598,-37.72011 1.133928,-48.75894 1.334852,6.36039 -7.232136,24.50869 4.15774,18.89881 11.97265,-8.47985 -9.068178,-24.58679 2.834822,-49.892881 2.195778,8.632516 -1.24056,19.629377 9.047798,23.316431 0.96926,0.75647 20.75208,-4.162844 11.55192,-56.767322 25.08897,18.039827 13.46958,38.903375 14.74106,58.775322 2.53751,-6.785904 7.14471,-12.44705 13.41815,-15.497018 -12.13792,72.098938 5.48064,41.766368 5.48064,41.766368 3.76747,-4.21488 2.29298,-17.35832 1.13396,-23.81251 8.83084,4.00013 8.54153,46.32344 2.64584,51.02679 -28.55828,30.15529 -45.02705,21.14292 -66.145858,0.94495 z"
         style="fill:none;stroke:#7e0000;stroke-width:0.86500001;stroke-linecap:butt;stroke-linejoin:miter;stroke-miterlimit:4;stroke-dasharray:none;stroke-opacity:1" />
      <path
         inkscape:connector-curvature="0"
         id="path4528"
         d="m 145.1087,167.74735 c 3.14571,-4.18903 7.78384,-13.70761 10.67392,-21.90551 2.98559,-8.4688 3.8841,-14.41995 2.41348,-15.98535 -0.42422,-0.45157 -0.58338,-0.39504 -0.60627,0.21535 -0.0665,1.77322 -2.37561,4.65729 -8.75723,10.93763 -2.66651,2.6242 -2.40379,2.52649 -3.54594,1.31883 -4.38314,-4.63452 -6.13606,-15.36512 -4.83993,-29.62788 0.27069,-2.97869 1.05755,-8.96901 1.40868,-10.72419 0.10094,-0.50453 -0.0745,-0.47164 -1.12703,0.21131 -3.12842,2.02995 -8.50767,7.57855 -10.84099,11.18229 l -0.56161,0.86739 0.0861,-1.40316 c 0.12964,-2.11161 0.39523,-4.01578 1.26745,-9.08717 0.91757,-5.335 1.25641,-7.653885 1.47898,-10.12146 0.21038,-2.332395 0.10031,-7.307474 -0.19669,-8.889656 -0.68137,-3.629888 -2.11287,-6.603926 -4.21688,-8.76083 -0.80482,-0.825061 -2.13953,-1.940513 -2.22257,-1.857471 -0.0256,0.02561 0.0716,0.851506 0.21596,1.835317 1.55686,10.60758 -0.584,20.024635 -6.27191,27.58832 -1.22953,1.63501 -3.69086,4.13048 -5.20256,5.27472 -1.38902,1.05137 -2.79274,1.88007 -3.18464,1.88007 -0.3985,0 -2.32015,-1.00141 -3.31505,-1.72754 -2.64515,-1.93056 -5.40304,-5.83671 -6.30468,-8.92965 -0.44869,-1.539168 -0.57365,-1.037828 -0.57452,2.30502 -8e-4,2.48231 0.21171,6.17509 0.59714,10.38349 0.79136,8.6407 0.51883,12.75624 -1.0557,15.94256 -1.188374,2.40487 -3.897882,4.34313 -6.071305,4.34313 -2.642917,0 -5.036709,-3.53595 -6.514711,-9.62309 -0.216588,-0.89201 -0.417896,-1.45969 -0.507484,-1.43106 -0.298074,0.0952 -1.042828,1.85629 -1.296193,3.065 -0.346741,1.65417 -0.464333,4.77022 -0.26871,7.12052 0.988285,11.8737 6.148455,24.9346 12.860815,32.552 0.530997,0.6026 0.897414,1.07193 0.814258,1.04297 -0.216795,-0.0755 -4.464442,-3.81815 -6.512367,-5.73812 -1.832187,-1.71772 -2.666455,-2.78925 -4.284173,-5.50257 -2.554666,-4.28482 -4.198715,-8.74191 -4.94303,-13.40075 -0.294153,-1.84117 -0.404254,-6.56529 -0.199654,-8.56662 0.53088,-5.1929 2.059934,-10.21354 4.737168,-15.55446 0.959916,-1.91497 2.708166,-4.98018 3.538659,-6.20432 l 0.265409,-0.39121 0.09069,0.36132 c 0.185801,0.74029 -0.138285,3.34711 -1.007645,8.1051 -0.798229,4.36869 -0.988105,5.96017 -0.908452,7.61434 0.135525,2.81444 1.325512,3.85643 3.75593,3.28883 2.810012,-0.65626 5.031388,-2.65721 5.935988,-5.34696 0.337387,-1.00322 0.362807,-1.23516 0.359987,-3.28442 -0.004,-2.64939 -0.19019,-3.62973 -1.787367,-9.3936 -2.254186,-8.13486 -2.823384,-11.48317 -2.821646,-16.598362 0.0013,-3.781028 0.418872,-6.796177 1.405022,-10.144844 0.770827,-2.617483 1.903341,-5.523341 2.07863,-5.333445 0.24688,0.267452 0.557858,3.006847 0.869641,7.660656 0.11572,1.727229 0.29941,3.741775 0.40819,4.476766 0.76164,5.145995 2.64272,8.039425 6.4431,9.910619 1.12991,0.55633 1.31032,0.6061 2.01298,0.55528 1.56005,-0.11285 3.84586,-1.50559 5.69217,-3.468233 3.9658,-4.215662 6.51694,-11.238897 7.49313,-20.628412 0.29375,-2.825467 0.40275,-9.773388 0.20964,-13.363477 -0.28686,-5.33314 -0.89709,-10.971895 -1.76197,-16.281175 -0.22549,-1.384236 -0.38322,-2.543556 -0.35051,-2.576266 0.0753,-0.07532 1.0363,0.646345 2.72079,2.043231 1.55128,1.286415 4.34461,4.075563 5.59727,5.588889 2.68334,3.241707 4.95598,7.566282 6.06866,11.547962 0.92637,3.314994 1.21228,5.485413 1.30419,9.900417 0.0842,4.044969 -0.0298,6.124401 -0.70702,12.895757 -0.69752,6.974327 -0.84989,9.28378 -0.853,12.929157 -0.002,2.90446 0.0225,3.30747 0.20504,3.30747 0.1253,0 0.3216,-0.27867 0.49421,-0.70159 0.6132,-1.5024 2.12289,-4.371028 2.95508,-5.615067 1.75835,-2.62855 3.86754,-4.890457 6.17505,-6.622166 1.40468,-1.054171 3.36017,-2.243934 3.48422,-2.119884 0.0384,0.03839 -0.17557,1.563063 -0.47547,3.388164 -1.51689,9.231463 -2.69238,18.369303 -3.28914,25.568553 -0.29527,3.56211 -0.40117,9.55037 -0.20915,11.82668 0.42138,4.99531 1.62034,7.28425 3.64589,6.96035 0.92355,-0.14768 1.60433,-0.60389 2.98206,-1.99836 1.42387,-1.44118 3.65658,-4.53123 4.36536,-6.04162 0.96882,-2.06452 1.36825,-4.78502 1.36207,-9.27707 -0.005,-3.5026 -0.22285,-6.32668 -0.78843,-10.21229 -0.18101,-1.24357 -0.31089,-2.27924 -0.28863,-2.30151 0.10976,-0.10976 1.09773,0.87079 1.63262,1.62037 2.26024,3.16745 3.81706,9.73725 4.4972,18.97834 0.24059,3.26884 0.19912,11.65752 -0.0735,14.86305 -0.60466,7.11035 -1.61326,11.67218 -3.0958,14.00205 -0.54988,0.86418 -6.24262,6.46717 -8.75958,8.6215 -1.95196,1.67072 -4.70551,3.87336 -4.84216,3.87336 -0.04,0 0.33729,-0.54599 0.8384,-1.21331 z"
         style="fill:#aa0000;fill-opacity:1;stroke:none;stroke-width:0.17526147;stroke-miterlimit:4;stroke-dasharray:0.35052293, 0.17526146;stroke-dashoffset:0;stroke-opacity:1" />
      <path
         sodipodi:nodetypes="cssscccssscccsssscsccsccscsscccsscsccccccccccccsccsccccccscscccccsscccc"
         inkscape:connector-curvature="0"
         id="path4542"
         d="m 116.98921,175.64453 c -4.06669,0.30867 -15.26174,-6.20007 -18.817375,-10.10595 -3.531629,-3.87951 -5.701732,-8.12028 -8.38707,-13.58134 -3.731134,-7.58787 -5.264242,-20.58032 -3.845915,-26.58151 0.493011,-2.08601 1.459114,-3.71532 1.653137,-3.06886 2.60958,6.63735 2.930441,8.98492 4.922852,10.10129 1.436603,0.80374 1.862314,0.91221 3.81795,-0.0109 2.877277,-1.35818 4.073481,-3.24872 4.790951,-7.17876 0.50709,-2.77762 0.23598,-6.08743 -0.38736,-13.53703 -0.29208,-3.49069 -0.58335,-7.47733 -0.48761,-8.81077 l 0.84526,-3.599964 1.26185,3.019024 c 0.82872,1.81779 2.52816,3.88338 4.06405,5.35964 1.51316,1.45442 3.15841,2.6539 4.08167,2.6539 1.04076,0 3.70668,-1.65236 6.17522,-4.23124 4.43883,-4.63725 7.15099,-10.049807 8.48955,-16.942275 0.50952,-2.623617 1.02422,-8.641466 0.67386,-12.52434 l -0.20714,-2.295617 2.17846,1.867513 c 2.99212,2.565041 3.8758,4.336422 3.99969,7.030292 0.40918,1.436646 0.35566,2.477303 0.33555,7.06848 -0.0232,5.298389 -0.0442,5.677226 -1.23264,12.526367 -1.26166,7.27136 -2.02184,11.46359 -1.58837,11.43477 0.13106,-0.009 0.25272,-0.18717 0.9237,-1.25537 1.33067,-2.11841 8.67598,-10.00276 10.26266,-10.8831 0.88823,-0.49282 1.57408,-0.426 1.42195,0.0668 -0.27416,0.88813 -1.31611,9.22018 -1.58558,12.97706 -0.90425,12.60665 0.82072,22.8229 4.77958,27.08713 1.60431,1.72805 0.67429,1.70055 4.6632,-2.09259 3.57317,-3.87704 5.32576,-6.03247 6.87872,-7.97173 0.57064,-1.22698 0.94499,-3.03978 1.1267,-2.59599 1.14172,0.72136 1.22843,5.61859 0.63145,8.07686 -2.09224,8.61556 -9.03944,24.14393 -13.73626,30.45627 -1.43898,1.93394 -3.52651,3.4255 -7.90695,5.64961 -2.44554,1.50156 -8.36371,3.20195 -9.66737,2.88027 -0.22618,-0.0558 2.3383,-0.83789 3.26394,-1.45365 0.47507,-0.76596 2.4328,-1.92607 3.96031,-2.93949 1.93592,-1.85473 2.1842,-2.21084 2.56163,-3.67422 0.9429,-3.65591 0.77108,-10.80274 -0.34574,-14.3803 -0.39037,-1.2505 -1.51078,-2.78879 -1.80467,-2.47779 -0.059,0.0625 -0.006,0.72126 0.11832,1.46396 0.31715,1.89778 0.30593,4.94859 -0.0226,6.12673 -0.15263,0.54744 -0.81371,1.58047 -1.46906,2.29562 -1.14824,1.253 -1.20953,1.28267 -1.68648,0.81614 -0.4371,-0.42755 -0.49216,-0.94831 -0.47117,-4.4562 0.0208,-3.46939 0.80437,-10.65418 1.37057,-12.56643 0.13766,-0.46494 0.0995,-0.46839 -0.68842,-0.0625 -1.35567,0.69838 -2.71093,2.04861 -3.58327,3.50443 l -0.80172,1.37138 0.21291,-2.70072 c 0.11709,-1.4854 0.2129,-4.53042 0.2129,-6.76672 v -4.06599 l -1.00441,-2.02364 c -0.71066,-1.43183 -1.51647,-2.51349 -2.75535,-3.6986 -1.85763,-1.77699 -2.49508,-2.07882 -2.2541,-1.06728 0.91291,3.83188 0.91078,12.44572 -0.004,15.08261 -1.16295,3.35329 -3.04752,5.41085 -4.45883,4.86814 -1.57771,-0.6067 -2.25709,-2.10122 -2.5423,-5.59258 -0.24367,-2.98281 -0.47221,-3.22131 -1.23814,-1.29208 -0.95016,2.39328 -0.9079,6.8234 0.0998,10.45429 0.989,3.56372 0.97702,4.84267 -0.055,5.87078 -0.92595,0.92242 -2.06875,1.05435 -2.31936,0.26775 -0.0914,-0.28693 0.022,-1.5934 0.25197,-2.90328 0.23,-1.30987 0.41451,-2.74619 0.41002,-3.19181 l -0.008,-0.81021 -0.57236,0.67518 c -0.96865,1.14264 -2.37464,4.37199 -2.82616,6.49124 -0.74688,3.50556 -0.0826,6.98139 1.9398,10.15027 0.91937,1.44054 4.403,4.76641 6.73967,6.21614 -5.69841,-1.73269 0.78246,0.22914 -0.35925,-0.5191 z"
         style="fill:#ff6600;fill-opacity:1;stroke:#ff4f00;stroke-width:0.704;stroke-miterlimit:4;stroke-dasharray:none;stroke-dashoffset:0;stroke-opacity:1" />
      <path
         sodipodi:nodetypes="cssssssscsssccccscsssscccsscscssscc"
         inkscape:connector-curvature="0"
         id="path4544"
         d="m 119.23489,176.68778 c -3.02643,-0.35125 -3.37408,-1.60713 -6.48359,-4.24257 -3.88816,-3.29535 -4.83302,-8.12196 -3.70773,-12.91311 0.40412,-1.72064 2.51051,-6.56719 2.75946,-6.31824 0.0711,0.0711 -0.12746,1.65885 -0.35958,3.22209 -0.46996,3.16503 -0.32001,3.89796 0.79751,3.89796 0.36,0 1.02909,-0.33465 1.48685,-0.74366 1.1214,-1.00197 1.27236,-2.44538 0.55118,-5.26991 -1.18701,-4.64891 -1.12892,-9.96052 -0.0685,-11.98431 0.32976,-0.62937 0.22844,-0.0381 0.52662,2.38828 0.48118,3.91541 1.77316,5.81363 3.63832,5.34551 1.63988,-0.41159 3.65593,-3.6794 4.15677,-6.73772 0.33504,-2.04585 0.32498,-9.07405 -0.0164,-11.43555 -0.1466,-1.01422 -0.39398,-2.16683 -0.30473,-2.25509 0.31855,-0.31504 3.7932,3.72158 4.6219,5.36323 l 0.844,1.67195 -0.13239,6.88415 c -0.0728,3.78628 -0.0592,6.87662 0.0302,6.86743 0.0894,-0.009 0.6437,-0.75381 1.2317,-1.65471 1.03715,-1.58907 3.23368,-3.66979 3.53908,-3.36439 0.0828,0.0828 -0.36171,1.68027 -0.59986,3.20288 -0.23815,1.52261 -0.50103,5.1738 -0.58417,8.11377 -0.14948,5.28598 -0.14453,5.35133 0.4459,5.87993 l 0.59705,0.53454 1.30031,-1.41369 c 1.66621,-1.81148 1.95045,-2.85552 1.77988,-6.53758 -0.0732,-1.58023 -0.35713,-3.27405 -0.30429,-3.27405 0.25329,0 1.41246,2.56574 1.69874,3.87541 0.55574,2.5424 0.66231,8.64881 0.19733,11.30677 -0.46802,2.67532 -1.10857,3.73661 -3.07582,5.09613 -0.66533,0.45979 -1.70038,1.22795 -2.30011,1.70703 -0.59974,0.47908 -1.43903,1.2663 -2.33159,1.84963 -1.37262,0.89707 -2.07346,1.48173 -5.07308,1.33761 -1.3722,-0.0659 -2.16079,0.2187 -3.77518,-0.24939 z"
         style="fill:#ffd42a;fill-opacity:1;stroke:#ffa900;stroke-width:0.47982246;stroke-miterlimit:4;stroke-dasharray:none;stroke-dashoffset:0;stroke-opacity:1" />
    </g>
    <g
       id="g4523"
       transform="matrix(0.82277859,0,0,0.77751883,19.572001,26.282224)">
      <path
         inkscape:connector-curvature="0"
         id="path4500"
         d="m 117.19746,176.24007 -1.57167,36.98043"
         style="fill:#5f502b;fill-opacity:1;stroke:#4e362b;stroke-width:0.26458332px;stroke-linecap:butt;stroke-linejoin:miter;stroke-opacity:1"
         sodipodi:nodetypes="cc" />
      <path
         inkscape:connector-curvature="0"
         id="path4502"
         d="m 130.21616,176.65529 2.18416,36.5622"
         style="fill:#5f502b;fill-opacity:1;stroke:#4e362b;stroke-width:0.26458332px;stroke-linecap:butt;stroke-linejoin:miter;stroke-opacity:1" />
      <ellipse
         ry="6.5360947"
         rx="8.4403896"
         cy="213.353"
         cx="123.988"
         id="path4504"
         style="fill:#8b5a2b;fill-opacity:1;stroke:#8b4513;stroke-width:0.14431347;stroke-miterlimit:4;stroke-dasharray:none;stroke-dashoffset:0;stroke-opacity:1" />
      <path
         transform="scale(0.26458333)"
         inkscape:connector-curvature="0"
         id="path4514"
         d="m 498.79049,797.62084 c -2.28648,-4.91125 -6.88943,-9.35257 -12.7155,-12.26901 -5.3251,-2.66565 -11.00014,-3.95571 -17.40898,-3.95742 -5.47877,-10e-4 -10.09094,0.85148 -14.77348,2.7321 -7.1748,2.88157 -12.74583,7.74236 -15.48628,13.51196 l -0.47981,1.01015 -0.002,-0.69448 c -0.003,-1.24407 5.34564,-131.73992 5.40326,-131.79754 0.0308,-0.0308 2.06811,0.74429 2.93581,0.95044 4.6119,1.09569 7.74811,1.54784 13.14804,2.07987 2.85868,0.28165 13.34966,0.72787 16.08156,0.47002 5.50694,-0.51966 10.1334,-0.65178 14.62217,-1.67621 0.75503,-0.17231 1.40385,0.0623 1.44181,0.10023 0.0797,0.0797 7.86559,129.89046 7.82134,130.40145 -0.0232,0.26774 -0.14669,0.0868 -0.58825,-0.86161 z"
         style="fill:#504416;fill-opacity:1;stroke:#4e362b;stroke-width:0.06538153;stroke-miterlimit:4;stroke-dasharray:none;stroke-dashoffset:0;stroke-opacity:1"
         sodipodi:nodetypes="cccscccscscccccc" />
      <path
         d="m 124.30692,213.27827 c -0.2819,-0.09 -0.0177,-0.4244 0.14962,-0.46853 0.45351,-0.11958 0.78782,0.36786 0.78745,0.76776 -6.6e-4,0.71534 -0.72479,1.1727 -1.38591,1.10637 -0.97023,-0.0973 -1.56534,-1.08524 -1.42529,-2.00406 0.18667,-1.22464 1.44678,-1.96107 2.62221,-1.7442 1.47916,0.27291 2.35836,1.80878 2.06312,3.24036 -0.35758,1.73382 -2.17105,2.75654 -3.8585,2.38204 -1.98861,-0.44135 -3.15529,-2.53348 -2.70096,-4.47666 0.52454,-2.24347 2.89601,-3.5544 5.0948,-3.01987 2.49841,0.60736 3.95378,3.25861 3.33879,5.71295 -0.68992,2.75339 -3.62127,4.35334 -6.33109,3.65771 -3.00842,-0.77229 -4.75306,-3.98398 -3.97663,-6.94925"
         sodipodi:t0="0"
         sodipodi:argument="-21.682056"
         sodipodi:radius="5.9020967"
         sodipodi:revolution="3"
         sodipodi:expansion="1"
         sodipodi:cy="213.27827"
         sodipodi:cx="124.30692"
         id="path4516"
         style="fill:none;fill-rule:evenodd;stroke:#000000;stroke-width:0.26458332"
         sodipodi:type="spiral" />
    </g>
    <g
       id="g4535"
       transform="matrix(0.65505399,-0.42984488,0.39539448,0.71212833,-15.383206,87.00324)">
      <path
         style="fill:#5f502b;fill-opacity:1;stroke:#4e362b;stroke-width:0.26458332px;stroke-linecap:butt;stroke-linejoin:miter;stroke-opacity:1"
         d="m 117.17498,176.7346 -1.54919,36.4859"
         id="path4525"
         inkscape:connector-curvature="0"
         sodipodi:nodetypes="cc" />
      <path
         style="fill:#5f502b;fill-opacity:1;stroke:#4e362b;stroke-width:0.26458332px;stroke-linecap:butt;stroke-linejoin:miter;stroke-opacity:1"
         d="m 130.00034,178.4929 2.577,35.08853"
         id="path4527"
         inkscape:connector-curvature="0"
         sodipodi:nodetypes="cc" />
      <ellipse
         style="fill:#8b5a2b;fill-opacity:1;stroke:#8b4513;stroke-width:0.14431347;stroke-miterlimit:4;stroke-dasharray:none;stroke-dashoffset:0;stroke-opacity:1"
         id="ellipse4529"
         cx="123.988"
         cy="213.353"
         rx="8.4403896"
         ry="6.5360947" />
      <path
         style="fill:#504416;fill-opacity:1;stroke:#4e362b;stroke-width:0.06538153;stroke-miterlimit:4;stroke-dasharray:none;stroke-dashoffset:0;stroke-opacity:1"
         d="m 498.79049,797.62084 c -2.28648,-4.91125 -6.88943,-9.35257 -12.7155,-12.26901 -5.3251,-2.66565 -11.00014,-3.95571 -17.40898,-3.95742 -5.47877,-10e-4 -10.09094,0.85148 -14.77348,2.7321 -7.1748,2.88157 -12.74583,7.74236 -15.48628,13.51196 l -0.47981,1.01015 -0.002,-0.69448 c -0.003,-1.24407 5.53824,-130.15616 5.45752,-130.13244 -0.51589,0.1516 0.89644,0.63032 1.76414,0.83647 4.6119,1.09569 8.48717,2.10693 13.86999,2.78916 2.20906,0.27997 12.00921,1.48834 16.20459,2.26872 5.49789,0.13456 8.10856,0.94269 13.27488,0.87554 0.75503,-0.17231 2.80635,-0.0107 2.84431,0.0272 0.0797,0.0797 8.08281,123.35288 8.03856,123.86387 -0.0232,0.26774 -0.14669,0.0868 -0.58825,-0.86161 z"
         id="path4531"
         inkscape:connector-curvature="0"
         sodipodi:nodetypes="cccscccscscccccc"
         transform="scale(0.26458333)" />
      <path
         sodipodi:type="spiral"
         style="fill:none;fill-rule:evenodd;stroke:#000000;stroke-width:0.26458332"
         id="path4533"
         sodipodi:cx="124.30692"
         sodipodi:cy="213.27827"
         sodipodi:expansion="1"
         sodipodi:revolution="3"
         sodipodi:radius="5.9020967"
         sodipodi:argument="-21.682056"
         sodipodi:t0="0"
         d="m 124.30692,213.27827 c -0.2819,-0.09 -0.0177,-0.4244 0.14962,-0.46853 0.45351,-0.11958 0.78782,0.36786 0.78745,0.76776 -6.6e-4,0.71534 -0.72479,1.1727 -1.38591,1.10637 -0.97023,-0.0973 -1.56534,-1.08524 -1.42529,-2.00406 0.18667,-1.22464 1.44678,-1.96107 2.62221,-1.7442 1.47916,0.27291 2.35836,1.80878 2.06312,3.24036 -0.35758,1.73382 -2.17105,2.75654 -3.8585,2.38204 -1.98861,-0.44135 -3.15529,-2.53348 -2.70096,-4.47666 0.52454,-2.24347 2.89601,-3.5544 5.0948,-3.01987 2.49841,0.60736 3.95378,3.25861 3.33879,5.71295 -0.68992,2.75339 -3.62127,4.35334 -6.33109,3.65771 -3.00842,-0.77229 -4.75306,-3.98398 -3.97663,-6.94925" />
    </g>
    <g
       transform="matrix(0.30814126,-0.73574018,0.6661132,0.39439631,-8.2182674,173.51664)"
       id="g4547">
      <path
         inkscape:connector-curvature="0"
         id="path4537"
         d="m 116.54641,173.76114 -0.92062,39.45936"
         style="fill:#5f502b;fill-opacity:1;stroke:#4e362b;stroke-width:0.26458332px;stroke-linecap:butt;stroke-linejoin:miter;stroke-opacity:1"
         sodipodi:nodetypes="cc" />
      <path
         inkscape:connector-curvature="0"
         id="path4539"
         d="m 130.55671,181.06328 1.84361,32.15421"
         style="fill:#5f502b;fill-opacity:1;stroke:#4e362b;stroke-width:0.26458332px;stroke-linecap:butt;stroke-linejoin:miter;stroke-opacity:1"
         sodipodi:nodetypes="cc" />
      <ellipse
         ry="6.5360947"
         rx="8.4403896"
         cy="213.353"
         cx="123.988"
         id="ellipse4541"
         style="fill:#8b5a2b;fill-opacity:1;stroke:#8b4513;stroke-width:0.14431347;stroke-miterlimit:4;stroke-dasharray:none;stroke-dashoffset:0;stroke-opacity:1" />
      <path
         inkscape:connector-curvature="0"
         id="path4543"
         d="m 498.79049,797.62084 c -2.28648,-4.91125 -6.88943,-9.35257 -12.7155,-12.26901 -5.3251,-2.66565 -11.00014,-3.95571 -17.40898,-3.95742 -5.47877,-10e-4 -10.09094,0.85148 -14.77348,2.7321 -7.1748,2.88157 -12.74583,7.74236 -15.48628,13.51196 l -0.47981,1.01015 -0.002,-0.69448 c -0.003,-1.24407 3.03463,-140.97039 3.09225,-141.02801 0.0308,-0.0308 4.87696,3.13953 5.74466,3.34568 -5.05009,-4.07611 4.27821,3.08074 11.93971,6.8218 2.51557,1.22833 12.3096,7.39207 15.71534,7.75876 6.16127,2.9494 9.55471,5.89483 14.90305,7.52367 0.75503,-0.17231 4.08528,1.91966 4.12324,1.95763 1.57944,18.07658 5.97999,113.63774 5.93574,114.14873 -0.0232,0.26774 -0.14669,0.0868 -0.58825,-0.86161 z"
         style="fill:#504416;fill-opacity:1;stroke:#4e362b;stroke-width:0.06538153;stroke-miterlimit:4;stroke-dasharray:none;stroke-dashoffset:0;stroke-opacity:1"
         transform="scale(0.26458333)"
         sodipodi:nodetypes="cccscccscscccccc" />
      <path
         d="m 124.30692,213.27827 c -0.2819,-0.09 -0.0177,-0.4244 0.14962,-0.46853 0.45351,-0.11958 0.78782,0.36786 0.78745,0.76776 -6.6e-4,0.71534 -0.72479,1.1727 -1.38591,1.10637 -0.97023,-0.0973 -1.56534,-1.08524 -1.42529,-2.00406 0.18667,-1.22464 1.44678,-1.96107 2.62221,-1.7442 1.47916,0.27291 2.35836,1.80878 2.06312,3.24036 -0.35758,1.73382 -2.17105,2.75654 -3.8585,2.38204 -1.98861,-0.44135 -3.15529,-2.53348 -2.70096,-4.47666 0.52454,-2.24347 2.89601,-3.5544 5.0948,-3.01987 2.49841,0.60736 3.95378,3.25861 3.33879,5.71295 -0.68992,2.75339 -3.62127,4.35334 -6.33109,3.65771 -3.00842,-0.77229 -4.75306,-3.98398 -3.97663,-6.94925"
         sodipodi:t0="0"
         sodipodi:argument="-21.682056"
         sodipodi:radius="5.9020967"
         sodipodi:revolution="3"
         sodipodi:expansion="1"
         sodipodi:cy="213.27827"
         sodipodi:cx="124.30692"
         id="path4545"
         style="fill:none;fill-rule:evenodd;stroke:#000000;stroke-width:0.26458332"
         sodipodi:type="spiral" />
    </g>
    <g
       transform="matrix(0.74085522,0.28739153,-0.27777457,0.76650469,64.526126,-12.132123)"
       id="g4583">
      <path
         inkscape:connector-curvature="0"
         id="path4573"
         d="m 117.19415,177.37589 -1.56836,35.84461"
         style="fill:#5f502b;fill-opacity:1;stroke:#4e362b;stroke-width:0.26458332px;stroke-linecap:butt;stroke-linejoin:miter;stroke-opacity:1"
         sodipodi:nodetypes="cc" />
      <path
         sodipodi:nodetypes="cc"
         inkscape:connector-curvature="0"
         id="path4575"
         d="m 129.68818,178.3821 2.71214,34.83539"
         style="fill:#5f502b;fill-opacity:1;stroke:#4e362b;stroke-width:0.26458332px;stroke-linecap:butt;stroke-linejoin:miter;stroke-opacity:1" />
      <ellipse
         ry="6.5360947"
         rx="8.4403896"
         cy="213.353"
         cx="123.988"
         id="ellipse4577"
         style="fill:#8b5a2b;fill-opacity:1;stroke:#8b4513;stroke-width:0.14431347;stroke-miterlimit:4;stroke-dasharray:none;stroke-dashoffset:0;stroke-opacity:1" />
      <path
         transform="scale(0.26458333)"
         sodipodi:nodetypes="cccscccscscccccc"
         inkscape:connector-curvature="0"
         id="path4579"
         d="m 498.79049,797.62084 c -2.28648,-4.91125 -6.88943,-9.35257 -12.7155,-12.26901 -5.3251,-2.66565 -11.00014,-3.95571 -17.40898,-3.95742 -5.47877,-10e-4 -10.09094,0.85148 -14.77348,2.7321 -7.1748,2.88157 -12.74583,7.74236 -15.48628,13.51196 l -0.47981,1.01015 -0.002,-0.69448 c -0.003,-1.24407 4.5517,-127.19414 4.60932,-127.25176 0.0308,-0.0308 2.78271,-0.29403 3.65041,-0.0879 4.6119,1.09569 7.56361,1.49354 12.94625,2.17871 2.21026,0.28136 13.81523,1.46782 17.11155,1.21023 5.50694,-0.51966 8.02071,0.37465 11.96092,0.23752 0.75503,-0.17231 1.91921,-0.0788 1.95717,-0.0408 0.25856,1.11924 9.26262,123.77161 9.21837,124.2826 -0.0232,0.26774 -0.14669,0.0868 -0.58825,-0.86161 z"
         style="fill:#504416;fill-opacity:1;stroke:#4e362b;stroke-width:0.06538153;stroke-miterlimit:4;stroke-dasharray:none;stroke-dashoffset:0;stroke-opacity:1" />
      <path
         d="m 124.30692,213.27827 c -0.2819,-0.09 -0.0177,-0.4244 0.14962,-0.46853 0.45351,-0.11958 0.78782,0.36786 0.78745,0.76776 -6.6e-4,0.71534 -0.72479,1.1727 -1.38591,1.10637 -0.97023,-0.0973 -1.56534,-1.08524 -1.42529,-2.00406 0.18667,-1.22464 1.44678,-1.96107 2.62221,-1.7442 1.47916,0.27291 2.35836,1.80878 2.06312,3.24036 -0.35758,1.73382 -2.17105,2.75654 -3.8585,2.38204 -1.98861,-0.44135 -3.15529,-2.53348 -2.70096,-4.47666 0.52454,-2.24347 2.89601,-3.5544 5.0948,-3.01987 2.49841,0.60736 3.95378,3.25861 3.33879,5.71295 -0.68992,2.75339 -3.62127,4.35334 -6.33109,3.65771 -3.00842,-0.77229 -4.75306,-3.98398 -3.97663,-6.94925"
         sodipodi:t0="0"
         sodipodi:argument="-21.682056"
         sodipodi:radius="5.9020967"
         sodipodi:revolution="3"
         sodipodi:expansion="1"
         sodipodi:cy="213.27827"
         sodipodi:cx="124.30692"
         id="path4581"
         style="fill:none;fill-rule:evenodd;stroke:#000000;stroke-width:0.26458332"
         sodipodi:type="spiral" />
    </g>
    <g
       id="g4540"
       transform="matrix(0.66396719,0.5440133,-0.63389201,0.53949206,123.06126,-9.7492008)">
      <path
         sodipodi:nodetypes="cc"
         style="fill:#5f502b;fill-opacity:1;stroke:#4e362b;stroke-width:0.26458332px;stroke-linecap:butt;stroke-linejoin:miter;stroke-opacity:1"
         d="m 116.60163,174.25491 -0.97584,38.96559"
         id="path4530"
         inkscape:connector-curvature="0" />
      <path
         sodipodi:nodetypes="cc"
         style="fill:#5f502b;fill-opacity:1;stroke:#4e362b;stroke-width:0.26458332px;stroke-linecap:butt;stroke-linejoin:miter;stroke-opacity:1"
         d="m 129.80906,174.70656 2.59126,38.51093"
         id="path4532"
         inkscape:connector-curvature="0" />
      <ellipse
         style="fill:#8b5a2b;fill-opacity:1;stroke:#8b4513;stroke-width:0.14431347;stroke-miterlimit:4;stroke-dasharray:none;stroke-dashoffset:0;stroke-opacity:1"
         id="ellipse4534"
         cx="123.988"
         cy="213.353"
         rx="8.4403896"
         ry="6.5360947" />
      <path
         sodipodi:nodetypes="cccscccscscccccc"
         transform="scale(0.26458333)"
         style="fill:#504416;fill-opacity:1;stroke:#4e362b;stroke-width:0.06538153;stroke-miterlimit:4;stroke-dasharray:none;stroke-dashoffset:0;stroke-opacity:1"
         d="m 498.79049,797.62084 c -2.28648,-4.91125 -6.88943,-9.35257 -12.7155,-12.26901 -5.3251,-2.66565 -11.00014,-3.95571 -17.40898,-3.95742 -5.47877,-10e-4 -10.09094,0.85148 -14.77348,2.7321 -7.1748,2.88157 -12.74583,7.74236 -15.48628,13.51196 l -0.47981,1.01015 -0.002,-0.69448 c -0.003,-1.24407 3.10676,-139.1356 3.16438,-139.19322 0.0308,-0.0308 7.91111,0.13783 8.77881,0.34403 5.38314,0.58565 8.69034,0.15666 12.65528,0.21949 3.06838,0.0486 21.17218,-0.33684 23.31927,1.15994 5.50694,-0.51966 -0.76664,0.74297 3.72213,-0.28146 0.75503,-0.17231 0.99692,0.39568 0.68527,1.62376 0.0797,0.0797 9.1731,136.14478 9.12885,136.65577 -0.0232,0.26774 -0.14669,0.0868 -0.58825,-0.86161 z"
         id="path4536"
         inkscape:connector-curvature="0" />
      <path
         sodipodi:type="spiral"
         style="fill:none;fill-rule:evenodd;stroke:#000000;stroke-width:0.26458332"
         id="path4538"
         sodipodi:cx="124.30692"
         sodipodi:cy="213.27827"
         sodipodi:expansion="1"
         sodipodi:revolution="3"
         sodipodi:radius="5.9020967"
         sodipodi:argument="-21.682056"
         sodipodi:t0="0"
         d="m 124.30692,213.27827 c -0.2819,-0.09 -0.0177,-0.4244 0.14962,-0.46853 0.45351,-0.11958 0.78782,0.36786 0.78745,0.76776 -6.6e-4,0.71534 -0.72479,1.1727 -1.38591,1.10637 -0.97023,-0.0973 -1.56534,-1.08524 -1.42529,-2.00406 0.18667,-1.22464 1.44678,-1.96107 2.62221,-1.7442 1.47916,0.27291 2.35836,1.80878 2.06312,3.24036 -0.35758,1.73382 -2.17105,2.75654 -3.8585,2.38204 -1.98861,-0.44135 -3.15529,-2.53348 -2.70096,-4.47666 0.52454,-2.24347 2.89601,-3.5544 5.0948,-3.01987 2.49841,0.60736 3.95378,3.25861 3.33879,5.71295 -0.68992,2.75339 -3.62127,4.35334 -6.33109,3.65771 -3.00842,-0.77229 -4.75306,-3.98398 -3.97663,-6.94925" />
    </g>
  </g>
</svg>
