<?xml version="1.0" encoding="UTF-8" standalone="no"?>
<!-- Created with Inkscape (http://www.inkscape.org/) -->

<svg
   xmlns:dc="http://purl.org/dc/elements/1.1/"
   xmlns:cc="http://creativecommons.org/ns#"
   xmlns:rdf="http://www.w3.org/1999/02/22-rdf-syntax-ns#"
   xmlns:svg="http://www.w3.org/2000/svg"
   xmlns="http://www.w3.org/2000/svg"
   xmlns:sodipodi="http://sodipodi.sourceforge.net/DTD/sodipodi-0.dtd"
   xmlns:inkscape="http://www.inkscape.org/namespaces/inkscape"
   width="210mm"
   height="297mm"
   viewBox="0 0 210 297"
   version="1.1"
   id="svg5076"
   inkscape:version="0.92.0 r15299"
   sodipodi:docname="gluehbirne_icon.svg">
  <defs
     id="defs5070" />
  <sodipodi:namedview
     id="base"
     pagecolor="#ffffff"
     bordercolor="#666666"
     borderopacity="1.0"
     inkscape:pageopacity="0.0"
     inkscape:pageshadow="2"
     inkscape:zoom="0.98994949"
     inkscape:cx="-56.389569"
     inkscape:cy="771.36066"
     inkscape:document-units="mm"
     inkscape:current-layer="layer1"
     showgrid="false"
     inkscape:window-width="1920"
     inkscape:window-height="1001"
     inkscape:window-x="-9"
     inkscape:window-y="-9"
     inkscape:window-maximized="1" />
  <metadata
     id="metadata5073">
    <rdf:RDF>
      <cc:Work
         rdf:about="">
        <dc:format>image/svg+xml</dc:format>
        <dc:type
           rdf:resource="http://purl.org/dc/dcmitype/StillImage" />
        <dc:title />
      </cc:Work>
    </rdf:RDF>
  </metadata>
  <g
     inkscape:label="Ebene 1"
     inkscape:groupmode="layer"
     id="layer1">
    <path
       style="fill:none;stroke:#000000;stroke-width:0.43464345px;stroke-linecap:butt;stroke-linejoin:miter;stroke-opacity:1"
       d="m 33.863499,70.704976 c -1.763297,0.99974 -1.080632,2.00814 0.05218,2.69647 l 20.347001,0.017 c 0.721052,-0.50141 2.617451,-1.53253 -0.02116,-2.67815 z"
       id="path5635"
       inkscape:connector-curvature="0"
       sodipodi:nodetypes="ccccc" />
    <path
       sodipodi:nodetypes="ccccc"
       inkscape:connector-curvature="0"
       id="path5637"
       d="m 33.811319,68.008506 c -1.763297,0.99974 -1.080632,2.00814 0.05218,2.69647 l 20.347001,0.017 c 0.721052,-0.50141 2.617451,-1.53253 -0.02116,-2.67815 z"
       style="fill:none;stroke:#000000;stroke-width:0.43464345px;stroke-linecap:butt;stroke-linejoin:miter;stroke-opacity:1" />
    <path
       sodipodi:nodetypes="ccccc"
       inkscape:connector-curvature="0"
       id="path5639"
       d="m 33.790159,65.330356 c -1.763297,0.99974 -1.080632,2.00814 0.05218,2.69647 l 20.347001,0.017 c 0.721052,-0.50141 2.617451,-1.53253 -0.02116,-2.67815 z"
       style="fill:none;stroke:#000000;stroke-width:0.43464345px;stroke-linecap:butt;stroke-linejoin:miter;stroke-opacity:1" />
    <path
       style="fill:none;stroke:#000000;stroke-width:0.26458332px;stroke-linecap:butt;stroke-linejoin:miter;stroke-opacity:1"
       d="m 40.424516,73.328806 2.204971,3.0736 3.123714,0.0835 1.88759,-3.0903 z"
       id="path5641"
       inkscape:connector-curvature="0"
       sodipodi:nodetypes="ccccc" />
    <path
       style="fill:#ccff00;fill-opacity:1;stroke:none;stroke-width:0.22071427;stroke-miterlimit:4;stroke-dasharray:none;stroke-dashoffset:0;stroke-opacity:0.98777508"
       d="m 43.557073,65.008686 -7.867441,-0.05143 0.264165,-0.766747 c 0.432858,-1.256373 0.516546,-3.321256 0.195718,-4.828931 -0.410713,-1.930053 -1.245764,-3.810913 -3.198712,-7.204718 -3.68612,-6.405697 -4.220369,-8.283501 -3.436461,-12.078639 0.830942,-4.022849 3.895844,-9.857314 6.313977,-12.019529 2.664446,-2.382461 8.792844,-4.885671 11.263688,-4.600773 1.577953,0.181943 4.596471,1.015302 5.923986,1.635503 1.933911,0.903507 3.920225,2.526829 4.843563,3.958424 1.9211,2.978573 3.389852,6.70439 3.943755,10.004208 0.819838,4.884121 0.0904,7.138503 -4.560147,14.093557 -1.459555,2.182813 -2.833899,4.325985 -3.054096,4.762611 -1.167781,2.315562 -1.657099,4.535022 -1.377024,6.245945 l 0.162417,0.992187 -0.774972,-0.04512 c -0.426239,-0.02482 -4.315325,-0.06826 -8.642416,-0.09655 z"
       id="path5645"
       inkscape:connector-curvature="0" />
    <path
       style="fill:#ffff00;fill-opacity:1;stroke:#000000;stroke-width:0.5;stroke-miterlimit:4;stroke-dasharray:none;stroke-dashoffset:0;stroke-opacity:1"
       d="m 50.333498,65.328626 c -1.078412,-0.0207 -4.794922,-0.0575 -8.25891,-0.0816 -3.463986,-0.0241 -6.307505,-0.0532 -6.318933,-0.0647 -0.01143,-0.0114 0.05277,-0.23917 0.142656,-0.50608 0.357328,-1.06106 0.475385,-1.96649 0.437123,-3.35255 -0.03276,-1.18677 -0.151238,-1.86015 -0.537178,-3.05305 -0.498448,-1.54064 -1.160476,-2.904717 -2.900704,-5.976749 -1.04471,-1.844233 -1.430229,-2.551332 -1.931979,-3.543528 -1.385369,-2.73953 -1.865805,-4.549388 -1.714238,-6.457746 0.06481,-0.815967 0.235632,-1.816893 0.458168,-2.684552 0.965139,-3.763039 3.631398,-8.782801 5.823889,-10.964627 1.490821,-1.483569 4.543523,-3.168187 7.57749,-4.181602 2.021466,-0.675214 3.368066,-0.853919 4.647654,-0.616781 1.480469,0.274368 3.318532,0.779444 4.584626,1.259793 1.525336,0.578704 3.252497,1.731674 4.465749,2.981121 0.625377,0.644033 0.917625,1.033055 1.480484,1.970725 2.30569,3.841067 3.761084,8.573709 3.761309,12.231015 4.7e-5,1.041818 -0.06801,1.652384 -0.281202,2.52217 -0.361538,1.475002 -1.074979,3.042385 -2.352776,5.168908 -0.63496,1.056703 -0.873657,1.428824 -2.515462,3.921503 -2.527276,3.83706 -2.838667,4.3632 -3.348675,5.65819 -0.768922,1.95239 -0.981795,3.57211 -0.693862,5.2795 0.03944,0.23387 0.07208,0.45179 0.07253,0.48428 5.29e-4,0.0422 -0.09007,0.0569 -0.318093,0.0515 -0.175403,-0.004 -1.201256,-0.0245 -2.279669,-0.0452 z"
       id="path5647"
       inkscape:connector-curvature="0" />
    <path
       style="fill:#c8beb7;fill-opacity:1;stroke:#000000;stroke-width:0.02525381;stroke-miterlimit:4;stroke-dasharray:none;stroke-dashoffset:0;stroke-opacity:1"
       d="m 42.552566,67.797371 -8.646427,-0.0085 -0.194074,-0.131794 c -0.268076,-0.182047 -0.570884,-0.493343 -0.670698,-0.689497 -0.101888,-0.200236 -0.110154,-0.473673 -0.0195,-0.645464 0.08749,-0.165812 0.339024,-0.423436 0.58469,-0.598847 l 0.214389,-0.153083 10.140844,0.01005 10.140844,0.01005 0.285435,0.14354 c 0.55313,0.278161 0.903491,0.613661 0.903491,0.865163 0,0.258763 -0.344193,0.649087 -0.909444,1.031325 l -0.284072,0.192101 -1.449523,-0.0083 c -0.79724,-0.0046 -5.340416,-0.01209 -10.095949,-0.01677 z"
       id="path5649"
       inkscape:connector-curvature="0" />
    <path
       style="fill:#c8beb7;fill-opacity:1;stroke:#000000;stroke-width:0.02525381;stroke-miterlimit:4;stroke-dasharray:none;stroke-dashoffset:0;stroke-opacity:1"
       d="m 37.68907,70.470067 -3.787995,-0.0087 -0.224136,-0.166159 c -0.599922,-0.444741 -0.823251,-0.899136 -0.634027,-1.290023 0.08625,-0.178163 0.343223,-0.440624 0.606404,-0.619348 l 0.203279,-0.138041 10.143181,0.01543 10.14318,0.01543 0.167045,0.07432 c 0.481134,0.214048 0.910815,0.576506 0.987721,0.833197 0.03736,0.124706 0.03329,0.151429 -0.04859,0.318772 -0.108353,0.221462 -0.390819,0.493199 -0.812163,0.781309 l -0.305363,0.208807 -6.325275,-0.0082 c -3.4789,-0.0045 -8.029871,-0.01209 -10.113266,-0.01685 z"
       id="path5651"
       inkscape:connector-curvature="0" />
    <path
       style="fill:#c8beb7;fill-opacity:1;stroke:#000000;stroke-width:0.02525381;stroke-miterlimit:4;stroke-dasharray:none;stroke-dashoffset:0;stroke-opacity:1"
       d="m 43.535705,73.17617 -9.567582,-0.0085 -0.223308,-0.165547 c -0.414547,-0.307316 -0.664959,-0.623863 -0.715865,-0.904928 -0.05469,-0.301942 0.188468,-0.674057 0.654156,-1.001096 l 0.226555,-0.159104 10.131353,0.01474 10.131351,0.01474 0.300678,0.148344 c 0.739664,0.364924 1.024112,0.760455 0.808482,1.124212 -0.120214,0.20279 -0.421426,0.484942 -0.791776,0.741672 l -0.317384,0.220012 -0.53454,-0.008 c -0.293995,-0.0044 -4.839949,-0.01185 -10.10212,-0.01651 z"
       id="path5653"
       inkscape:connector-curvature="0" />
    <path
       style="fill:#c8beb7;fill-opacity:1;stroke:#000000;stroke-width:0.02525381;stroke-miterlimit:4;stroke-dasharray:none;stroke-dashoffset:0;stroke-opacity:1"
       d="m 44.009333,76.294843 c -0.89748,-0.02582 -1.288068,-0.0485 -1.315908,-0.07642 -0.02177,-0.02183 -0.447844,-0.608155 -0.946825,-1.302938 L 40.839365,73.65224 42.4528,73.64354 c 0.887391,-0.0048 2.343166,-0.0048 3.235055,0 l 1.621621,0.0087 -0.816558,1.336349 -0.816554,1.336347 -0.195355,0.0033 c -0.107447,0.0019 -0.769699,-0.0132 -1.471676,-0.03341 z"
       id="path5655"
       inkscape:connector-curvature="0" />
    <path
       style="fill:none;stroke:#ffff00;stroke-width:1.12899995;stroke-linecap:butt;stroke-linejoin:miter;stroke-miterlimit:4;stroke-dasharray:none;stroke-opacity:1"
       d="M 47.173288,19.974313 47.106028,4.9420404 47.173288,19.676644 Z"
       id="path5659"
       inkscape:connector-curvature="0" />
    <path
       inkscape:connector-curvature="0"
       id="path5661"
       d="m 14.032669,56.501667 13.297296,-7.011103 -13.033366,6.87345 z"
       style="fill:none;stroke:#ffff00;stroke-width:1.02900004;stroke-linecap:butt;stroke-linejoin:miter;stroke-miterlimit:4;stroke-dasharray:none;stroke-opacity:1" />
    <path
       style="fill:#ffff00;fill-opacity:1;stroke:#ffff00;stroke-width:1.12899995;stroke-linecap:butt;stroke-linejoin:miter;stroke-miterlimit:4;stroke-dasharray:none;stroke-opacity:1"
       d="m 64.836316,49.46271 13.55455,6.499829 -13.28673,-6.36992 z"
       id="path5663"
       inkscape:connector-curvature="0" />
    <path
       inkscape:connector-curvature="0"
       id="path5665"
       d="m 66.490846,42.53951 15.01874,0.641128 -14.7214,-0.627101 z"
       style="fill:none;stroke:#ffff00;stroke-width:1.02900004;stroke-linecap:butt;stroke-linejoin:miter;stroke-miterlimit:4;stroke-dasharray:none;stroke-opacity:1" />
    <path
       style="fill:none;stroke:#ffff00;stroke-width:1.12899995;stroke-linecap:butt;stroke-linejoin:miter;stroke-miterlimit:4;stroke-dasharray:none;stroke-opacity:1"
       d="m 10.29069,40.957739 15.032257,-0.07074 -14.734588,0.07067 z"
       id="path5667"
       inkscape:connector-curvature="0" />
    <path
       inkscape:connector-curvature="0"
       id="path5669"
       d="m 65.713236,33.804006 13.36688,-6.877534 -13.10158,6.742534 z"
       style="fill:none;stroke:#ffff00;stroke-width:1.12899995;stroke-linecap:butt;stroke-linejoin:miter;stroke-miterlimit:4;stroke-dasharray:none;stroke-opacity:1" />
    <path
       style="fill:none;stroke:#ffff00;stroke-width:1.12899995;stroke-linecap:butt;stroke-linejoin:miter;stroke-miterlimit:4;stroke-dasharray:none;stroke-opacity:1"
       d="m 27.829966,31.749578 -12.295429,-8.64848 12.052725,8.476137 z"
       id="path5671"
       inkscape:connector-curvature="0" />
    <path
       inkscape:connector-curvature="0"
       id="path5673"
       d="M 35.870089,21.999266 26.589159,10.173951 35.68736,21.764284 Z"
       style="fill:none;stroke:#ffff00;stroke-width:1.12899995;stroke-linecap:butt;stroke-linejoin:miter;stroke-miterlimit:4;stroke-dasharray:none;stroke-opacity:1" />
    <path
       style="fill:none;stroke:#ffff00;stroke-width:1.12899995;stroke-linecap:butt;stroke-linejoin:miter;stroke-miterlimit:4;stroke-dasharray:none;stroke-opacity:1"
       d="M 59.435301,23.662926 69.097076,12.146687 59.62764,23.435743 Z"
       id="path5675"
       inkscape:connector-curvature="0" />
  </g>
</svg>
