<?xml version="1.0" encoding="UTF-8" standalone="no"?>
<!-- Created with Inkscape (http://www.inkscape.org/) -->

<svg
   xmlns:dc="http://purl.org/dc/elements/1.1/"
   xmlns:cc="http://creativecommons.org/ns#"
   xmlns:rdf="http://www.w3.org/1999/02/22-rdf-syntax-ns#"
   xmlns:svg="http://www.w3.org/2000/svg"
   xmlns="http://www.w3.org/2000/svg"
   xmlns:sodipodi="http://sodipodi.sourceforge.net/DTD/sodipodi-0.dtd"
   xmlns:inkscape="http://www.inkscape.org/namespaces/inkscape"
   width="210mm"
   height="297mm"
   viewBox="0 0 210 297"
   version="1.1"
   id="svg8"
   inkscape:version="0.92.0 r15299"
   sodipodi:docname="Rad_Icon.svg">
  <defs
     id="defs2" />
  <sodipodi:namedview
     id="base"
     pagecolor="#ffffff"
     bordercolor="#666666"
     borderopacity="1.0"
     inkscape:pageopacity="0.0"
     inkscape:pageshadow="2"
     inkscape:zoom="0.7"
     inkscape:cx="-77.353176"
     inkscape:cy="646.49209"
     inkscape:document-units="mm"
     inkscape:current-layer="layer2"
     showgrid="false"
     inkscape:window-width="1920"
     inkscape:window-height="1001"
     inkscape:window-x="-9"
     inkscape:window-y="-9"
     inkscape:window-maximized="1" />
  <metadata
     id="metadata5">
    <rdf:RDF>
      <cc:Work
         rdf:about="">
        <dc:format>image/svg+xml</dc:format>
        <dc:type
           rdf:resource="http://purl.org/dc/dcmitype/StillImage" />
        <dc:title />
      </cc:Work>
    </rdf:RDF>
  </metadata>
  <g
     inkscape:label="Ebene 1"
     inkscape:groupmode="layer"
     id="layer1">
    <circle
       style="fill:none;fill-opacity:1;stroke:#4e3610;stroke-width:3.13700008;stroke-miterlimit:4;stroke-dasharray:none;stroke-dashoffset:0;stroke-opacity:1"
       id="path4485"
       cx="65.365166"
       cy="56.658718"
       r="49.979401" />
    <path
       style="fill:#b71100;fill-opacity:1;stroke:#6f4d13;stroke-width:2.46600008;stroke-linecap:butt;stroke-linejoin:miter;stroke-miterlimit:4;stroke-dasharray:none;stroke-opacity:0.99289102"
       d="m 65.815421,45.879019 -6.4e-4,-25.08948"
       id="path4499"
       inkscape:connector-curvature="0" />
    <path
       inkscape:connector-curvature="0"
       id="path4501"
       d="m 75.803251,56.563639 25.979309,0.0786"
       style="fill:#b71100;fill-opacity:1;stroke:#6f4d13;stroke-width:2.50987697;stroke-linecap:butt;stroke-linejoin:miter;stroke-miterlimit:4;stroke-dasharray:none;stroke-opacity:0.99289102" />
    <path
       style="fill:#b71100;fill-opacity:1;stroke:#6f4d13;stroke-width:2.49746299;stroke-linecap:butt;stroke-linejoin:miter;stroke-miterlimit:4;stroke-dasharray:none;stroke-opacity:0.99289102"
       d="m 28.878846,56.374699 25.752505,0.0785"
       id="path4503"
       inkscape:connector-curvature="0" />
    <path
       inkscape:connector-curvature="0"
       id="path4505"
       d="m 65.342951,93.882239 -6.4e-4,-25.94043"
       style="fill:#b71100;fill-opacity:1;stroke:#6f4d13;stroke-width:2.50725913;stroke-linecap:butt;stroke-linejoin:miter;stroke-miterlimit:4;stroke-dasharray:none;stroke-opacity:0.99289102" />
    <path
       style="fill:#b71100;fill-opacity:1;stroke:#6f4d13;stroke-width:2.49565148;stroke-linecap:butt;stroke-linejoin:miter;stroke-miterlimit:4;stroke-dasharray:none;stroke-opacity:0.99289102"
       d="m 74.775461,51.015289 23.06697,-10.22762"
       id="path4507"
       inkscape:connector-curvature="0" />
    <path
       inkscape:connector-curvature="0"
       id="path4509"
       d="m 71.030301,47.270219 13.47658,-21.1628"
       style="fill:#b71100;fill-opacity:1;stroke:#6f4d13;stroke-width:2.46600008;stroke-linecap:butt;stroke-linejoin:miter;stroke-miterlimit:4;stroke-dasharray:none;stroke-opacity:0.99289102" />
    <path
       inkscape:connector-curvature="0"
       id="path4511"
       d="M 60.285711,47.483809 47.012272,25.846579"
       style="fill:#b71100;fill-opacity:1;stroke:#6f4d13;stroke-width:2.49814653;stroke-linecap:butt;stroke-linejoin:miter;stroke-miterlimit:4;stroke-dasharray:none;stroke-opacity:0.99289102" />
    <path
       style="fill:#b71100;fill-opacity:1;stroke:#6f4d13;stroke-width:2.46061754;stroke-linecap:butt;stroke-linejoin:miter;stroke-miterlimit:4;stroke-dasharray:none;stroke-opacity:0.99289102"
       d="M 55.767681,51.886329 33.52919,39.823149"
       id="path4519"
       inkscape:connector-curvature="0" />
    <path
       inkscape:connector-curvature="0"
       id="path4521"
       d="M 32.37523,73.360289 55.678541,61.450539"
       style="fill:#b71100;fill-opacity:1;stroke:#6f4d13;stroke-width:2.53611755;stroke-linecap:butt;stroke-linejoin:miter;stroke-miterlimit:4;stroke-dasharray:none;stroke-opacity:0.99289102" />
    <path
       style="fill:#b71100;fill-opacity:1;stroke:#6f4d13;stroke-width:2.53611755;stroke-linecap:butt;stroke-linejoin:miter;stroke-miterlimit:4;stroke-dasharray:none;stroke-opacity:0.99289102"
       d="M 46.488857,88.750979 59.605601,66.105069"
       id="path4523"
       inkscape:connector-curvature="0" />
    <path
       inkscape:connector-curvature="0"
       id="path4525"
       d="m 83.894871,88.805919 -12.60561,-22.3778"
       style="fill:#b71100;fill-opacity:1;stroke:#6f4d13;stroke-width:2.48021746;stroke-linecap:butt;stroke-linejoin:miter;stroke-miterlimit:4;stroke-dasharray:none;stroke-opacity:0.99289102" />
    <path
       style="fill:#b71100;fill-opacity:1;stroke:#6f4d13;stroke-width:2.48021746;stroke-linecap:butt;stroke-linejoin:miter;stroke-miterlimit:4;stroke-dasharray:none;stroke-opacity:0.99289102"
       d="M 98.123901,74.145299 75.392071,62.189919"
       id="path4527"
       inkscape:connector-curvature="0" />
  </g>
  <g
     inkscape:groupmode="layer"
     id="layer2"
     inkscape:label="Ebene 2">
    <path
       inkscape:connector-curvature="0"
       id="path4497"
       d="m 64.680821,67.753079 c -2.51931,-0.22394 -4.92583,-1.35845 -6.73133,-3.17338 -1.79652,-1.80588 -2.88205,-4.10837 -3.14017,-6.66044 -0.0639,-0.63212 -0.0296,-2.0564 0.0639,-2.65075 0.30714,-1.95227 1.09664,-3.73812 2.32702,-5.26368 0.40461,-0.5017 1.25668,-1.33997 1.75321,-1.7248 1.43862,-1.11504 3.10439,-1.85088 4.91574,-2.17149 0.66773,-0.11819 2.22674,-0.16393 2.95207,-0.0866 2.4388,0.25997 4.6578,1.29929 6.43157,3.0124 1.74563,1.68592 2.85856,3.8422 3.22866,6.25552 0.10888,0.70996 0.13026,2.03589 0.0448,2.77538 -0.39829,3.44451 -2.28284,6.38538 -5.2405,8.17783 -1.93223,1.171 -4.30813,1.71417 -6.60494,1.51001 z m 2.18098,-2.02563 c 1.85231,-0.25413 3.54135,-1.07355 4.87262,-2.36392 1.44411,-1.39972 2.31128,-3.07951 2.61394,-5.06346 0.0969,-0.63508 0.0977,-1.84594 0.001,-2.48343 -0.60963,-4.04408 -3.77494,-7.06845 -7.83275,-7.48396 -2.99938,-0.30713 -6.03259,1.03442 -7.85061,3.47222 -1.01893,1.36629 -1.58222,2.87977 -1.72419,4.63264 -0.17468,2.15673 0.5547,4.44673 1.96554,6.1711 0.32601,0.39846 1.09574,1.13766 1.50232,1.44272 1.15471,0.86639 2.52099,1.43802 3.96589,1.65927 0.64233,0.0983 1.83274,0.10635 2.4857,0.0168 z"
       style="fill:#2b1100;fill-opacity:1;stroke:#4e3610;stroke-width:0.50624299;stroke-miterlimit:4;stroke-dasharray:none;stroke-dashoffset:0;stroke-opacity:1" />
    <path
       style="fill:#2b1100;fill-opacity:1;stroke:#4e3610;stroke-width:2.24071431;stroke-miterlimit:4;stroke-dasharray:none;stroke-dashoffset:0;stroke-opacity:1"
       d="M 60.955997,104.78621 C 49.80518,103.79503 39.153497,98.773462 31.162051,90.740315 23.210391,82.747168 18.405605,72.556001 17.263142,61.260113 c -0.282977,-2.797879 -0.130963,-9.101942 0.282914,-11.732628 1.35948,-8.641117 4.853951,-16.54556 10.299793,-23.297972 1.790895,-2.220569 5.562301,-5.930858 7.759988,-7.63423 6.367576,-4.935354 13.740556,-8.192299 21.757894,-9.6113462 2.955493,-0.523113 9.855898,-0.7255563 13.066307,-0.3833363 10.794534,1.1506597 20.616174,5.7508875 28.467232,13.3333835 7.72643,7.462128 12.65241,17.006241 14.29056,27.687997 0.48191,3.142369 0.57654,9.011161 0.19808,12.284226 -1.7629,15.246008 -10.10429,28.262778 -23.195344,36.196423 -8.552363,5.18304 -19.068505,7.58723 -29.234569,6.68358 z m 9.653386,-8.965749 c 8.198623,-1.124826 15.674594,-4.75174 21.567029,-10.46308 6.391857,-6.195417 10.230078,-13.630452 11.569718,-22.41174 0.42883,-2.810971 0.43216,-8.170437 0.007,-10.992046 C 101.05467,34.053787 87.044474,20.667431 69.083957,18.828339 55.808179,17.468947 42.382686,23.406861 34.335863,34.196953 29.825919,40.244391 27.3327,46.943294 26.70432,54.701764 c -0.773163,9.546066 2.455182,19.681981 8.699767,27.314342 1.442971,1.763649 4.849939,5.035436 6.649519,6.385679 5.110958,3.834799 11.158333,6.36492 17.553722,7.344182 2.843036,0.435325 8.112014,0.471001 11.002058,0.07449 z"
       id="path4495"
       inkscape:connector-curvature="0" />
    <circle
       cy="57.414669"
       cx="65.365166"
       id="circle4487"
       style="fill:none;fill-opacity:1;stroke:#4e3610;stroke-width:2.35492778;stroke-miterlimit:4;stroke-dasharray:none;stroke-dashoffset:0;stroke-opacity:1"
       r="37.519245" />
    <path
       style="fill:#2b1100;fill-opacity:1;stroke:#4e3610;stroke-width:0.39045149;stroke-miterlimit:4;stroke-dasharray:none;stroke-dashoffset:0;stroke-opacity:1"
       d="m 64.897811,65.380489 c -1.94309,-0.17271 -3.79917,-1.04772 -5.19171,-2.44753 -1.3856,-1.39284 -2.22284,-3.16868 -2.42192,-5.13702 -0.0494,-0.48754 -0.0228,-1.58604 0.0493,-2.04445 0.23688,-1.50573 0.84579,-2.88312 1.79476,-4.05973 0.31206,-0.38695 0.96924,-1.03348 1.3522,-1.3303 1.10957,-0.86 2.39433,-1.42753 3.79138,-1.67481 0.515,-0.091 1.71742,-0.12642 2.27684,-0.0668 1.88099,0.20053 3.59244,1.00212 4.9605,2.3234 1.34637,1.30029 2.20474,2.96339 2.49019,4.82471 0.084,0.54758 0.10037,1.57023 0.0346,2.14057 -0.3072,2.65666 -1.7607,4.92487 -4.04187,6.30734 -1.49027,0.90317 -3.32273,1.32208 -5.0942,1.16462 z m 1.68212,-1.5623 c 1.42864,-0.196 2.73135,-0.828 3.75812,-1.82323 1.11381,-1.07957 1.78264,-2.37514 2.01607,-3.90531 0.0747,-0.48982 0.0753,-1.42372 7.7e-4,-1.9154 -0.47019,-3.11909 -2.91151,-5.45171 -6.04119,-5.77217 -2.31334,-0.2369 -4.65277,0.79782 -6.05496,2.67801 -0.78588,1.0538 -1.22033,2.2211 -1.32983,3.57303 -0.13472,1.66343 0.42783,3.42966 1.51596,4.75962 0.25145,0.30731 0.84512,0.87744 1.15871,1.11273 0.8906,0.66822 1.94438,1.10911 3.05879,1.27975 0.4954,0.0757 1.41354,0.082 1.91715,0.013 z"
       id="path4533"
       inkscape:connector-curvature="0" />
    <path
       inkscape:connector-curvature="0"
       id="path4535"
       d="m 65.073931,63.561789 c -1.49798,-0.13315 -2.92887,-0.80771 -4.00243,-1.88686 -1.06819,-1.07377 -1.71364,-2.44282 -1.86712,-3.96026 -0.0381,-0.37585 -0.0176,-1.22272 0.038,-1.57612 0.18262,-1.1608 0.65204,-2.22267 1.38363,-3.12974 0.24057,-0.29832 0.7472,-0.79674 1.04244,-1.02556 0.85539,-0.66301 1.84585,-1.10053 2.92287,-1.29116 0.39702,-0.0701 1.324,-0.0974 1.75528,-0.0514 1.45009,0.15459 2.76951,0.77256 3.82418,1.79117 1.03794,1.00243 1.69967,2.28455 1.91974,3.7195 0.0647,0.42214 0.0774,1.21053 0.0267,1.65022 -0.23684,2.04808 -1.35737,3.7967 -3.11599,4.86248 -1.14889,0.69628 -2.56157,1.01923 -3.92725,0.89784 z m 1.29679,-1.20441 c 1.10137,-0.1511 2.10567,-0.63833 2.89722,-1.40558 0.85867,-0.83226 1.3743,-1.83105 1.55425,-3.0107 0.0576,-0.37762 0.058,-1.09758 5.9e-4,-1.47663 -0.36248,-2.40459 -2.24456,-4.20287 -4.6573,-4.44992 -1.78342,-0.18263 -3.58694,0.61506 -4.66792,2.06455 -0.60586,0.8124 -0.94078,1.71231 -1.0252,2.75454 -0.10386,1.28238 0.32981,2.64401 1.16869,3.66931 0.19384,0.23692 0.65152,0.67645 0.89328,0.85783 0.68658,0.51516 1.49897,0.85504 2.35809,0.9866 0.38191,0.0584 1.08974,0.0632 1.47799,0.01 z"
       style="fill:#2b1100;fill-opacity:1;stroke:#4e3610;stroke-width:0.301009;stroke-miterlimit:4;stroke-dasharray:none;stroke-dashoffset:0;stroke-opacity:1" />
  </g>
</svg>
