<?xml version="1.0" encoding="UTF-8" standalone="no"?>
<!-- Created with Inkscape (http://www.inkscape.org/) -->

<svg
   xmlns:dc="http://purl.org/dc/elements/1.1/"
   xmlns:cc="http://creativecommons.org/ns#"
   xmlns:rdf="http://www.w3.org/1999/02/22-rdf-syntax-ns#"
   xmlns:svg="http://www.w3.org/2000/svg"
   xmlns="http://www.w3.org/2000/svg"
   xmlns:sodipodi="http://sodipodi.sourceforge.net/DTD/sodipodi-0.dtd"
   xmlns:inkscape="http://www.inkscape.org/namespaces/inkscape"
   width="210mm"
   height="297mm"
   viewBox="0 0 210 297"
   version="1.1"
   id="svg8"
   inkscape:version="0.92.0 r15299"
   sodipodi:docname="Schrift__Icon.svg">
  <defs
     id="defs2" />
  <sodipodi:namedview
     id="base"
     pagecolor="#ffffff"
     bordercolor="#666666"
     borderopacity="1.0"
     inkscape:pageopacity="0.0"
     inkscape:pageshadow="2"
     inkscape:zoom="1.4"
     inkscape:cx="-41.781324"
     inkscape:cy="846.01901"
     inkscape:document-units="mm"
     inkscape:current-layer="layer1"
     showgrid="false"
     inkscape:window-width="1920"
     inkscape:window-height="1001"
     inkscape:window-x="-9"
     inkscape:window-y="-9"
     inkscape:window-maximized="1" />
  <metadata
     id="metadata5">
    <rdf:RDF>
      <cc:Work
         rdf:about="">
        <dc:format>image/svg+xml</dc:format>
        <dc:type
           rdf:resource="http://purl.org/dc/dcmitype/StillImage" />
        <dc:title />
      </cc:Work>
    </rdf:RDF>
  </metadata>
  <g
     inkscape:label="Ebene 1"
     inkscape:groupmode="layer"
     id="layer1">
    <rect
       style="fill:#020707;fill-opacity:1;stroke:#040000;stroke-width:0.21592908;stroke-miterlimit:4;stroke-dasharray:none;stroke-dashoffset:0;stroke-opacity:0.99289102"
       id="rect4492"
       width="21.491533"
       height="3.5235388"
       x="18.810907"
       y="40.67683" />
    <path
       style="fill:#020707;fill-opacity:1;stroke:#040000;stroke-width:0.05541644;stroke-miterlimit:4;stroke-dasharray:none;stroke-dashoffset:0;stroke-opacity:0.99289102"
       d="m 43.451997,67.967179 c -0.01705,-0.017 -5.831661,-0.066 -12.921351,-0.10871 -16.203839,-0.0977 -15.424421,-0.0873 -15.700783,-0.20941 -0.412858,-0.18245 -0.621061,-0.47122 -0.741842,-1.02891 -0.04352,-0.20093 -0.07312,-1.17679 -0.08777,-2.89387 -0.01216,-1.42488 -0.05276,-5.69127 -0.09021,-9.48086 -0.08936,-9.041505 -0.09103,-8.531005 0.02916,-8.925805 0.118285,-0.38855 0.359913,-0.65534 0.672014,-0.74199 0.155716,-0.0432 4.52451,-0.0606 15.309125,-0.0608 16.574505,-4.4e-4 15.321967,-0.0275 15.599169,0.33835 0.295705,0.39028 0.343833,0.71141 0.333369,2.224475 -0.0052,0.75792 -0.03926,5.14833 -0.0756,9.75647 -0.06556,8.31344 -0.06704,8.384 -0.19113,9.09502 -0.198051,1.13481 -0.42798,1.60124 -0.910755,1.84753 -0.288807,0.14734 -1.134288,0.27762 -1.223396,0.18851 z"
       id="path4494"
       inkscape:connector-curvature="0" />
    <path
       style="fill:none;stroke:#000000;stroke-width:0.26458332px;stroke-linecap:butt;stroke-linejoin:miter;stroke-opacity:1"
       d="m 31.274862,41.973284 c 0,0 7.684,-25.52424 16.036173,-28.93193"
       id="path4500"
       inkscape:connector-curvature="0" />
    <path
       style="fill:none;stroke:#000000;stroke-width:0.26458332px;stroke-linecap:butt;stroke-linejoin:miter;stroke-opacity:1"
       d="m 33.160775,36.494604 c 7.256543,1.10703 6.991363,-1.7267 7.064954,-2.20497 -0.02045,-0.21254 -0.1198,-0.73645 0.08618,-1.23647 0.05236,-0.42283 4.238683,-6.56961 4.085849,-8.11692 0.09996,-0.57733 -0.144345,-0.0971 -0.01826,-2.78707 -0.108859,-0.0937 1.400835,-1.72896 1.498477,-1.75636 4.744079,-3.55767 3.840447,-10.89573 5.842764,-15.48107 -3.829625,6.34311 -8.184135,4.78556 -12.227103,8.38959 -1.554323,5.88842 -1.994557,5.21142 -6.945074,9.2773 -0.104416,-0.0745 -1.462893,1.56619 -1.23653,1.41207 0.98549,-1.66401 2.650914,-2.46929 1.23653,-1.41207 -4.095646,3.5558 -2.806545,10.60458 -2.368252,10.99464 1.293592,1.326 2.49483,1.24513 3.284352,1.94974 z"
       id="path4504"
       inkscape:connector-curvature="0"
       sodipodi:nodetypes="cccccccccccccc" />
    <path
       style="fill:#c8beb7;fill-opacity:1;stroke:#040000;stroke-width:0.09499999;stroke-miterlimit:4;stroke-dasharray:none;stroke-dashoffset:0;stroke-opacity:0.99289102"
       d="m 34.370751,36.476475 c -0.491051,-0.04656 -0.911796,-0.103627 -0.934992,-0.12682 -0.06178,-0.06178 0.457673,-1.491396 1.475893,-4.061902 4.072514,-10.281103 8.462788,-17.178811 11.998309,-18.850954 0.526518,-0.24902 0.53775,-0.261472 0.413144,-0.458049 -0.181996,-0.287123 -1.905013,0.858676 -3.118437,2.073754 -1.068938,1.070393 -1.82657,2.026539 -2.986828,3.769431 -1.250411,1.878309 -1.822993,2.87614 -3.117835,5.433407 -1.451475,2.866606 -3.584937,7.804081 -4.535061,10.495502 l -0.169146,0.479134 -0.436276,-0.216649 c -0.239956,-0.119158 -0.756632,-0.363834 -1.148173,-0.543727 -0.391541,-0.17989 -0.90983,-0.501308 -1.151758,-0.714261 -0.398438,-0.350718 -0.455988,-0.455885 -0.611026,-1.116584 -0.212227,-0.904423 -0.24217,-3.984096 -0.04752,-4.887135 0.408834,-1.896663 1.165648,-3.486398 2.144218,-4.504057 0.259857,-0.27024 1.386699,-1.220243 2.50409,-2.111116 2.446967,-1.950918 3.043976,-2.565492 3.630697,-3.737528 0.378693,-0.756473 0.962692,-2.422646 1.279787,-3.651271 0.08814,-0.341529 0.204142,-0.471244 0.832387,-0.930815 0.88913,-0.650412 2.339216,-1.363662 4.226251,-2.078759 2.919211,-1.106242 4.463248,-2.110706 5.919549,-3.850921 0.252339,-0.301535 0.458801,-0.531579 0.458801,-0.511209 0,0.02037 -0.08517,0.370028 -0.189257,0.777015 -0.104089,0.40699 -0.403947,1.891443 -0.666353,3.298785 -0.53359,2.861786 -0.800687,3.992028 -1.233133,5.218107 -0.625237,1.772685 -1.309867,2.849198 -2.606278,4.098102 -0.511892,0.493139 -1.153824,1.230649 -1.426514,1.638914 l -0.4958,0.742302 0.0066,1.572802 c 0.0048,1.136825 -0.03079,1.67793 -0.128288,1.952054 -0.353232,0.99315 -1.171351,2.45659 -3.423754,6.124371 l -0.744267,1.211956 -0.05617,0.961408 c -0.06513,1.114761 -0.20274,1.448874 -0.76426,1.855634 -0.927454,0.671846 -2.48362,0.878041 -4.898602,0.649079 z"
       id="path4506"
       inkscape:connector-curvature="0" />
  </g>
</svg>
