<?xml version="1.0" encoding="UTF-8" standalone="no"?>
<svg
   xmlns:dc="http://purl.org/dc/elements/1.1/"
   xmlns:cc="http://creativecommons.org/ns#"
   xmlns:rdf="http://www.w3.org/1999/02/22-rdf-syntax-ns#"
   xmlns:svg="http://www.w3.org/2000/svg"
   xmlns="http://www.w3.org/2000/svg"
   width="210mm"
   height="297mm"
   viewBox="0 0 210 297"
   version="1.1"
   id="svg8">
  <defs
     id="defs2" />
  <metadata
     id="metadata5">
    <rdf:RDF>
      <cc:Work
         rdf:about="">
        <dc:format>image/svg+xml</dc:format>
        <dc:type
           rdf:resource="http://purl.org/dc/dcmitype/StillImage" />
        <dc:title></dc:title>
      </cc:Work>
    </rdf:RDF>
  </metadata>
  <g
     id="layer1">
    <path
       style="fill:#71c837;stroke:#007f00;stroke-width:0.86500001;stroke-linecap:butt;stroke-linejoin:miter;stroke-miterlimit:4;stroke-dasharray:none;stroke-opacity:1"
       d="M 62.808339,87.193421 60.369505,73.078247 c 1.24078,-0.334213 9.153473,-10.099832 9.655111,-18.491708 0.158374,-2.649435 0.02037,-4.987014 0,-8.552627 C 69.537369,34.88846 61.932886,29.575531 55.85933,24.117812 52.906683,20.559026 45.593389,16.067062 39.02135,14.22884 c 0.930256,9.634911 -7.895618,15.907968 -10.156243,22.985178 0,0 -1.595529,4.779209 -0.267269,14.165287 0.416046,2.939964 0.932617,5.879929 3.474506,8.819893 3.281547,3.391499 5.204144,7.342565 9.888971,10.156243 5.030319,3.651313 11.004936,4.701543 17.63979,2.939962 z"
       id="path4485" />
    <path
       style="fill:none;stroke:#009400;stroke-width:0.26458332px;stroke-linecap:butt;stroke-linejoin:miter;stroke-opacity:1"
       d="M 59.784853,72.902851 C 56.86606,58.152944 53.129618,30.855389 42.193797,18.227637 52.124209,30.140794 57.413049,57.576129 59.784853,72.902851 Z"
       id="path4487" />
    <path
       style="fill:none;stroke:#008700;stroke-width:0.26458332px;stroke-linecap:butt;stroke-linejoin:miter;stroke-opacity:1"
       d="M 58.846166,68.099979 C 55.105777,67.261345 44.409895,66.585023 41.678252,63.512738"
       id="path4489" />
    <path
       id="path4491"
       d="M 57.617743,61.060172 C 53.87683,60.222614 38.566672,57.597664 36.039882,54.267958"
       style="fill:none;stroke:#008700;stroke-width:0.26458332px;stroke-linecap:butt;stroke-linejoin:miter;stroke-opacity:1" />
    <path
       style="fill:none;stroke:#008700;stroke-width:0.26458332px;stroke-linecap:butt;stroke-linejoin:miter;stroke-opacity:1"
       d="M 55.845979,52.721072 C 52.10559,51.882438 35.778267,49.338667 33.132222,46.530214"
       id="path4493" />
    <path
       id="path4495"
       d="M 54.423939,46.629922 C 50.68355,45.791288 35.150794,42.336989 32.912895,39.837708"
       style="fill:none;stroke:#008700;stroke-width:0.26458332px;stroke-linecap:butt;stroke-linejoin:miter;stroke-opacity:1" />
    <path
       style="fill:none;stroke:#008700;stroke-width:0.26458332px;stroke-linecap:butt;stroke-linejoin:miter;stroke-opacity:1"
       d="M 52.152148,38.611836 C 48.411759,37.773202 37.134005,35.327929 35.451956,32.688248"
       id="path4497" />
    <path
       id="path4499"
       d="M 49.078548,30.126029 C 45.338159,29.287395 42.351402,29.969037 40.952061,27.96448"
       style="fill:none;stroke:#008700;stroke-width:0.26458332px;stroke-linecap:butt;stroke-linejoin:miter;stroke-opacity:1" />
    <path
       style="fill:none;stroke:#008f00;stroke-width:0.26458332px;stroke-linecap:butt;stroke-linejoin:miter;stroke-opacity:1"
       d="m 58.846166,68.099979 c 1.855264,-1.597925 6.112094,-3.375967 5.565791,-4.793774"
       id="path4501" />
    <path
       id="path4503"
       d="m 57.617743,61.060172 c 2.985591,-2.561209 8.394808,-3.768038 8.956773,-7.683626"
       style="fill:none;stroke:#008f00;stroke-width:0.26458332px;stroke-linecap:butt;stroke-linejoin:miter;stroke-opacity:1" />
    <path
       style="fill:none;stroke:#008f00;stroke-width:0.26458332px;stroke-linecap:butt;stroke-linejoin:miter;stroke-opacity:1"
       d="m 55.845979,52.721072 c 3.753991,-2.182577 10.294939,-1.919456 11.261972,-6.54773"
       id="path4505" />
    <path
       id="path4507"
       d="m 54.423939,46.629922 c 3.302973,-2.834046 9.95871,-4.550505 9.90892,-8.502139"
       style="fill:none;stroke:#008f00;stroke-width:0.26458332px;stroke-linecap:butt;stroke-linejoin:miter;stroke-opacity:1" />
    <path
       style="fill:none;stroke:#008f00;stroke-width:0.26458332px;stroke-linecap:butt;stroke-linejoin:miter;stroke-opacity:1"
       d="m 52.152148,38.611836 c 3.217549,-1.517364 7.300598,-3.631143 7.653834,-6.631252"
       id="path4509" />
    <path
       id="path4511"
       d="m 49.078548,30.126029 c 1.694872,-1.302773 5.565199,-1.811331 4.763982,-4.025374"
       style="fill:none;stroke:#008f00;stroke-width:0.26458332px;stroke-linecap:butt;stroke-linejoin:miter;stroke-opacity:1" />
  </g>
</svg>
