<?xml version="1.0" encoding="utf-8"?>
<!-- Generator: Adobe Illustrator 21.0.0, SVG Export Plug-In . SVG Version: 6.00 Build 0)  -->
<svg version="1.1" xmlns="http://www.w3.org/2000/svg" xmlns:xlink="http://www.w3.org/1999/xlink" x="0px" y="0px"
	 viewBox="0 0 800 600" style="enable-background:new 0 0 800 600;" xml:space="preserve">
<style type="text/css">
	.st0{display:none;fill:#B3B3B3;stroke:#000000;}
	.st1{fill:#B3B3B3;stroke:#000000;}
	.st2{fill:none;}
	.st3{font-family:'MyriadPro-Regular';}
	.st4{font-size:12px;}
	.st5{fill:#999999;stroke:#F7931E;}
	.st6{font-family:'Lobster-Regular';}
	.st7{display:none;}
	.st8{display:inline;}
</style>
<g id="Zeichenfläche_2">
	<g id="Ebene_56">
		<rect x="6.5" y="144.5" class="st0" width="30" height="50"/>
		<rect x="46.5" y="144.5" class="st0" width="30" height="50"/>
		<rect x="86.5" y="144.5" class="st0" width="30" height="50"/>
		<rect x="126.5" y="144.5" class="st1" width="30" height="50"/>
		<rect x="166.5" y="144.5" class="st1" width="30" height="50"/>
		<rect x="246.5" y="144.5" class="st1" width="30" height="50"/>
		<rect x="206.5" y="144.5" class="st1" width="30" height="50"/>
		<rect x="286.5" y="144.5" class="st1" width="30" height="50"/>
		<rect x="326.5" y="144.5" class="st1" width="30" height="50"/>
		<rect x="366.5" y="144.5" class="st1" width="30" height="50"/>
		<rect x="406.5" y="144.5" class="st1" width="30" height="50"/>
		<rect x="446.5" y="144.5" class="st1" width="30" height="50"/>
		<rect x="486.5" y="144.5" class="st1" width="30" height="50"/>
		<rect x="526.5" y="144.5" class="st1" width="30" height="50"/>
		<rect x="566.5" y="144.5" class="st1" width="30" height="50"/>
		<rect x="606.5" y="144.5" class="st1" width="30" height="50"/>
		<rect x="646.5" y="144.5" class="st1" width="30" height="50"/>
		<rect x="686.5" y="144.5" class="st1" width="30" height="50"/>
		<rect x="766.5" y="144.5" class="st1" width="30" height="50"/>
		<rect x="726.5" y="144.5" class="st1" width="30" height="50"/>
		<rect x="6.5" y="244.5" class="st0" width="30" height="50"/>
		<rect x="46.5" y="244.5" class="st0" width="30" height="50"/>
		<rect x="86.5" y="244.5" class="st0" width="30" height="50"/>
		<rect x="126.5" y="244.5" class="st0" width="30" height="50"/>
		<rect x="166.5" y="244.5" class="st0" width="30" height="50"/>
		<rect x="246.5" y="244.5" class="st1" width="30" height="50"/>
		<rect x="206.5" y="244.5" class="st1" width="30" height="50"/>
		<rect x="286.5" y="244.5" class="st1" width="30" height="50"/>
		<rect x="326.5" y="244.5" class="st1" width="30" height="50"/>
		<rect x="366.5" y="244.5" class="st1" width="30" height="50"/>
		<rect x="406.5" y="244.5" class="st1" width="30" height="50"/>
		<rect x="446.5" y="244.5" class="st1" width="30" height="50"/>
		<rect x="486.5" y="244.5" class="st1" width="30" height="50"/>
		<rect x="526.5" y="244.5" class="st1" width="30" height="50"/>
		<rect x="566.5" y="244.5" class="st1" width="30" height="50"/>
		<rect x="606.5" y="244.5" class="st1" width="30" height="50"/>
		<rect x="646.5" y="244.5" class="st1" width="30" height="50"/>
		<rect x="686.5" y="244.5" class="st1" width="30" height="50"/>
		<rect x="766.5" y="244.5" class="st1" width="30" height="50"/>
		<rect x="726.5" y="244.5" class="st1" width="30" height="50"/>
		<rect x="6.5" y="344.5" class="st0" width="30" height="50"/>
		<rect x="46.5" y="344.5" class="st1" width="30" height="50"/>
		<rect x="86.5" y="344.5" class="st1" width="30" height="50"/>
		<rect x="126.5" y="344.5" class="st1" width="30" height="50"/>
		<rect x="166.5" y="344.5" class="st1" width="30" height="50"/>
		<rect x="246.5" y="344.5" class="st1" width="30" height="50"/>
		<rect x="206.5" y="344.5" class="st1" width="30" height="50"/>
		<rect x="286.5" y="344.5" class="st1" width="30" height="50"/>
		<rect x="326.5" y="344.5" class="st1" width="30" height="50"/>
		<rect x="366.5" y="344.5" class="st1" width="30" height="50"/>
		<rect x="406.5" y="344.5" class="st1" width="30" height="50"/>
		<rect x="446.5" y="344.5" class="st1" width="30" height="50"/>
		<rect x="486.5" y="344.5" class="st1" width="30" height="50"/>
		<rect x="526.5" y="344.5" class="st1" width="30" height="50"/>
		<rect x="566.5" y="344.5" class="st1" width="30" height="50"/>
		<rect x="606.5" y="344.5" class="st1" width="30" height="50"/>
		<rect x="646.5" y="344.5" class="st1" width="30" height="50"/>
		<rect x="686.5" y="344.5" class="st1" width="30" height="50"/>
		<rect x="766.5" y="344.5" class="st1" width="30" height="50"/>
		<rect x="726.5" y="344.5" class="st1" width="30" height="50"/>
		<rect x="6.5" y="444.5" class="st0" width="30" height="50"/>
		<rect x="46.5" y="444.5" class="st0" width="30" height="50"/>
		<rect x="86.5" y="444.5" class="st0" width="30" height="50"/>
		<rect x="126.5" y="444.5" class="st0" width="30" height="50"/>
		<rect x="166.5" y="444.5" class="st0" width="30" height="50"/>
		<rect x="246.5" y="444.5" class="st0" width="30" height="50"/>
		<rect x="206.5" y="444.5" class="st0" width="30" height="50"/>
		<rect x="286.5" y="444.5" class="st1" width="30" height="50"/>
		<rect x="326.5" y="444.5" class="st1" width="30" height="50"/>
		<rect x="366.5" y="444.5" class="st1" width="30" height="50"/>
		<rect x="406.5" y="444.5" class="st1" width="30" height="50"/>
		<rect x="446.5" y="444.5" class="st1" width="30" height="50"/>
		<rect x="486.5" y="444.5" class="st1" width="30" height="50"/>
		<rect x="526.5" y="444.5" class="st1" width="30" height="50"/>
		<rect x="566.5" y="444.5" class="st1" width="30" height="50"/>
		<rect x="606.5" y="444.5" class="st1" width="30" height="50"/>
		<rect x="646.5" y="444.5" class="st1" width="30" height="50"/>
		<rect x="686.5" y="444.5" class="st1" width="30" height="50"/>
		<rect x="766.5" y="444.5" class="st1" width="30" height="50"/>
		<rect x="726.5" y="444.5" class="st1" width="30" height="50"/>
		<rect x="6.5" y="544.5" class="st0" width="30" height="50"/>
		<rect x="46.5" y="544.5" class="st1" width="30" height="50"/>
		<rect x="86.5" y="544.5" class="st1" width="30" height="50"/>
		<rect x="126.5" y="544.5" class="st1" width="30" height="50"/>
		<rect x="166.5" y="544.5" class="st1" width="30" height="50"/>
		<rect x="246.5" y="544.5" class="st1" width="30" height="50"/>
		<rect x="206.5" y="544.5" class="st1" width="30" height="50"/>
		<rect x="286.5" y="544.5" class="st1" width="30" height="50"/>
		<rect x="326.5" y="544.5" class="st1" width="30" height="50"/>
		<rect x="366.5" y="544.5" class="st1" width="30" height="50"/>
		<rect x="406.5" y="544.5" class="st1" width="30" height="50"/>
		<rect x="446.5" y="544.5" class="st1" width="30" height="50"/>
		<rect x="486.5" y="544.5" class="st1" width="30" height="50"/>
		<rect x="526.5" y="544.5" class="st1" width="30" height="50"/>
		<rect x="566.5" y="544.5" class="st1" width="30" height="50"/>
		<rect x="606.5" y="544.5" class="st1" width="30" height="50"/>
		<rect x="646.5" y="544.5" class="st1" width="30" height="50"/>
		<rect x="686.5" y="544.5" class="st1" width="30" height="50"/>
		<rect x="766.5" y="544.5" class="st1" width="30" height="50"/>
		<rect x="726.5" y="544.5" class="st1" width="30" height="50"/>
	</g>
	<g id="Buchstabenmix">
		<g>
			<path d="M188.3,60.1c-0.7-2.9-2.1-5.9-5.5-5.9c-3.8,0-5.3,3.1-5.3,6.4c0,3.2,0.7,4.3,7,8c4.9,2.9,8.3,5.4,8.3,11.6
				c0,6.3-3.4,11.3-10.1,11.3c-7.1,0-9.7-4.7-10.3-11l4-0.5c0.5,4.4,1.5,7.8,6.4,7.8c3.5,0,5.9-2.3,5.9-7.1c0-5.3-3.4-7.1-7.6-9.5
				c-4.6-2.7-7.7-4.6-7.7-10.5c0-5.4,3.6-10.2,9.3-10.2c5.6,0,8.4,4,9.4,9.1L188.3,60.1z"/>
		</g>
		<g>
			<path d="M144.1,70h-4V33.6h-8.5V30h21.1v3.6h-8.6V70z"/>
		</g>
		<g>
			<g>
				<g>
					<path d="M116.3,485.1l-3.1,13.1l-4-1.1l10.1-39.7h4.8l10.1,39.7l-4,1.1l-3.1-13.1H116.3z M117.2,481.5h9l-4.4-18.7h-0.1
						L117.2,481.5z"/>
				</g>
			</g>
		</g>
		<g>
			<path d="M192.3,300.5h-19.5v-3.6h15.5v-16h-12.8v-3.6h12.8v-13.2h-15.5v-3.6h19.5V300.5z"/>
		</g>
		<g>
			<path d="M31,280h-4v-17.8h-4.5l-9,18.6L9.9,279l8.3-17.2c-4.9-1.7-6.9-6.4-6.9-11.3c0-7.2,5-10.6,8.9-10.6H31V280z M27,243.6
				h-4.9c-4.1,0-6.6,1.8-6.6,7c0,5.4,2.2,8,5.6,8H27V243.6z"/>
		</g>
		<g>
			<path d="M162,492.5h4v40h-4v-19.9h-1.4l-12.9,20.7l-3.4-2l13.1-20.6l-11-16.9l3.2-2l11.2,17.3h1.1V492.5z"/>
		</g>
		<g>
			<path d="M212.3,125.5h-19.5v-3.6h15.5v-16h-12.8v-3.6h12.8V89.1h-15.5v-3.6h19.5V125.5z"/>
		</g>
		<g>
			<path d="M105,214h-4v-17.8h-4.5l-9,18.6l-3.6-1.7l8.3-17.2c-4.9-1.7-6.9-6.4-6.9-11.3c0-7.2,5-10.6,8.9-10.6H105V214z M101,177.6
				h-4.9c-4.1,0-6.6,1.8-6.6,7c0,5.4,2.2,8,5.6,8h5.9V177.6z"/>
		</g>
		<g>
			<path d="M53.2,223.5h-4V199l0.2-9.1l-0.1-0.1l-11.9,33.7h-5v-40h4v24.6l-0.2,8.9l0.1,0.1l11.9-33.7h5V223.5z"/>
		</g>
		<g>
			<path d="M110.2,431c0,5,0.2,20.6-11.1,20.6C87.7,451.5,88,436.1,88,431c0-6.6,0.4-20.5,11.1-20.5
				C110.3,410.4,110.2,425.7,110.2,431z M92.2,431c0,10.8,1.3,16.8,6.9,16.8c7,0,6.9-9.8,6.9-16.8c0-7.6,0.2-16.7-6.9-16.7
				C92,414.2,92.2,425.1,92.2,431z"/>
		</g>
		<g>
			<path d="M214.8,458.2c1.5,2.5,4,5,7.1,5c7.3,0,7.8-11.5,7.8-16.7c0-5.3-0.5-16.8-7.8-16.8c-3.1,0-5.1,2.2-6.4,4.7l-3.4-2
				c2.1-3.8,5.2-6.5,9.8-6.5c10.4,0,12,12.6,12,20.6c0,7.9-1.6,20.5-12,20.5c-4.6,0-8-2.8-10.4-6.5L214.8,458.2z"/>
		</g>
		<g>
			<path d="M221.9,506h-4v-19.6h-12.4V506h-4v-40h4v16.8h12.4V466h4V506z"/>
		</g>
		<g>
			<g>
				<g>
					<path d="M242.3,99.1l-3.1,13.1l-4-1.1l10.1-39.7h4.8l10.1,39.7l-4,1.1l-3.1-13.1H242.3z M243.2,95.5h9l-4.4-18.7h-0.1
						L243.2,95.5z"/>
				</g>
			</g>
		</g>
		<g>
			<path d="M69.1,78.7H48.7v-3.6h16.4V38.7h4V78.7z"/>
		</g>
		<g>
			<path d="M206.6,65.5c1-5,3.8-9.1,9.4-9.1c5.7,0,9.3,4.8,9.3,10.2c0,5.9-3.1,7.8-7.7,10.5c-4.1,2.4-7.6,4.2-7.6,9.5
				c0,4.8,2.5,7.1,5.9,7.1c4.9,0,5.8-3.4,6.4-7.8l4,0.5c-0.6,6.4-3.2,11-10.3,11c-6.7,0-10.1-5-10.1-11.3c0-6.2,3.4-8.6,8.3-11.6
				c6.3-3.8,7-4.8,7-8c0-3.4-1.5-6.4-5.3-6.4c-3.4,0-4.9,2.9-5.5,5.9L206.6,65.5z"/>
		</g>
		<g>
			<path d="M84.8,296.1v32.8h3.2v3.6H77.4c-12.2,0-12.7-11.2-12.7-20c0-16.5,4.7-20,12.8-20h10.6v3.6H84.8z M80.8,296.1h-4.3
				c-3.5,0-7.6,1.2-7.6,16.4c0,15.1,3.7,16.4,8.6,16.4h3.3V296.1z"/>
		</g>
		<g>
			<g>
				<g>
					<path d="M99.3,54.1l-3.1,13.1l-4-1.1l10.1-39.7h4.8l10.1,39.7l-4,1.1l-3.1-13.1H99.3z M100.2,50.5h9l-4.4-18.7h-0.1L100.2,50.5
						z"/>
				</g>
			</g>
		</g>
		<g>
			<path d="M224.6,96.5c1-5,3.8-9.1,9.4-9.1c5.7,0,9.3,4.8,9.3,10.2c0,5.9-3.1,7.8-7.7,10.5c-4.1,2.4-7.6,4.2-7.6,9.5
				c0,4.8,2.5,7.1,5.9,7.1c4.9,0,5.8-3.4,6.4-7.8l4,0.5c-0.6,6.4-3.2,11-10.3,11c-6.7,0-10.1-5-10.1-11.3c0-6.2,3.4-8.6,8.3-11.6
				c6.3-3.8,7-4.8,7-8c0-3.4-1.5-6.4-5.3-6.4c-3.4,0-4.9,2.9-5.5,5.9L224.6,96.5z"/>
		</g>
		<g>
			<path d="M9.9,493.5v-3.6h3.2v-32.8H9.9v-3.6h12.2c4.4,0,8.9,3.7,8.9,10.1c0,3.3-1.3,6.1-4.3,7.7c4.5,2,6.1,5.4,6.1,10.2
				c0,8.3-4.6,12-10.1,12H9.9z M20.7,469.9c4.1,0,6.1-2.2,6.1-6.4c0-4.9-2.5-6.5-7.3-6.5h-2.3v12.8H20.7z M22.6,489.9
				c3.6,0,6.1-2.6,6.1-8.5c0-5.9-2.9-7.9-7.1-7.9h-4.4v16.4H22.6z"/>
		</g>
		<g>
			<path d="M271.6,514h-20.5v-3.6h16.4V474h4V514z"/>
		</g>
		<g>
			<path d="M259.3,488.5h-19.5v-3.6h15.5v-16h-12.8v-3.6h12.8v-13.2h-15.5v-3.6h19.5V488.5z"/>
		</g>
		<g>
			<path d="M53.3,459.9h5.4v3.6H43.8v-3.6h5.5v-32.8h-5.5v-3.6h14.9v3.6h-5.4V459.9z"/>
		</g>
		<g>
			<path d="M64.3,522.9h5.4v3.6H54.8v-3.6h5.5v-32.8h-5.5v-3.6h14.9v3.6h-5.4V522.9z"/>
		</g>
		<g>
			<path d="M199.6,91.5h5l11.9,33.7l0.1-0.1l-0.2-8.9V91.5h4v40h-5l-11.9-33.7l-0.1,0.1l0.2,9.1v24.5h-4V91.5z"/>
		</g>
		<g>
			<path d="M110.8,59.1v32.8h3.2v3.6h-10.7c-12.2,0-12.7-11.2-12.7-20c0-16.5,4.7-20,12.8-20h10.6v3.6H110.8z M106.8,59.1h-4.3
				c-3.5,0-7.6,1.2-7.6,16.4c0,15.1,3.7,16.4,8.6,16.4h3.3V59.1z"/>
		</g>
		<g>
			<path d="M184.5,406.5H204v3.6h-15.5v13.2h12.8v3.6h-12.8v16H204v3.6h-19.5V406.5z"/>
		</g>
		<g>
			<path d="M11.8,336h10.8c4,0,8.9,3.4,8.9,10.6c0,4.9-2,9.6-6.9,11.3l8.3,17.2l-3.6,1.7l-9-18.6h-4.5V376h-4V336z M15.8,354.6h5.9
				c3.5,0,5.6-2.6,5.6-8c0-5.2-2.5-7-6.6-7h-4.9V354.6z"/>
		</g>
		<g>
			<path d="M116.6,495.5h19.7v3.6h-15.7v13.2h13.1v3.6h-13.1v19.6h-4V495.5z"/>
		</g>
		<g>
			<path d="M174.2,90h4v36.4h16.4v3.6h-20.5V90z"/>
		</g>
		<g>
			<path d="M284.5,33.1h-5.4v-3.6H294v3.6h-5.5v32.8h5.5v3.6h-14.9v-3.6h5.4V33.1z"/>
		</g>
		<g>
			<path d="M199.6,452.5h5l11.9,33.7l0.1-0.1l-0.2-8.9v-24.6h4v40h-5l-11.9-33.7l-0.1,0.1l0.2,9.1v24.5h-4V452.5z"/>
		</g>
		<g>
			<path d="M177.1,491h-4v-36.4h-8.5V451h21.1v3.6h-8.6V491z"/>
		</g>
		<g>
			<path d="M135.3,334.5h-19.5v-3.6h15.5v-16h-12.8v-3.6h12.8v-13.2h-15.5v-3.6h19.5V334.5z"/>
		</g>
		<g>
			<path d="M32.9,436h-4v-19.6H16.5V436h-4v-40h4v16.8h12.4V396h4V436z"/>
		</g>
		<g>
			<g>
				<g>
					<path d="M132.6,431.1l-3.1,13.1l-4-1.1l10.1-39.7h4.8l10.1,39.7l-4,1.1l-3.1-13.1H132.6z M138.1,408.8H138l-4.4,18.7h9
						L138.1,408.8z"/>
				</g>
			</g>
		</g>
		<g>
			<path d="M233.6,27.6H225V24h21.1v3.6h-8.5V64h-4V27.6z"/>
		</g>
		<g>
			<path d="M173.8,414.1v32.8h3.2v3.6h-10.7c-12.2,0-12.7-11.2-12.7-20c0-16.5,4.7-20,12.8-20h10.6v3.6H173.8z M169.8,414.1h-4.3
				c-3.5,0-7.6,1.2-7.6,16.4c0,15.1,3.7,16.4,8.6,16.4h3.3V414.1z"/>
		</g>
		<g>
			<g>
				<g>
					<path d="M228.3,57.1l-3.1,13.1l-4-1.1l10.1-39.7h4.8l10.1,39.7l-4,1.1l-3.1-13.1H228.3z M229.2,53.5h9l-4.4-18.7h-0.1
						L229.2,53.5z"/>
				</g>
			</g>
		</g>
		<g>
			<path d="M48.6,48.5c1-5,3.8-9.1,9.4-9.1c5.7,0,9.3,4.8,9.3,10.2c0,5.9-3.1,7.8-7.7,10.5c-4.1,2.4-7.6,4.2-7.6,9.5
				c0,4.8,2.5,7.1,5.9,7.1c4.9,0,5.8-3.4,6.4-7.8l4,0.5c-0.6,6.4-3.2,11-10.3,11c-6.7,0-10.1-5-10.1-11.3c0-6.2,3.4-8.6,8.3-11.6
				c6.3-3.8,7-4.8,7-8c0-3.4-1.5-6.4-5.3-6.4c-3.4,0-4.9,2.9-5.5,5.9L48.6,48.5z"/>
		</g>
		<g>
			<path d="M131,103.5c-5.5,0-10.1-3.7-10.1-12c0-4.8,1.6-8.2,6.1-10.2c-2.9-1.6-4.3-4.4-4.3-7.7c0-6.4,4.5-10.1,8.9-10.1h12.2v3.6
				h-3.2v32.8h3.2v3.6H131z M136.6,79.9V67.1h-2.3c-4.9,0-7.3,1.6-7.3,6.5c0,4.2,1.9,6.4,6.1,6.4H136.6z M136.6,99.9V83.5h-4.4
				c-4.2,0-7.1,2-7.1,7.9c0,5.8,2.5,8.5,6.1,8.5H136.6z"/>
		</g>
		<g>
			<path d="M178.2,30h4v36.4h16.4V70h-20.5V30z"/>
		</g>
		<g>
			<path d="M210.3,75.5h-19.5v-3.6h15.5v-16h-12.8v-3.6h12.8V39.1h-15.5v-3.6h19.5V75.5z"/>
		</g>
		<g>
			<path d="M219.3,507.9h5.4v3.6h-14.9v-3.6h5.5v-32.8h-5.5v-3.6h14.9v3.6h-5.4V507.9z"/>
		</g>
		<g>
			<path d="M35.3,44.9h5.4v3.6H25.8v-3.6h5.5V12.1h-5.5V8.5h14.9v3.6h-5.4V44.9z"/>
		</g>
		<g>
			<path d="M112.7,258l5.8-17h5l1.2,40h-4.2l-0.8-33.4h-0.1l-6.8,20.1l-6.8-20.1h-0.1L105,281h-4.3l1.2-40h5L112.7,258z"/>
		</g>
		<g>
			<path d="M21.6,73.5c1-5,3.8-9.1,9.4-9.1c5.7,0,9.3,4.8,9.3,10.2c0,5.9-3.1,7.8-7.7,10.5c-4.1,2.4-7.6,4.2-7.6,9.5
				c0,4.8,2.5,7.1,5.9,7.1c4.9,0,5.8-3.4,6.4-7.8l4,0.5c-0.6,6.4-3.2,11-10.3,11c-6.7,0-10.1-5-10.1-11.3c0-6.2,3.4-8.6,8.3-11.6
				c6.3-3.8,7-4.8,7-8c0-3.4-1.5-6.4-5.3-6.4c-3.4,0-4.9,2.9-5.5,5.9L21.6,73.5z"/>
		</g>
		<g>
			<path d="M161.3,293.5h-19.5v-3.6h15.5v-16h-12.8v-3.6h12.8v-13.2h-15.5v-3.6h19.5V293.5z"/>
		</g>
		<g>
			<path d="M49.1,161h-4v-36.4h-8.5V121h21.1v3.6h-8.6V161z"/>
		</g>
		<g>
			<path d="M157.5,136H134v-3.6h17.4L134.4,96h21.3v3.6h-15.2L157.5,136z"/>
		</g>
		<g>
			<path d="M94,244.5h4v40h-4v-19.9h-1.4l-12.9,20.7l-3.4-2l13.1-20.6l-11-16.9l3.2-2L92.9,261H94V244.5z"/>
		</g>
		<g>
			<g>
				<g>
					<path d="M75.6,76.1l-3.1,13.1l-4-1.1l10.1-39.7h4.8l10.1,39.7l-4,1.1l-3.1-13.1H75.6z M81.1,53.8H81l-4.4,18.7h9L81.1,53.8z"/>
				</g>
			</g>
		</g>
		<g>
			<path d="M124.3,462.1c-0.7-2.9-2.1-5.9-5.5-5.9c-3.8,0-5.3,3.1-5.3,6.4c0,3.2,0.7,4.3,7,8c4.9,2.9,8.3,5.4,8.3,11.6
				c0,6.3-3.4,11.3-10.1,11.3c-7.1,0-9.7-4.7-10.3-11l4-0.5c0.5,4.4,1.5,7.8,6.4,7.8c3.5,0,5.9-2.3,5.9-7.1c0-5.3-3.4-7.1-7.6-9.5
				c-4.6-2.7-7.7-4.6-7.7-10.5c0-5.4,3.6-10.2,9.3-10.2c5.6,0,8.4,4,9.4,9.1L124.3,462.1z"/>
		</g>
		<g>
			<path d="M234.1,133h-4V96.6h-8.5V93h21.1v3.6h-8.6V133z"/>
		</g>
		<g>
			<path d="M185.3,248.5h-19.5v-3.6h15.5v-16h-12.8v-3.6h12.8v-13.2h-15.5v-3.6h19.5V248.5z"/>
		</g>
		<g>
			<path d="M205.2,531.5h-4V507l0.2-9.1l-0.1-0.1l-11.9,33.7h-5v-40h4v24.6l-0.2,8.9l0.1,0.1l11.9-33.7h5V531.5z"/>
		</g>
		<g>
			<path d="M192.7,449.1v-3.6h10.6c8,0,12.8,3.5,12.8,20c0,8.8-0.5,20-12.7,20h-10.7v-3.6h3.2v-32.8H192.7z M200,481.9h3.3
				c4.9,0,8.6-1.3,8.6-16.4c0-15.2-4.1-16.4-7.6-16.4H200V481.9z"/>
		</g>
		<g>
			<path d="M137.5,245.2h5.4v3.6H128v-3.6h5.5v-32.8H128v-3.6h14.9v3.6h-5.4V245.2z"/>
		</g>
		<g>
			<path d="M88.5,494.5H108v3.6H92.5v13.2h12.8v3.6H92.5v16H108v3.6H88.5V494.5z"/>
		</g>
		<g>
			<path d="M73.8,440.6l8.2-29.9l4.1,0.8l-11.9,40.7h-1l-11.9-40.7l4.1-0.8l8.2,29.9H73.8z"/>
		</g>
		<g>
			<path d="M118.3,153.5H98.8v-3.6h15.5v-16h-12.8v-3.6h12.8v-13.2H98.8v-3.6h19.5V153.5z"/>
		</g>
		<g>
			<path d="M196,83h-4V65.2h-4.5l-9,18.6l-3.6-1.7l8.3-17.2c-4.9-1.7-6.9-6.4-6.9-11.3c0-7.2,5-10.6,8.9-10.6H196V83z M192,46.6
				h-4.9c-4.1,0-6.6,1.8-6.6,7c0,5.4,2.2,8,5.6,8h5.9V46.6z"/>
		</g>
		<g>
			<g>
				<g>
					<path d="M286.3,103.1l-3.1,13.1l-4-1.1l10.1-39.7h4.8l10.1,39.7l-4,1.1l-3.1-13.1H286.3z M287.2,99.5h9l-4.4-18.7h-0.1
						L287.2,99.5z"/>
				</g>
			</g>
		</g>
		<g>
			<path d="M227.5,48.5H247v3.6h-15.5v13.2h12.8v3.6h-12.8v16H247v3.6h-19.5V48.5z"/>
		</g>
		<g>
			<path d="M260.2,58.5h-4V34l0.2-9.1l-0.1-0.1l-11.9,33.7h-5v-40h4v24.6l-0.2,8.9l0.1,0.1l11.9-33.7h5V58.5z"/>
		</g>
		<g>
			<path d="M62.7,134.1v-3.6h10.6c8,0,12.8,3.5,12.8,20c0,8.8-0.5,20-12.7,20H62.7v-3.6h3.2v-32.8H62.7z M70,166.9h3.3
				c4.9,0,8.6-1.3,8.6-16.4c0-15.2-4.1-16.4-7.6-16.4H70V166.9z"/>
		</g>
		<g>
			<path d="M352.3,59.5h-19.5v-3.6h15.5v-16h-12.8v-3.6h12.8V23.1h-15.5v-3.6h19.5V59.5z"/>
		</g>
		<g>
			<path d="M78.8,453h10.8c4,0,8.9,3.4,8.9,10.6c0,4.9-2,9.6-6.9,11.3l8.3,17.2l-3.6,1.7l-9-18.6h-4.5V493h-4V453z M82.8,471.6h5.9
				c3.5,0,5.6-2.6,5.6-8c0-5.2-2.5-7-6.6-7h-4.9V471.6z"/>
		</g>
		<g>
			<path d="M151.6,304.6H143V301h21.1v3.6h-8.5V341h-4V304.6z"/>
		</g>
		<g>
			<path d="M14.3,509.7l1.9,30.1h0.1l5.8-21.1h1.2l5.8,21.1h0.1l1.9-30.1l4,0.8l-4,40.8h-1.7l-6.7-24.2h-0.1L16,551.3h-1.7l-4-40.8
				L14.3,509.7z"/>
		</g>
		<g>
			<path d="M184.3,91.5h-19.5v-3.6h15.5v-16h-12.8v-3.6h12.8V55.1h-15.5v-3.6h19.5V91.5z"/>
		</g>
		<g>
			<path d="M105.6,54H85.1v-3.6h16.4V14h4V54z"/>
		</g>
		<g>
			<path d="M46.1,326h-4v-36.4h-8.5V286h21.1v3.6h-8.6V326z"/>
		</g>
	</g>
	<g id="Zitat_und_Button">
		<rect x="373" y="11" class="st2" width="418" height="54"/>
		<text transform="matrix(1 0 0 1 373 19.52)"><tspan x="0" y="0" class="st3 st4">„Stärker noch als das Blei in der Flinte hat das Blei im Setzkasten die Welt verän</tspan><tspan x="391.2" y="0" class="st3 st4">-</tspan><tspan x="0" y="14.4" class="st3 st4">dert.&quot; </tspan><tspan x="0" y="43.2" class="st3 st4">Johannes Gutenberg </tspan></text>
		<circle class="st5" cx="599" cy="76" r="35"/>
		<text transform="matrix(1 0 0 1 578 74)"><tspan x="0" y="0" class="st6 st4">Spiegeln - </tspan><tspan x="0" y="14.4" class="st6 st4">Button</tspan></text>
	</g>
</g>
<g id="Zeichenfläche_1">
	<g id="Spielfeld_Lösung">
		<g id="Spielfeld_gekürzt">
			<rect x="-815" y="150" class="st0" width="30" height="50"/>
			<rect x="-775" y="150" class="st0" width="30" height="50"/>
			<rect x="-735" y="150" class="st0" width="30" height="50"/>
			<rect x="-695" y="150" class="st1" width="30" height="50"/>
			<rect x="-655" y="150" class="st1" width="30" height="50"/>
			<rect x="-575" y="150" class="st1" width="30" height="50"/>
			<rect x="-615" y="150" class="st1" width="30" height="50"/>
			<rect x="-535" y="150" class="st1" width="30" height="50"/>
			<rect x="-495" y="150" class="st1" width="30" height="50"/>
			<rect x="-455" y="150" class="st1" width="30" height="50"/>
			<rect x="-415" y="150" class="st1" width="30" height="50"/>
			<rect x="-375" y="150" class="st1" width="30" height="50"/>
			<rect x="-335" y="150" class="st1" width="30" height="50"/>
			<rect x="-295" y="150" class="st1" width="30" height="50"/>
			<rect x="-255" y="150" class="st1" width="30" height="50"/>
			<rect x="-215" y="150" class="st1" width="30" height="50"/>
			<rect x="-175" y="150" class="st1" width="30" height="50"/>
			<rect x="-135" y="150" class="st1" width="30" height="50"/>
			<rect x="-55" y="150" class="st1" width="30" height="50"/>
			<rect x="-95" y="150" class="st1" width="30" height="50"/>
			<rect x="-815" y="250" class="st0" width="30" height="50"/>
			<rect x="-775" y="250" class="st0" width="30" height="50"/>
			<rect x="-735" y="250" class="st0" width="30" height="50"/>
			<rect x="-695" y="250" class="st0" width="30" height="50"/>
			<rect x="-655" y="250" class="st0" width="30" height="50"/>
			<rect x="-575" y="250" class="st1" width="30" height="50"/>
			<rect x="-615" y="250" class="st1" width="30" height="50"/>
			<rect x="-535" y="250" class="st1" width="30" height="50"/>
			<rect x="-495" y="250" class="st1" width="30" height="50"/>
			<rect x="-455" y="250" class="st1" width="30" height="50"/>
			<rect x="-415" y="250" class="st1" width="30" height="50"/>
			<rect x="-375" y="250" class="st1" width="30" height="50"/>
			<rect x="-335" y="250" class="st1" width="30" height="50"/>
			<rect x="-295" y="250" class="st1" width="30" height="50"/>
			<rect x="-255" y="250" class="st1" width="30" height="50"/>
			<rect x="-215" y="250" class="st1" width="30" height="50"/>
			<rect x="-175" y="250" class="st1" width="30" height="50"/>
			<rect x="-135" y="250" class="st1" width="30" height="50"/>
			<rect x="-55" y="250" class="st1" width="30" height="50"/>
			<rect x="-95" y="250" class="st1" width="30" height="50"/>
			<rect x="-815" y="350" class="st0" width="30" height="50"/>
			<rect x="-775" y="350" class="st1" width="30" height="50"/>
			<rect x="-735" y="350" class="st1" width="30" height="50"/>
			<rect x="-695" y="350" class="st1" width="30" height="50"/>
			<rect x="-655" y="350" class="st1" width="30" height="50"/>
			<rect x="-575" y="350" class="st1" width="30" height="50"/>
			<rect x="-615" y="350" class="st1" width="30" height="50"/>
			<rect x="-535" y="350" class="st1" width="30" height="50"/>
			<rect x="-495" y="350" class="st1" width="30" height="50"/>
			<rect x="-455" y="350" class="st1" width="30" height="50"/>
			<rect x="-415" y="350" class="st1" width="30" height="50"/>
			<rect x="-375" y="350" class="st1" width="30" height="50"/>
			<rect x="-335" y="350" class="st1" width="30" height="50"/>
			<rect x="-295" y="350" class="st1" width="30" height="50"/>
			<rect x="-255" y="350" class="st1" width="30" height="50"/>
			<rect x="-215" y="350" class="st1" width="30" height="50"/>
			<rect x="-175" y="350" class="st1" width="30" height="50"/>
			<rect x="-135" y="350" class="st1" width="30" height="50"/>
			<rect x="-55" y="350" class="st1" width="30" height="50"/>
			<rect x="-95" y="350" class="st1" width="30" height="50"/>
			<rect x="-815" y="450" class="st0" width="30" height="50"/>
			<rect x="-775" y="450" class="st0" width="30" height="50"/>
			<rect x="-735" y="450" class="st0" width="30" height="50"/>
			<rect x="-695" y="450" class="st0" width="30" height="50"/>
			<rect x="-655" y="450" class="st0" width="30" height="50"/>
			<rect x="-575" y="450" class="st0" width="30" height="50"/>
			<rect x="-615" y="450" class="st0" width="30" height="50"/>
			<rect x="-535" y="450" class="st1" width="30" height="50"/>
			<rect x="-495" y="450" class="st1" width="30" height="50"/>
			<rect x="-455" y="450" class="st1" width="30" height="50"/>
			<rect x="-415" y="450" class="st1" width="30" height="50"/>
			<rect x="-375" y="450" class="st1" width="30" height="50"/>
			<rect x="-335" y="450" class="st1" width="30" height="50"/>
			<rect x="-295" y="450" class="st1" width="30" height="50"/>
			<rect x="-255" y="450" class="st1" width="30" height="50"/>
			<rect x="-215" y="450" class="st1" width="30" height="50"/>
			<rect x="-175" y="450" class="st1" width="30" height="50"/>
			<rect x="-135" y="450" class="st1" width="30" height="50"/>
			<rect x="-55" y="450" class="st1" width="30" height="50"/>
			<rect x="-95" y="450" class="st1" width="30" height="50"/>
			<rect x="-815" y="550" class="st0" width="30" height="50"/>
			<rect x="-775" y="550" class="st1" width="30" height="50"/>
			<rect x="-735" y="550" class="st1" width="30" height="50"/>
			<rect x="-695" y="550" class="st1" width="30" height="50"/>
			<rect x="-655" y="550" class="st1" width="30" height="50"/>
			<rect x="-575" y="550" class="st1" width="30" height="50"/>
			<rect x="-615" y="550" class="st1" width="30" height="50"/>
			<rect x="-535" y="550" class="st1" width="30" height="50"/>
			<rect x="-495" y="550" class="st1" width="30" height="50"/>
			<rect x="-455" y="550" class="st1" width="30" height="50"/>
			<rect x="-415" y="550" class="st1" width="30" height="50"/>
			<rect x="-375" y="550" class="st1" width="30" height="50"/>
			<rect x="-335" y="550" class="st1" width="30" height="50"/>
			<rect x="-295" y="550" class="st1" width="30" height="50"/>
			<rect x="-255" y="550" class="st1" width="30" height="50"/>
			<rect x="-215" y="550" class="st1" width="30" height="50"/>
			<rect x="-175" y="550" class="st1" width="30" height="50"/>
			<rect x="-135" y="550" class="st1" width="30" height="50"/>
			<rect x="-55" y="550" class="st1" width="30" height="50"/>
			<rect x="-95" y="550" class="st1" width="30" height="50"/>
		</g>
		<g id="Zitat_fuer_Buchdruck">
			<g>
				<path d="M-48.4,164.5c1-5,3.8-9.1,9.4-9.1c5.7,0,9.3,4.8,9.3,10.2c0,5.9-3.1,7.8-7.7,10.5c-4.1,2.4-7.6,4.2-7.6,9.5
					c0,4.8,2.5,7.1,5.9,7.1c4.9,0,5.8-3.4,6.4-7.8l4,0.5c-0.6,6.4-3.2,11-10.3,11c-6.7,0-10.1-5-10.1-11.3c0-6.2,3.4-8.6,8.3-11.6
					c6.3-3.8,7-4.8,7-8c0-3.4-1.5-6.4-5.3-6.4c-3.4,0-4.9,2.9-5.5,5.9L-48.4,164.5z"/>
			</g>
			<g>
				<path d="M-78.9,195h-4v-36.4h-8.5V155h21.1v3.6h-8.6V195z"/>
			</g>
			<g>
				<g>
					<g>
						<path d="M-125.7,183.1l-3.1,13.1l-4-1.1l10.1-39.7h4.8l10.1,39.7l-4,1.1l-3.1-13.1H-125.7z M-124.8,179.5h9l-4.4-18.7h-0.1
							L-124.8,179.5z"/>
					</g>
				</g>
			</g>
			<g>
				<path d="M-150.7,196.5h-19.5v-3.6h15.5v-16h-12.8v-3.6h12.8v-13.2h-15.5v-3.6h19.5V196.5z"/>
			</g>
			<g>
				<path d="M-189,197h-4v-17.8h-4.5l-9,18.6l-3.6-1.7l8.3-17.2c-4.9-1.7-6.9-6.4-6.9-11.3c0-7.2,5-10.6,8.9-10.6h10.8V197z
					 M-193,160.6h-4.9c-4.1,0-6.6,1.8-6.6,7c0,5.4,2.2,8,5.6,8h5.9V160.6z"/>
			</g>
			<g>
				<path d="M-235,156.5h4v40h-4v-19.9h-1.4l-12.9,20.7l-3.4-2l13.1-20.6l-11-16.9l3.2-2l11.2,17.3h1.1V156.5z"/>
			</g>
			<g>
				<path d="M-270.7,195.5h-19.5v-3.6h15.5v-16h-12.8v-3.6h12.8v-13.2h-15.5v-3.6h19.5V195.5z"/>
			</g>
			<g>
				<path d="M-308,196h-4v-17.8h-4.5l-9,18.6l-3.6-1.7l8.3-17.2c-4.9-1.7-6.9-6.4-6.9-11.3c0-7.2,5-10.6,8.9-10.6h10.8V196z
					 M-312,159.6h-4.9c-4.1,0-6.6,1.8-6.6,7c0,5.4,2.2,8,5.6,8h5.9V159.6z"/>
			</g>
			<g>
				<path d="M-387.8,196.5h-4V172l0.2-9.1l-0.1-0.1l-11.9,33.7h-5v-40h4v24.6l-0.2,8.9l0.1,0.1l11.9-33.7h5V196.5z"/>
			</g>
			<g>
				<path d="M-439.3,155.4c10.7,0,11.1,13.9,11.1,20.5c0,5.2,0.3,20.6-11.1,20.6c-11.3,0-11.1-15.5-11.1-20.6
					C-450.4,170.7-450.6,155.4-439.3,155.4z M-439.3,159.2c-7.1,0-6.9,9.2-6.9,16.7c0,7-0.1,16.8,6.9,16.8c5.6,0,6.9-6,6.9-16.8
					C-432.4,170.1-432.2,159.2-439.3,159.2z"/>
			</g>
			<g>
				<path d="M-488.2,187.2c1.5,2.5,4,5,7.1,5c7.3,0,7.8-11.5,7.8-16.7c0-5.3-0.5-16.8-7.8-16.8c-3.1,0-5.1,2.2-6.4,4.7l-3.4-2
					c2.1-3.8,5.2-6.5,9.8-6.5c10.4,0,12,12.6,12,20.6c0,7.9-1.6,20.5-12,20.5c-4.6,0-8-2.8-10.4-6.5L-488.2,187.2z"/>
			</g>
			<g>
				<path d="M-510.1,196h-4v-19.6h-12.4V196h-4v-40h4v16.8h12.4V156h4V196z"/>
			</g>
			<g>
				<g>
					<g>
						<path d="M-605.7,182.1l-3.1,13.1l-4-1.1l10.1-39.7h4.8l10.1,39.7l-4,1.1l-3.1-13.1H-605.7z M-604.8,178.5h9l-4.4-18.7h-0.1
							L-604.8,178.5z"/>
					</g>
				</g>
			</g>
			<g>
				<path d="M-630.4,196h-20.5v-3.6h16.4V156h4V196z"/>
			</g>
			<g>
				<path d="M-690.4,164.5c1-5,3.8-9.1,9.4-9.1c5.7,0,9.3,4.8,9.3,10.2c0,5.9-3.1,7.8-7.7,10.5c-4.1,2.4-7.6,4.2-7.6,9.5
					c0,4.8,2.5,7.1,5.9,7.1c4.9,0,5.8-3.4,6.4-7.8l4,0.5c-0.6,6.4-3.2,11-10.3,11c-6.7,0-10.1-5-10.1-11.3c0-6.2,3.4-8.6,8.3-11.6
					c6.3-3.8,7-4.8,7-8c0-3.4-1.5-6.4-5.3-6.4c-3.4,0-4.9,2.9-5.5,5.9L-690.4,164.5z"/>
			</g>
			<g>
				<path d="M-31.2,258.1v32.8h3.2v3.6h-10.7c-12.2,0-12.7-11.2-12.7-20c0-16.5,4.7-20,12.8-20h10.6v3.6H-31.2z M-35.2,258.1h-4.3
					c-3.5,0-7.6,1.2-7.6,16.4c0,15.1,3.7,16.4,8.6,16.4h3.3V258.1z"/>
			</g>
			<g>
				<g>
					<g>
						<path d="M-84.7,281.1l-3.1,13.1l-4-1.1l10.1-39.7h4.8l10.1,39.7l-4,1.1l-3.1-13.1H-84.7z M-83.8,277.5h9l-4.4-18.7h-0.1
							L-83.8,277.5z"/>
					</g>
				</g>
			</g>
			<g>
				<path d="M-127.4,265.5c1-5,3.8-9.1,9.4-9.1c5.7,0,9.3,4.8,9.3,10.2c0,5.9-3.1,7.8-7.7,10.5c-4.1,2.4-7.6,4.2-7.6,9.5
					c0,4.8,2.5,7.1,5.9,7.1c4.9,0,5.8-3.4,6.4-7.8l4,0.5c-0.6,6.4-3.2,11-10.3,11c-6.7,0-10.1-5-10.1-11.3c0-6.2,3.4-8.6,8.3-11.6
					c6.3-3.8,7-4.8,7-8c0-3.4-1.5-6.4-5.3-6.4c-3.4,0-4.9,2.9-5.5,5.9L-127.4,265.5z"/>
			</g>
			<g>
				<path d="M-201,295.5c-5.5,0-10.1-3.7-10.1-12c0-4.8,1.6-8.2,6.1-10.2c-2.9-1.6-4.3-4.4-4.3-7.7c0-6.4,4.5-10.1,8.9-10.1h12.2
					v3.6h-3.2v32.8h3.2v3.6H-201z M-195.4,271.9v-12.8h-2.3c-4.9,0-7.3,1.6-7.3,6.5c0,4.2,1.9,6.4,6.1,6.4H-195.4z M-195.4,291.9
					v-16.4h-4.4c-4.2,0-7.1,2-7.1,7.9c0,5.8,2.5,8.5,6.1,8.5H-195.4z"/>
			</g>
			<g>
				<path d="M-231.4,293h-20.5v-3.6h16.4V253h4V293z"/>
			</g>
			<g>
				<path d="M-268.7,294.5h-19.5v-3.6h15.5v-16h-12.8v-3.6h12.8v-13.2h-15.5v-3.6h19.5V294.5z"/>
			</g>
			<g>
				<path d="M-315.7,291.9h5.4v3.6h-14.9v-3.6h5.5v-32.8h-5.5v-3.6h14.9v3.6h-5.4V291.9z"/>
			</g>
			<g>
				<path d="M-396.7,291.9h5.4v3.6h-14.9v-3.6h5.5v-32.8h-5.5v-3.6h14.9v3.6h-5.4V291.9z"/>
			</g>
			<g>
				<path d="M-428.8,296.5h-4V272l0.2-9.1l-0.1-0.1l-11.9,33.7h-5v-40h4v24.6l-0.2,8.9l0.1,0.1l11.9-33.7h5V296.5z"/>
			</g>
			<g>
				<path d="M-509.2,258.1v32.8h3.2v3.6h-10.7c-12.2,0-12.7-11.2-12.7-20c0-16.5,4.7-20,12.8-20h10.6v3.6H-509.2z M-513.2,258.1
					h-4.3c-3.5,0-7.6,1.2-7.6,16.4c0,15.1,3.7,16.4,8.6,16.4h3.3V258.1z"/>
			</g>
			<g>
				<path d="M-548.7,294.5h-19.5v-3.6h15.5v-16h-12.8v-3.6h12.8v-13.2h-15.5v-3.6h19.5V294.5z"/>
			</g>
			<g>
				<path d="M-588,296h-4v-17.8h-4.5l-9,18.6l-3.6-1.7l8.3-17.2c-4.9-1.7-6.9-6.4-6.9-11.3c0-7.2,5-10.6,8.9-10.6h10.8V296z
					 M-592,259.6h-4.9c-4.1,0-6.6,1.8-6.6,7c0,5.4,2.2,8,5.6,8h5.9V259.6z"/>
			</g>
			<g>
				<path d="M-28.8,396.5h-4v-19.6H-46v-3.6h13.1v-13.2h-15.7v-3.6h19.7V396.5z"/>
			</g>
			<g>
				<path d="M-68.4,393h-20.5v-3.6h16.4V353h4V393z"/>
			</g>
			<g>
				<path d="M-113.7,391.9h5.4v3.6h-14.9v-3.6h5.5v-32.8h-5.5v-3.6h14.9v3.6h-5.4V391.9z"/>
			</g>
			<g>
				<path d="M-147.8,397.5h-4V373l0.2-9.1l-0.1-0.1l-11.9,33.7h-5v-40h4v24.6l-0.2,8.9l0.1,0.1l11.9-33.7h5V397.5z"/>
			</g>
			<g>
				<path d="M-197.9,397h-4v-36.4h-8.5V357h21.1v3.6h-8.6V397z"/>
			</g>
			<g>
				<path d="M-227.7,396.5h-19.5v-3.6h15.5v-16h-12.8v-3.6h12.8v-13.2h-15.5v-3.6h19.5V396.5z"/>
			</g>
			<g>
				<path d="M-309.1,396h-4v-19.6h-12.4V396h-4v-40h4v16.8h12.4V356h4V396z"/>
			</g>
			<g>
				<g>
					<g>
						<path d="M-365.7,384.1l-3.1,13.1l-4-1.1l10.1-39.7h4.8l10.1,39.7l-4,1.1l-3.1-13.1H-365.7z M-364.8,380.5h9l-4.4-18.7h-0.1
							L-364.8,380.5z"/>
					</g>
				</g>
			</g>
			<g>
				<path d="M-399.9,396h-4v-36.4h-8.5V356h21.1v3.6h-8.6V396z"/>
			</g>
			<g>
				<path d="M-472.2,358.1v32.8h3.2v3.6h-10.7c-12.2,0-12.7-11.2-12.7-20c0-16.5,4.7-20,12.8-20h10.6v3.6H-472.2z M-476.2,358.1
					h-4.3c-3.5,0-7.6,1.2-7.6,16.4c0,15.1,3.7,16.4,8.6,16.4h3.3V358.1z"/>
			</g>
			<g>
				<g>
					<g>
						<path d="M-525.7,381.1l-3.1,13.1l-4-1.1l10.1-39.7h4.8l10.1,39.7l-4,1.1l-3.1-13.1H-525.7z M-524.8,377.5h9l-4.4-18.7h-0.1
							L-524.8,377.5z"/>
					</g>
				</g>
			</g>
			<g>
				<path d="M-568.4,365.5c1-5,3.8-9.1,9.4-9.1c5.7,0,9.3,4.8,9.3,10.2c0,5.9-3.1,7.8-7.7,10.5c-4.1,2.4-7.6,4.2-7.6,9.5
					c0,4.8,2.5,7.1,5.9,7.1c4.9,0,5.8-3.4,6.4-7.8l4,0.5c-0.6,6.4-3.2,11-10.3,11c-6.7,0-10.1-5-10.1-11.3c0-6.2,3.4-8.6,8.3-11.6
					c6.3-3.8,7-4.8,7-8c0-3.4-1.5-6.4-5.3-6.4c-3.4,0-4.9,2.9-5.5,5.9L-568.4,365.5z"/>
			</g>
			<g>
				<path d="M-641,396.5c-5.5,0-10.1-3.7-10.1-12c0-4.8,1.6-8.2,6.1-10.2c-2.9-1.6-4.3-4.4-4.3-7.7c0-6.4,4.5-10.1,8.9-10.1h12.2
					v3.6h-3.2v32.8h3.2v3.6H-641z M-635.4,372.9v-12.8h-2.3c-4.9,0-7.3,1.6-7.3,6.5c0,4.2,1.9,6.4,6.1,6.4H-635.4z M-635.4,392.9
					v-16.4h-4.4c-4.2,0-7.1,2-7.1,7.9c0,5.8,2.5,8.5,6.1,8.5H-635.4z"/>
			</g>
			<g>
				<path d="M-671.4,394h-20.5v-3.6h16.4V354h4V394z"/>
			</g>
			<g>
				<path d="M-708.7,395.5h-19.5v-3.6h15.5v-16h-12.8v-3.6h12.8v-13.2h-15.5v-3.6h19.5V395.5z"/>
			</g>
			<g>
				<path d="M-755.7,392.9h5.4v3.6h-14.9v-3.6h5.5v-32.8h-5.5v-3.6h14.9v3.6h-5.4V392.9z"/>
			</g>
			<g>
				<path d="M-36.7,492.9h5.4v3.6h-14.9v-3.6h5.5v-32.8h-5.5v-3.6h14.9v3.6h-5.4V492.9z"/>
			</g>
			<g>
				<path d="M-79.3,475l5.8-17h5l1.2,40h-4.2l-0.8-33.4h-0.1l-6.8,20.1l-6.8-20.1h-0.1L-87,498h-4.3l1.2-40h5L-79.3,475z"/>
			</g>
			<g>
				<path d="M-167.4,465.5c1-5,3.8-9.1,9.4-9.1c5.7,0,9.3,4.8,9.3,10.2c0,5.9-3.1,7.8-7.7,10.5c-4.1,2.4-7.6,4.2-7.6,9.5
					c0,4.8,2.5,7.1,5.9,7.1c4.9,0,5.8-3.4,6.4-7.8l4,0.5c-0.6,6.4-3.2,11-10.3,11c-6.7,0-10.1-5-10.1-11.3c0-6.2,3.4-8.6,8.3-11.6
					c6.3-3.8,7-4.8,7-8c0-3.4-1.5-6.4-5.3-6.4c-3.4,0-4.9,2.9-5.5,5.9L-167.4,465.5z"/>
			</g>
			<g>
				<path d="M-188.7,495.5h-19.5v-3.6h15.5v-16h-12.8v-3.6h12.8v-13.2h-15.5v-3.6h19.5V495.5z"/>
			</g>
			<g>
				<path d="M-234.9,495h-4v-36.4h-8.5V455h21.1v3.6h-8.6V495z"/>
			</g>
			<g>
				<path d="M-265.5,495H-289v-3.6h17.4l-16.9-36.4h21.3v3.6h-15.2L-265.5,495z"/>
			</g>
			<g>
				<path d="M-314,456.5h4v40h-4v-19.9h-1.4l-12.9,20.7l-3.4-2l13.1-20.6l-11-16.9l3.2-2l11.2,17.3h1.1V456.5z"/>
			</g>
			<g>
				<g>
					<g>
						<path d="M-365.7,483.1l-3.1,13.1l-4-1.1l10.1-39.7h4.8l10.1,39.7l-4,1.1l-3.1-13.1H-365.7z M-364.8,479.5h9l-4.4-18.7h-0.1
							L-364.8,479.5z"/>
					</g>
				</g>
			</g>
			<g>
				<path d="M-407.4,464.5c1-5,3.8-9.1,9.4-9.1c5.7,0,9.3,4.8,9.3,10.2c0,5.9-3.1,7.8-7.7,10.5c-4.1,2.4-7.6,4.2-7.6,9.5
					c0,4.8,2.5,7.1,5.9,7.1c4.9,0,5.8-3.4,6.4-7.8l4,0.5c-0.6,6.4-3.2,11-10.3,11c-6.7,0-10.1-5-10.1-11.3c0-6.2,3.4-8.6,8.3-11.6
					c6.3-3.8,7-4.8,7-8c0-3.4-1.5-6.4-5.3-6.4c-3.4,0-4.9,2.9-5.5,5.9L-407.4,464.5z"/>
			</g>
			<g>
				<path d="M-436.9,496h-4v-36.4h-8.5V456h21.1v3.6h-8.6V496z"/>
			</g>
			<g>
				<path d="M-470.7,495.5h-19.5v-3.6h15.5v-16h-12.8v-3.6h12.8v-13.2h-15.5v-3.6h19.5V495.5z"/>
			</g>
			<g>
				<path d="M-509.8,496.5h-4V472l0.2-9.1l-0.1-0.1l-11.9,33.7h-5v-40h4v24.6l-0.2,8.9l0.1,0.1l11.9-33.7h5V496.5z"/>
			</g>
			<g>
				<path d="M-30.2,559.1v32.8h3.2v3.6h-10.7c-12.2,0-12.7-11.2-12.7-20c0-16.5,4.7-20,12.8-20h10.6v3.6H-30.2z M-34.2,559.1h-4.3
					c-3.5,0-7.6,1.2-7.6,16.4c0,15.1,3.7,16.4,8.6,16.4h3.3V559.1z"/>
			</g>
			<g>
				<path d="M-76.7,591.9h5.4v3.6h-14.9v-3.6h5.5v-32.8h-5.5v-3.6h14.9v3.6h-5.4V591.9z"/>
			</g>
			<g>
				<path d="M-110.7,597.5h-19.5v-3.6h15.5v-16h-12.8v-3.6h12.8v-13.2h-15.5v-3.6h19.5V597.5z"/>
			</g>
			<g>
				<path d="M-399.2,585.6l8.2-29.9l4.1,0.8l-11.9,40.7h-1l-11.9-40.7l4.1-0.8l8.2,29.9H-399.2z"/>
			</g>
			<g>
				<path d="M-428.7,595.5h-19.5v-3.6h15.5v-16h-12.8v-3.6h12.8v-13.2h-15.5v-3.6h19.5V595.5z"/>
			</g>
			<g>
				<path d="M-469,597h-4v-17.8h-4.5l-9,18.6l-3.6-1.7l8.3-17.2c-4.9-1.7-6.9-6.4-6.9-11.3c0-7.2,5-10.6,8.9-10.6h10.8V597z
					 M-473,560.6h-4.9c-4.1,0-6.6,1.8-6.6,7c0,5.4,2.2,8,5.6,8h5.9V560.6z"/>
			</g>
			<g>
				<g>
					<g>
						<path d="M-525.7,581.1l-3.1,13.1l-4-1.1l10.1-39.7h4.8l10.1,39.7l-4,1.1l-3.1-13.1H-525.7z M-524.8,577.5h9l-4.4-18.7h-0.1
							L-524.8,577.5z"/>
					</g>
				</g>
			</g>
			<g>
				<path d="M-549.7,593.5h-19.5v-3.6h15.5v-16h-12.8v-3.6h12.8v-13.2h-15.5v-3.6h19.5V593.5z"/>
			</g>
			<g>
				<path d="M-588.8,595.5h-4V571l0.2-9.1l-0.1-0.1l-11.9,33.7h-5v-40h4v24.6l-0.2,8.9l0.1,0.1l11.9-33.7h5V595.5z"/>
			</g>
			<g>
				<path d="M-631.2,559.1v32.8h3.2v3.6h-10.7c-12.2,0-12.7-11.2-12.7-20c0-16.5,4.7-20,12.8-20h10.6v3.6H-631.2z M-635.2,559.1
					h-4.3c-3.5,0-7.6,1.2-7.6,16.4c0,15.1,3.7,16.4,8.6,16.4h3.3V559.1z"/>
			</g>
			<g>
				<path d="M-670.7,594.5h-19.5v-3.6h15.5v-16h-12.8v-3.6h12.8v-13.2h-15.5v-3.6h19.5V594.5z"/>
			</g>
			<g>
				<path d="M-708,596h-4v-17.8h-4.5l-9,18.6l-3.6-1.7l8.3-17.2c-4.9-1.7-6.9-6.4-6.9-11.3c0-7.2,5-10.6,8.9-10.6h10.8V596z
					 M-712,559.6h-4.9c-4.1,0-6.6,1.8-6.6,7c0,5.4,2.2,8,5.6,8h5.9V559.6z"/>
			</g>
			<g>
				<path d="M-756.9,595h-4v-36.4h-8.5V555h21.1v3.6h-8.6V595z"/>
			</g>
			<g>
				<path d="M-206.7,556.7l1.9,30.1h0.1l5.8-21.1h1.2l5.8,21.1h0.1l1.9-30.1l4,0.8l-4,40.8h-1.7l-6.7-24.2h-0.1l-6.7,24.2h-1.7
					l-4-40.8L-206.7,556.7z"/>
			</g>
			<g>
				<path d="M-227.7,595.5h-19.5v-3.6h15.5v-16h-12.8v-3.6h12.8v-13.2h-15.5v-3.6h19.5V595.5z"/>
			</g>
			<g>
				<path d="M-268.4,597h-20.5v-3.6h16.4V557h4V597z"/>
			</g>
			<g>
				<path d="M-315.9,597h-4v-36.4h-8.5V557h21.1v3.6h-8.6V597z"/>
			</g>
		</g>
		<g id="Spielfeld_default" class="st7">
			<g id="Reihe_1" class="st8">
				<rect x="-815" y="150" class="st1" width="30" height="50"/>
				<rect x="-775" y="150" class="st1" width="30" height="50"/>
				<rect x="-735" y="150" class="st1" width="30" height="50"/>
				<rect x="-695" y="150" class="st1" width="30" height="50"/>
				<rect x="-655" y="150" class="st1" width="30" height="50"/>
				<rect x="-575" y="150" class="st1" width="30" height="50"/>
				<rect x="-615" y="150" class="st1" width="30" height="50"/>
				<rect x="-535" y="150" class="st1" width="30" height="50"/>
				<rect x="-495" y="150" class="st1" width="30" height="50"/>
				<rect x="-455" y="150" class="st1" width="30" height="50"/>
				<rect x="-415" y="150" class="st1" width="30" height="50"/>
				<rect x="-375" y="150" class="st1" width="30" height="50"/>
				<rect x="-335" y="150" class="st1" width="30" height="50"/>
				<rect x="-295" y="150" class="st1" width="30" height="50"/>
				<rect x="-255" y="150" class="st1" width="30" height="50"/>
				<rect x="-215" y="150" class="st1" width="30" height="50"/>
				<rect x="-175" y="150" class="st1" width="30" height="50"/>
				<rect x="-135" y="150" class="st1" width="30" height="50"/>
				<rect x="-55" y="150" class="st1" width="30" height="50"/>
				<rect x="-95" y="150" class="st1" width="30" height="50"/>
				<rect x="-815" y="250" class="st1" width="30" height="50"/>
				<rect x="-775" y="250" class="st1" width="30" height="50"/>
				<rect x="-735" y="250" class="st1" width="30" height="50"/>
				<rect x="-695" y="250" class="st1" width="30" height="50"/>
				<rect x="-655" y="250" class="st1" width="30" height="50"/>
				<rect x="-575" y="250" class="st1" width="30" height="50"/>
				<rect x="-615" y="250" class="st1" width="30" height="50"/>
				<rect x="-535" y="250" class="st1" width="30" height="50"/>
				<rect x="-495" y="250" class="st1" width="30" height="50"/>
				<rect x="-455" y="250" class="st1" width="30" height="50"/>
				<rect x="-415" y="250" class="st1" width="30" height="50"/>
				<rect x="-375" y="250" class="st1" width="30" height="50"/>
				<rect x="-335" y="250" class="st1" width="30" height="50"/>
				<rect x="-295" y="250" class="st1" width="30" height="50"/>
				<rect x="-255" y="250" class="st1" width="30" height="50"/>
				<rect x="-215" y="250" class="st1" width="30" height="50"/>
				<rect x="-175" y="250" class="st1" width="30" height="50"/>
				<rect x="-135" y="250" class="st1" width="30" height="50"/>
				<rect x="-55" y="250" class="st1" width="30" height="50"/>
				<rect x="-95" y="250" class="st1" width="30" height="50"/>
				<rect x="-815" y="350" class="st1" width="30" height="50"/>
				<rect x="-775" y="350" class="st1" width="30" height="50"/>
				<rect x="-735" y="350" class="st1" width="30" height="50"/>
				<rect x="-695" y="350" class="st1" width="30" height="50"/>
				<rect x="-655" y="350" class="st1" width="30" height="50"/>
				<rect x="-575" y="350" class="st1" width="30" height="50"/>
				<rect x="-615" y="350" class="st1" width="30" height="50"/>
				<rect x="-535" y="350" class="st1" width="30" height="50"/>
				<rect x="-495" y="350" class="st1" width="30" height="50"/>
				<rect x="-455" y="350" class="st1" width="30" height="50"/>
				<rect x="-415" y="350" class="st1" width="30" height="50"/>
				<rect x="-375" y="350" class="st1" width="30" height="50"/>
				<rect x="-335" y="350" class="st1" width="30" height="50"/>
				<rect x="-295" y="350" class="st1" width="30" height="50"/>
				<rect x="-255" y="350" class="st1" width="30" height="50"/>
				<rect x="-215" y="350" class="st1" width="30" height="50"/>
				<rect x="-175" y="350" class="st1" width="30" height="50"/>
				<rect x="-135" y="350" class="st1" width="30" height="50"/>
				<rect x="-55" y="350" class="st1" width="30" height="50"/>
				<rect x="-95" y="350" class="st1" width="30" height="50"/>
				<rect x="-815" y="450" class="st1" width="30" height="50"/>
				<rect x="-775" y="450" class="st1" width="30" height="50"/>
				<rect x="-735" y="450" class="st1" width="30" height="50"/>
				<rect x="-695" y="450" class="st1" width="30" height="50"/>
				<rect x="-655" y="450" class="st1" width="30" height="50"/>
				<rect x="-575" y="450" class="st1" width="30" height="50"/>
				<rect x="-615" y="450" class="st1" width="30" height="50"/>
				<rect x="-535" y="450" class="st1" width="30" height="50"/>
				<rect x="-495" y="450" class="st1" width="30" height="50"/>
				<rect x="-455" y="450" class="st1" width="30" height="50"/>
				<rect x="-415" y="450" class="st1" width="30" height="50"/>
				<rect x="-375" y="450" class="st1" width="30" height="50"/>
				<rect x="-335" y="450" class="st1" width="30" height="50"/>
				<rect x="-295" y="450" class="st1" width="30" height="50"/>
				<rect x="-255" y="450" class="st1" width="30" height="50"/>
				<rect x="-215" y="450" class="st1" width="30" height="50"/>
				<rect x="-175" y="450" class="st1" width="30" height="50"/>
				<rect x="-135" y="450" class="st1" width="30" height="50"/>
				<rect x="-55" y="450" class="st1" width="30" height="50"/>
				<rect x="-95" y="450" class="st1" width="30" height="50"/>
				<rect x="-815" y="550" class="st1" width="30" height="50"/>
				<rect x="-775" y="550" class="st1" width="30" height="50"/>
				<rect x="-735" y="550" class="st1" width="30" height="50"/>
				<rect x="-695" y="550" class="st1" width="30" height="50"/>
				<rect x="-655" y="550" class="st1" width="30" height="50"/>
				<rect x="-575" y="550" class="st1" width="30" height="50"/>
				<rect x="-615" y="550" class="st1" width="30" height="50"/>
				<rect x="-535" y="550" class="st1" width="30" height="50"/>
				<rect x="-495" y="550" class="st1" width="30" height="50"/>
				<rect x="-455" y="550" class="st1" width="30" height="50"/>
				<rect x="-415" y="550" class="st1" width="30" height="50"/>
				<rect x="-375" y="550" class="st1" width="30" height="50"/>
				<rect x="-335" y="550" class="st1" width="30" height="50"/>
				<rect x="-295" y="550" class="st1" width="30" height="50"/>
				<rect x="-255" y="550" class="st1" width="30" height="50"/>
				<rect x="-215" y="550" class="st1" width="30" height="50"/>
				<rect x="-175" y="550" class="st1" width="30" height="50"/>
				<rect x="-135" y="550" class="st1" width="30" height="50"/>
				<rect x="-55" y="550" class="st1" width="30" height="50"/>
				<rect x="-95" y="550" class="st1" width="30" height="50"/>
			</g>
		</g>
	</g>
	<g id="Buchstaben_gespiegelt">
		<g id="Z_Kopie">
			<g>
				<path d="M-795.5,99H-819v-3.6h17.4L-818.6,59h21.3v3.6h-15.2L-795.5,99z"/>
			</g>
		</g>
		<g id="W_Kopie">
			<g>
				<path d="M-787.7,57.7l1.9,30.1h0.1l5.8-21.1h1.2l5.8,21.1h0.1l1.9-30.1l4,0.8l-4,40.8h-1.7l-6.7-24.2h-0.1l-6.7,24.2h-1.7
					l-4-40.8L-787.7,57.7z"/>
			</g>
		</g>
		<g id="V_Kopie">
			<g>
				<path d="M-752.2,87.6l8.2-29.9l4.1,0.8l-11.9,40.7h-1l-11.9-40.7l4.1-0.8l8.2,29.9H-752.2z"/>
			</g>
		</g>
		<g id="U_Kopie">
			<g>
				<path d="M-717.5,59.5V90c0,5.9-3.7,10.1-9.8,10.1c-5.9,0-9.8-4-9.8-10.3V59.5h4v29.1c0,3.9,0.8,7.7,5.8,7.7c5,0,5.8-3.7,5.8-7.7
					V59.5H-717.5z"/>
			</g>
		</g>
		<g id="T_Kopie">
			<g>
				<path d="M-701.9,100h-4V63.6h-8.5V60h21.1v3.6h-8.6V100z"/>
			</g>
		</g>
		<g id="S_Kopie">
			<g>
				<path d="M-689.4,67.5c1-5,3.8-9.1,9.4-9.1c5.7,0,9.3,4.8,9.3,10.2c0,5.9-3.1,7.8-7.7,10.5c-4.1,2.4-7.6,4.2-7.6,9.5
					c0,4.8,2.5,7.1,5.9,7.1c4.9,0,5.8-3.4,6.4-7.8l4,0.5c-0.6,6.4-3.2,11-10.3,11c-6.7,0-10.1-5-10.1-11.3c0-6.2,3.4-8.6,8.3-11.6
					c6.3-3.8,7-4.8,7-8c0-3.4-1.5-6.4-5.3-6.4c-3.4,0-4.9,2.9-5.5,5.9L-689.4,67.5z"/>
			</g>
		</g>
		<g id="R_Kopie">
			<g>
				<path d="M-646,99h-4V81.2h-4.5l-9,18.6l-3.6-1.7l8.3-17.2c-4.9-1.7-6.9-6.4-6.9-11.3c0-7.2,5-10.6,8.9-10.6h10.8V99z M-650,62.6
					h-4.9c-4.1,0-6.6,1.8-6.6,7c0,5.4,2.2,8,5.6,8h5.9V62.6z"/>
			</g>
		</g>
		<g id="O_Kopie">
			<g>
				<path d="M-630.3,57.4c10.7,0,11.1,13.9,11.1,20.5c0,5.2,0.3,20.6-11.1,20.6c-11.3,0-11.1-15.5-11.1-20.6
					C-641.4,72.7-641.6,57.4-630.3,57.4z M-630.3,61.2c-7.1,0-6.9,9.2-6.9,16.7c0,7-0.1,16.8,6.9,16.8c5.6,0,6.9-6,6.9-16.8
					C-623.4,72.1-623.2,61.2-630.3,61.2z"/>
			</g>
		</g>
		<g id="N_Kopie">
			<g>
				<path d="M-592.8,99.5h-4V75l0.2-9.1l-0.1-0.1l-11.9,33.7h-5v-40h4v24.6l-0.2,8.9l0.1,0.1l11.9-33.7h5V99.5z"/>
			</g>
		</g>
		<g id="M_Kopie">
			<g>
				<path d="M-577.3,76l5.8-17h5l1.2,40h-4.2l-0.8-33.4h-0.1l-6.8,20.1l-6.8-20.1h-0.1L-585,99h-4.3l1.2-40h5L-577.3,76z"/>
			</g>
		</g>
		<g id="L_Kopie">
			<g>
				<path d="M-541.4,99h-20.5v-3.6h16.4V59h4V99z"/>
			</g>
		</g>
		<g id="K_Kopie">
			<g>
				<path d="M-520,59.5h4v40h-4V79.6h-1.4l-12.9,20.7l-3.4-2l13.1-20.6l-11-16.9l3.2-2l11.2,17.3h1.1V59.5z"/>
			</g>
		</g>
		<g id="J_Kopie">
			<g>
				<path d="M-489.8,84v3.7c0,7.9-4.7,11.3-9.7,11.3c-5.2,0-10.1-3.5-10.1-11.2V58.5h4v29c0,4.6,2.2,7.8,5.8,7.8
					c4.6,0,5.9-4.1,5.9-7.3v-4H-489.8z"/>
			</g>
		</g>
		<g id="I_Kopie">
			<g>
				<path d="M-474.7,94.9h5.4v3.6h-14.9v-3.6h5.5V62.1h-5.5v-3.6h14.9v3.6h-5.4V94.9z"/>
			</g>
		</g>
		<g id="H_Kopie">
			<g>
				<path d="M-444.1,98h-4V78.4h-12.4V98h-4V58h4v16.8h12.4V58h4V98z"/>
			</g>
		</g>
		<g id="G_Kopie">
			<g>
				<g>
					<path d="M-438.3,78.2h11.5v3.6h-7.5v12.1c1.4,1.1,3.5,1.9,5.2,1.9c4,0,8-2.8,8-16.6c0-4.7-0.6-17-7.3-17
						c-3.2,0-5.3,2.2-6.7,4.8l-3.5-2.2c2.2-3.7,5.5-6.4,10-6.4c10,0,11.7,13.1,11.7,20.6c0,8-1.8,20.5-12.1,20.5
						c-3.4,0-6.7-1.4-9.3-3.5V78.2z"/>
				</g>
			</g>
		</g>
		<g id="F_Kopie">
			<g>
				<path d="M-392.8,99.5h-4V79.9H-410v-3.6h13.1V63.1h-15.7v-3.6h19.7V99.5z"/>
			</g>
		</g>
		<g id="E_Kopie">
			<g>
				<path d="M-368.7,99.5h-19.5v-3.6h15.5v-16h-12.8v-3.6h12.8V63.1h-15.5v-3.6h19.5V99.5z"/>
			</g>
		</g>
		<g id="D_Kopie">
			<g>
				<path d="M-345.2,63.1v32.8h3.2v3.6h-10.7c-12.2,0-12.7-11.2-12.7-20c0-16.5,4.7-20,12.8-20h10.6v3.6H-345.2z M-349.2,63.1h-4.3
					c-3.5,0-7.6,1.2-7.6,16.4c0,15.1,3.7,16.4,8.6,16.4h3.3V63.1z"/>
			</g>
		</g>
		<g id="C_Kopie">
			<g>
				<path d="M-333.2,91.2c1.5,2.5,4,5,7.1,5c7.3,0,7.8-11.5,7.8-16.7c0-5.3-0.5-16.8-7.8-16.8c-3.1,0-5.1,2.2-6.4,4.7l-3.4-2
					c2.1-3.8,5.2-6.5,9.8-6.5c10.4,0,12,12.6,12,20.6c0,7.9-1.6,20.5-12,20.5c-4.6,0-8-2.8-10.4-6.5L-333.2,91.2z"/>
			</g>
		</g>
		<g id="B_Kopie">
			<g>
				<path d="M-301,99.5c-5.5,0-10.1-3.7-10.1-12c0-4.8,1.6-8.2,6.1-10.2c-2.9-1.6-4.3-4.4-4.3-7.7c0-6.4,4.5-10.1,8.9-10.1h12.2v3.6
					h-3.2v32.8h3.2v3.6H-301z M-295.4,75.9V63.1h-2.3c-4.9,0-7.3,1.6-7.3,6.5c0,4.2,1.9,6.4,6.1,6.4H-295.4z M-295.4,95.9V79.5h-4.4
					c-4.2,0-7.1,2-7.1,7.9c0,5.8,2.5,8.5,6.1,8.5H-295.4z"/>
			</g>
		</g>
		<g id="A_Kopie">
			<g>
				<g>
					<g>
						<path d="M-276.7,87.1l-3.1,13.1l-4-1.1l10.1-39.7h4.8l10.1,39.7l-4,1.1l-3.1-13.1H-276.7z M-275.8,83.5h9l-4.4-18.7h-0.1
							L-275.8,83.5z"/>
					</g>
				</g>
			</g>
		</g>
	</g>
	<g id="Buchstaben" class="st7">
		<g id="Z" class="st8">
			<g>
				<path d="M-265.3,62.6h-15.2V59h21.3l-16.9,36.4h17.4V99h-23.5L-265.3,62.6z"/>
			</g>
		</g>
		<g id="W" class="st8">
			<g>
				<path d="M-286,58.5l-4,40.8h-1.7l-6.7-24.2h-0.1l-6.7,24.2h-1.7l-4-40.8l4-0.8l1.9,30.1h0.1l5.8-21.1h1.2l5.8,21.1h0.1l1.9-30.1
					L-286,58.5z"/>
			</g>
		</g>
		<g id="V" class="st8">
			<g>
				<path d="M-325.4,87.6l8.2-29.9l4.1,0.8L-325,99.3h-1l-11.9-40.7l4.1-0.8l8.2,29.9H-325.4z"/>
			</g>
		</g>
		<g id="U" class="st8">
			<g>
				<path d="M-356.3,59.5v29.1c0,4,0.8,7.7,5.8,7.7c5,0,5.8-3.8,5.8-7.7V59.5h4v30.3c0,6.2-3.9,10.3-9.8,10.3
					c-6.1,0-9.8-4.1-9.8-10.1V59.5H-356.3z"/>
			</g>
		</g>
		<g id="T" class="st8">
			<g>
				<path d="M-375.9,63.6h-8.6V60h21.1v3.6h-8.5V100h-4V63.6z"/>
			</g>
		</g>
		<g id="S" class="st8">
			<g>
				<path d="M-392.2,68.1c-0.7-2.9-2.1-5.9-5.5-5.9c-3.8,0-5.3,3.1-5.3,6.4c0,3.2,0.7,4.3,7,8c4.9,2.9,8.3,5.4,8.3,11.6
					c0,6.3-3.4,11.3-10.1,11.3c-7.1,0-9.7-4.7-10.3-11l4-0.5c0.5,4.4,1.5,7.8,6.4,7.8c3.5,0,5.9-2.3,5.9-7.1c0-5.3-3.4-7.1-7.6-9.5
					c-4.6-2.7-7.7-4.6-7.7-10.5c0-5.4,3.6-10.2,9.3-10.2c5.6,0,8.4,4,9.4,9.1L-392.2,68.1z"/>
			</g>
		</g>
		<g id="R" class="st8">
			<g>
				<path d="M-431.8,59h10.8c4,0,8.9,3.4,8.9,10.6c0,4.9-2,9.6-6.9,11.3l8.3,17.2l-3.6,1.7l-9-18.6h-4.5V99h-4V59z M-427.8,77.6h5.9
					c3.5,0,5.6-2.6,5.6-8c0-5.2-2.5-7-6.6-7h-4.9V77.6z"/>
			</g>
		</g>
		<g id="O" class="st8">
			<g>
				<path d="M-436.4,78c0,5,0.2,20.6-11.1,20.6c-11.4,0-11.1-15.4-11.1-20.6c0-6.6,0.4-20.5,11.1-20.5
					C-436.2,57.4-436.4,72.7-436.4,78z M-454.4,78c0,10.8,1.3,16.8,6.9,16.8c7,0,6.9-9.8,6.9-16.8c0-7.6,0.2-16.7-6.9-16.7
					C-454.6,61.2-454.4,72.1-454.4,78z"/>
			</g>
		</g>
		<g id="N" class="st8">
			<g>
				<path d="M-484.9,59.5h5l11.9,33.7l0.1-0.1l-0.2-8.9V59.5h4v40h-5L-481,65.8l-0.1,0.1l0.2,9.1v24.5h-4V59.5z"/>
			</g>
		</g>
		<g id="M" class="st8">
			<g>
				<path d="M-494.7,59h5l1.2,40h-4.3l-0.8-33.4h-0.1l-6.8,20.1l-6.8-20.1h-0.1l-0.8,33.4h-4.2l1.2-40h5l5.8,17L-494.7,59z"/>
			</g>
		</g>
		<g id="L" class="st8">
			<g>
				<path d="M-536.4,59h4v36.4h16.4V99h-20.5V59z"/>
			</g>
		</g>
		<g id="K" class="st8">
			<g>
				<path d="M-557.8,76h1.1l11.2-17.3l3.2,2l-11,16.9l13.1,20.6l-3.4,2l-12.9-20.7h-1.4v19.9h-4v-40h4V76z"/>
			</g>
		</g>
		<g id="J" class="st8">
			<g>
				<path d="M-583.9,84v4c0,3.2,1.4,7.3,5.9,7.3c3.6,0,5.8-3.2,5.8-7.8v-29h4v29.4c0,7.6-4.9,11.2-10.1,11.2
					c-4.9,0-9.7-3.5-9.7-11.3V84H-583.9z"/>
			</g>
		</g>
		<g id="I" class="st8">
			<g>
				<path d="M-603,62.1h-5.4v-3.6h14.9v3.6h-5.5v32.8h5.5v3.6h-14.9v-3.6h5.4V62.1z"/>
			</g>
		</g>
		<g id="H" class="st8">
			<g>
				<path d="M-633.7,58h4v16.8h12.4V58h4v40h-4V78.4h-12.4V98h-4V58z"/>
			</g>
		</g>
		<g id="G" class="st8">
			<g>
				<g>
					<path d="M-639.4,96.1c-2.6,2.1-5.9,3.5-9.3,3.5c-10.3,0-12.1-12.5-12.1-20.5c0-7.5,1.7-20.6,11.7-20.6c4.5,0,7.8,2.8,10,6.4
						l-3.5,2.2c-1.4-2.6-3.5-4.8-6.7-4.8c-6.7,0-7.3,12.2-7.3,17c0,13.7,4,16.6,8,16.6c1.7,0,3.8-0.7,5.2-1.9V81.8h-7.5v-3.6h11.5
						V96.1z"/>
				</g>
			</g>
		</g>
		<g id="F" class="st8">
			<g>
				<path d="M-684.9,59.5h19.7v3.6h-15.7v13.2h13.1v3.6h-13.1v19.6h-4V59.5z"/>
			</g>
		</g>
		<g id="E" class="st8">
			<g>
				<path d="M-709.1,59.5h19.5v3.6h-15.5v13.2h12.8v3.6h-12.8v16h15.5v3.6h-19.5V59.5z"/>
			</g>
		</g>
		<g id="D" class="st8">
			<g>
				<path d="M-735.9,63.1v-3.6h10.6c8,0,12.8,3.5,12.8,20c0,8.8-0.5,20-12.7,20h-10.7v-3.6h3.2V63.1H-735.9z M-728.6,95.9h3.3
					c4.9,0,8.6-1.3,8.6-16.4c0-15.2-4.1-16.4-7.6-16.4h-4.3V95.9z"/>
			</g>
		</g>
		<g id="C" class="st8">
			<g>
				<path d="M-741.3,93.5c-2.3,3.8-5.8,6.5-10.4,6.5c-10.4,0-12-12.6-12-20.5c0-8,1.6-20.6,12-20.6c4.6,0,7.7,2.6,9.8,6.5l-3.4,2
					c-1.3-2.5-3.3-4.7-6.4-4.7c-7.3,0-7.8,11.5-7.8,16.8c0,5.2,0.5,16.7,7.8,16.7c3.1,0,5.6-2.6,7.1-5L-741.3,93.5z"/>
			</g>
		</g>
		<g id="B" class="st8">
			<g>
				<path d="M-789.7,99.5v-3.6h3.2V63.1h-3.2v-3.6h12.2c4.4,0,8.9,3.7,8.9,10.1c0,3.3-1.3,6.1-4.3,7.7c4.5,2,6.1,5.4,6.1,10.2
					c0,8.3-4.6,12-10.1,12H-789.7z M-778.8,75.9c4.1,0,6.1-2.2,6.1-6.4c0-4.9-2.5-6.5-7.3-6.5h-2.3v12.8H-778.8z M-777,95.9
					c3.6,0,6.1-2.6,6.1-8.5c0-5.9-2.9-7.9-7.1-7.9h-4.4v16.4H-777z"/>
			</g>
		</g>
		<g id="A" class="st8">
			<g>
				<g>
					<g>
						<path d="M-812,87.1l-3.1,13.1l-4-1.1l10.1-39.7h4.8l10.1,39.7l-4,1.1l-3.1-13.1H-812z M-806.4,64.8h-0.1l-4.4,18.7h9
							L-806.4,64.8z"/>
					</g>
				</g>
			</g>
		</g>
	</g>
	<g id="Zitat">
		<rect x="-438" y="4" class="st2" width="418" height="54"/>
		<text transform="matrix(1 0 0 1 -438 12.52)"><tspan x="0" y="0" class="st3 st4">„Stärker noch als das Blei in der Flinte hat das Blei im Setzkasten die Welt verän</tspan><tspan x="391.2" y="0" class="st3 st4">-</tspan><tspan x="0" y="14.4" class="st3 st4">dert.&quot; </tspan><tspan x="0" y="43.2" class="st3 st4">Johannes Gutenberg </tspan></text>
	</g>
</g>
<g id="Hilfslinien" class="st7">
</g>
</svg>
