<?xml version="1.0" encoding="utf-8"?>
<!-- Generator: Adobe Illustrator 21.0.0, SVG Export Plug-In . SVG Version: 6.00 Build 0)  -->
<svg version="1.1" xmlns="http://www.w3.org/2000/svg" xmlns:xlink="http://www.w3.org/1999/xlink" x="0px" y="0px"
	 viewBox="0 0 800 600" style="enable-background:new 0 0 800 600;" xml:space="preserve">
<style type="text/css">
	.st0{fill:#42210B;}
	.st1{fill:#0071BC;}
	.st2{fill:none;stroke:#7E0000;stroke-width:0.865;}
	.st3{fill:#AA0000;}
	.st4{fill:#FF6600;stroke:#FF4F00;stroke-width:0.704;}
	.st5{fill:#FFD42A;stroke:#FFA900;stroke-width:0.4798;}
	.st6{fill:#5F502B;stroke:#4E362B;stroke-width:0.2646;}
	.st7{fill:#8B5A2B;stroke:#8B4513;stroke-width:0.1443;}
	.st8{fill:#504416;stroke:#4E362B;stroke-width:6.538153e-02;}
	.st9{fill:none;stroke:#000000;stroke-width:0.2646;}
	.st10{fill:#4D4D4D;}
	.st11{fill:#E6E6E6;}
	.st12{fill:#F15A24;}
	.st13{fill:#CCCCCC;}
	.st14{fill:#808080;}
	.st15{fill:#FF1D25;}
	.st16{display:none;}
	.st17{display:inline;fill:#FFFFFF;}
	.st18{display:inline;}
	.st19{fill:#29ABE2;}
	.st20{fill:#E6E6E6;stroke:#000000;stroke-miterlimit:10;}
	.st21{display:none;fill:#FFFFFF;stroke:#000000;stroke-miterlimit:10;}
	.st22{fill:#00FFFF;}
</style>
<g id="Grundfläche__x2F__Feuer">
	<g>
		<rect x="77.5" y="355.5" class="st0" width="634" height="8"/>
		<path d="M711,356v7H78v-7H711 M712,355H77v9h635V355L712,355z"/>
	</g>
	<g>
		<rect x="146.5" y="373.5" class="st1" width="128" height="89"/>
		<path d="M274,374v88H147v-88H274 M275,373H146v90h129V373L275,373z"/>
	</g>
</g>
<g id="Feuer">
	<g id="layer1" >
		<g id="g4528" transform="matrix(0.95744226,0,0,0.84987177,3.5036167,13.193517)">
			<path id="path4509"  class="st2" d="M143.5,387
				c-6.7-9.1-2.9-17.6,0.5-22.8c0.6,3-3.4,11.4,1.9,8.8c5.6-4-4.2-11.5,1.3-23.3c1,4-0.6,9.2,4.2,10.9c0.5,0.4,9.7-1.9,5.4-26.5
				c11.7,8.4,6.3,18.2,6.9,27.4c1.2-3.2,3.3-5.8,6.3-7.2c-5.7,33.7,2.6,19.5,2.6,19.5c1.8-2,1.1-8.1,0.5-11.1
				c4.1,1.9,4,21.6,1.2,23.8C161,400.6,153.3,396.4,143.5,387L143.5,387z"/>
			<path id="path4528" class="st3" d="M168.7,391.3c1.5-2,3.6-6.4,5-10.2c1.4-4,1.8-6.7,1.1-7.5
				c-0.2-0.2-0.3-0.2-0.3,0.1c0,0.8-1.1,2.2-4.1,5.1c-1.2,1.2-1.1,1.2-1.7,0.6c-2-2.2-2.9-7.2-2.3-13.8c0.1-1.4,0.5-4.2,0.7-5
				c0-0.2,0-0.2-0.5,0.1c-1.5,0.9-4,3.5-5.1,5.2l-0.3,0.4l0-0.7c0.1-1,0.2-1.9,0.6-4.2c0.4-2.5,0.6-3.6,0.7-4.7
				c0.1-1.1,0-3.4-0.1-4.2c-0.3-1.7-1-3.1-2-4.1c-0.4-0.4-1-0.9-1-0.9c0,0,0,0.4,0.1,0.9c0.7,5-0.3,9.4-2.9,12.9
				c-0.6,0.8-1.7,1.9-2.4,2.5c-0.6,0.5-1.3,0.9-1.5,0.9c-0.2,0-1.1-0.5-1.5-0.8c-1.2-0.9-2.5-2.7-2.9-4.2c-0.2-0.7-0.3-0.5-0.3,1.1
				c0,1.2,0.1,2.9,0.3,4.8c0.4,4,0.2,6-0.5,7.4c-0.6,1.1-1.8,2-2.8,2c-1.2,0-2.4-1.7-3-4.5c-0.1-0.4-0.2-0.7-0.2-0.7
				c-0.1,0-0.5,0.9-0.6,1.4c-0.2,0.8-0.2,2.2-0.1,3.3c0.5,5.5,2.9,11.6,6,15.2c0.2,0.3,0.4,0.5,0.4,0.5c-0.1,0-2.1-1.8-3-2.7
				c-0.9-0.8-1.2-1.3-2-2.6c-1.2-2-2-4.1-2.3-6.3c-0.1-0.9-0.2-3.1-0.1-4c0.2-2.4,1-4.8,2.2-7.3c0.4-0.9,1.3-2.3,1.7-2.9l0.1-0.2
				l0,0.2c0.1,0.3-0.1,1.6-0.5,3.8c-0.4,2-0.5,2.8-0.4,3.6c0.1,1.3,0.6,1.8,1.8,1.5c1.3-0.3,2.3-1.2,2.8-2.5
				c0.2-0.5,0.2-0.6,0.2-1.5c0-1.2-0.1-1.7-0.8-4.4c-1.1-3.8-1.3-5.4-1.3-7.8c0-1.8,0.2-3.2,0.7-4.7c0.4-1.2,0.9-2.6,1-2.5
				c0.1,0.1,0.3,1.4,0.4,3.6c0.1,0.8,0.1,1.7,0.2,2.1c0.4,2.4,1.2,3.8,3,4.6c0.5,0.3,0.6,0.3,0.9,0.3c0.7-0.1,1.8-0.7,2.7-1.6
				c1.9-2,3-5.2,3.5-9.6c0.1-1.3,0.2-4.6,0.1-6.2c-0.1-2.5-0.4-5.1-0.8-7.6c-0.1-0.6-0.2-1.2-0.2-1.2c0,0,0.5,0.3,1.3,1
				c0.7,0.6,2,1.9,2.6,2.6c1.3,1.5,2.3,3.5,2.8,5.4c0.4,1.5,0.6,2.6,0.6,4.6c0,1.9,0,2.9-0.3,6c-0.3,3.3-0.4,4.3-0.4,6
				c0,1.4,0,1.5,0.1,1.5c0.1,0,0.2-0.1,0.2-0.3c0.3-0.7,1-2,1.4-2.6c0.8-1.2,1.8-2.3,2.9-3.1c0.7-0.5,1.6-1,1.6-1
				c0,0-0.1,0.7-0.2,1.6c-0.7,4.3-1.3,8.6-1.5,11.9c-0.1,1.7-0.2,4.5-0.1,5.5c0.2,2.3,0.8,3.4,1.7,3.3c0.4-0.1,0.7-0.3,1.4-0.9
				c0.7-0.7,1.7-2.1,2-2.8c0.5-1,0.6-2.2,0.6-4.3c0-1.6-0.1-3-0.4-4.8c-0.1-0.6-0.1-1.1-0.1-1.1c0.1-0.1,0.5,0.4,0.8,0.8
				c1.1,1.5,1.8,4.5,2.1,8.9c0.1,1.5,0.1,5.4,0,6.9c-0.3,3.3-0.8,5.5-1.4,6.5c-0.3,0.4-2.9,3-4.1,4c-0.9,0.8-2.2,1.8-2.3,1.8
				C168.3,391.9,168.5,391.6,168.7,391.3L168.7,391.3z"/>
			
				<path id="path4542" class="st4" d="
				M155.6,395c-1.9,0.1-7.1-2.9-8.8-4.7c-1.6-1.8-2.7-3.8-3.9-6.3c-1.7-3.5-2.5-9.6-1.8-12.4c0.2-1,0.7-1.7,0.8-1.4
				c1.2,3.1,1.4,4.2,2.3,4.7c0.7,0.4,0.9,0.4,1.8,0c1.3-0.6,1.9-1.5,2.2-3.4c0.2-1.3,0.1-2.8-0.2-6.3c-0.1-1.6-0.3-3.5-0.2-4.1
				l0.4-1.7l0.6,1.4c0.4,0.8,1.2,1.8,1.9,2.5c0.7,0.7,1.5,1.2,1.9,1.2c0.5,0,1.7-0.8,2.9-2c2.1-2.2,3.3-4.7,4-7.9
				c0.2-1.2,0.5-4,0.3-5.8l-0.1-1.1l1,0.9c1.4,1.2,1.8,2,1.9,3.3c0.2,0.7,0.2,1.2,0.2,3.3c0,2.5,0,2.7-0.6,5.8
				c-0.6,3.4-0.9,5.4-0.7,5.3c0.1,0,0.1-0.1,0.4-0.6c0.6-1,4.1-4.7,4.8-5.1c0.4-0.2,0.7-0.2,0.7,0c-0.1,0.4-0.6,4.3-0.7,6.1
				c-0.4,5.9,0.4,10.7,2.2,12.6c0.7,0.8,0.3,0.8,2.2-1c1.7-1.8,2.5-2.8,3.2-3.7c0.3-0.6,0.4-1.4,0.5-1.2c0.5,0.3,0.6,2.6,0.3,3.8
				c-1,4-4.2,11.3-6.4,14.2c-0.7,0.9-1.6,1.6-3.7,2.6c-1.1,0.7-3.9,1.5-4.5,1.3c-0.1,0,1.1-0.4,1.5-0.7c0.2-0.4,1.1-0.9,1.8-1.4
				c0.9-0.9,1-1,1.2-1.7c0.4-1.7,0.4-5-0.2-6.7c-0.2-0.6-0.7-1.3-0.8-1.2c0,0,0,0.3,0.1,0.7c0.1,0.9,0.1,2.3,0,2.9
				c-0.1,0.3-0.4,0.7-0.7,1.1c-0.5,0.6-0.6,0.6-0.8,0.4c-0.2-0.2-0.2-0.4-0.2-2.1c0-1.6,0.4-5,0.6-5.9c0.1-0.2,0-0.2-0.3,0
				c-0.6,0.3-1.3,1-1.7,1.6l-0.4,0.6l0.1-1.3c0.1-0.7,0.1-2.1,0.1-3.2v-1.9l-0.5-0.9c-0.3-0.7-0.7-1.2-1.3-1.7
				c-0.9-0.8-1.2-1-1.1-0.5c0.4,1.8,0.4,5.8,0,7c-0.5,1.6-1.4,2.5-2.1,2.3c-0.7-0.3-1.1-1-1.2-2.6c-0.1-1.4-0.2-1.5-0.6-0.6
				c-0.4,1.1-0.4,3.2,0,4.9c0.5,1.7,0.5,2.3,0,2.7c-0.4,0.4-1,0.5-1.1,0.1c0-0.1,0-0.7,0.1-1.4c0.1-0.6,0.2-1.3,0.2-1.5l0-0.4
				l-0.3,0.3c-0.5,0.5-1.1,2-1.3,3c-0.3,1.6,0,3.3,0.9,4.7c0.4,0.7,2.1,2.2,3.1,2.9C153.1,394.4,156.1,395.3,155.6,395L155.6,395z"
				/>
			<path id="path4544" class="st5" d="
				M156.6,395.5c-1.4-0.2-1.6-0.8-3-2c-1.8-1.5-2.3-3.8-1.7-6c0.2-0.8,1.2-3.1,1.3-3c0,0-0.1,0.8-0.2,1.5c-0.2,1.5-0.1,1.8,0.4,1.8
				c0.2,0,0.5-0.2,0.7-0.3c0.5-0.5,0.6-1.1,0.3-2.5c-0.6-2.2-0.5-4.7,0-5.6c0.2-0.3,0.1,0,0.2,1.1c0.2,1.8,0.8,2.7,1.7,2.5
				c0.8-0.2,1.7-1.7,1.9-3.1c0.2-1,0.2-4.2,0-5.3c-0.1-0.5-0.2-1-0.1-1.1c0.1-0.1,1.8,1.7,2.2,2.5l0.4,0.8l-0.1,3.2
				c0,1.8,0,3.2,0,3.2c0,0,0.3-0.4,0.6-0.8c0.5-0.7,1.5-1.7,1.7-1.6c0,0-0.2,0.8-0.3,1.5s-0.2,2.4-0.3,3.8c-0.1,2.5-0.1,2.5,0.2,2.7
				l0.3,0.2l0.6-0.7c0.8-0.8,0.9-1.3,0.8-3.1c0-0.7-0.2-1.5-0.1-1.5c0.1,0,0.7,1.2,0.8,1.8c0.3,1.2,0.3,4,0.1,5.3
				c-0.2,1.2-0.5,1.7-1.4,2.4c-0.3,0.2-0.8,0.6-1.1,0.8s-0.7,0.6-1.1,0.9c-0.6,0.4-1,0.7-2.4,0.6c-0.6,0-1,0.1-1.8-0.1L156.6,395.5z
				"/>
		</g>
		<g id="g4523" transform="matrix(0.82277859,0,0,0.77751883,19.572001,26.282224)">
			<path id="path4500"  class="st6" d="M161.8,415.4l-0.7,17.3"/>
			<path id="path4502" class="st6" d="M167.8,415.6l1,17.1"/>
			<ellipse id="path4504" class="st7" cx="164.9" cy="432.8" rx="3.9" ry="3.1"/>
			<path id="path4514" class="st8" d="M168.7,431.7
				c-0.3-0.6-0.9-1.2-1.6-1.5c-0.7-0.3-1.4-0.5-2.2-0.5c-0.7,0-1.2,0.1-1.8,0.3c-0.9,0.4-1.6,1-1.9,1.7l-0.1,0.1l0-0.1
				c0-0.2,0.7-16.3,0.7-16.3c0,0,0.3,0.1,0.4,0.1c0.6,0.1,1,0.2,1.6,0.3c0.4,0,1.6,0.1,2,0.1c0.7-0.1,1.3-0.1,1.8-0.2
				c0.1,0,0.2,0,0.2,0c0,0,1,16,1,16.1C168.7,431.8,168.7,431.8,168.7,431.7L168.7,431.7z"/>
			
				<path id="path4516"  class="st9" d="
				M165.1,432.7c-0.1,0,0-0.2,0.1-0.2c0.2-0.1,0.4,0.2,0.4,0.4c0,0.3-0.3,0.5-0.6,0.5c-0.5,0-0.7-0.5-0.7-0.9
				c0.1-0.6,0.7-0.9,1.2-0.8c0.7,0.1,1.1,0.8,1,1.5c-0.2,0.8-1,1.3-1.8,1.1c-0.9-0.2-1.5-1.2-1.3-2.1c0.2-1,1.4-1.7,2.4-1.4
				c1.2,0.3,1.8,1.5,1.6,2.7c-0.3,1.3-1.7,2-3,1.7c-1.4-0.4-2.2-1.9-1.9-3.2"/>
		</g>
		<g id="g4535" transform="matrix(0.65505399,-0.42984488,0.39539448,0.71212833,-15.383206,87.00324)">
			<path id="path4525"  class="st6" d="M33.3,387.9l-0.7,17"/>
			<path id="path4527"  class="st6" d="M39.3,388.7l1.2,16.4"/>
			<path id="ellipse4529" class="st7" d="M36.5,401.9c2.2,0,3.9,1.4,3.9,3.1c0,1.7-1.8,3.1-3.9,3.1c-2.2,0-3.9-1.4-3.9-3.1
				C32.5,403.3,34.3,401.9,36.5,401.9z"/>
			<path id="path4531"  class="st8" d="M40.2,403.9
				c-0.3-0.6-0.9-1.2-1.6-1.5c-0.7-0.3-1.4-0.5-2.2-0.5c-0.7,0-1.2,0.1-1.8,0.3c-0.9,0.4-1.6,1-1.9,1.7l-0.1,0.1l0-0.1
				c0-0.2,0.7-16.1,0.7-16.1c-0.1,0,0.1,0.1,0.2,0.1c0.6,0.1,1,0.3,1.7,0.3c0.3,0,1.5,0.2,2,0.3c0.7,0,1,0.1,1.6,0.1
				c0.1,0,0.3,0,0.4,0c0,0,1,15.2,1,15.3C40.3,404,40.3,404,40.2,403.9L40.2,403.9z"/>
			
				<path id="path4533" class="st9" d="
				M36.6,404.9c-0.1,0,0-0.2,0.1-0.2c0.2-0.1,0.4,0.2,0.4,0.4c0,0.3-0.3,0.5-0.6,0.5c-0.5,0-0.7-0.5-0.7-0.9
				c0.1-0.6,0.7-0.9,1.2-0.8c0.7,0.1,1.1,0.8,1,1.5c-0.2,0.8-1,1.3-1.8,1.1c-0.9-0.2-1.5-1.2-1.3-2.1c0.2-1,1.4-1.7,2.4-1.4
				c1.2,0.3,1.8,1.5,1.6,2.7c-0.3,1.3-1.7,2-3,1.7c-1.4-0.4-2.2-1.9-1.9-3.2"/>
		</g>
		<g id="g4547" transform="matrix(0.30814126,-0.73574018,0.6661132,0.39439631,-8.2182674,173.51664)">
			<path id="path4537"  class="st6" d="M-75.9,295.9l-0.4,18.4"/>
			<path id="path4539" class="st6" d="M-69.3,299.3l0.9,15"/>
			<path id="ellipse4541" class="st7" d="M-72.4,311.3c2.2,0,3.9,1.4,3.9,3.1s-1.8,3.1-3.9,3.1c-2.2,0-3.9-1.4-3.9-3.1
				S-74.6,311.3-72.4,311.3z"/>
			<path id="path4543"  class="st8" d="M-68.7,313.3
				c-0.3-0.6-0.9-1.2-1.6-1.5c-0.7-0.3-1.4-0.5-2.2-0.5c-0.7,0-1.2,0.1-1.8,0.3c-0.9,0.4-1.6,1-1.9,1.7l-0.1,0.1l0-0.1
				c0-0.2,0.4-17.4,0.4-17.4c0,0,0.6,0.4,0.7,0.4c-0.6-0.5,0.5,0.4,1.5,0.8c0.3,0.2,1.5,0.9,1.9,1c0.8,0.4,1.2,0.7,1.8,0.9
				c0.1,0,0.5,0.2,0.5,0.2c0.2,2.2,0.7,14,0.7,14.1C-68.6,313.4-68.6,313.4-68.7,313.3L-68.7,313.3z"/>
			
				<path id="path4545" class="st9" d="
				M-72.2,314.3c-0.1,0,0-0.2,0.1-0.2c0.2-0.1,0.4,0.2,0.4,0.4c0,0.3-0.3,0.5-0.6,0.5c-0.5,0-0.7-0.5-0.7-0.9
				c0.1-0.6,0.7-0.9,1.2-0.8c0.7,0.1,1.1,0.8,1,1.5c-0.2,0.8-1,1.3-1.8,1.1c-0.9-0.2-1.5-1.2-1.3-2.1c0.2-1,1.4-1.7,2.4-1.4
				c1.2,0.3,1.8,1.5,1.6,2.7c-0.3,1.3-1.7,2-3,1.7c-1.4-0.4-2.2-1.9-1.9-3.2"/>
		</g>
		<g id="g4583" transform="matrix(0.74085522,0.28739153,-0.27777457,0.76650469,64.526126,-12.132123)">
			<path id="path4573" class="st6" d="M250.5,374.1l-0.7,16.7"/>
			<path id="path4575" class="st6" d="M256.3,374.5l1.3,16.3"/>
			<path id="ellipse4577" class="st7" d="M253.6,387.8c2.2,0,3.9,1.4,3.9,3.1s-1.8,3.1-3.9,3.1c-2.2,0-3.9-1.4-3.9-3.1
				S251.4,387.8,253.6,387.8z"/>
			<path id="path4579" class="st8" d="M257.4,389.8
				c-0.3-0.6-0.9-1.2-1.6-1.5c-0.7-0.3-1.4-0.5-2.2-0.5c-0.7,0-1.2,0.1-1.8,0.3c-0.9,0.4-1.6,1-1.9,1.7l-0.1,0.1l0-0.1
				c0-0.2,0.6-15.7,0.6-15.7c0,0,0.3,0,0.5,0c0.6,0.1,0.9,0.2,1.6,0.3c0.3,0,1.7,0.2,2.1,0.1c0.7-0.1,1,0,1.5,0c0.1,0,0.2,0,0.2,0
				c0,0.1,1.1,15.3,1.1,15.4C257.4,389.9,257.4,389.9,257.4,389.8L257.4,389.8z"/>
			
				<path id="path4581" class="st9" d="
				M253.8,390.8c-0.1,0,0-0.2,0.1-0.2c0.2-0.1,0.4,0.2,0.4,0.4c0,0.3-0.3,0.5-0.6,0.5c-0.5,0-0.7-0.5-0.7-0.9
				c0.1-0.6,0.7-0.9,1.2-0.8c0.7,0.1,1.1,0.8,1,1.5c-0.2,0.8-1,1.3-1.8,1.1c-0.9-0.2-1.5-1.2-1.3-2.1c0.2-1,1.4-1.7,2.4-1.4
				c1.2,0.3,1.8,1.5,1.6,2.7c-0.3,1.3-1.7,2-3,1.7c-1.4-0.4-2.2-1.9-1.9-3.2"/>
		</g>
		<g id="g4540" transform="matrix(0.66396719,0.5440133,-0.63389201,0.53949206,123.06126,-9.7492008)">
			<path id="path4530" class="st6" d="M330.6,318.7l-0.5,18.2"/>
			<path id="path4532" class="st6" d="M336.7,318.9l1.2,18"/>
			<path id="ellipse4534" class="st7" d="M334,333.9c2.2,0,3.9,1.4,3.9,3.1s-1.8,3.1-3.9,3.1s-3.9-1.4-3.9-3.1
				S331.8,333.9,334,333.9z"/>
			<path id="path4536" class="st8" d="M337.7,335.8
				c-0.3-0.6-0.9-1.2-1.6-1.5c-0.7-0.3-1.4-0.5-2.2-0.5c-0.7,0-1.2,0.1-1.8,0.3c-0.9,0.4-1.6,1-1.9,1.7l-0.1,0.1l0-0.1
				c0-0.2,0.4-17.2,0.4-17.2c0,0,1,0,1.1,0c0.7,0.1,1.1,0,1.6,0c0.4,0,2.6,0,2.9,0.1c0.7-0.1-0.1,0.1,0.5,0c0.1,0,0.1,0,0.1,0.2
				c0,0,1.1,16.8,1.1,16.9C337.8,336,337.8,336,337.7,335.8L337.7,335.8z"/>
			
				<path id="path4538" class="st9" d="
				M334.2,336.9c-0.1,0,0-0.2,0.1-0.2c0.2-0.1,0.4,0.2,0.4,0.4c0,0.3-0.3,0.5-0.6,0.5c-0.5,0-0.7-0.5-0.7-0.9
				c0.1-0.6,0.7-0.9,1.2-0.8c0.7,0.1,1.1,0.8,1,1.5c-0.2,0.8-1,1.3-1.8,1.1c-0.9-0.2-1.5-1.2-1.3-2.1c0.2-1,1.4-1.7,2.4-1.4
				c1.2,0.3,1.8,1.5,1.6,2.7c-0.3,1.3-1.7,2-3,1.7c-1.4-0.4-2.2-1.9-1.9-3.2"/>
		</g>
	</g>
</g>
<g id="Kraftrad">
	<path class="st10" d="M754,247.3c0-0.5,0-1,0-1.4c0-0.5,0-1,0-1.6l-7.2-0.7c-0.1-1.9-0.3-3.7-0.6-5.5l6.9-2.2c-0.2-1-0.4-2-0.6-2.9
		l-7.2,0.7c-0.5-1.8-1-3.6-1.7-5.3l6.3-3.5c-0.4-0.9-0.8-1.8-1.2-2.7l-6.9,2.2c-0.8-1.7-1.7-3.3-2.7-4.8l5.5-4.7
		c-0.6-0.8-1.1-1.7-1.7-2.5l-6.3,3.5c-1.1-1.5-2.3-2.8-3.6-4.2l4.4-5.7c-0.7-0.7-1.4-1.4-2.2-2.1l-5.4,4.7c-1.4-1.2-2.8-2.3-4.4-3.3
		l3.2-6.5c-0.8-0.5-1.7-1.1-2.6-1.6l-4.4,5.7c-1.6-0.9-3.2-1.7-4.9-2.4l1.8-7c-0.9-0.4-1.9-0.7-2.8-1l-3.2,6.5
		c-1.7-0.5-3.5-1-5.3-1.3l0.4-7.2c-1-0.2-2-0.3-3-0.4l-1.8,7c-1.6-0.2-3.3-0.2-5-0.2c-0.2,0-0.3,0-0.5,0l-1.1-7.1c-1,0-2,0.1-3,0.2
		l-0.3,7.2c-1.8,0.2-3.6,0.5-5.4,0.8l-2.5-6.7c-1,0.2-2,0.5-2.9,0.8l1.1,7.1c-1.7,0.5-3.4,1.2-5.1,1.9l-3.8-6.1
		c-0.9,0.4-1.8,0.9-2.7,1.4l2.5,6.7c-1.6,0.9-3.1,1.8-4.6,2.9l-5-5.2c-0.8,0.6-1.6,1.2-2.4,1.9l3.8,6.1c-1.4,1.2-2.7,2.4-3.9,3.7
		l-5.9-4.1c-0.7,0.8-1.3,1.5-2,2.3l5,5.2c-1.1,1.4-2.1,2.9-3.1,4.4l-6.6-2.8c-0.5,0.9-1,1.8-1.5,2.7l5.9,4.1c-0.8,1.6-1.5,3.3-2.1,5
		l-7-1.4c-0.3,1-0.6,1.9-0.9,2.9l6.6,2.8c-0.4,1.7-0.8,3.5-1.1,5.3l-7.2,0c-0.1,1-0.2,2-0.3,3l7.1,1.4c0,0.9-0.1,1.8-0.1,2.6
		c0,0.9,0,1.8,0.1,2.7l-7.1,1.4c0.1,1,0.2,2,0.3,3l7.2,0c0.3,1.8,0.6,3.6,1.1,5.3l-6.6,2.8c0.3,1,0.6,2,0.9,2.9l7-1.5
		c0.6,1.7,1.3,3.3,2.1,5l-5.9,4.1c0.5,0.9,1,1.8,1.5,2.7l6.6-2.9c0.9,1.5,2,3,3.1,4.4l-5,5.2c0.6,0.8,1.3,1.6,2,2.3l5.9-4.1
		c1.2,1.3,2.5,2.6,3.9,3.7l-3.8,6.1c0.8,0.6,1.6,1.3,2.4,1.9l4.9-5.2c1.5,1,3,2,4.6,2.9l-2.5,6.8c0.9,0.5,1.8,0.9,2.7,1.3l3.8-6.1
		c1.7,0.7,3.3,1.4,5.1,1.9l-1.1,7.1c1,0.3,1.9,0.5,2.9,0.8l2.5-6.8c1.8,0.4,3.6,0.7,5.4,0.8l0.4,7.2c1,0.1,2,0.1,3,0.2l1.1-7.1
		c0.1,0,0.2,0,0.4,0c1.7,0,3.4-0.1,5.1-0.3l1.8,7c1-0.1,2-0.3,3-0.4l-0.4-7.2c1.8-0.4,3.6-0.8,5.3-1.4l3.2,6.5c1-0.3,1.9-0.7,2.8-1
		l-1.8-7c1.7-0.7,3.3-1.5,4.9-2.4l4.4,5.7c0.9-0.5,1.7-1,2.5-1.6l-3.2-6.5c1.5-1,3-2.2,4.4-3.4l5.5,4.7c0.7-0.7,1.5-1.4,2.2-2.1
		l-4.4-5.7c1.3-1.3,2.5-2.7,3.6-4.2l6.3,3.5c0.6-0.8,1.2-1.6,1.7-2.5l-5.5-4.7c1-1.6,1.9-3.2,2.7-4.8l6.9,2.2
		c0.4-0.9,0.8-1.8,1.2-2.7l-6.3-3.5c0.6-1.7,1.2-3.5,1.7-5.3l7.2,0.7c0.2-1,0.4-1.9,0.6-2.9l-6.9-2.1c0.3-1.8,0.5-3.6,0.5-5.5
		L754,247.3z"/>
	<g>
		<path class="st11" d="M622,355.5c-38.3,0-69.5-31.2-69.5-69.5s31.2-69.5,69.5-69.5s69.5,31.2,69.5,69.5S660.3,355.5,622,355.5z"/>
		<path d="M622,217c38,0,69,31,69,69s-31,69-69,69s-69-31-69-69S584,217,622,217 M622,216c-38.7,0-70,31.3-70,70s31.3,70,70,70
			s70-31.3,70-70S660.7,216,622,216L622,216z"/>
	</g>
	<g>
		
			<rect x="637.8" y="140" transform="matrix(0.9196 -0.3928 0.3928 0.9196 -36.8733 269.8152)" class="st12" width="6" height="170"/>
		<path d="M609.9,146.3l66.4,155.4l-4.6,2l-66.4-155.4L609.9,146.3 M610.4,145l-6.4,2.7L671.2,305l6.4-2.7L610.4,145L610.4,145z"/>
	</g>
	<g>
		<circle class="st13" cx="675.5" cy="306.5" r="6"/>
		<path d="M675.5,301c3,0,5.5,2.5,5.5,5.5s-2.5,5.5-5.5,5.5s-5.5-2.5-5.5-5.5S672.5,301,675.5,301 M675.5,300
			c-3.6,0-6.5,2.9-6.5,6.5s2.9,6.5,6.5,6.5s6.5-2.9,6.5-6.5S679.1,300,675.5,300L675.5,300z"/>
	</g>
	<g id="Ebene_10">
		<path class="st14" d="M652.9,287.7c0-0.6,0-1.1,0-1.7c0-0.1,0-0.3,0-0.4l-2.1-0.2c0-1-0.1-2-0.2-3l2-0.5c-0.1-0.7-0.2-1.4-0.4-2.1
			l-2.1,0.2c-0.2-1-0.5-2-0.8-2.9l1.9-0.9c-0.2-0.7-0.5-1.3-0.7-2l-2,0.6c-0.4-0.9-0.8-1.8-1.3-2.7l1.7-1.3
			c-0.3-0.6-0.7-1.2-1.1-1.8l-1.9,0.9c-0.6-0.8-1.2-1.6-1.8-2.4l1.4-1.6c-0.5-0.5-0.9-1-1.4-1.5l-1.7,1.3c-0.7-0.7-1.4-1.4-2.2-2
			l1.1-1.8c-0.5-0.4-1.1-0.9-1.7-1.3l-1.4,1.6c-0.8-0.6-1.7-1.1-2.6-1.5l0.7-2c-0.6-0.3-1.3-0.6-1.9-0.9l-1.1,1.8
			c-0.9-0.4-1.8-0.7-2.8-1l0.3-2.1c-0.7-0.2-1.4-0.4-2-0.5l-0.7,2c-1-0.2-1.9-0.4-2.9-0.5l-0.1-2.1c-0.7-0.1-1.4-0.1-2.1-0.1
			l-0.3,2.1c-0.2,0-0.5,0-0.7,0c-0.8,0-1.5,0-2.3,0.1l-0.4-2c-0.7,0.1-1.4,0.1-2.1,0.3l0.1,2.1c-1,0.2-2,0.4-2.9,0.6l-0.8-1.9
			c-0.7,0.2-1.4,0.4-2,0.7l0.5,2.1c-0.9,0.3-1.8,0.7-2.7,1.2l-1.2-1.7c-0.6,0.3-1.2,0.7-1.9,1l0.8,1.9c-0.8,0.5-1.7,1.1-2.5,1.7
			l-1.5-1.5c-0.6,0.4-1.1,0.9-1.6,1.4l1.2,1.7c-0.7,0.7-1.4,1.4-2.1,2.1l-1.7-1.2c-0.5,0.5-0.9,1.1-1.3,1.6l1.5,1.5
			c-0.6,0.8-1.1,1.6-1.7,2.5l-1.9-0.8c-0.4,0.6-0.7,1.2-1,1.9l1.7,1.2c-0.4,0.9-0.8,1.8-1.2,2.7l-2.1-0.4c-0.2,0.7-0.5,1.3-0.6,2
			l1.9,0.8c-0.3,0.9-0.5,1.9-0.6,2.9l-2.1,0c-0.1,0.7-0.2,1.4-0.2,2.1l2.1,0.4c-0.1,0.7-0.1,1.4-0.1,2.1c0,0.3,0,0.6,0,0.8l-2.1,0.4
			c0,0.7,0.1,1.4,0.1,2.1l2.1,0c0.1,1,0.3,2,0.5,2.9l-2,0.7c0.2,0.7,0.3,1.4,0.5,2l2.1-0.4c0.3,1,0.7,1.9,1,2.8l-1.8,1.1
			c0.3,0.6,0.6,1.3,0.9,1.9l2-0.7c0.5,0.9,1,1.7,1.6,2.5l-1.6,1.4c0.4,0.6,0.8,1.1,1.3,1.7l1.8-1.1c0.6,0.8,1.3,1.5,2,2.2l-1.3,1.7
			c0.5,0.5,1,1,1.6,1.4l1.5-1.4c0.8,0.6,1.6,1.2,2.4,1.8l-0.9,1.9c0.6,0.4,1.2,0.8,1.8,1.1l1.3-1.7c0.9,0.5,1.8,0.9,2.7,1.3l-0.5,2
			c0.6,0.3,1.3,0.5,2,0.7l0.9-1.9c0.9,0.3,1.9,0.6,2.9,0.8l-0.1,2.1c0.7,0.1,1.4,0.3,2.1,0.3l0.5-2c1,0.1,2,0.2,3,0.2l0.3,2.1
			c0.1,0,0.2,0,0.3,0c0.6,0,1.2,0,1.8-0.1l0.1-2.1c1-0.1,2-0.2,3-0.4l0.6,2c0.7-0.1,1.4-0.3,2-0.4l-0.3-2.1c1-0.3,1.9-0.6,2.9-0.9
			l1,1.8c0.7-0.3,1.3-0.5,1.9-0.8l-0.6-2c0.9-0.4,1.8-0.9,2.6-1.5l1.3,1.6c0.6-0.4,1.2-0.8,1.7-1.2l-1-1.8c0.8-0.6,1.6-1.2,2.3-1.9
			l1.6,1.3c0.5-0.5,1-1,1.5-1.5l-1.3-1.6c0.7-0.7,1.3-1.5,1.9-2.3l1.8,1c0.4-0.6,0.8-1.1,1.2-1.7l-1.6-1.3c0.5-0.9,1-1.7,1.4-2.7
			l2,0.6c0.3-0.6,0.6-1.3,0.8-1.9l-1.8-1c0.4-0.9,0.7-1.9,0.9-2.9l2.1,0.2c0.2-0.7,0.3-1.4,0.4-2l-2-0.6c0.2-1,0.3-2,0.3-3
			L652.9,287.7z"/>
		<path d="M635.5,288.5c0.1-0.5,0.2-1.1,0.2-1.6l-1.6-0.4c0-0.2,0-0.3,0-0.5c0-0.3,0-0.5,0-0.7l1.6-0.5c0-0.6-0.1-1.1-0.2-1.6
			l-1.6,0c-0.1-0.4-0.2-0.8-0.3-1.2l1.4-0.9c-0.2-0.5-0.4-1-0.7-1.5l-1.6,0.5c-0.2-0.4-0.4-0.7-0.6-1l1.1-1.2
			c-0.3-0.4-0.7-0.9-1.1-1.3l-1.4,0.9c-0.3-0.3-0.6-0.6-0.9-0.8l0.7-1.5c-0.4-0.3-0.9-0.7-1.3-0.9l-1.1,1.2
			c-0.4-0.2-0.7-0.4-1.1-0.6l0.3-1.6c-0.5-0.2-1-0.4-1.5-0.5l-0.7,1.5c-0.4-0.1-0.8-0.2-1.2-0.2l-0.1-1.6c-0.5-0.1-1.1-0.1-1.6-0.1
			l-0.3,1.6c-0.4,0-0.8,0-1.3,0.1l-0.6-1.5c-0.5,0.1-1.1,0.2-1.6,0.3l0.1,1.6c-0.4,0.1-0.8,0.3-1.2,0.4l-1-1.3
			c-0.5,0.2-1,0.5-1.4,0.8l0.6,1.5c-0.4,0.2-0.7,0.5-1,0.7l-1.3-1c-0.4,0.3-0.8,0.7-1.2,1.1l1,1.3c-0.3,0.3-0.6,0.7-0.8,1l-1.5-0.6
			c-0.3,0.4-0.6,0.9-0.8,1.4l1.3,1c-0.2,0.4-0.4,0.8-0.5,1.2l-1.6-0.2c-0.2,0.5-0.3,1-0.4,1.6l1.5,0.6c-0.1,0.4-0.1,0.8-0.2,1.3
			l-1.6,0.2c0,0.2,0,0.4,0,0.6c0,0.3,0,0.7,0,1l1.6,0.2c0,0.4,0.1,0.9,0.2,1.3l-1.5,0.7c0.1,0.5,0.3,1,0.5,1.5l1.6-0.2
			c0.2,0.4,0.3,0.8,0.5,1.2l-1.3,1c0.3,0.5,0.6,0.9,0.9,1.4l1.5-0.7c0.3,0.3,0.5,0.7,0.8,1l-0.9,1.3c0.4,0.4,0.8,0.7,1.2,1.1
			l1.3-1.1c0.3,0.3,0.7,0.5,1,0.7l-0.5,1.5c0.5,0.3,1,0.5,1.5,0.7l0.9-1.4c0.4,0.2,0.8,0.3,1.2,0.4l-0.1,1.6
			c0.5,0.1,1.1,0.2,1.6,0.3l0.5-1.6c0.4,0,0.8,0.1,1.2,0.1c0,0,0,0,0,0l0.3,1.6c0.6,0,1.1-0.1,1.6-0.1l0.1-1.6
			c0.4-0.1,0.8-0.2,1.2-0.3l0.8,1.4c0.5-0.2,1-0.4,1.5-0.6l-0.4-1.6c0.4-0.2,0.7-0.4,1.1-0.6l1.1,1.2c0.5-0.3,0.9-0.6,1.3-1
			l-0.8-1.4c0.3-0.3,0.6-0.5,0.9-0.8l1.4,0.8c0.4-0.4,0.7-0.8,1-1.3l-1.1-1.2c0.2-0.3,0.4-0.7,0.6-1l1.6,0.4c0.2-0.5,0.5-1,0.6-1.5
			l-1.4-0.8c0.1-0.4,0.2-0.8,0.3-1.2L635.5,288.5z"/>
	</g>
</g>
<g id="Ventile">
	<g>
		<path class="st15" d="M421.5,352.5c-1.3,0-3-5.3-3-14s1.7-14,3-14s3,5.3,3,14S422.8,352.5,421.5,352.5z"/>
		<path d="M421.5,325c0.9,0.4,2.5,5.3,2.5,13.5s-1.6,13.1-2.5,13.5c-0.9-0.4-2.5-5.3-2.5-13.5S420.6,325.4,421.5,325 M421.5,324
			c-1.9,0-3.5,6.5-3.5,14.5s1.6,14.5,3.5,14.5s3.5-6.5,3.5-14.5S423.4,324,421.5,324L421.5,324z"/>
	</g>
	<g>
		<path class="st15" d="M421.5,258.5c-1.3,0-3-5.3-3-14s1.7-14,3-14s3,5.3,3,14S422.8,258.5,421.5,258.5z"/>
		<path d="M421.5,231c0.9,0.4,2.5,5.3,2.5,13.5s-1.6,13.1-2.5,13.5c-0.9-0.4-2.5-5.3-2.5-13.5S420.6,231.4,421.5,231 M421.5,230
			c-1.9,0-3.5,6.5-3.5,14.5s1.6,14.5,3.5,14.5s3.5-6.5,3.5-14.5S423.4,230,421.5,230L421.5,230z"/>
	</g>
	<g>
		<path class="st15" d="M346.5,261.5c-1.3,0-3-5.3-3-14s1.7-14,3-14s3,5.3,3,14S347.8,261.5,346.5,261.5z"/>
		<path d="M346.5,234c0.9,0.4,2.5,5.3,2.5,13.5s-1.6,13.1-2.5,13.5c-0.9-0.4-2.5-5.3-2.5-13.5S345.6,234.4,346.5,234 M346.5,233
			c-1.9,0-3.5,6.5-3.5,14.5s1.6,14.5,3.5,14.5s3.5-6.5,3.5-14.5S348.4,233,346.5,233L346.5,233z"/>
	</g>
	<g>
		<path class="st15" d="M345.5,353.5c-1.3,0-3-5.3-3-14s1.7-14,3-14s3,5.3,3,14S346.8,353.5,345.5,353.5z"/>
		<path d="M345.5,326c0.9,0.4,2.5,5.3,2.5,13.5s-1.6,13.1-2.5,13.5c-0.9-0.4-2.5-5.3-2.5-13.5S344.6,326.4,345.5,326 M345.5,325
			c-1.9,0-3.5,6.5-3.5,14.5s1.6,14.5,3.5,14.5s3.5-6.5,3.5-14.5S347.4,325,345.5,325L345.5,325z"/>
	</g>
</g>
<g id="Wasserableitung">
	<g class="st16">
		<g>
			<rect x="409.5" y="244.5" class="st17" width="24" height="4"/>
			<path class="st18" d="M433,245v3h-23v-3H433 M434,244h-25v5h25V244L434,244z"/>
		</g>
		<g>
			<rect x="409.5" y="338" class="st17" width="24" height="4"/>
			<path class="st18" d="M433,338.5v3h-23v-3H433 M434,337.5h-25v5h25V337.5L434,337.5z"/>
		</g>
		<g>
			<rect x="434.5" y="244.5" class="st17" width="9" height="129"/>
			<path class="st18" d="M443,245v128h-8v-9v-21.5v-5V249v-4H443 M444,244h-10v5v88.5v5V364v10h10V244L444,244z"/>
		</g>
		<g>
			<rect x="267.5" y="364.5" class="st17" width="166" height="9"/>
			<path class="st18" d="M433,365v8H268v-8H433 M434,364H267v10h167V364L434,364z"/>
		</g>
	</g>
	<g>
		<polygon class="st19" points="267.5,373.5 267.5,364.5 434.5,364.5 434.5,342 409.5,342 409.5,338 434.5,338 434.5,248.5 
			409.5,248.5 409.5,244.5 443.5,244.5 443.5,373.5 		"/>
		<path d="M443,245v128h-9H268v-8h166h1v-1v-21.5v-1h-1h-24v-3h24h1v-1V249v-1h-1h-24v-3h24H443 M444,244h-10h-25v5h25v88.5h-25v5
			h25V364H267v10h167h10V244L444,244z"/>
	</g>
</g>
<g id="Kolben">
	<rect x="359" y="228.5" class="st20" width="50" height="121"/>
	<g class="st16">
		<rect x="381" y="144.8" class="st17" width="6" height="149"/>
		<path class="st18" d="M386.5,145.3v148h-5v-148H386.5 M387.5,144.3h-7v150h7V144.3L387.5,144.3z"/>
	</g>
	<g class="st16">
		<rect x="359.5" y="294" class="st17" width="49" height="2"/>
		<path class="st18" d="M408,294.5v1h-48v-1H408 M409,293.5h-50v3h50V293.5L409,293.5z"/>
	</g>
	<g>
		<polygon class="st12" points="359.5,296 359.5,294 381,294 381,144.8 387,144.8 387,294 408.5,294 408.5,296 		"/>
		<path d="M386.5,145.3v148.3v1h1H408v1h-48v-1h20.5h1v-1V145.3H386.5 M387.5,144.3h-7v149.3H359v3h50v-3h-21.5V144.3L387.5,144.3z"
			/>
	</g>
</g>
<g id="Kolbenachse">
	<g>
		<path class="st12" d="M357,151.5c-3.6,0-6.5-2.9-6.5-6.5s2.9-6.5,6.5-6.5h286c3.6,0,6.5,2.9,6.5,6.5s-2.9,6.5-6.5,6.5H357z"/>
		<path d="M643,139c3.3,0,6,2.7,6,6s-2.7,6-6,6H357c-3.3,0-6-2.7-6-6s2.7-6,6-6H643 M643,138H357c-3.9,0-7,3.1-7,7s3.1,7,7,7h286
			c3.8,0,7-3.1,7-7S646.8,138,643,138L643,138z"/>
	</g>
	<g>
		<circle class="st13" cx="384" cy="145" r="6.5"/>
		<path d="M384,139c3.3,0,6,2.7,6,6s-2.7,6-6,6s-6-2.7-6-6S380.7,139,384,139 M384,138c-3.9,0-7,3.1-7,7s3.1,7,7,7s7-3.1,7-7
			S387.9,138,384,138L384,138z"/>
	</g>
	<g>
		<circle class="st13" cx="607" cy="145" r="6.5"/>
		<path d="M607,139c3.3,0,6,2.7,6,6s-2.7,6-6,6s-6-2.7-6-6S603.7,139,607,139 M607,138c-3.9,0-7,3.1-7,7s3.1,7,7,7s7-3.1,7-7
			S610.9,138,607,138L607,138z"/>
	</g>
	<g>
		<rect x="495" y="143.5" class="st12" width="10" height="212"/>
		<path d="M504.5,144v211h-9V144H504.5 M505.5,143h-11v213h11V143L505.5,143z"/>
	</g>
	<g>
		<path class="st13" d="M500,154.5c-4.7,0-8.5-3.8-8.5-8.5s3.8-8.5,8.5-8.5s8.5,3.8,8.5,8.5S504.7,154.5,500,154.5z"/>
		<path d="M500,138c4.4,0,8,3.6,8,8s-3.6,8-8,8s-8-3.6-8-8S495.6,138,500,138 M500,137c-5,0-9,4-9,9s4,9,9,9s9-4,9-9
			S505,137,500,137L500,137z"/>
	</g>
</g>
<g id="Dampfzufuhr">
	<g class="st16">
		<rect x="150.5" y="182.3" class="st17" width="9" height="60.8"/>
		<path class="st18" d="M159,182.8v59.8h-8v-59.8H159 M160,181.8h-10v61.8h10V181.8L160,181.8z"/>
	</g>
	<g class="st16">
		<rect x="159.5" y="175.5" class="st17" width="171" height="9"/>
		<path class="st18" d="M330,176v8H160v-8H330 M331,175H159v10h172V175L331,175z"/>
	</g>
	<g class="st16">
		<circle class="st17" cx="155" cy="180" r="7"/>
		<path class="st18" d="M155,173.5c3.6,0,6.5,2.9,6.5,6.5s-2.9,6.5-6.5,6.5s-6.5-2.9-6.5-6.5S151.4,173.5,155,173.5 M155,172.5
			c-4.1,0-7.5,3.4-7.5,7.5s3.4,7.5,7.5,7.5s7.5-3.4,7.5-7.5S159.1,172.5,155,172.5L155,172.5z"/>
	</g>
	<g class="st16">
		<rect x="325.5" y="182.3" class="st17" width="9" height="167.5"/>
		<path class="st18" d="M334,182.8v166.5h-8V182.8H334 M335,181.8h-10v168.5h10V181.8L335,181.8z"/>
	</g>
	<circle class="st21" cx="330" cy="180" r="7.5"/>
	<g class="st16">
		<rect x="334.5" y="245" class="st17" width="24" height="4"/>
		<path class="st18" d="M358,245.5v3h-23v-3H358 M359,244.5h-25v5h25V244.5L359,244.5z"/>
	</g>
	<g class="st16">
		<rect x="334.5" y="338" class="st17" width="24" height="4"/>
		<path class="st18" d="M358,338.5v3h-23v-3H358 M359,337.5h-25v5h25V337.5L359,337.5z"/>
	</g>
	<g id="Dampfzufuhr_1_">
		<g>
			<path class="st22" d="M325.5,349.8V185.4l-0.2-0.1c-0.2-0.2-0.4-0.4-0.5-0.5l-0.1-0.2H160.4l-0.1,0.2c-0.2,0.2-0.4,0.4-0.5,0.5
				l-0.2,0.1v57.7h-9v-57.7l-0.2-0.1c-1.5-1.3-2.3-3.2-2.3-5.2c0-3.9,3.1-7,7-7c2,0,3.9,0.9,5.2,2.3l0.1,0.2h164.3l0.1-0.2
				c1.3-1.5,3.2-2.3,5.2-2.3c3.9,0,7,3.1,7,7c0,2-0.9,3.9-2.3,5.2l-0.2,0.1V245h24v4h-24v89h24v4h-24v7.8H325.5z"/>
			<path d="M330,173.5c3.6,0,6.5,2.9,6.5,6.5c0,1.8-0.8,3.6-2.2,4.8l-0.3,0.3v0.4v58.9v1h1h23v3h-23h-1v1v88v1h1h23v3h-23h-1v1v6.8
				h-8V185.6v-0.4l-0.3-0.3c-0.2-0.2-0.3-0.3-0.5-0.5l-0.3-0.3h-0.4H160.6h-0.4l-0.3,0.3c-0.2,0.2-0.3,0.3-0.5,0.5l-0.3,0.3v0.4v57
				h-8v-57v-0.4l-0.3-0.3c-1.4-1.2-2.2-3-2.2-4.8c0-3.6,2.9-6.5,6.5-6.5c1.8,0,3.6,0.8,4.8,2.2l0.3,0.3h0.4h163.8h0.4l0.3-0.3
				C326.4,174.3,328.2,173.5,330,173.5 M330,172.5c-2.2,0-4.2,1-5.6,2.5H160.6c-1.4-1.5-3.4-2.5-5.6-2.5c-4.1,0-7.5,3.4-7.5,7.5
				c0,2.2,1,4.2,2.5,5.6v58h10v-58c0.2-0.2,0.4-0.4,0.6-0.6h163.8c0.2,0.2,0.4,0.4,0.6,0.6v164.7h10v-7.8h24v-5h-24v-88h24v-5h-24
				v-58.9c1.5-1.4,2.5-3.4,2.5-5.6C337.5,175.9,334.1,172.5,330,172.5L330,172.5z"/>
		</g>
	</g>
</g>
<g id="Kessel">
	<g>
		<g>
			<path class="st22" d="M107,258.5c0.8-22.7,22.2-41,48-41s47.1,18.3,48,41H107z"/>
			<path d="M155,218c12.5,0,24.4,4.3,33.3,12c8.6,7.5,13.6,17.4,14.1,28h-94.9c0.5-10.6,5.5-20.5,14.1-28
				C130.6,222.3,142.5,218,155,218 M155,217c-26.5,0-48,18.7-48.5,42h97C203,235.7,181.5,217,155,217L155,217z"/>
		</g>
		<g>
			<path class="st19" d="M155,301.5c-26.5,0-48-18.2-48-40.6c0-0.1,0-0.2,0-0.4h96c0,0.1,0,0.2,0,0.4
				C203,283.3,181.5,301.5,155,301.5z"/>
			<path d="M202.5,261c-0.1,22.1-21.4,40-47.5,40s-47.4-17.9-47.5-40H202.5 M203.5,260h-96.9c0,0.3,0,0.6,0,0.9
				c0,22.7,21.7,41.1,48.5,41.1s48.5-18.4,48.5-41.1C203.5,260.6,203.5,260.3,203.5,260L203.5,260z"/>
		</g>
	</g>
</g>
</svg>
