<?xml version="1.0" encoding="UTF-8" standalone="no"?>
<!-- Created with Inkscape (http://www.inkscape.org/) -->

<svg
   xmlns:dc="http://purl.org/dc/elements/1.1/"
   xmlns:cc="http://creativecommons.org/ns#"
   xmlns:rdf="http://www.w3.org/1999/02/22-rdf-syntax-ns#"
   xmlns:svg="http://www.w3.org/2000/svg"
   xmlns="http://www.w3.org/2000/svg"
   xmlns:sodipodi="http://sodipodi.sourceforge.net/DTD/sodipodi-0.dtd"
   xmlns:inkscape="http://www.inkscape.org/namespaces/inkscape"
   width="210mm"
   height="297mm"
   viewBox="0 0 744.09448819 1052.3622047"
   id="svg2"
   version="1.1"
   inkscape:version="0.91 r13725"
   sodipodi:docname="Tannenbaum.svg">
  <defs
     id="defs4" />
  <sodipodi:namedview
     id="base"
     pagecolor="#ffffff"
     bordercolor="#666666"
     borderopacity="1.0"
     inkscape:pageopacity="0.0"
     inkscape:pageshadow="2"
     inkscape:zoom="0.89994183"
     inkscape:cx="245.93668"
     inkscape:cy="768.26532"
     inkscape:document-units="px"
     inkscape:current-layer="layer1"
     showgrid="false"
     inkscape:window-width="1920"
     inkscape:window-height="1028"
     inkscape:window-x="1912"
     inkscape:window-y="-8"
     inkscape:window-maximized="1" />
  <metadata
     id="metadata7">
    <rdf:RDF>
      <cc:Work
         rdf:about="">
        <dc:format>image/svg+xml</dc:format>
        <dc:type
           rdf:resource="http://purl.org/dc/dcmitype/StillImage" />
        <dc:title />
      </cc:Work>
    </rdf:RDF>
  </metadata>
  <g
     inkscape:label="Ebene 1"
     inkscape:groupmode="layer"
     id="layer1">
    <g
       id="g4737">
      <g
         transform="translate(-135.93042,-78.572499)"
         id="g4727">
        <g
           id="g4698"
           style="fill:#452415;fill-opacity:1"
           transform="translate(52.647543,38.842814)">
          <path
             sodipodi:nodetypes="ccccccccc"
             inkscape:connector-curvature="0"
             id="path4694"
             d="m 335.02166,210.64113 c -12.22302,113.34066 6.1115,300.57498 6.1115,300.57498 35.55786,13.3342 49.44764,38.89141 49.44764,38.89141 -14.44538,18.33452 -86.67227,-34.44667 -86.67227,-34.44667 1.11119,27.22398 -27.77957,61.11506 -27.77957,61.11506 -15.00097,-2.77796 0,-61.67065 0,-61.67065 -17.22334,-9.44506 -87.78345,35.55785 -87.78345,35.55785 0,0 36.11345,-57.22592 51.67,-58.8927 0,0 31.66872,-202.23529 1.11119,-281.12928"
             style="fill:#452415;fill-opacity:1;fill-rule:evenodd;stroke:#000000;stroke-width:1px;stroke-linecap:butt;stroke-linejoin:miter;stroke-opacity:1" />
          <path
             inkscape:connector-curvature="0"
             id="path4696"
             d="m 241.1267,212.30791 94.45055,-1.11119"
             style="fill:#452415;fill-opacity:1;fill-rule:evenodd;stroke:#000000;stroke-width:1px;stroke-linecap:butt;stroke-linejoin:miter;stroke-opacity:1" />
        </g>
        <path
           style="fill:#213815;fill-opacity:1;fill-rule:evenodd;stroke:#213815;stroke-width:1;stroke-linecap:butt;stroke-linejoin:miter;stroke-miterlimit:4;stroke-dasharray:none;stroke-opacity:1"
           d="m 340.02198,446.76751 c 0,0 -19.1679,54.06666 -79.44958,55.73343 0,0 36.42254,-32.39859 21.69937,-46.56617 0,0 -63.66147,47.67736 -83.66277,44.6216 0,0 57.16867,-28.65245 45.50125,-38.65309 0,0 -61.46365,35.29642 -104.79978,16.40631 0,0 68.2915,-20.23284 50.51257,-34.40042 0,0 -38.17812,-5.98391 -52.32117,-21.30554 0,0 71.89384,4.71435 56.57221,-14.53592 0,0 -37.71481,-10.21442 -48.71496,-26.71465 0,0 69.92952,6.2858 62.07227,-8.64297 0,0 -45.57204,-4.71435 -51.07211,-25.92893 0,0 77.00104,14.92877 57.35791,-15.7145 0,0 -35.35762,2.35718 -47.92922,-17.28594 0,0 78.5725,3.14289 62.07227,-20.42886 0,0 -18.85739,2.35718 -49.50067,-22.78602 0,0 83.28685,3.1429 67.57235,-19.64313 0,0 -40.07197,-5.50007 -49.50067,-22.0003 0,0 87.21547,-2.35717 61.28655,-24.35747 0,0 -34.5719,5.50008 -51.85785,-20.42885 0,0 106.8586,-9.4287 83.28685,-30.64328 0,0 -39.28626,-3.1429 -42.42916,-14.92877 0,0 91.02256,-31.24004 90.98547,-59.423341"
           id="path4702"
           inkscape:connector-curvature="0"
           sodipodi:nodetypes="ccccccccccccccccccccccc" />
        <path
           style="fill:#213815;fill-opacity:1;fill-rule:evenodd;stroke:#213815;stroke-width:1;stroke-linecap:butt;stroke-linejoin:miter;stroke-miterlimit:4;stroke-dasharray:none;stroke-opacity:1"
           d="m 337.12592,446.98797 c 0,0 19.1679,54.06666 79.44958,55.73343 0,0 -36.42254,-32.39859 -21.69937,-46.56617 0,0 63.66147,47.67736 83.66277,44.6216 0,0 -57.16867,-28.65245 -45.50125,-38.65309 0,0 61.46365,35.29642 104.79978,16.40631 0,0 -68.2915,-20.23284 -50.51257,-34.40042 0,0 38.17812,-5.98391 52.32117,-21.30554 0,0 -71.89384,4.71435 -56.57221,-14.53592 0,0 37.71481,-10.21442 48.71496,-26.71465 0,0 -69.92952,6.2858 -62.07227,-8.64297 0,0 45.57204,-4.71435 51.07211,-25.92893 0,0 -77.00104,14.92877 -57.35791,-15.7145 0,0 35.35762,2.35718 47.92922,-17.28594 0,0 -78.5725,3.14289 -62.07227,-20.42886 0,0 18.85739,2.35718 49.50067,-22.78602 0,0 -83.28685,3.1429 -67.57235,-19.64313 0,0 40.07197,-5.50007 49.50067,-22.0003 0,0 -87.21547,-2.35717 -61.28655,-24.35747 0,0 34.5719,5.50008 51.85785,-20.42885 0,0 -106.8586,-9.4287 -83.28685,-30.64328 0,0 39.28626,-3.1429 42.42916,-14.92877 0,0 -93.01937,-34.80372 -92.65512,-59.917307"
           id="path4702-1"
           inkscape:connector-curvature="0"
           sodipodi:nodetypes="ccccccccccccccccccccccc" />
        <rect
           style="opacity:1;fill:#213815;fill-opacity:1;fill-rule:nonzero;stroke:#213815;stroke-width:1;stroke-linecap:butt;stroke-linejoin:miter;stroke-miterlimit:4;stroke-dasharray:none;stroke-dashoffset:0;stroke-opacity:1"
           id="rect4725"
           width="1.1459074"
           height="6.4413886"
           x="337.26138"
           y="82.421036"
           ry="0.5729537" />
      </g>
      <rect
         ry="3.9039078"
         y="11.646552"
         x="196.89432"
         height="358.68613"
         width="8.55902"
         id="rect4735"
         style="opacity:1;fill:#213815;fill-opacity:1;fill-rule:nonzero;stroke:#213815;stroke-width:2.89780474;stroke-linecap:butt;stroke-linejoin:miter;stroke-miterlimit:4;stroke-dasharray:none;stroke-dashoffset:0;stroke-opacity:1" />
    </g>
  </g>
</svg>
