<?xml version="1.0" encoding="utf-8"?>
<!-- Generator: Adobe Illustrator 21.0.0, SVG Export Plug-In . SVG Version: 6.00 Build 0)  -->
<svg version="1.1" xmlns="http://www.w3.org/2000/svg" xmlns:xlink="http://www.w3.org/1999/xlink" x="0px" y="0px"
	 viewBox="-800 0 600 600" style="enable-background:new 0 0 800 600;" xml:space="preserve">
<style type="text/css">
	.st0{fill:none;stroke:#000000;stroke-miterlimit:10;}
	.st1{stroke:#000000;stroke-miterlimit:10;}
	.st2{fill:#808080;}
	.st3{fill:none;stroke:#FFFFFF;stroke-miterlimit:10;}
	.st4{fill:#4D4D4D;}
</style>
<g id="default">
	<circle class="st0" cx="400" cy="300" r="90.5"/>
	<circle class="st1" cx="400" cy="300" r="81.5"/>
	<polygon class="st0" points="602,452.5 438.4,341.5 541.3,510.3 422.7,352.2 465.2,545.2 404.3,357.1 381.8,553.5 385.4,355.9 
		300.3,534.3 367.8,348.5 229.4,489.7 353.6,335.9 176.9,424.5 344.3,319.3 148.4,345.7 340.9,300.6 147,262 343.7,281.8 
		172.9,182.3 352.4,264.9 223.2,115.4 366.2,251.8 292.5,68.4 383.5,243.9 373.4,46.5 402.4,242 456.9,52 420.9,246.4 534.2,84.4 
		437,256.5 596.8,140.1 448.9,271.3 637.8,213 455.4,289.2 653,295.4 455.7,308.2 640.6,378.2 449.9,326.3 	"/>
</g>
<g id="Point_2">
	<path class="st2" d="M-358.2,398.2c0.2-3,0.2-6.1,0.2-9.2c0-0.8,0-1.6,0-2.4l-11.5-1.3c-0.1-5.6-0.5-11.1-1.2-16.6l11.2-3
		c-0.5-3.8-1.2-7.7-1.9-11.4l-11.6,0.9c-1.2-5.5-2.6-10.8-4.4-16.1l10.4-5.1c-1.2-3.7-2.6-7.3-4.1-10.8l-11.2,3
		c-2.2-5.1-4.6-10.1-7.3-14.9l9.3-7c-1.9-3.4-4-6.7-6.1-9.9l-10.4,5.1c-3.1-4.6-6.5-9-10-13.2l7.8-8.6c-2.5-2.9-5.1-5.8-7.9-8.6
		l-9.3,7c-3.9-3.9-8-7.6-12.3-11.1l6-9.9c-3-2.4-6.1-4.7-9.3-6.9l-7.8,8.6c-4.6-3.1-9.3-5.9-14.1-8.5l4-10.9
		c-3.4-1.8-6.9-3.5-10.5-5l-6,9.9c-5-2.2-10.2-4.1-15.5-5.7l1.9-11.4c-3.7-1.1-7.5-2.1-11.3-3l-4,10.9c-5.3-1.2-10.8-2-16.3-2.6
		l-0.3-11.6c-3.8-0.4-7.7-0.6-11.6-0.8l-1.9,11.4c-1.2,0-2.5,0-3.8,0c-4.3,0-8.5,0.2-12.7,0.5l-2.5-11.3c-3.9,0.3-7.8,0.8-11.6,1.4
		l0.3,11.6c-5.4,0.9-10.8,2.1-16.1,3.5l-4.6-10.7c-3.8,1.1-7.5,2.3-11.1,3.6l2.5,11.3c-5.2,1.9-10.2,4.1-15.1,6.5l-6.5-9.6
		c-3.5,1.8-6.9,3.7-10.2,5.7l4.6,10.6c-4.7,2.9-9.2,5.9-13.5,9.3l-8.2-8.2c-3.1,2.4-6.1,4.9-9,7.5l6.5,9.6c-4,3.7-7.9,7.6-11.6,11.6
		l-9.6-6.5c-2.6,2.9-5.1,5.9-7.4,9l8.2,8.2c-3.3,4.4-6.3,8.9-9.2,13.6l-10.7-4.5c-2,3.4-3.8,6.8-5.6,10.3l9.6,6.5
		c-2.4,4.9-4.6,9.9-6.4,15.1l-11.3-2.4c-1.3,3.7-2.5,7.4-3.5,11.1l10.7,4.5c-1.4,5.2-2.6,10.6-3.5,16.1l-11.6-0.3
		c-0.6,3.8-1,7.7-1.4,11.6l11.3,2.4c-0.3,3.9-0.4,7.9-0.4,11.8c0,1.5,0,3.1,0.1,4.6l-11.4,1.9c0.1,3.9,0.4,7.8,0.8,11.7l11.6,0.2
		c0.6,5.5,1.5,10.9,2.7,16.2l-10.9,4.1c0.9,3.8,1.9,7.6,3,11.3l11.4-2c1.7,5.3,3.6,10.4,5.8,15.4l-9.9,6.1c1.6,3.6,3.3,7.1,5.1,10.5
		l10.8-4.1c2.6,4.9,5.5,9.5,8.6,14.1l-8.6,7.8c2.2,3.2,4.6,6.3,7,9.3l9.9-6.1c3.5,4.3,7.2,8.3,11.1,12.2l-6.9,9.3
		c2.8,2.7,5.7,5.3,8.6,7.8l8.6-7.8c4.2,3.5,8.7,6.8,13.2,9.9l-5.1,10.4c3.2,2.1,6.5,4.1,9.9,6.1l6.9-9.3c4.8,2.7,9.8,5.1,14.9,7.3
		l-3,11.2c3.6,1.5,7.2,2.8,10.9,4.1l5-10.5c5.2,1.7,10.6,3.1,16,4.3l-0.8,11.6c3.8,0.8,7.6,1.4,11.4,1.9l3-11.2
		c5.4,0.7,11,1.1,16.6,1.2l1.4,11.5c0.5,0,1.1,0,1.6,0c3.4,0,6.7-0.1,10-0.3l0.8-11.6c5.6-0.4,11.1-1,16.5-2l3.6,11.1
		c3.8-0.7,7.6-1.5,11.3-2.5l-1.4-11.5c5.4-1.4,10.7-3.1,15.9-5.1l5.6,10.2c3.6-1.4,7.1-2.9,10.6-4.6l-3.6-11c5-2.4,9.9-5.1,14.6-8
		l7.4,8.9c3.3-2.1,6.4-4.2,9.6-6.5l-5.6-10.2c4.5-3.3,8.7-6.9,12.8-10.7l9,7.4c2.8-2.6,5.5-5.4,8.2-8.2l-7.4-8.9
		c3.7-4.1,7.3-8.4,10.6-12.9l10.2,5.5c2.3-3.1,4.4-6.3,6.5-9.6l-9-7.4c2.9-4.7,5.6-9.6,8-14.7l11.1,3.5c1.6-3.5,3.1-7,4.5-10.6
		l-10.2-5.5c1.9-5.2,3.6-10.5,5-15.9l11.5,1.4c0.9-3.7,1.7-7.5,2.4-11.3l-11.1-3.5c0.9-5.4,1.5-11,1.9-16.6L-358.2,398.2z"/>
	<path d="M-454.2,402.9c0.5-3,0.9-6,1.1-9.1l-8.7-2.3c0-0.8,0.1-1.7,0.1-2.5c0-1.4,0-2.8-0.1-4.1l8.7-2.5c-0.3-3.1-0.7-6.1-1.3-9
		l-9,0.1c-0.5-2.2-1.1-4.3-1.9-6.4l7.7-4.8c-1.1-2.9-2.3-5.6-3.7-8.3l-8.7,2.6c-1.1-2-2.3-3.9-3.6-5.7l6.1-6.7
		c-1.8-2.4-3.7-4.8-5.8-7l-7.6,4.8c-1.6-1.6-3.2-3.1-5-4.6l4.1-8.1c-2.4-1.9-4.9-3.6-7.4-5.2l-6.1,6.7c-2-1.1-4-2.2-6.1-3.1l1.7-8.9
		c-2.8-1.1-5.6-2.1-8.5-3l-4,8.1c-2.2-0.6-4.5-1-6.8-1.3l-0.7-9c-2.9-0.4-5.9-0.5-9-0.5l-1.7,8.9c-2.3,0.1-4.7,0.2-6.9,0.5l-3.1-8.5
		c-3,0.5-5.9,1.1-8.8,1.9l0.8,9c-2.3,0.7-4.5,1.5-6.6,2.4l-5.3-7.3c-2.7,1.2-5.4,2.6-7.9,4.2l3.2,8.5c-2,1.3-3.9,2.7-5.7,4.1
		l-7.1-5.6c-2.3,1.9-4.4,4-6.5,6.2l5.3,7.3c-1.6,1.8-3.1,3.6-4.4,5.6l-8.3-3.5c-1.7,2.5-3.2,5-4.5,7.7l7.1,5.6c-1,2.1-2,4.3-2.8,6.6
		l-9-1.1c-0.9,2.8-1.7,5.7-2.3,8.6l8.3,3.5c-0.4,2.3-0.7,4.7-0.9,7.1l-8.9,1.3c0,1.1-0.1,2.2-0.1,3.3c0,1.9,0.1,3.7,0.2,5.6l9,1.1
		c0.2,2.4,0.6,4.7,1.1,7l-8.2,3.7c0.7,2.9,1.5,5.8,2.5,8.5l8.9-1.4c0.9,2.2,1.9,4.4,2.9,6.4l-6.9,5.8c1.4,2.6,3,5.1,4.8,7.6l8.2-3.7
		c1.4,1.9,2.9,3.7,4.5,5.4l-5.1,7.4c2.1,2.1,4.3,4.1,6.7,6l6.9-5.8c1.9,1.4,3.8,2.7,5.8,3.9l-2.9,8.5c2.6,1.5,5.3,2.8,8.1,4l5.1-7.5
		c2.1,0.8,4.3,1.6,6.6,2.2l-0.5,9c2.9,0.7,5.9,1.3,8.9,1.7l2.9-8.6c2.2,0.2,4.4,0.3,6.7,0.3c0,0,0.1,0,0.1,0l1.9,8.8
		c3.1-0.1,6.1-0.3,9-0.8l0.5-9c2.3-0.4,4.5-0.9,6.6-1.5l4.2,8c2.9-0.9,5.7-2,8.5-3.2l-2-8.8c2-1,4-2,5.9-3.2l6.2,6.5
		c2.6-1.6,5-3.4,7.3-5.4l-4.3-8c1.7-1.5,3.3-3,4.8-4.7l7.8,4.6c2-2.3,3.9-4.7,5.7-7.2l-6.3-6.5c1.2-1.9,2.4-3.8,3.4-5.8l8.7,2.3
		c1.3-2.7,2.5-5.5,3.5-8.4l-7.8-4.6c0.7-2.1,1.2-4.3,1.7-6.4L-454.2,402.9z"/>
	<polygon class="st3" points="-571,506.6 -512.4,506.6 -512.4,519 -477.5,500.9 -512.4,483 -512.4,495.2 -571,495.2 -571,495.7 
		-560.8,500.9 -571,506.2 	"/>
</g>
<g id="Point_3">
	<path class="st4" d="M-273,284.3c0-0.9,0-1.9,0-2.8c0-1,0-2.1,0-3.1l-14.2-1.4c-0.2-3.7-0.5-7.3-1.1-10.9l13.7-4.3
		c-0.3-2-0.8-3.9-1.2-5.8l-14.2,1.5c-0.9-3.6-2-7.1-3.3-10.5l12.5-6.9c-0.7-1.8-1.5-3.7-2.4-5.5l-13.6,4.3c-1.6-3.3-3.4-6.5-5.4-9.6
		l10.8-9.3c-1.1-1.7-2.2-3.3-3.4-4.9l-12.5,7c-2.2-2.9-4.6-5.7-7.2-8.3l8.8-11.3c-1.4-1.4-2.9-2.8-4.3-4.1l-10.8,9.3
		c-2.8-2.4-5.7-4.6-8.7-6.7l6.3-12.8c-1.7-1.1-3.4-2.1-5.1-3.1l-8.7,11.3c-3.2-1.8-6.4-3.4-9.8-4.8l3.6-13.8
		c-1.8-0.7-3.7-1.4-5.6-2.1l-6.3,12.9c-3.4-1.1-7-2-10.5-2.7l0.7-14.3c-2-0.3-3.9-0.6-5.9-0.9l-3.6,13.9c-3.3-0.3-6.5-0.5-9.9-0.5
		c-0.3,0-0.6,0-0.9,0l-2.2-14.1c-2,0.1-4,0.2-6,0.3l-0.7,14.3c-3.6,0.4-7.2,0.9-10.7,1.7l-5-13.4c-2,0.5-3.9,1-5.8,1.5l2.2,14.1
		c-3.5,1.1-6.8,2.4-10.1,3.8l-7.6-12.1c-1.8,0.8-3.6,1.7-5.4,2.7l5,13.4c-3.1,1.7-6.2,3.7-9.1,5.7l-9.8-10.4
		c-1.6,1.2-3.2,2.4-4.8,3.7l7.6,12.1c-2.7,2.3-5.3,4.8-7.8,7.4l-11.7-8.2c-1.4,1.5-2.7,3-3.9,4.6l9.9,10.3c-2.2,2.8-4.2,5.8-6.1,8.8
		l-13.1-5.6c-1,1.7-2,3.5-2.9,5.3l11.8,8.2c-1.6,3.2-3,6.5-4.2,9.9l-14-2.9c-0.7,1.9-1.3,3.8-1.8,5.8l13.2,5.6
		c-0.9,3.4-1.6,6.9-2.1,10.5l-14.3,0c-0.3,2-0.4,4-0.6,6.1l14,2.9c-0.1,1.7-0.1,3.5-0.1,5.3c0,1.8,0.1,3.6,0.2,5.4l-14,2.9
		c0.1,2,0.4,4,0.6,6l14.3,0c0.5,3.6,1.2,7.1,2.1,10.5l-13.2,5.6c0.6,2,1.2,3.9,1.8,5.8l14-2.9c1.2,3.4,2.6,6.7,4.2,9.8l-11.7,8.2
		c0.9,1.8,1.9,3.6,2.9,5.3l13.1-5.7c1.9,3.1,3.9,6,6.1,8.8l-9.9,10.4c1.3,1.6,2.6,3.1,3.9,4.6l11.7-8.2c2.5,2.6,5,5.1,7.8,7.4
		l-7.6,12.1c1.6,1.3,3.2,2.5,4.8,3.7l9.8-10.4c2.9,2.1,6,4,9.1,5.7l-5,13.4c1.8,0.9,3.6,1.8,5.4,2.7l7.5-12.2
		c3.3,1.4,6.7,2.7,10.1,3.8l-2.2,14.1c1.9,0.6,3.9,1.1,5.8,1.5l4.9-13.4c3.5,0.7,7.1,1.3,10.7,1.7l0.7,14.3c2,0.2,4,0.3,6,0.3
		l2.1-14.1c0.2,0,0.5,0,0.7,0c3.4,0,6.8-0.2,10.1-0.5l3.6,13.9c2-0.2,4-0.5,5.9-0.9l-0.8-14.3c3.6-0.7,7.1-1.6,10.5-2.7l6.3,12.9
		c1.9-0.6,3.8-1.3,5.6-2.1l-3.6-13.8c3.4-1.4,6.6-3,9.8-4.8l8.8,11.3c1.7-1,3.4-2.1,5.1-3.2l-6.3-12.8c3-2.1,5.9-4.3,8.7-6.7
		l10.9,9.3c1.5-1.3,2.9-2.7,4.3-4.1l-8.8-11.3c2.5-2.6,4.9-5.4,7.1-8.3l12.5,6.9c1.2-1.6,2.3-3.2,3.4-4.9l-10.9-9.3
		c2-3.1,3.7-6.3,5.3-9.6l13.7,4.3c0.8-1.8,1.6-3.6,2.3-5.5l-12.5-6.9c1.3-3.4,2.4-6.9,3.3-10.5l14.2,1.4c0.4-1.9,0.8-3.9,1.2-5.8
		l-13.7-4.3c0.6-3.6,0.9-7.2,1.1-10.9L-273,284.3z"/>
	<polygon class="st3" points="-332.1,218.6 -387.4,218.6 -387.5,206.9 -420.4,223.9 -387.4,240.9 -387.4,229.3 -332.1,229.3 
		-332.1,228.9 -341.7,223.9 -332.1,218.9 	"/>
</g>
<g id="StartPoint">
	<path d="M-575.8,182.3c0.8-4.5,1.4-9.1,1.7-13.8l-13.3-3.5c0-1.3,0.1-2.6,0.1-3.9c0-2.1-0.1-4.2-0.2-6.3l13.3-3.9
		c-0.4-4.7-1.1-9.3-2-13.8l-13.8,0.2c-0.8-3.3-1.7-6.6-2.9-9.8l11.7-7.3c-1.6-4.4-3.5-8.6-5.7-12.7l-13.2,3.9
		c-1.7-3-3.5-5.9-5.4-8.7l9.3-10.2c-2.7-3.7-5.7-7.3-8.9-10.7l-11.7,7.3c-2.4-2.5-5-4.8-7.6-7l6.2-12.3c-3.6-2.8-7.4-5.5-11.4-7.9
		l-9.2,10.2c-3-1.7-6.1-3.3-9.3-4.7l2.7-13.6c-4.2-1.8-8.6-3.3-13-4.5l-6.1,12.3c-3.4-0.9-6.8-1.5-10.3-2.1l-1.1-13.8
		c-4.5-0.5-9.1-0.8-13.7-0.8l-2.6,13.5c-3.6,0.1-7.1,0.3-10.6,0.8l-4.8-13c-4.6,0.7-9,1.7-13.4,2.9l1.2,13.7
		c-3.4,1.1-6.8,2.3-10.1,3.7l-8.1-11.2c-4.2,1.9-8.2,4-12.1,6.4l4.8,12.9c-3,2-5.9,4.1-8.7,6.3l-10.8-8.6c-3.5,2.9-6.8,6.1-9.9,9.4
		l8.1,11.1c-2.4,2.7-4.7,5.5-6.8,8.5l-12.7-5.4c-2.5,3.7-4.8,7.7-6.9,11.7l10.8,8.5c-1.6,3.3-3,6.6-4.2,10l-13.7-1.7
		c-1.4,4.3-2.6,8.7-3.5,13.1l12.7,5.3c-0.6,3.5-1.1,7.1-1.3,10.8l-13.6,2c-0.1,1.7-0.1,3.4-0.1,5.1c0,2.9,0.1,5.7,0.3,8.5l13.7,1.7
		c0.4,3.6,0.9,7.2,1.6,10.7l-12.6,5.6c1,4.5,2.3,8.8,3.9,13l13.6-2.1c1.3,3.4,2.8,6.7,4.5,9.8l-10.6,8.8c2.2,4,4.6,7.8,7.3,11.5
		l12.6-5.7c2.2,2.9,4.5,5.6,6.9,8.2l-7.8,11.3c3.2,3.2,6.6,6.3,10.2,9.2l10.6-8.9c2.8,2.1,5.8,4.1,8.8,6l-4.5,13
		c4,2.3,8.1,4.3,12.3,6.1l7.8-11.4c3.3,1.3,6.6,2.4,10,3.3l-0.8,13.8c4.4,1.1,8.9,2,13.5,2.5l4.4-13.1c3.4,0.3,6.8,0.5,10.2,0.5
		c0.1,0,0.1,0,0.2,0l2.9,13.5c4.7-0.1,9.3-0.5,13.8-1.2l0.7-13.8c3.4-0.6,6.8-1.4,10.1-2.3l6.5,12.2c4.4-1.4,8.8-3,13-4.9l-3-13.5
		c3.1-1.5,6.1-3.1,9.1-4.9l9.5,10c3.9-2.5,7.6-5.3,11.2-8.2l-6.5-12.2c2.6-2.2,5-4.6,7.4-7.1l11.9,7c3.1-3.5,6-7.1,8.6-10.9
		l-9.6-9.9c1.9-2.8,3.6-5.8,5.2-8.8l13.3,3.6c2-4.2,3.8-8.4,5.4-12.9l-11.9-7c1-3.2,1.9-6.5,2.6-9.8L-575.8,182.3z M-652.2,184.6
		c-0.5,0.8-1.1,1.6-1.6,2.4l-15-3.8c-2.6,2.4-5.6,4.4-8.8,5.9l-2.3,15.3c-1,0.2-1.9,0.4-2.9,0.6l-7.9-13.3
		c-3.7-0.1-7.2-0.8-10.4-2.1l-12.4,9.2c-0.8-0.5-1.6-1.1-2.4-1.6l3.8-15c-2.4-2.6-4.4-5.6-5.9-8.8l-15.3-2.3c-0.2-1-0.4-1.9-0.6-2.9
		l13.3-7.9c0.1-3.7,0.8-7.2,2.1-10.4l-9.2-12.4c0.5-0.8,1.1-1.6,1.6-2.4l15,3.8c2.6-2.4,5.6-4.4,8.8-5.9l2.3-15.3
		c1-0.2,1.9-0.4,2.9-0.6l7.9,13.3c3.7,0.1,7.2,0.8,10.4,2.1l12.4-9.2c0.8,0.5,1.6,1.1,2.4,1.6l-3.8,15c2.4,2.6,4.4,5.6,5.9,8.8
		l15.3,2.3c0.2,1,0.4,1.9,0.6,2.9l-13.3,7.9c-0.1,3.7-0.8,7.2-2.1,10.4L-652.2,184.6z"/>
	<polygon class="st3" points="-642.5,92.4 -701.1,92.4 -701.1,80 -736,98.1 -701.1,116 -701.1,103.8 -642.5,103.8 -642.5,103.3 
		-652.7,98.1 -642.5,92.8 	"/>
</g>
<g id="Text">
	<rect x="-537" y="44.8" style="fill:none;" width="459.1" height="89.8"/>
	<text transform="matrix(1 0 0 1 -537 61.8018)"><tspan x="0" y="0" style="font-family:'MyriadPro-Regular'; font-size:24px;">Skizze Windmühlen/Wasserrad-Minispiel</tspan><tspan x="0" y="28.8" style="font-family:'MyriadPro-Regular'; font-size:24px;">- insgesamt ca. 8 Zahnräder müssen korrekt </tspan><tspan x="0" y="57.6" style="font-family:'MyriadPro-Regular'; font-size:24px;">platziert werden</tspan></text>
</g>
</svg>
