<?xml version="1.0" encoding="UTF-8" standalone="no"?>
<svg
   xmlns:dc="http://purl.org/dc/elements/1.1/"
   xmlns:cc="http://creativecommons.org/ns#"
   xmlns:rdf="http://www.w3.org/1999/02/22-rdf-syntax-ns#"
   xmlns:svg="http://www.w3.org/2000/svg"
   xmlns="http://www.w3.org/2000/svg"
   id="svg5238"
   version="1.1"
   viewBox="0 0 210 297"
   height="297mm"
   width="210mm">
  <defs
     id="defs5232" />
  <metadata
     id="metadata5235">
    <rdf:RDF>
      <cc:Work
         rdf:about="">
        <dc:format>image/svg+xml</dc:format>
        <dc:type
           rdf:resource="http://purl.org/dc/dcmitype/StillImage" />
        <dc:title></dc:title>
      </cc:Work>
    </rdf:RDF>
  </metadata>
  <g
     id="layer1">
    <path
       id="path5811"
       d="M 2.8160658,24.16741 C 2.7380483,21.619005 3.8916696,18.980344 3.670446,16.522194 3.4738371,11.643637 4.5149834,7.329564 7.0826424,3.1371544 7.73948,2.3383279 8.32713,1.7569972 8.15172,3.270789 8.23499,3.687121 4.6109871,8.8825649 4.6772166,16.500631 c 0.024904,2.864643 -0.2417503,5.311012 -0.9354433,7.583772 -0.5136812,1.160113 -0.762057,0.855448 -0.9257075,0.08301 z"
       style="fill:#ff8080;stroke:#cb6e81;stroke-width:0.26458332px;stroke-linecap:butt;stroke-linejoin:miter;stroke-opacity:1" />
    <path
       id="path5813"
       d="M 7.6540179,4.3519338 C 6.6618302,3.8322165 6.6618302,3.8322165 6.6618302,3.8322165 Z"
       style="fill:none;stroke:#cb6e81;stroke-width:0.26458332px;stroke-linecap:butt;stroke-linejoin:miter;stroke-opacity:1" />
    <path
       id="path5815"
       d="M 6.9925593,5.9110855 C 5.9295013,5.4386151 5.9295013,5.4386151 5.9295013,5.4386151 Z"
       style="fill:none;stroke:#cb6e81;stroke-width:0.26458332px;stroke-linecap:butt;stroke-linejoin:miter;stroke-opacity:1" />
    <path
       id="path5817"
       d="M 6.1421131,7.6828488 5.0081843,7.4938609 Z"
       style="fill:none;stroke:#cb6e81;stroke-width:0.26458332px;stroke-linecap:butt;stroke-linejoin:miter;stroke-opacity:1" />
    <path
       id="path5819"
       d="M 4.063244,22.872767 2.8348215,22.707402 Z"
       style="fill:#ffaaaa;stroke:#cb6e81;stroke-width:0.26458332px;stroke-linecap:butt;stroke-linejoin:miter;stroke-opacity:1" />
    <path
       id="path5821"
       d="m 3.283668,20.770274 1.1575521,0.165365 z"
       style="fill:none;stroke:#cb6e81;stroke-width:0.26458332px;stroke-linecap:butt;stroke-linejoin:miter;stroke-opacity:1" />
    <path
       id="path5823"
       d="m 3.5199031,19.045758 1.0866816,0.07087 z"
       style="fill:none;stroke:#cb6e81;stroke-width:0.26458332px;stroke-linecap:butt;stroke-linejoin:miter;stroke-opacity:1" />
    <path
       id="path5825"
       d="m 3.7561385,17.959076 0.8976934,-0.02362 z"
       style="fill:none;stroke:#cb6e81;stroke-width:0.26458332px;stroke-linecap:butt;stroke-linejoin:miter;stroke-opacity:1" />
    <path
       id="path5827"
       d="m 3.6852677,16.116442 c 0,0 1.8190104,-0.259858 0,0 z"
       style="fill:none;stroke:#cb6e81;stroke-width:0.26458332px;stroke-linecap:butt;stroke-linejoin:miter;stroke-opacity:1" />
    <path
       id="path5829"
       d="m 3.7325149,14.391926 0.8976934,0.09449 z"
       style="fill:none;stroke:#cb6e81;stroke-width:0.26458332px;stroke-linecap:butt;stroke-linejoin:miter;stroke-opacity:1" />
    <path
       id="path5831"
       d="m 3.827009,12.596539 1.0394344,0.09449 z"
       style="fill:none;stroke:#cb6e81;stroke-width:0.26458332px;stroke-linecap:butt;stroke-linejoin:miter;stroke-opacity:1" />
    <path
       id="path5833"
       d="m 4.063244,10.99014 c 1.063058,0.118118 1.063058,0.118118 1.063058,0.118118 z"
       style="fill:none;stroke:#cb6e81;stroke-width:0.26458332px;stroke-linecap:butt;stroke-linejoin:miter;stroke-opacity:1" />
    <path
       id="path5835"
       d="M 4.4412201,9.1475067 C 5.6223958,9.3601182 5.6223958,9.3601182 5.6223958,9.3601182 Z"
       style="fill:none;stroke:#cb6e81;stroke-width:0.26458332px;stroke-linecap:butt;stroke-linejoin:miter;stroke-opacity:1" />
  </g>
</svg>
