<?xml version="1.0" encoding="UTF-8" standalone="no"?>
<svg
   xmlns:dc="http://purl.org/dc/elements/1.1/"
   xmlns:cc="http://creativecommons.org/ns#"
   xmlns:rdf="http://www.w3.org/1999/02/22-rdf-syntax-ns#"
   xmlns:svg="http://www.w3.org/2000/svg"
   xmlns="http://www.w3.org/2000/svg"
   id="svg8"
   version="1.1"
   viewBox="0 0 210 297"
   height="297mm"
   width="210mm">
  <defs
     id="defs2" />
  <metadata
     id="metadata5">
    <rdf:RDF>
      <cc:Work
         rdf:about="">
        <dc:format>image/svg+xml</dc:format>
        <dc:type
           rdf:resource="http://purl.org/dc/dcmitype/StillImage" />
        <dc:title></dc:title>
      </cc:Work>
    </rdf:RDF>
  </metadata>
  <g
     id="layer1">
    <rect
       y="0.10180758"
       x="0.10154615"
       height="105.01369"
       width="209.85321"
       id="rect4485"
       style="fill:#005f99;fill-opacity:1;stroke:#000000;stroke-width:0.1;stroke-miterlimit:4;stroke-dasharray:none;stroke-dashoffset:0;stroke-opacity:1" />
    <path
       id="path4491"
       d="M 0.05521535,79.981642 0.16812395,54.77132 5.512966,54.121652 c 5.473054,-0.665251 10.601905,-1.29782 31.291563,-1.768543 6.015655,-0.136868 10.887593,-0.412447 12.782936,-0.723064 2.161027,-0.354155 6.78638,-0.552984 15.71236,-0.675419 l 12.649781,-0.173515 10.652447,1.862251 10.652447,1.86225 12.25032,0.105426 12.25031,0.105425 4.7936,-1.01152 c 4.65256,-0.981753 5.02432,-1.00933 12.63462,-0.937179 8.94658,0.08481 13.82333,0.473749 18.00407,1.435866 1.60409,0.369149 3.47968,0.673484 4.16799,0.6763 0.6883,0.0026 2.54581,0.346509 4.12781,0.76376 2.74709,0.724542 3.41502,0.757366 14.86037,0.730294 10.83166,-0.02563 12.40654,-0.100707 16.37814,-0.780952 l 4.39413,-0.752604 3.2615,1.118124 3.63811,1.05852 -0.37583,23.914607 0.31511,24.183811 -104.97628,-0.32879 -104.87692387,0.32879 z"
       style="fill:#00d455;fill-opacity:1;stroke:#000000;stroke-width:0.11457767;stroke-miterlimit:4;stroke-dasharray:none;stroke-dashoffset:0;stroke-opacity:1" />
    <ellipse
       ry="17.372087"
       rx="39.555458"
       cy="81.046219"
       cx="103.16607"
       id="path4493"
       style="fill:#d3bc5f;fill-opacity:1;stroke:#000000;stroke-width:0.0028654;stroke-miterlimit:4;stroke-dasharray:none;stroke-dashoffset:0;stroke-opacity:1" />
    <path
       id="path4501"
       d="m 20.586749,31.187766 c 3.873621,4.968604 8.930447,5.236046 15.0718,1.511904 5.258668,4.33186 9.337037,2.128549 13.087425,-0.09449 7.540694,3.628413 12.179172,-1.166207 15.780506,-3.96875 C 68.66882,20.53649 67.511054,18.177804 63.392553,16.068718 62.285644,12.920741 61.098104,9.2006082 48.179012,13.98985 44.944608,11.996193 42.49964,7.8670253 37.2177,14.46232 c -2.088145,-4.013666 -9.421436,-3.063374 -12.662201,0 -4.491874,2.064282 -4.284924,4.723899 -4.44122,6.898065 -4.330846,4.634105 -4.764482,8.088793 0.47247,9.827381 z"
       style="fill:#cccccc;stroke:#000000;stroke-width:0.065;stroke-linecap:butt;stroke-linejoin:miter;stroke-miterlimit:4;stroke-dasharray:none;stroke-opacity:1" />
    <path
       style="fill:#cccccc;stroke:#000000;stroke-width:0.065;stroke-linecap:butt;stroke-linejoin:miter;stroke-miterlimit:4;stroke-dasharray:none;stroke-opacity:1"
       d="m 128.08753,-4.0449321 c -3.99869,-6.7195299 -7.3201,-7.1465049 -13.33454,-1.645545 -4.24885,-4.8455709 -4.75856,-10.8921319 -14.824658,0.228135 -17.91263,-13.8028069 -12.15668,1.481268 -15.78051,3.9687502 -6.64811,3.045856 -3.1003,10.112041 1.13393,12.5677099 2.784936,4.261773 6.209198,7.961549 13.47629,2.279322 2.839898,1.766626 5.218348,4.981735 12.698558,-0.672922 6.74618,5.023083 9.23394,5.348464 12.66218,0 2.73609,-2.9516776 5.62343,-1.161397 6.14211,-11.2447861 0.93752,-5.1383732 1.80661,-5.4158675 -2.17336,-5.480654 z"
       id="path4503" />
    <path
       id="path4496"
       d="m 229.11541,26.423794 c -3.99869,-6.71953 -7.3201,-7.146505 -13.33454,-1.645545 -4.24885,-4.845571 -4.75856,-10.892132 -14.82466,0.228135 -17.91263,-13.802807 -12.15668,1.481268 -15.78051,3.96875 -6.64811,3.045856 -3.1003,10.112041 1.13393,12.56771 2.78494,4.261773 6.2092,7.961549 13.47629,2.279322 2.8399,1.766626 5.21835,4.981735 12.69856,-0.672922 6.74618,5.023083 9.23394,5.348464 12.66218,0 2.73609,-2.951678 5.62343,-1.161397 6.14211,-11.244786 0.93752,-5.138373 1.80661,-5.415868 -2.17336,-5.480654 z"
       style="fill:#cccccc;stroke:#000000;stroke-width:0.065;stroke-linecap:butt;stroke-linejoin:miter;stroke-miterlimit:4;stroke-dasharray:none;stroke-opacity:1" />
  </g>
</svg>
