<?xml version="1.0" encoding="UTF-8" standalone="no"?>
<svg
   xmlns:dc="http://purl.org/dc/elements/1.1/"
   xmlns:cc="http://creativecommons.org/ns#"
   xmlns:rdf="http://www.w3.org/1999/02/22-rdf-syntax-ns#"
   xmlns:svg="http://www.w3.org/2000/svg"
   xmlns="http://www.w3.org/2000/svg"
   id="svg5238"
   version="1.1"
   viewBox="0 0 210 297"
   height="297mm"
   width="210mm">
  <defs
     id="defs5232" />
  <metadata
     id="metadata5235">
    <rdf:RDF>
      <cc:Work
         rdf:about="">
        <dc:format>image/svg+xml</dc:format>
        <dc:type
           rdf:resource="http://purl.org/dc/dcmitype/StillImage" />
        <dc:title></dc:title>
      </cc:Work>
    </rdf:RDF>
  </metadata>
  <g
     id="layer1">
    <path
       id="path6551"
       d="M 11.887993,27.180037 C 11.55328,26.733203 11.286552,26.303582 11.018046,25.778743 10.691124,25.139777 10.385942,24.618552 10.151015,24.298057 L 10.002027,24.094785 9.8682363,23.286457 C 9.794584,22.841946 9.7184394,22.334683 9.6988522,22.159345 9.6608362,21.818886 9.6666302,21.415988 9.7113142,21.319739 9.8207812,21.083102 9.7938512,20.438939 9.6080941,18.849608 9.4368084,17.384124 9.433269,17.341089 9.4638968,17.098549 9.4783008,16.985426 9.5772479,16.581291 9.6840089,16.200511 9.7907732,15.819718 9.9008358,15.382371 9.9285796,15.22863 l 0.05051,-0.279535 0.2794164,-0.506285 c 0.153681,-0.27845 0.354976,-0.619105 0.44733,-0.757045 0.09238,-0.137848 0.254767,-0.414916 0.360905,-0.615556 0.114208,-0.215906 0.253727,-0.436316 0.341843,-0.540094 0.170324,-0.200602 1.067028,-1.078766 1.139049,-1.115564 0.02635,-0.01345 0.244098,-0.0445 0.483998,-0.06994 0.532048,-0.0552 0.713655,-0.144935 0.908997,-0.448804 0.04543,-0.07059 0.222026,-0.258538 0.392555,-0.417825 0.287365,-0.268298 0.338163,-0.298911 0.693683,-0.418557 0.32731,-0.1098729 0.421847,-0.1629535 0.643639,-0.3613503 0.493694,-0.4415227 1.850933,-1.1343673 2.628533,-1.3416883 0.659821,-0.175966 1.415285,-0.4487779 1.712872,-0.6185444 0.125942,-0.07216 0.316289,-0.2109753 0.422914,-0.3090241 0.106619,-0.098127 0.226196,-0.1790969 0.26576,-0.1798414 0.03942,-0.00111 0.206449,-0.027925 0.37086,-0.060809 0.369551,-0.073336 0.557516,-0.04541 0.689604,0.1026943 0.267138,0.299355 0.297814,0.7869796 0.114209,1.815677 -0.234305,1.3126022 -0.376468,2.7725652 -0.372427,3.8245292 7.05e-4,0.224427 0.0028,0.692375 0.0042,1.03988 0.0036,0.939313 -0.01327,1.246235 -0.09068,1.648678 -0.09917,0.515938 -0.167979,1.237751 -0.239075,2.508245 -0.06988,1.248286 -0.155542,2.009531 -0.280722,2.494078 -0.09171,0.354982 -0.120892,0.417747 -0.517155,1.112288 -0.194239,0.340472 -0.244075,0.451295 -0.405358,0.901482 -0.101149,0.282303 -0.279125,0.854822 -0.395515,1.272206 -0.116394,0.417394 -0.256864,0.894945 -0.312185,1.061241 -0.05525,0.166268 -0.199177,0.627561 -0.31972,1.025095 -0.204521,0.674381 -0.24,0.767941 -0.530261,1.397864 -0.287865,0.62473 -0.330079,0.701338 -0.565487,1.026401 -0.139924,0.193187 -0.294062,0.397365 -0.342513,0.453698 -0.05878,0.06826 -0.08671,0.122402 -0.08393,0.162434 0.0063,0.09618 -0.137011,0.197077 -0.373888,0.262751 -0.391963,0.108706 -1.356626,0.203966 -1.477721,0.146015 -0.06295,-0.03014 -0.28966,-0.177074 -0.503794,-0.32656 -0.531067,-0.370748 -0.82074,-0.474928 -1.276938,-0.459271 -0.179439,0.0064 -0.396555,-0.100594 -0.884785,-0.435219 -0.184121,-0.12618 -0.819504,-0.776333 -1.019056,-1.042725 z"
       style="fill:#1a1a1a;fill-opacity:0.92665035;stroke:#000000;stroke-width:0.03497962;stroke-miterlimit:4;stroke-dasharray:none;stroke-dashoffset:0;stroke-opacity:1" />
    <path
       style="fill:#1a1a1a;fill-opacity:0.99511001;stroke:#000000;stroke-width:0.018;stroke-miterlimit:4;stroke-dasharray:none;stroke-dashoffset:0;stroke-opacity:1"
       d="m 18.570948,27.099978 c 0.18252,-0.257752 0.320625,-0.487966 0.450437,-0.750877 0.158059,-0.320092 0.313116,-0.593506 0.440535,-0.776737 l 0.08083,-0.116221 0.01018,-0.315505 c 0.0055,-0.17352 0.0067,-0.369026 0.0024,-0.434445 -0.0083,-0.127025 -0.05239,-0.26109 -0.09218,-0.279341 -0.0978,-0.04492 -0.143909,-0.270812 -0.176473,-0.866461 -0.03004,-0.549227 -0.03192,-0.564882 -0.07693,-0.636923 -0.02105,-0.03357 -0.128517,-0.138312 -0.238969,-0.232665 -0.110456,-0.09436 -0.228782,-0.206746 -0.262942,-0.249762 l -0.06216,-0.07818 -0.240103,-0.08153 c -0.132015,-0.04488 -0.302641,-0.09544 -0.378995,-0.112528 -0.07649,-0.01695 -0.214267,-0.05858 -0.306317,-0.09234 -0.0991,-0.03629 -0.21574,-0.0661 -0.285824,-0.073 -0.135592,-0.01325 -0.831667,-0.02295 -0.884208,-0.01235 -0.01914,0.0038 -0.170072,0.063 -0.335385,0.131096 -0.366575,0.151469 -0.498763,0.179237 -0.661634,0.139141 -0.03788,-0.0093 -0.176448,-0.01628 -0.308057,-0.01551 -0.221774,0.0013 -0.259284,0.0072 -0.512459,0.08049 -0.233056,0.06755 -0.302503,0.07986 -0.47279,0.0838 -0.379204,0.0089 -1.369278,0.208954 -1.917592,0.387541 -0.46527,0.151523 -1.005103,0.300935 -1.223966,0.338769 -0.09265,0.01591 -0.235664,0.0299 -0.317809,0.03091 -0.08213,0.001 -0.171364,0.01187 -0.198273,0.02426 -0.02686,0.01223 -0.142874,0.05652 -0.257709,0.09802 -0.258078,0.09338 -0.3828206,0.162878 -0.45767,0.255064 -0.1513813,0.18639 -0.1235408,0.360728 0.1037136,0.649144 0.2899794,0.368004 0.5321464,0.815183 0.6343914,1.171425 0.02192,0.07596 0.06722,0.234506 0.100867,0.352243 0.09126,0.318108 0.133367,0.416266 0.226068,0.527309 0.118785,0.142391 0.237508,0.363949 0.412541,0.769912 0.172002,0.398856 0.306092,0.628336 0.439388,0.751821 0.09766,0.09047 0.123715,0.102315 0.461907,0.210012 0.165679,0.05287 0.210684,0.07423 0.365026,0.174606 0.09681,0.06292 0.274702,0.199219 0.395331,0.302851 0.12063,0.103633 0.263611,0.219865 0.317737,0.258302 0.05407,0.03844 0.197779,0.148085 0.319241,0.243695 0.206071,0.162184 0.239482,0.182414 0.499309,0.302176 0.257667,0.118792 0.293967,0.13114 0.486077,0.165627 0.114128,0.02053 0.239197,0.04008 0.277683,0.04361 0.04662,0.0043 0.07097,0.01365 0.07306,0.02806 0.0054,0.03446 0.112682,0.02268 0.279924,-0.03085 0.2768,-0.0886 1.360182,0.04862 1.436565,-0.0096 0.0397,-0.03032 0.66903,-0.11691 0.799444,-0.235775 0.323337,-0.29484 0.178771,-0.800555 0.489873,-0.941085 0.122413,-0.05517 -8.28e-4,-0.261091 0.29701,-0.530064 0.112347,-0.101413 0.159663,-0.494354 0.268479,-0.648022 z"
       id="path5797" />
    <path
       id="path5799"
       d="M 18.99412,10.840827 C 18.870897,10.786999 18.77041,10.732435 18.666375,10.662852 18.539709,10.57814 18.42381,10.511001 18.337109,10.47213 l -0.05498,-0.02465 -0.06888,-0.121442 c -0.0379,-0.06678 -0.07858,-0.143387 -0.09043,-0.170212 -0.02302,-0.05208 -0.03369,-0.116314 -0.02209,-0.133869 0.02837,-0.043136 -4.97e-4,-0.1439792 -0.110686,-0.3867015 -0.101604,-0.223808 -0.104101,-0.230456 -0.101658,-0.2705062 0.0011,-0.018684 0.02089,-0.087863 0.04389,-0.1537345 0.023,-0.065873 0.04531,-0.1408879 0.04958,-0.1666996 l 0.0078,-0.046929 0.07546,-0.094596 c 0.0415,-0.052024 0.09662,-0.1163534 0.122479,-0.1429544 0.02587,-0.026587 0.07026,-0.078839 0.09867,-0.1160927 0.03057,-0.040089 0.06926,-0.082182 0.09479,-0.1031458 0.04937,-0.040523 0.31481,-0.2256244 0.337181,-0.2351381 0.0082,-0.00348 0.07832,-0.019515 0.155865,-0.035794 0.172016,-0.035906 0.228521,-0.059411 0.282838,-0.1175969 0.01263,-0.01352 0.06444,-0.052354 0.115164,-0.086331 0.08547,-0.057237 0.101109,-0.064686 0.213472,-0.1018113 0.103456,-0.034135 0.132672,-0.047381 0.198914,-0.09018 0.147451,-0.095252 0.569054,-0.2744443 0.816511,-0.3470177 0.209974,-0.061588 0.448162,-0.1434247 0.540047,-0.1855475 0.03887,-0.017875 0.09671,-0.049616 0.128467,-0.070615 0.03176,-0.021012 0.06828,-0.039961 0.08118,-0.042098 0.01284,-0.00219 0.06654,-0.014966 0.119206,-0.028572 0.118389,-0.030492 0.262326,-0.078511 0.310073,-0.061749 0.09656,0.033873 0.270736,0.062539 0.24284,0.2351437 0.02558,0.043927 0.09056,0.3250339 0.02161,0.7887607 0.0072,0.035576 -0.08323,0.1697316 -0.07195,0.2248041 0.03046,0.148867 -0.02313,0.1341381 -0.03589,0.2019529 -0.0163,0.086931 0.0089,0.2610656 -0.0912,0.3416374 0.01608,0.2016484 0.01183,0.3268159 -0.01394,0.4100921 -0.01888,0.061008 -0.02646,0.072457 -0.134209,0.2028877 -0.05281,0.063938 -0.06564,0.084067 -0.104271,0.1637326 -0.02423,0.049957 -0.06451,0.1498873 -0.0895,0.222058 -0.025,0.072172 -0.05599,0.155118 -0.06887,0.184329 -0.01286,0.0292 -0.04548,0.109746 -0.07246,0.178979 -0.04577,0.117448 -0.05444,0.134105 -0.129588,0.248872 -0.07453,0.113822 -0.08593,0.128133 -0.152668,0.191726 -0.03967,0.03779 -0.08364,0.07806 -0.09771,0.08947 -0.01707,0.01383 -0.0245,0.02384 -0.02235,0.03006 0.0051,0.01493 -0.0386,0.03826 -0.113901,0.06077 -0.124604,0.03725 -0.436637,0.101584 -0.477986,0.09857 -0.0215,-0.0016 -0.100104,-0.01332 -0.174686,-0.02612 -0.184969,-0.03173 -0.282806,-0.03348 -0.431286,-0.0077 -0.0584,0.01017 -0.132627,0.0043 -0.302482,-0.02392 -0.06406,-0.01063 -0.291796,-0.08138 -0.365259,-0.113468 z"
       style="fill:#1a1a1a;fill-opacity:0.66503667;stroke:#000000;stroke-width:0.00808375;stroke-miterlimit:4;stroke-dasharray:none;stroke-dashoffset:0;stroke-opacity:1" />
    <path
       id="path5803"
       d="m 17.973876,22.196812 c 0.44387,-3.701234 -0.408878,-6.736636 1.503391,-11.191912 0.369288,-0.573516 1.439842,-1.1470315 2.355313,-1.7205472 l -0.350792,4.7607382 -0.03341,1.570209 -0.233861,2.889852 -0.384199,2.288495 -0.818513,1.77066 c 0,0 -0.400905,2.488948 -0.701583,1.620322 l -0.16704,-0.868626 -0.497504,-0.953142 z"
       style="fill:#333333;fill-opacity:1;stroke:none;stroke-width:0.05;stroke-linecap:butt;stroke-linejoin:miter;stroke-miterlimit:4;stroke-dasharray:none;stroke-opacity:1" />
  </g>
</svg>
