<?xml version="1.0" encoding="UTF-8" standalone="no"?>
<svg
   xmlns:dc="http://purl.org/dc/elements/1.1/"
   xmlns:cc="http://creativecommons.org/ns#"
   xmlns:rdf="http://www.w3.org/1999/02/22-rdf-syntax-ns#"
   xmlns:svg="http://www.w3.org/2000/svg"
   xmlns="http://www.w3.org/2000/svg"
   xmlns:sodipodi="http://sodipodi.sourceforge.net/DTD/sodipodi-0.dtd"
   xmlns:inkscape="http://www.inkscape.org/namespaces/inkscape"
   id="svg6262"
   version="1.1"
   viewBox="0 0 210 297"
   height="297mm"
   width="210mm"
   inkscape:version="0.91 r13725"
   sodipodi:docname="Wolke1.svg">
  <sodipodi:namedview
     pagecolor="#ffffff"
     bordercolor="#666666"
     borderopacity="1"
     objecttolerance="10"
     gridtolerance="10"
     guidetolerance="10"
     inkscape:pageopacity="0"
     inkscape:pageshadow="2"
     inkscape:window-width="1920"
     inkscape:window-height="1017"
     id="namedview7"
     showgrid="false"
     inkscape:zoom="2.2932886"
     inkscape:cx="84.236939"
     inkscape:cy="974.80144"
     inkscape:window-x="-8"
     inkscape:window-y="-8"
     inkscape:window-maximized="1"
     inkscape:current-layer="svg6262" />
  <defs
     id="defs6256" />
  <metadata
     id="metadata6259">
    <rdf:RDF>
      <cc:Work
         rdf:about="">
        <dc:format>image/svg+xml</dc:format>
        <dc:type
           rdf:resource="http://purl.org/dc/dcmitype/StillImage" />
        <dc:title />
      </cc:Work>
    </rdf:RDF>
  </metadata>
  <path
     inkscape:connector-curvature="0"
     style="fill:#cccccc;stroke:#000000;stroke-width:0.065;stroke-linecap:butt;stroke-linejoin:miter;stroke-miterlimit:4;stroke-dasharray:none;stroke-opacity:1"
     d="m 5.8615999,23.35344 c 3.8736206,4.968601 8.9304471,5.236041 15.0718001,1.5119 5.258668,4.33186 9.337038,2.12855 13.087424,-0.0945 7.540694,3.628419 12.179173,-1.1662 15.780507,-3.96875 C 53.943671,12.702151 52.785905,10.343471 48.667404,8.2343806 47.560495,5.0864007 46.372955,1.3662707 33.453862,6.1555107 30.219458,4.1618607 27.774491,0.03269072 22.492551,6.6279806 c -2.088145,-4.0136599 -9.421436,-3.0633699 -12.6622014,0 -4.4918737,2.0642793 -4.2849237,4.7238994 -4.4412197,6.8980704 -4.330846,4.6341 -4.764482,8.08879 0.47247,9.82738 z"
     id="path6809" />
  <g
     id="g4214"
     transform="translate(36.550132,-43.318674)"
     inkscape:export-filename="D:\felix\Desktop\MPD\Lernspiel\Stein_der_Meilen\resources\images\Minispiel_Feuer\Wolke1.png"
     inkscape:export-xdpi="90"
     inkscape:export-ydpi="90">
    <path
       d="m 58.977366,73.05349 a 4.0075898,1.9140728 0 0 1 -4.00759,1.914072 4.0075898,1.9140728 0 0 1 -4.00759,-1.914072 4.0075898,1.9140728 0 0 1 4.00759,-1.914073 4.0075898,1.9140728 0 0 1 4.00759,1.914073 z m 8.972214,-5.084252 a 1.9140728,1.9738874 0 0 1 -1.914073,1.973888 1.9140728,1.9738874 0 0 1 -1.914073,-1.973888 1.9140728,1.9738874 0 0 1 1.914073,-1.973887 1.9140728,1.9738874 0 0 1 1.914073,1.973887 z M 61.609217,51.639805 a 3.9477749,3.2299976 0 0 1 -3.947775,3.229997 3.9477749,3.2299976 0 0 1 -3.947775,-3.229997 3.9477749,3.2299976 0 0 1 3.947775,-3.229998 3.9477749,3.2299976 0 0 1 3.947775,3.229998 z m 7.536661,4.545921 a 7.1179581,5.2637 0 0 1 -7.117958,5.2637 7.1179581,5.2637 0 0 1 -7.117958,-5.2637 7.1179581,5.2637 0 0 1 7.117958,-5.2637 7.1179581,5.2637 0 0 1 7.117958,5.2637 z m 5.02444,6.8787 a 8.3142538,5.4431443 0 0 1 -8.314254,5.443145 8.3142538,5.4431443 0 0 1 -8.314254,-5.443145 8.3142538,5.4431443 0 0 1 8.314254,-5.443144 8.3142538,5.4431443 0 0 1 8.314254,5.443144 z m -7.297404,7.656292 a 7.3572168,4.3664784 0 0 1 -7.357217,4.366479 7.3572168,4.3664784 0 0 1 -7.357216,-4.366479 7.3572168,4.3664784 0 0 1 7.357216,-4.366478 7.3572168,4.3664784 0 0 1 7.357217,4.366478 z M 42.947005,68.387939 a 6.8786988,3.110368 0 0 1 -6.878699,3.110368 6.8786988,3.110368 0 0 1 -6.878699,-3.110368 6.8786988,3.110368 0 0 1 6.878699,-3.110368 6.8786988,3.110368 0 0 1 6.878699,3.110368 z m 11.962953,2.691666 A 10.766659,4.8449965 0 0 1 44.143299,75.924602 10.766659,4.8449965 0 0 1 33.37664,71.079605 10.766659,4.8449965 0 0 1 44.143299,66.234609 10.766659,4.8449965 0 0 1 54.909958,71.079605 Z m 2.751478,-20.516464 a 9.0918446,5.742218 0 0 1 -9.091844,5.742218 9.0918446,5.742218 0 0 1 -9.091845,-5.742218 9.0918446,5.742218 0 0 1 9.091845,-5.742218 9.0918446,5.742218 0 0 1 9.091844,5.742218 z m -10.647024,7.417026 a 10.706844,6.1011066 0 0 1 -10.706844,6.101107 10.706844,6.1011066 0 0 1 -10.706845,-6.101107 10.706844,6.1011066 0 0 1 10.706845,-6.101106 10.706844,6.1011066 0 0 1 10.706844,6.101106 z m -5.263702,4.545926 a 8.7329569,4.7851815 0 0 1 -8.732956,4.785181 8.7329569,4.7851815 0 0 1 -8.732957,-4.785181 8.7329569,4.7851815 0 0 1 8.732957,-4.785182 8.7329569,4.7851815 0 0 1 8.732956,4.785182 z m 2.153332,-10.826478 a 5.9814768,3.2898123 0 0 1 -5.981477,3.289813 5.9814768,3.2898123 0 0 1 -5.981476,-3.289813 5.9814768,3.2898123 0 0 1 5.981476,-3.289812 5.9814768,3.2898123 0 0 1 5.981477,3.289812 z m 22.849242,8.374074 A 19.140728,11.54425 0 0 1 47.612556,71.617938 19.140728,11.54425 0 0 1 28.471828,60.073689 19.140728,11.54425 0 0 1 47.612556,48.529439 19.140728,11.54425 0 0 1 66.753284,60.073689 Z"
       style="fill:#ffffff;fill-opacity:1;stroke:none;stroke-width:0.34;stroke-linecap:round;stroke-linejoin:miter;stroke-miterlimit:4;stroke-dasharray:none;stroke-dashoffset:0;stroke-opacity:1"
       id="path4162"
       inkscape:connector-curvature="0" />
    <path
       sodipodi:nodetypes="csc"
       inkscape:connector-curvature="0"
       id="path4208"
       d="m 65.786881,61.176658 c 0,0 -3.719727,3.333958 -5.87383,3.350258 -1.961482,0.01484 -6.134886,-3.219728 -6.134886,-3.219728"
       style="fill:none;fill-rule:evenodd;stroke:#d7d3d3;stroke-width:0.28222221;stroke-linecap:round;stroke-linejoin:round;stroke-miterlimit:4;stroke-dasharray:none;stroke-opacity:1" />
    <path
       sodipodi:nodetypes="csc"
       inkscape:connector-curvature="0"
       id="path4210"
       d="m 31.022516,55.955477 c 0,0 3.241714,3.617478 5.438732,3.741846 2.00166,0.113309 5.308199,-2.82814 5.308199,-2.82814"
       style="fill:none;fill-rule:evenodd;stroke:#d7d3d3;stroke-width:0.28222221px;stroke-linecap:butt;stroke-linejoin:miter;stroke-opacity:1" />
    <path
       sodipodi:nodetypes="csc"
       inkscape:connector-curvature="0"
       id="path4212"
       d="m 37.897071,67.877173 c 0,0 2.355263,3.193247 4.133435,3.480788 2.126926,0.343937 6.004359,-2.393041 6.004359,-2.393041"
       style="fill:none;fill-rule:evenodd;stroke:#d7d3d3;stroke-width:0.28222221px;stroke-linecap:butt;stroke-linejoin:miter;stroke-opacity:1" />
  </g>
</svg>
