<?xml version="1.0" encoding="utf-8"?>
<!-- Generator: Adobe Illustrator 21.0.0, SVG Export Plug-In . SVG Version: 6.00 Build 0)  -->
<svg version="1.1" xmlns="http://www.w3.org/2000/svg" xmlns:xlink="http://www.w3.org/1999/xlink" x="0px" y="0px"
	 viewBox="0 0 1623 600" style="enable-background:new 0 0 1623 600;" xml:space="preserve">
<style type="text/css">
	.st0{fill:none;}
	.st1{fill:#00427E;}
	.st2{opacity:0.4;fill:#9DDCF9;}
	.st3{display:none;}
	.st4{display:inline;}
	.st5{fill:none;stroke:#000000;stroke-miterlimit:10;}
	.st6{display:inline;fill:none;stroke:#FF0000;stroke-miterlimit:10;}
	.st7{fill:url(#Jive);}
	.st8{fill:none;stroke:#FF0000;stroke-miterlimit:10;}
	.st9{display:inline;fill:none;stroke:#FFFF00;stroke-miterlimit:10;}
	.st10{display:inline;fill:none;stroke:#000000;stroke-miterlimit:10;}
	.st11{stroke:#D4D000;stroke-miterlimit:10;}
	.st12{fill:none;stroke:#D4D000;stroke-miterlimit:10;}
	.st13{font-family:'MyriadPro-Regular';}
	.st14{font-size:21px;}
	.st15{fill:none;stroke:#FFFF00;stroke-miterlimit:10;}
	.st16{fill:#FF0000;}
	.st17{display:none;fill:none;stroke:#000000;stroke-miterlimit:10;}
	.st18{fill:#FFFFFF;}
</style>
<pattern  width="108.3" height="109.6" patternUnits="userSpaceOnUse" id="Jive" viewBox="47.6 -219.3 108.3 109.6" style="overflow:visible;">
	<g>
		<rect x="47.6" y="-219.3" class="st0" width="108.3" height="109.6"/>
		<g>
			<path class="st1" d="M135-74.9c0-0.1,0.1-0.2,0.2-0.2c12.9-0.1,24.8-3.3,34-11.5c-8,5.6-22.9,7.5-31.5,3.6
				c-0.1,0-0.2-0.2-0.1-0.3c0-0.1,0.1-0.2,0.3-0.2c10.7,0.3,19.3-3,26-9c-6.9-0.4-12.6-4.7-12.6-9.8c0-0.1,0.1-0.2,0.2-0.2
				c0.1,0,0.2,0,0.3,0.1c1.1,2.5,4.7,3.8,8.6,2.9c4.2-1,7-4.2,6.3-7.2c-0.5-2-2.4-3.4-5-3.8c-0.1,0-0.2-0.1-0.2-0.3
				c0-0.1,0.1-0.2,0.2-0.2c1.1-0.1,2.2-0.1,3.3,0c6.5,0.6,11.5,4.6,11.9,9.2c4.7-0.5,8.9-3.2,10.4-6.8c0-0.1,0.2-0.2,0.3-0.2
				c0.1,0,0.2,0.1,0.2,0.2c0.4,4.8-1.3,7.8-5,10.9c5.4-2.1,11.4-2.2,17.3,0.5c0.1,0,0.2,0.2,0.1,0.3c0,0.1-0.1,0.2-0.2,0.2
				c-4.9,0.2-8.4,1.8-11.7,5.1c18.3-5.1,33.1,6.2,28,23.1c0,0.1-0.1,0.2-0.3,0.2c-0.1,0-0.2-0.1-0.2-0.2
				c-0.9-9.7-7.7-16.1-17.9-17.1c5.4,2.1,11,7,11.6,15.5c0,0.1-0.1,0.2-0.2,0.3c-0.1,0-0.2,0-0.3-0.1c-2.8-6.2-8.3-9.3-14.2-9.8
				c6.3,2.6,10.4,8.6,11.6,16.4c0,0.1-0.1,0.2-0.2,0.3c-0.1,0-0.2,0-0.3-0.1c-3.9-7.6-12.2-12.8-22.4-8.8
				c-10.6,4.1-15.3,16.4-16.3,25c0,0.1-0.1,0.2-0.2,0.2c-0.1,0-0.2-0.1-0.3-0.2c-3.7-15.7,3.6-31.9,16.6-38.8
				c-7.1,2-13.4,6.3-17,13.4c-8.3,1-14,3.9-16.9,9.2c-0.1,0.1-0.2,0.2-0.3,0.1c-0.1,0-0.2-0.1-0.2-0.3c0.2-2.1,0.9-6.3,4.1-8.3
				c-7,0-12.5-0.9-17.8-3C135.1-74.7,135-74.8,135-74.9z M164.5-21.5c-0.1-0.1-0.2-0.1-0.3,0c-0.1,0.1-0.1,0.2,0,0.3
				c1.6,2.8,0.1,6.8-3.1,6.8c-5.7,0-8.5-10.8-7.6-20.6c2.2,5.8,4,8.1,7.3,10.8c0.1,0.1,0.2,0.1,0.3,0c0.1-0.1,0.1-0.2,0.1-0.3
				c-4.9-9.1-5.9-16.1-5.9-24.1c1.5,6,3.2,9.3,8.1,14.4c0.1,0.1,0.2,0.1,0.3,0c0.1-0.1,0.1-0.2,0.1-0.3c-5.3-11.6-4.9-24.4-0.9-34.3
				c0-0.1,0-0.2-0.1-0.3c-0.1-0.1-0.2-0.1-0.3,0c-5.2,2.6-8.3,4.2-12.8,10.4c1.4,7.4,0.2,11-3.2,17.2c3.9-9.9,1.8-23.9-8.2-29.6
				c-0.1-0.1-0.2,0-0.3,0.1c-0.1,0.1-0.1,0.2,0,0.3c3.8,4,6.5,10.6,4.2,17.9c1.5-10.4-7.6-19.1-17.8-19.1c-9.6,0-16.2,7.5-15.6,14.9
				c0.5,7.4,5.4,11,9.7,12.5c0.1,0,0.2,0,0.3-0.1c0.1-0.1,0-0.2,0-0.3c-5.6-5.7-6.4-16.5,3.6-19.8c-5.9,5.1-3.7,16.8,5.7,17.7
				c0.1,0,0.2-0.1,0.3-0.2c0-0.1,0-0.2-0.1-0.3c-2-1.3-3.7-3.8-3.7-6.6c0-4.7,3.4-6.5,5.7-6.5c3.4,0,6.3,3.3,6.3,8.2
				c0,5.8-5.3,10.7-12,11.4c-6.6,0.7-12.8-2.2-15.8-6.5c-0.1-0.1-0.2-0.1-0.3-0.1s-0.2,0.2-0.1,0.3c3,11.7,16.8,16.9,26.9,9.5
				c-6.6,7.5-17,7.6-25.7-0.1c-0.1-0.1-0.2-0.1-0.3,0c-0.1,0.1-0.1,0.2-0.1,0.3c2.7,5.4,9.3,11.8,18.6,10.9
				c8.6-0.9,13.5-9,14.5-15.7c0.6,8.5-1.4,14.5-8.8,20.1c-0.1,0.1-0.1,0.2-0.1,0.3c0.1,0.1,0.2,0.2,0.3,0.1c6.8-2,12.2-5.4,15-12.5
				c0,6.2-2.1,12.4-7.5,16.5c-0.1,0.1-0.1,0.2-0.1,0.3s0.2,0.2,0.3,0.1c3.5-1,6.2-2.5,8.1-5.2c1.3,11.1,6.5,17.7,12.5,17.7
				c4.1,0,7.2-3,7.2-7.9C169.3-15.3,167.8-19.3,164.5-21.5z M263.7-113.1c-3.2-3.9-9.5-5.4-16.4-4c0.5-4.3-0.3-8.8-1.6-11.5
				c-0.1-0.1-0.2-0.2-0.3-0.1c-0.1,0-0.2,0.1-0.2,0.3c0.4,8.8-4.6,15.8-13.4,18.9c6.9-4.8,8.9-14.2,5.6-19.1
				c-0.1-0.1-0.2-0.1-0.3-0.1c-0.1,0-0.2,0.2-0.2,0.3c0.4,2.1-0.6,4.7-2.7,6.7c-2.9,2.8-6.8,3.5-8.8,1.4c-2-2-1.2-5.9,1.7-8.8
				c1.1-1,2.3-1.8,3.4-2.2c0.1,0,0.2-0.2,0.2-0.3c0-0.1-0.1-0.2-0.2-0.2c-6.4-0.6-10.8,3.3-13.5,7.9c-2.8,4.7-7.6,8.4-13.2,7.7
				c-0.1,0-0.2,0.1-0.3,0.2c0,0.1,0,0.2,0.1,0.3c2.8,1.7,5.9,2.4,9.9,1.1c-5.8,4.9-14,7.7-21.8,5.2c-0.1,0-0.2,0-0.3,0.1
				c-0.1,0.1-0.1,0.2,0,0.3c5.9,6.6,17.7,6.7,25.1,1.4c-3,4.3-7.1,7.5-14.3,8.5c-0.1,0-0.2,0.1-0.2,0.2c0,0.1,0.1,0.2,0.2,0.3
				c8.3,3.1,16.6,0,23.4-8.2c-3,6.4-7.9,11.5-14.8,14c-0.1,0-0.2,0.2-0.2,0.3c0,0.1,0.1,0.2,0.2,0.2c3.9,0.1,7.5-0.9,12.3-3.6
				c-3.5,5.7-2.7,15.6,2.4,22.3c0.1,0.1,0.2,0.1,0.3,0.1c0.1,0,0.2-0.2,0.1-0.3c-1.2-7.2,1.3-15.3,5.6-19.6
				c-2.2,7.6,0,14.6,5.9,19.6c0.1,0.1,0.2,0.1,0.3,0c0.1,0,0.1-0.1,0.2-0.2c1.2-9.4,11.8-19,20.6-19.8c0.1,0,0.2-0.1,0.2-0.2
				s-0.1-0.2-0.2-0.3c-4.3-1-8.7-0.5-12.4,1c2.7-2.9,5.9-5.1,9.6-6.2c0.1,0,0.2-0.2,0.2-0.3c0-0.1-0.1-0.2-0.2-0.2
				c-4.5-0.3-8.9,1-12.7,3.5c4.4-6.6,11-11.5,19.4-13.5c0.1,0,0.2-0.1,0.2-0.3c0-0.1-0.1-0.2-0.2-0.2c-11.9-1.3-21.7,3.3-28.2,11.9
				c1.6-4.9,6.4-9.8,12.9-12.6c5.8-2.5,11.8-2.9,16.4-1.5c0.1,0,0.2,0,0.3-0.1C263.8-112.9,263.8-113,263.7-113.1z M210.8-37.5
				c4.8-10.5,4.5-18.7,0.6-29.1c0-0.1-0.2-0.2-0.3-0.2c-0.1,0-0.2,0.1-0.2,0.3c0.6,12.6-2.8,21.7-10.3,27.8
				c8.3-9.9,4.4-29.6-8.8-29.6c-9.6,0-17.5,8-19.5,17.5c0,0.1,0,0.2,0.2,0.3c0.1,0,0.2,0,0.3-0.1c2.8-4.8,7.4-7.9,12.5-7.9
				c8.1,0,10.5,6.5,10.5,11c0,6.2-4.9,11.3-8.7,11.3c-3.4,0-5-2.8-5-4.9c0-3.9,3-7.2,6.4-8.2c0.1,0,0.2-0.2,0.2-0.3
				c0-0.1-0.1-0.2-0.3-0.2c-4.1,0-7.6,1.9-9.6,5.6c-0.3-2.9-0.3-4.7,0.6-7.7c0-0.1,0-0.2-0.1-0.3c-0.1-0.1-0.2,0-0.3,0.1
				c-7.4,9.4-3.8,25.6,2,32.4c-5.5-4-10.4-12.6-10.3-24.4c0-0.1-0.1-0.2-0.2-0.3c-0.1,0-0.2,0-0.3,0.2c-4.1,10.3-1.9,29.2,9.3,39.9
				c-2.9,0.4-5.9,0.3-9.1-0.7c-0.1,0-0.2,0-0.3,0.1c-0.1,0.1,0,0.2,0.1,0.3c4.1,3.5,9.8,4.5,15.3,4.5c-4.7-5.5-3.1-16.6,4.4-16.6
				c5.3,0,7.8,8.3,3.6,12.8c-0.1,0.1-0.1,0.2,0,0.3c0.1,0.1,0.2,0.1,0.3,0.1c4.8-1.7,9.9-5.8,9.9-11c0-5-4.8-9.4-11.8-9.1
				c8.8-2.5,18.1,0.3,22.9,6.3c0.1,0.1,0.2,0.1,0.3,0.1c0.1-0.1,0.2-0.2,0.1-0.3c-2.8-10.7-12-15.2-23.4-13.7
				c9.3-3.8,23.3-0.5,29.4,7.3c0.1,0.1,0.2,0.1,0.3,0.1c0.1-0.1,0.2-0.2,0.1-0.3C220.1-30.6,216.6-35.6,210.8-37.5z"/>
			<path class="st2" d="M237.2-56.8c0,0.1-0.1,0.2-0.2,0.2c-12.9,0.1-24.8,3.3-34,11.5c8-5.6,22.9-7.5,31.5-3.6
				c0.1,0.1,0.2,0.2,0.1,0.3c0,0.1-0.1,0.2-0.3,0.2c-10.7-0.3-19.3,3-26,9c6.9,0.4,12.6,4.7,12.6,9.8c0,0.1-0.1,0.2-0.2,0.2
				c-0.1,0-0.2,0-0.3-0.1c-1.1-2.5-4.7-3.8-8.6-2.9c-4.2,1-7,4.2-6.3,7.2c0.5,2,2.4,3.4,5,3.8c0.1,0,0.2,0.1,0.2,0.3
				c0,0.1-0.1,0.2-0.2,0.2c-1.1,0.1-2.2,0.1-3.3,0c-6.5-0.6-11.5-4.6-11.9-9.2c-4.7,0.5-8.9,3.2-10.4,6.8c0,0.1-0.2,0.2-0.3,0.2
				c-0.1,0-0.2-0.1-0.2-0.2c-0.4-4.8,1.3-7.8,5-10.9c-5.4,2.1-11.4,2.2-17.3-0.5c-0.1-0.1-0.2-0.2-0.1-0.3c0-0.1,0.1-0.2,0.2-0.2
				c4.9-0.2,8.4-1.8,11.7-5.1c-18.3,5.1-33.1-6.2-28-23.1c0-0.1,0.1-0.2,0.3-0.2c0.1,0,0.2,0.1,0.2,0.2c0.9,9.7,7.7,16.1,17.9,17.1
				c-5.4-2.1-11-7-11.6-15.5c0-0.1,0.1-0.2,0.2-0.3c0.1,0,0.2,0,0.3,0.1c2.8,6.2,8.3,9.3,14.2,9.8c-6.3-2.6-10.4-8.6-11.6-16.4
				c0-0.1,0.1-0.2,0.2-0.3c0.1,0,0.2,0,0.3,0.1c3.9,7.6,12.2,12.8,22.4,8.8c10.6-4.1,15.3-16.4,16.3-25c0-0.1,0.1-0.2,0.2-0.2
				c0.1,0,0.2,0.1,0.3,0.2c3.7,15.7-3.6,31.9-16.6,38.8c7.1-2,13.4-6.3,17-13.4c8.3-1,14-3.9,16.9-9.2c0.1-0.1,0.2-0.2,0.3-0.1
				c0.1,0,0.2,0.1,0.2,0.3c-0.2,2.1-0.9,6.3-4.1,8.3c7,0,12.5,0.9,17.8,3C237.2-57,237.2-56.9,237.2-56.8z M207.7-110.3
				c0.1,0.1,0.2,0.1,0.3,0c0.1-0.1,0.1-0.2,0-0.3c-1.6-2.8-0.1-6.8,3.1-6.8c5.7,0,8.5,10.8,7.6,20.6c-2.2-5.8-4-8.1-7.3-10.8
				c-0.1-0.1-0.2-0.1-0.3,0c-0.1,0.1-0.1,0.2-0.1,0.3c4.9,9.1,5.9,16.1,5.9,24.1c-1.5-6-3.2-9.3-8.1-14.4c-0.1-0.1-0.2-0.1-0.3,0
				c-0.1,0.1-0.1,0.2-0.1,0.3c5.3,11.6,4.9,24.4,0.9,34.3c0,0.1,0,0.2,0.1,0.3c0.1,0.1,0.2,0.1,0.3,0c5.2-2.6,8.3-4.2,12.8-10.4
				c-1.4-7.4-0.2-11,3.2-17.2c-3.9,9.9-1.8,23.9,8.2,29.6c0.1,0.1,0.2,0,0.3-0.1c0.1-0.1,0.1-0.2,0-0.3c-3.8-4-6.5-10.6-4.2-17.9
				c-1.5,10.4,7.6,19.1,17.8,19.1c9.6,0,16.2-7.5,15.6-14.9c-0.5-7.4-5.4-11-9.7-12.5c-0.1,0-0.2,0-0.3,0.1c-0.1,0.1-0.1,0.2,0,0.3
				c5.6,5.7,6.4,16.5-3.6,19.8c5.9-5.1,3.7-16.8-5.7-17.7c-0.1,0-0.2,0.1-0.3,0.2c0,0.1,0,0.2,0.1,0.3c2,1.3,3.7,3.8,3.7,6.6
				c0,4.7-3.4,6.5-5.7,6.5c-3.4,0-6.3-3.3-6.3-8.2c0-5.8,5.3-10.7,12-11.4c6.6-0.7,12.8,2.2,15.7,6.5c0.1,0.1,0.2,0.1,0.3,0.1
				c0.1-0.1,0.2-0.2,0.1-0.3c-3-11.7-16.8-16.9-26.9-9.5c6.6-7.5,17-7.6,25.7,0.1c0.1,0.1,0.2,0.1,0.3,0c0.1-0.1,0.1-0.2,0.1-0.3
				c-2.7-5.4-9.3-11.8-18.6-10.9c-8.6,0.9-13.5,9-14.5,15.7c-0.6-8.5,1.4-14.5,8.8-20.1c0.1-0.1,0.1-0.2,0.1-0.3
				c-0.1-0.1-0.2-0.2-0.3-0.1c-6.8,2-12.2,5.4-15,12.5c0-6.2,2.1-12.4,7.5-16.5c0.1-0.1,0.1-0.2,0.1-0.3c-0.1-0.1-0.2-0.2-0.3-0.1
				c-3.5,1-6.2,2.5-8.1,5.2c-1.3-11.1-6.5-17.7-12.5-17.7c-4.1,0-7.2,3-7.2,7.9C202.9-116.5,204.4-112.5,207.7-110.3z M108.5-18.7
				c3.2,3.9,9.5,5.4,16.4,4c-0.5,4.3,0.3,8.8,1.6,11.5c0.1,0.1,0.2,0.2,0.3,0.1c0.1,0,0.2-0.1,0.2-0.3c-0.4-8.8,4.6-15.8,13.4-18.9
				c-6.9,4.8-8.9,14.2-5.6,19.1c0.1,0.1,0.2,0.1,0.3,0.1c0.1,0,0.2-0.2,0.2-0.3c-0.4-2.1,0.6-4.7,2.7-6.7c2.9-2.8,6.8-3.5,8.8-1.4
				c2,2,1.2,5.9-1.7,8.8c-1.1,1-2.3,1.8-3.4,2.2c-0.1,0-0.2,0.2-0.2,0.3c0,0.1,0.1,0.2,0.2,0.2c6.4,0.6,10.8-3.3,13.5-7.9
				c2.8-4.7,7.6-8.4,13.2-7.7c0.1,0,0.2-0.1,0.3-0.2c0-0.1,0-0.2-0.1-0.3c-2.8-1.7-5.9-2.4-9.9-1.1c5.8-4.9,14-7.7,21.8-5.2
				c0.1,0,0.2,0,0.3-0.1c0.1-0.1,0.1-0.2,0-0.3c-5.9-6.6-17.7-6.7-25.1-1.4c3-4.3,7.1-7.5,14.3-8.5c0.1,0,0.2-0.1,0.2-0.2
				c0-0.1-0.1-0.2-0.2-0.3c-8.3-3.1-16.6,0-23.4,8.2c3-6.4,7.9-11.5,14.8-14c0.1,0,0.2-0.2,0.2-0.3c0-0.1-0.1-0.2-0.2-0.2
				c-3.9-0.1-7.5,0.9-12.3,3.6c3.5-5.7,2.7-15.6-2.4-22.3c-0.1-0.1-0.2-0.1-0.3-0.1c-0.1,0-0.2,0.2-0.1,0.3
				c1.2,7.2-1.3,15.3-5.6,19.6c2.2-7.6,0-14.6-5.9-19.6c-0.1-0.1-0.2-0.1-0.3,0c-0.1,0-0.1,0.1-0.2,0.2c-1.2,9.4-11.8,19-20.6,19.8
				c-0.1,0-0.2,0.1-0.2,0.2c0,0.1,0.1,0.2,0.2,0.3c4.3,1,8.7,0.5,12.4-1c-2.7,2.9-5.9,5.1-9.6,6.2c-0.1,0-0.2,0.2-0.2,0.3
				c0,0.1,0.1,0.2,0.2,0.2c4.5,0.3,8.9-1,12.7-3.5c-4.4,6.6-11,11.5-19.4,13.5c-0.1,0-0.2,0.1-0.2,0.3c0,0.1,0.1,0.2,0.2,0.2
				c11.9,1.3,21.7-3.3,28.2-11.9c-1.6,4.9-6.4,9.8-12.9,12.6c-5.8,2.5-11.8,2.9-16.4,1.5c-0.1,0-0.2,0-0.3,0.1
				C108.4-18.9,108.4-18.7,108.5-18.7z M161.4-94.2c-4.8,10.5-4.5,18.7-0.6,29.1c0,0.1,0.2,0.2,0.3,0.2c0.1,0,0.2-0.1,0.2-0.3
				c-0.6-12.6,2.8-21.7,10.3-27.8c-8.3,9.9-4.4,29.6,8.8,29.6c9.6,0,17.5-8,19.5-17.5c0-0.1,0-0.2-0.2-0.3c-0.1,0-0.2,0-0.3,0.1
				c-2.8,4.8-7.4,7.9-12.5,7.9c-8.1,0-10.5-6.5-10.5-11c0-6.2,4.9-11.3,8.7-11.3c3.4,0,5,2.8,5,4.9c0,3.9-3,7.2-6.4,8.2
				c-0.1,0-0.2,0.2-0.2,0.3c0,0.1,0.1,0.2,0.3,0.2c4.1,0,7.6-1.9,9.6-5.6c0.3,2.9,0.3,4.7-0.6,7.7c0,0.1,0,0.2,0.1,0.3
				c0.1,0.1,0.2,0,0.3-0.1c7.4-9.4,3.8-25.6-2-32.4c5.5,4,10.4,12.6,10.3,24.4c0,0.1,0.1,0.2,0.2,0.3c0.1,0,0.2,0,0.3-0.2
				c4.1-10.3,1.9-29.2-9.3-39.9c2.9-0.4,5.9-0.3,9.1,0.7c0.1,0,0.2,0,0.3-0.1c0.1-0.1,0-0.2-0.1-0.3c-4.1-3.5-9.8-4.5-15.3-4.5
				c4.7,5.5,3.1,16.6-4.4,16.6c-5.3,0-7.8-8.3-3.6-12.8c0.1-0.1,0.1-0.2,0-0.3c-0.1-0.1-0.2-0.1-0.3-0.1c-4.8,1.7-9.9,5.8-9.9,11
				c0,5,4.8,9.4,11.8,9.1c-8.8,2.5-18.1-0.3-22.9-6.3c-0.1-0.1-0.2-0.1-0.3-0.1c-0.1,0.1-0.2,0.2-0.1,0.3
				c2.8,10.7,12,15.2,23.4,13.7c-9.3,3.8-23.3,0.5-29.4-7.3c-0.1-0.1-0.2-0.1-0.3-0.1c-0.1,0-0.2,0.2-0.1,0.3
				C152.2-101.1,155.7-96.2,161.4-94.2z"/>
		</g>
		<g>
			<path class="st1" d="M26.7-74.9c0-0.1,0.1-0.2,0.2-0.2c12.9-0.1,24.8-3.3,34-11.5c-8,5.6-22.9,7.5-31.5,3.6
				c-0.1,0-0.2-0.2-0.1-0.3c0-0.1,0.1-0.2,0.3-0.2c10.7,0.3,19.3-3,26-9c-6.9-0.4-12.6-4.7-12.6-9.8c0-0.1,0.1-0.2,0.2-0.2
				c0.1,0,0.2,0,0.3,0.1c1.1,2.5,4.7,3.8,8.6,2.9c4.2-1,7-4.2,6.3-7.2c-0.5-2-2.4-3.4-5-3.8c-0.1,0-0.2-0.1-0.2-0.3
				c0-0.1,0.1-0.2,0.2-0.2c1.1-0.1,2.2-0.1,3.3,0c6.5,0.6,11.5,4.6,11.9,9.2c4.7-0.5,8.9-3.2,10.4-6.8c0-0.1,0.2-0.2,0.3-0.2
				c0.1,0,0.2,0.1,0.2,0.2c0.4,4.8-1.3,7.8-5,10.9c5.4-2.1,11.4-2.2,17.3,0.5c0.1,0,0.2,0.2,0.1,0.3c0,0.1-0.1,0.2-0.2,0.2
				c-4.9,0.2-8.4,1.8-11.7,5.1c18.3-5.1,33.1,6.2,28,23.1c0,0.1-0.1,0.2-0.3,0.2c-0.1,0-0.2-0.1-0.2-0.2
				c-0.9-9.7-7.7-16.1-17.9-17.1c5.4,2.1,11,7,11.6,15.5c0,0.1-0.1,0.2-0.2,0.3c-0.1,0-0.2,0-0.3-0.1c-2.8-6.2-8.3-9.3-14.2-9.8
				c6.3,2.6,10.4,8.6,11.6,16.4c0,0.1-0.1,0.2-0.2,0.3c-0.1,0-0.2,0-0.3-0.1c-3.9-7.6-12.2-12.8-22.4-8.8C64.5-68,59.8-55.7,58.8-47
				c0,0.1-0.1,0.2-0.2,0.2c-0.1,0-0.2-0.1-0.3-0.2c-3.7-15.7,3.6-31.9,16.6-38.8c-7.1,2-13.4,6.3-17,13.4c-8.3,1-14,3.9-16.9,9.2
				c-0.1,0.1-0.2,0.2-0.3,0.1c-0.1,0-0.2-0.1-0.2-0.3c0.2-2.1,0.9-6.3,4.1-8.3c-7,0-12.5-0.9-17.8-3C26.7-74.7,26.7-74.8,26.7-74.9z
				 M56.2-21.5c-0.1-0.1-0.2-0.1-0.3,0c-0.1,0.1-0.1,0.2,0,0.3c1.6,2.8,0.1,6.8-3.1,6.8c-5.7,0-8.5-10.8-7.6-20.6
				c2.2,5.8,4,8.1,7.3,10.8c0.1,0.1,0.2,0.1,0.3,0c0.1-0.1,0.1-0.2,0.1-0.3C48.1-33.5,47-40.5,47-48.5c1.5,6,3.2,9.3,8.1,14.4
				c0.1,0.1,0.2,0.1,0.3,0c0.1-0.1,0.1-0.2,0.1-0.3c-5.3-11.6-4.9-24.4-0.9-34.3c0-0.1,0-0.2-0.1-0.3c-0.1-0.1-0.2-0.1-0.3,0
				C49-66.5,46-64.8,41.5-58.6c1.4,7.4,0.2,11-3.2,17.2c3.9-9.9,1.8-23.9-8.2-29.6c-0.1-0.1-0.2,0-0.3,0.1c-0.1,0.1-0.1,0.2,0,0.3
				c3.8,4,6.5,10.6,4.2,17.9c1.5-10.4-7.6-19.1-17.8-19.1c-9.6,0-16.2,7.5-15.6,14.9c0.5,7.4,5.4,11,9.7,12.5c0.1,0,0.2,0,0.3-0.1
				c0.1-0.1,0-0.2,0-0.3c-5.6-5.7-6.4-16.5,3.6-19.8c-5.9,5.1-3.7,16.8,5.7,17.7c0.1,0,0.2-0.1,0.3-0.2c0-0.1,0-0.2-0.1-0.3
				c-2-1.3-3.7-3.8-3.7-6.6c0-4.7,3.4-6.5,5.7-6.5c3.4,0,6.3,3.3,6.3,8.2c0,5.8-5.3,10.7-12,11.4C9.6-40,3.4-42.9,0.5-47.2
				c-0.1-0.1-0.2-0.1-0.3-0.1C0-47.3,0-47.1,0-47c3,11.7,16.8,16.9,26.9,9.5c-6.6,7.5-17,7.6-25.7-0.1c-0.1-0.1-0.2-0.1-0.3,0
				c-0.1,0.1-0.1,0.2-0.1,0.3c2.7,5.4,9.3,11.8,18.6,10.9c8.6-0.9,13.5-9,14.5-15.7c0.6,8.5-1.4,14.5-8.8,20.1
				c-0.1,0.1-0.1,0.2-0.1,0.3c0.1,0.1,0.2,0.2,0.3,0.1c6.8-2,12.2-5.4,15-12.5c0,6.2-2.1,12.4-7.5,16.5c-0.1,0.1-0.1,0.2-0.1,0.3
				c0.1,0.1,0.2,0.2,0.3,0.1c3.5-1,6.2-2.5,8.1-5.2c1.3,11.1,6.5,17.7,12.5,17.7c4.1,0,7.2-3,7.2-7.9C61-15.3,59.5-19.3,56.2-21.5z
				 M155.4-113.1c-3.2-3.9-9.5-5.4-16.4-4c0.5-4.3-0.3-8.8-1.6-11.5c-0.1-0.1-0.2-0.2-0.3-0.1c-0.1,0-0.2,0.1-0.2,0.3
				c0.4,8.8-4.6,15.8-13.4,18.9c6.9-4.8,8.9-14.2,5.6-19.1c-0.1-0.1-0.2-0.1-0.3-0.1c-0.1,0-0.2,0.2-0.2,0.3
				c0.4,2.1-0.6,4.7-2.7,6.7c-2.9,2.8-6.8,3.5-8.8,1.4c-2-2-1.2-5.9,1.7-8.8c1.1-1,2.3-1.8,3.4-2.2c0.1,0,0.2-0.2,0.2-0.3
				c0-0.1-0.1-0.2-0.2-0.2c-6.4-0.6-10.8,3.3-13.5,7.9c-2.8,4.7-7.6,8.4-13.2,7.7c-0.1,0-0.2,0.1-0.3,0.2c0,0.1,0,0.2,0.1,0.3
				c2.8,1.7,5.9,2.4,9.9,1.1c-5.8,4.9-14,7.7-21.8,5.2c-0.1,0-0.2,0-0.3,0.1c-0.1,0.1-0.1,0.2,0,0.3c5.9,6.6,17.7,6.7,25.1,1.4
				c-3,4.3-7.1,7.5-14.3,8.5c-0.1,0-0.2,0.1-0.2,0.2c0,0.1,0.1,0.2,0.2,0.3c8.3,3.1,16.6,0,23.4-8.2c-3,6.4-7.9,11.5-14.8,14
				c-0.1,0-0.2,0.2-0.2,0.3c0,0.1,0.1,0.2,0.2,0.2c3.9,0.1,7.5-0.9,12.3-3.6c-3.5,5.7-2.7,15.6,2.4,22.3c0.1,0.1,0.2,0.1,0.3,0.1
				c0.1,0,0.2-0.2,0.1-0.3c-1.2-7.2,1.3-15.3,5.6-19.6c-2.2,7.6,0,14.6,5.9,19.6c0.1,0.1,0.2,0.1,0.3,0c0.1,0,0.1-0.1,0.2-0.2
				c1.2-9.4,11.8-19,20.6-19.8c0.1,0,0.2-0.1,0.2-0.2c0-0.1-0.1-0.2-0.2-0.3c-4.3-1-8.7-0.5-12.4,1c2.7-2.9,5.9-5.1,9.6-6.2
				c0.1,0,0.2-0.2,0.2-0.3c0-0.1-0.1-0.2-0.2-0.2c-4.5-0.3-8.9,1-12.7,3.5c4.4-6.6,11-11.5,19.4-13.5c0.1,0,0.2-0.1,0.2-0.3
				c0-0.1-0.1-0.2-0.2-0.2c-11.9-1.3-21.7,3.3-28.2,11.9c1.6-4.9,6.4-9.8,12.9-12.6c5.8-2.5,11.8-2.9,16.4-1.5c0.1,0,0.2,0,0.3-0.1
				C155.5-112.9,155.5-113,155.4-113.1z M102.5-37.5c4.8-10.5,4.5-18.7,0.6-29.1c0-0.1-0.2-0.2-0.3-0.2c-0.1,0-0.2,0.1-0.2,0.3
				c0.6,12.6-2.8,21.7-10.3,27.8c8.2-9.9,4.4-29.6-8.8-29.6c-9.6,0-17.5,8-19.5,17.5c0,0.1,0,0.2,0.2,0.3c0.1,0,0.2,0,0.3-0.1
				c2.8-4.8,7.4-7.9,12.5-7.9c8.1,0,10.5,6.5,10.5,11c0,6.2-4.9,11.3-8.7,11.3c-3.4,0-5-2.8-5-4.9c0-3.9,3-7.2,6.4-8.2
				c0.1,0,0.2-0.2,0.2-0.3c0-0.1-0.1-0.2-0.3-0.2c-4.1,0-7.6,1.9-9.6,5.6c-0.3-2.9-0.3-4.7,0.6-7.7c0-0.1,0-0.2-0.1-0.3
				c-0.1-0.1-0.2,0-0.3,0.1c-7.4,9.4-3.8,25.6,2,32.4c-5.5-4-10.4-12.6-10.3-24.4c0-0.1-0.1-0.2-0.2-0.3c-0.1,0-0.2,0-0.3,0.2
				c-4.1,10.3-1.9,29.2,9.3,39.9c-2.9,0.4-5.9,0.3-9.1-0.7c-0.1,0-0.2,0-0.3,0.1c-0.1,0.1,0,0.2,0.1,0.3C65.8-1.1,71.5,0,77,0
				c-4.7-5.5-3.1-16.6,4.4-16.6c5.3,0,7.8,8.3,3.6,12.8c-0.1,0.1-0.1,0.2,0,0.3c0.1,0.1,0.2,0.1,0.3,0.1c4.8-1.7,9.9-5.8,9.9-11
				c0-5-4.8-9.4-11.8-9.1c8.8-2.5,18.1,0.3,22.9,6.3c0.1,0.1,0.2,0.1,0.3,0.1c0.1-0.1,0.2-0.2,0.1-0.3c-2.8-10.7-12-15.2-23.4-13.7
				c9.3-3.8,23.3-0.5,29.4,7.3c0.1,0.1,0.2,0.1,0.3,0.1c0.1-0.1,0.2-0.2,0.1-0.3C111.8-30.6,108.3-35.6,102.5-37.5z"/>
			<path class="st2" d="M128.9-56.8c0,0.1-0.1,0.2-0.2,0.2c-12.9,0.1-24.8,3.3-34,11.5c8-5.6,22.9-7.5,31.5-3.6
				c0.1,0.1,0.2,0.2,0.1,0.3c0,0.1-0.1,0.2-0.3,0.2c-10.7-0.3-19.3,3-26,9c6.9,0.4,12.6,4.7,12.6,9.8c0,0.1-0.1,0.2-0.2,0.2
				c-0.1,0-0.2,0-0.3-0.1c-1.1-2.5-4.7-3.8-8.6-2.9c-4.2,1-7,4.2-6.3,7.2c0.5,2,2.4,3.4,5,3.8c0.1,0,0.2,0.1,0.2,0.3
				c0,0.1-0.1,0.2-0.2,0.2c-1.1,0.1-2.2,0.1-3.3,0c-6.5-0.6-11.5-4.6-11.9-9.2c-4.7,0.5-8.9,3.2-10.4,6.8c0,0.1-0.2,0.2-0.3,0.2
				c-0.1,0-0.2-0.1-0.2-0.2c-0.4-4.8,1.3-7.8,5-10.9c-5.4,2.1-11.4,2.2-17.3-0.5c-0.1-0.1-0.2-0.2-0.1-0.3c0-0.1,0.1-0.2,0.2-0.2
				c4.9-0.2,8.4-1.8,11.7-5.1c-18.3,5.1-33.1-6.2-28-23.1c0-0.1,0.1-0.2,0.3-0.2c0.1,0,0.2,0.1,0.2,0.2C49.1-53.4,55.9-47,66-46.1
				c-5.4-2.1-11-7-11.6-15.5c0-0.1,0.1-0.2,0.2-0.3c0.1,0,0.2,0,0.3,0.1c2.8,6.2,8.3,9.3,14.2,9.8c-6.3-2.6-10.4-8.6-11.6-16.4
				c0-0.1,0.1-0.2,0.2-0.3c0.1,0,0.2,0,0.3,0.1c3.9,7.6,12.2,12.8,22.4,8.8c10.6-4.1,15.3-16.4,16.3-25c0-0.1,0.1-0.2,0.2-0.2
				c0.1,0,0.2,0.1,0.3,0.2c3.7,15.7-3.6,31.9-16.6,38.8c7.1-2,13.4-6.3,17-13.4c8.3-1,14-3.9,16.9-9.2c0.1-0.1,0.2-0.2,0.3-0.1
				c0.1,0,0.2,0.1,0.2,0.3c-0.2,2.1-0.9,6.3-4.1,8.3c7,0,12.5,0.9,17.8,3C128.8-57,128.9-56.9,128.9-56.8z M99.4-110.3
				c0.1,0.1,0.2,0.1,0.3,0c0.1-0.1,0.1-0.2,0-0.3c-1.6-2.8-0.1-6.8,3.1-6.8c5.7,0,8.5,10.8,7.6,20.6c-2.2-5.8-4-8.1-7.3-10.8
				c-0.1-0.1-0.2-0.1-0.3,0c-0.1,0.1-0.1,0.2-0.1,0.3c4.9,9.1,5.9,16.1,5.9,24.1c-1.5-6-3.2-9.3-8.1-14.4c-0.1-0.1-0.2-0.1-0.3,0
				c-0.1,0.1-0.1,0.2-0.1,0.3c5.3,11.6,4.9,24.4,0.9,34.3c0,0.1,0,0.2,0.1,0.3c0.1,0.1,0.2,0.1,0.3,0c5.2-2.6,8.3-4.2,12.8-10.4
				c-1.4-7.4-0.2-11,3.2-17.2c-3.9,9.9-1.8,23.9,8.2,29.6c0.1,0.1,0.2,0,0.3-0.1c0.1-0.1,0.1-0.2,0-0.3c-3.8-4-6.5-10.6-4.2-17.9
				c-1.5,10.4,7.6,19.1,17.8,19.1c9.6,0,16.2-7.5,15.6-14.9c-0.5-7.4-5.4-11-9.7-12.5c-0.1,0-0.2,0-0.3,0.1c-0.1,0.1-0.1,0.2,0,0.3
				c5.6,5.7,6.4,16.5-3.6,19.8c5.9-5.1,3.7-16.8-5.7-17.7c-0.1,0-0.2,0.1-0.3,0.2c0,0.1,0,0.2,0.1,0.3c2,1.3,3.7,3.8,3.7,6.6
				c0,4.7-3.4,6.5-5.7,6.5c-3.4,0-6.3-3.3-6.3-8.2c0-5.8,5.3-10.7,12-11.4c6.6-0.7,12.8,2.2,15.8,6.5c0.1,0.1,0.2,0.1,0.3,0.1
				c0.1-0.1,0.2-0.2,0.1-0.3c-3-11.7-16.8-16.9-26.9-9.5c6.6-7.5,17-7.6,25.7,0.1c0.1,0.1,0.2,0.1,0.3,0c0.1-0.1,0.1-0.2,0.1-0.3
				c-2.7-5.4-9.3-11.8-18.6-10.9c-8.6,0.9-13.5,9-14.5,15.7c-0.6-8.5,1.4-14.5,8.8-20.1c0.1-0.1,0.1-0.2,0.1-0.3
				c-0.1-0.1-0.2-0.2-0.3-0.1c-6.8,2-12.2,5.4-15,12.5c0-6.2,2.1-12.4,7.5-16.5c0.1-0.1,0.1-0.2,0.1-0.3c-0.1-0.1-0.2-0.2-0.3-0.1
				c-3.5,1-6.2,2.5-8.1,5.2c-1.3-11.1-6.5-17.7-12.5-17.7c-4.1,0-7.2,3-7.2,7.9C94.6-116.5,96.1-112.5,99.4-110.3z M0.2-18.7
				c3.2,3.9,9.5,5.4,16.4,4c-0.5,4.3,0.3,8.8,1.6,11.5C18.3-3.1,18.4-3,18.5-3c0.1,0,0.2-0.1,0.2-0.3c-0.4-8.8,4.6-15.8,13.4-18.9
				C25.2-17.5,23.2-8,26.5-3.2c0.1,0.1,0.2,0.1,0.3,0.1c0.1,0,0.2-0.2,0.2-0.3c-0.4-2.1,0.6-4.7,2.7-6.7c2.9-2.8,6.8-3.5,8.8-1.4
				c2,2,1.2,5.9-1.7,8.8c-1.1,1-2.3,1.8-3.4,2.2c-0.1,0-0.2,0.2-0.2,0.3c0,0.1,0.1,0.2,0.2,0.2c6.4,0.6,10.8-3.3,13.5-7.9
				c2.8-4.7,7.6-8.4,13.2-7.7c0.1,0,0.2-0.1,0.3-0.2c0-0.1,0-0.2-0.1-0.3c-2.8-1.7-5.9-2.4-9.9-1.1c5.8-4.9,14-7.7,21.8-5.2
				c0.1,0,0.2,0,0.3-0.1c0.1-0.1,0.1-0.2,0-0.3c-5.9-6.6-17.7-6.7-25.1-1.4c3-4.3,7.1-7.5,14.3-8.5c0.1,0,0.2-0.1,0.2-0.2
				c0-0.1-0.1-0.2-0.2-0.3c-8.3-3.1-16.6,0-23.4,8.2c3-6.4,7.9-11.5,14.8-14c0.1,0,0.2-0.2,0.2-0.3c0-0.1-0.1-0.2-0.2-0.2
				c-3.9-0.1-7.5,0.9-12.3,3.6c3.5-5.7,2.7-15.6-2.4-22.3c-0.1-0.1-0.2-0.1-0.3-0.1c-0.1,0-0.2,0.2-0.1,0.3
				c1.2,7.2-1.3,15.3-5.6,19.6c2.2-7.6,0-14.6-5.9-19.6c-0.1-0.1-0.2-0.1-0.3,0c-0.1,0-0.1,0.1-0.2,0.2c-1.2,9.4-11.8,19-20.6,19.8
				c-0.1,0-0.2,0.1-0.2,0.2c0,0.1,0.1,0.2,0.2,0.3c4.3,1,8.7,0.5,12.4-1c-2.7,2.9-5.9,5.1-9.6,6.2C8.1-32.2,8-32.1,8-32
				c0,0.1,0.1,0.2,0.2,0.2c4.5,0.3,8.9-1,12.7-3.5c-4.4,6.6-11,11.5-19.4,13.5c-0.1,0-0.2,0.1-0.2,0.3c0,0.1,0.1,0.2,0.2,0.2
				c11.9,1.3,21.7-3.3,28.2-11.9c-1.6,4.9-6.4,9.8-12.9,12.6C11-18,5-17.6,0.4-19.1c-0.1,0-0.2,0-0.3,0.1
				C0.1-18.9,0.1-18.7,0.2-18.7z M53.1-94.2c-4.8,10.5-4.5,18.7-0.6,29.1c0,0.1,0.2,0.2,0.3,0.2c0.1,0,0.2-0.1,0.2-0.3
				c-0.6-12.6,2.8-21.7,10.3-27.8c-8.3,9.9-4.4,29.6,8.8,29.6c9.6,0,17.5-8,19.5-17.5c0-0.1,0-0.2-0.2-0.3c-0.1,0-0.2,0-0.3,0.1
				c-2.8,4.8-7.4,7.9-12.5,7.9c-8.1,0-10.5-6.5-10.5-11c0-6.2,4.9-11.3,8.7-11.3c3.4,0,5,2.8,5,4.9c0,3.9-3,7.2-6.4,8.2
				c-0.1,0-0.2,0.2-0.2,0.3c0,0.1,0.1,0.2,0.3,0.2c4.1,0,7.6-1.9,9.6-5.6c0.3,2.9,0.3,4.7-0.6,7.7c0,0.1,0,0.2,0.1,0.3
				c0.1,0.1,0.2,0,0.3-0.1c7.4-9.4,3.8-25.6-2-32.4c5.5,4,10.4,12.6,10.3,24.4c0,0.1,0.1,0.2,0.2,0.3c0.1,0,0.2,0,0.3-0.2
				c4.1-10.3,1.9-29.2-9.3-39.9c2.9-0.4,5.9-0.3,9.1,0.7c0.1,0,0.2,0,0.3-0.1c0.1-0.1,0-0.2-0.1-0.3c-4.1-3.5-9.8-4.5-15.3-4.5
				c4.7,5.5,3.1,16.6-4.4,16.6c-5.3,0-7.8-8.3-3.6-12.8c0.1-0.1,0.1-0.2,0-0.3c-0.1-0.1-0.2-0.1-0.3-0.1c-4.8,1.7-9.9,5.8-9.9,11
				c0,5,4.8,9.4,11.8,9.1c-8.8,2.5-18.1-0.3-22.9-6.3c-0.1-0.1-0.2-0.1-0.3-0.1c-0.1,0.1-0.2,0.2-0.1,0.3
				c2.8,10.7,12,15.2,23.4,13.7c-9.3,3.8-23.3,0.5-29.4-7.3c-0.1-0.1-0.2-0.1-0.3-0.1c-0.1,0-0.2,0.2-0.1,0.3
				C43.8-101.1,47.3-96.2,53.1-94.2z"/>
		</g>
		<g>
			<path class="st1" d="M135-184.6c0-0.1,0.1-0.2,0.2-0.2c12.9-0.1,24.8-3.3,34-11.5c-8,5.6-22.9,7.5-31.5,3.6
				c-0.1,0-0.2-0.2-0.1-0.3c0-0.1,0.1-0.2,0.3-0.2c10.7,0.3,19.3-3,26-9c-6.9-0.4-12.6-4.7-12.6-9.8c0-0.1,0.1-0.2,0.2-0.2
				c0.1,0,0.2,0,0.3,0.1c1.1,2.5,4.7,3.8,8.6,2.9c4.2-1,7-4.2,6.3-7.2c-0.5-2-2.4-3.4-5-3.8c-0.1,0-0.2-0.1-0.2-0.3
				c0-0.1,0.1-0.2,0.2-0.2c1.1-0.1,2.2-0.1,3.3,0c6.5,0.6,11.5,4.6,11.9,9.2c4.7-0.5,8.9-3.2,10.4-6.8c0-0.1,0.2-0.2,0.3-0.2
				c0.1,0,0.2,0.1,0.2,0.2c0.4,4.8-1.3,7.8-5,10.9c5.4-2.1,11.4-2.2,17.3,0.5c0.1,0,0.2,0.2,0.1,0.3c0,0.1-0.1,0.2-0.2,0.2
				c-4.9,0.2-8.4,1.8-11.7,5.1c18.3-5.1,33.1,6.2,28,23.1c0,0.1-0.1,0.2-0.3,0.2c-0.1,0-0.2-0.1-0.2-0.2
				c-0.9-9.7-7.7-16.1-17.9-17.1c5.4,2.1,11,7,11.6,15.5c0,0.1-0.1,0.2-0.2,0.3c-0.1,0-0.2,0-0.3-0.1c-2.8-6.2-8.3-9.3-14.2-9.8
				c6.3,2.6,10.4,8.6,11.6,16.4c0,0.1-0.1,0.2-0.2,0.3c-0.1,0-0.2,0-0.3-0.1c-3.9-7.6-12.2-12.8-22.4-8.8
				c-10.6,4.1-15.3,16.4-16.3,25c0,0.1-0.1,0.2-0.2,0.2c-0.1,0-0.2-0.1-0.3-0.2c-3.7-15.7,3.6-31.9,16.6-38.8
				c-7.1,2-13.4,6.3-17,13.4c-8.3,1-14,3.9-16.9,9.2c-0.1,0.1-0.2,0.2-0.3,0.1c-0.1,0-0.2-0.1-0.2-0.3c0.2-2.1,0.9-6.3,4.1-8.3
				c-7,0-12.5-0.9-17.8-3C135.1-184.3,135-184.5,135-184.6z M164.5-131.1c-0.1-0.1-0.2-0.1-0.3,0c-0.1,0.1-0.1,0.2,0,0.3
				c1.6,2.8,0.1,6.8-3.1,6.8c-5.7,0-8.5-10.8-7.6-20.6c2.2,5.8,4,8.1,7.3,10.8c0.1,0.1,0.2,0.1,0.3,0c0.1-0.1,0.1-0.2,0.1-0.3
				c-4.9-9.1-5.9-16.1-5.9-24.1c1.5,6,3.2,9.3,8.1,14.4c0.1,0.1,0.2,0.1,0.3,0c0.1-0.1,0.1-0.2,0.1-0.3c-5.3-11.6-4.9-24.4-0.9-34.3
				c0-0.1,0-0.2-0.1-0.3c-0.1-0.1-0.2-0.1-0.3,0c-5.2,2.6-8.3,4.2-12.8,10.4c1.4,7.4,0.2,11-3.2,17.2c3.9-9.9,1.8-23.9-8.2-29.6
				c-0.1-0.1-0.2,0-0.3,0.1c-0.1,0.1-0.1,0.2,0,0.3c3.8,4,6.5,10.6,4.2,17.9c1.5-10.4-7.6-19.1-17.8-19.1c-9.6,0-16.2,7.5-15.6,14.9
				c0.5,7.4,5.4,11,9.7,12.5c0.1,0,0.2,0,0.3-0.1c0.1-0.1,0-0.2,0-0.3c-5.6-5.7-6.4-16.5,3.6-19.8c-5.9,5.1-3.7,16.8,5.7,17.7
				c0.1,0,0.2-0.1,0.3-0.2c0-0.1,0-0.2-0.1-0.3c-2-1.3-3.7-3.8-3.7-6.6c0-4.7,3.4-6.5,5.7-6.5c3.4,0,6.3,3.3,6.3,8.2
				c0,5.8-5.3,10.7-12,11.4c-6.6,0.7-12.8-2.2-15.8-6.5c-0.1-0.1-0.2-0.1-0.3-0.1c-0.1,0.1-0.2,0.2-0.1,0.3
				c3,11.7,16.8,16.9,26.9,9.5c-6.6,7.5-17,7.6-25.7-0.1c-0.1-0.1-0.2-0.1-0.3,0c-0.1,0.1-0.1,0.2-0.1,0.3
				c2.7,5.4,9.3,11.8,18.6,10.9c8.6-0.9,13.5-9,14.5-15.7c0.6,8.5-1.4,14.5-8.8,20.1c-0.1,0.1-0.1,0.2-0.1,0.3
				c0.1,0.1,0.2,0.2,0.3,0.1c6.8-2,12.2-5.4,15-12.5c0,6.2-2.1,12.4-7.5,16.5c-0.1,0.1-0.1,0.2-0.1,0.3s0.2,0.2,0.3,0.1
				c3.5-1,6.2-2.5,8.1-5.2c1.3,11.1,6.5,17.7,12.5,17.7c4.1,0,7.2-3,7.2-7.9C169.3-124.9,167.8-128.9,164.5-131.1z M263.7-222.7
				c-3.2-3.9-9.5-5.4-16.4-4c0.5-4.3-0.3-8.8-1.6-11.5c-0.1-0.1-0.2-0.2-0.3-0.1c-0.1,0-0.2,0.1-0.2,0.3c0.4,8.8-4.6,15.8-13.4,18.9
				c6.9-4.8,8.9-14.2,5.6-19.1c-0.1-0.1-0.2-0.1-0.3-0.1c-0.1,0-0.2,0.2-0.2,0.3c0.4,2.1-0.6,4.7-2.7,6.7c-2.9,2.8-6.8,3.5-8.8,1.4
				c-2-2-1.2-5.9,1.7-8.8c1.1-1,2.3-1.8,3.4-2.2c0.1,0,0.2-0.2,0.2-0.3c0-0.1-0.1-0.2-0.2-0.2c-6.4-0.6-10.8,3.3-13.5,7.9
				c-2.8,4.7-7.6,8.4-13.2,7.7c-0.1,0-0.2,0.1-0.3,0.2c0,0.1,0,0.2,0.1,0.3c2.8,1.7,5.9,2.4,9.9,1.1c-5.8,4.9-14,7.7-21.8,5.2
				c-0.1,0-0.2,0-0.3,0.1c-0.1,0.1-0.1,0.2,0,0.3c5.9,6.6,17.7,6.7,25.1,1.4c-3,4.3-7.1,7.5-14.3,8.5c-0.1,0-0.2,0.1-0.2,0.2
				c0,0.1,0.1,0.2,0.2,0.3c8.3,3.1,16.6,0,23.4-8.2c-3,6.4-7.9,11.5-14.8,14c-0.1,0-0.2,0.2-0.2,0.3c0,0.1,0.1,0.2,0.2,0.2
				c3.9,0.1,7.5-0.9,12.3-3.6c-3.5,5.7-2.7,15.6,2.4,22.3c0.1,0.1,0.2,0.1,0.3,0.1c0.1,0,0.2-0.2,0.1-0.3
				c-1.2-7.2,1.3-15.3,5.6-19.6c-2.2,7.6,0,14.6,5.9,19.6c0.1,0.1,0.2,0.1,0.3,0c0.1,0,0.1-0.1,0.2-0.2c1.2-9.4,11.8-19,20.6-19.8
				c0.1,0,0.2-0.1,0.2-0.2c0-0.1-0.1-0.2-0.2-0.3c-4.3-1-8.7-0.5-12.4,1c2.7-2.9,5.9-5.1,9.6-6.2c0.1,0,0.2-0.2,0.2-0.3
				c0-0.1-0.1-0.2-0.2-0.2c-4.5-0.3-8.9,1-12.7,3.5c4.4-6.6,11-11.5,19.4-13.5c0.1,0,0.2-0.1,0.2-0.3c0-0.1-0.1-0.2-0.2-0.2
				c-11.9-1.3-21.7,3.3-28.2,11.9c1.6-4.9,6.4-9.8,12.9-12.6c5.8-2.5,11.8-2.9,16.4-1.5c0.1,0,0.2,0,0.3-0.1
				C263.8-222.5,263.8-222.6,263.7-222.7z M210.8-147.2c4.8-10.5,4.5-18.7,0.6-29.1c0-0.1-0.2-0.2-0.3-0.2c-0.1,0-0.2,0.1-0.2,0.3
				c0.6,12.6-2.8,21.7-10.3,27.8c8.3-9.9,4.4-29.6-8.8-29.6c-9.6,0-17.5,8-19.5,17.5c0,0.1,0,0.2,0.2,0.3c0.1,0,0.2,0,0.3-0.1
				c2.8-4.8,7.4-7.9,12.5-7.9c8.1,0,10.5,6.5,10.5,11c0,6.2-4.9,11.3-8.7,11.3c-3.4,0-5-2.8-5-4.9c0-3.9,3-7.2,6.4-8.2
				c0.1,0,0.2-0.2,0.2-0.3c0-0.1-0.1-0.2-0.3-0.2c-4.1,0-7.6,1.9-9.6,5.6c-0.3-2.9-0.3-4.7,0.6-7.7c0-0.1,0-0.2-0.1-0.3
				c-0.1-0.1-0.2,0-0.3,0.1c-7.4,9.4-3.8,25.6,2,32.4c-5.5-4-10.4-12.6-10.3-24.4c0-0.1-0.1-0.2-0.2-0.3c-0.1,0-0.2,0-0.3,0.2
				c-4.1,10.3-1.9,29.2,9.3,39.9c-2.9,0.4-5.9,0.3-9.1-0.7c-0.1,0-0.2,0-0.3,0.1c-0.1,0.1,0,0.2,0.1,0.3c4.1,3.5,9.8,4.5,15.3,4.5
				c-4.7-5.5-3.1-16.6,4.4-16.6c5.3,0,7.8,8.3,3.6,12.8c-0.1,0.1-0.1,0.2,0,0.3c0.1,0.1,0.2,0.1,0.3,0.1c4.8-1.7,9.9-5.8,9.9-11
				c0-5-4.8-9.4-11.8-9.1c8.8-2.5,18.1,0.3,22.9,6.3c0.1,0.1,0.2,0.1,0.3,0.1c0.1-0.1,0.2-0.2,0.1-0.3c-2.8-10.7-12-15.2-23.4-13.7
				c9.3-3.8,23.3-0.5,29.4,7.3c0.1,0.1,0.2,0.1,0.3,0.1c0.1-0.1,0.2-0.2,0.1-0.3C220.1-140.3,216.6-145.2,210.8-147.2z"/>
			<path class="st2" d="M237.2-166.5c0,0.1-0.1,0.2-0.2,0.2c-12.9,0.1-24.8,3.3-34,11.5c8-5.6,22.9-7.5,31.5-3.6
				c0.1,0.1,0.2,0.2,0.1,0.3c0,0.1-0.1,0.2-0.3,0.2c-10.7-0.3-19.3,3-26,9c6.9,0.4,12.6,4.7,12.6,9.8c0,0.1-0.1,0.2-0.2,0.2
				c-0.1,0-0.2,0-0.3-0.1c-1.1-2.5-4.7-3.8-8.6-2.9c-4.2,1-7,4.2-6.3,7.2c0.5,2,2.4,3.4,5,3.8c0.1,0,0.2,0.1,0.2,0.3
				c0,0.1-0.1,0.2-0.2,0.2c-1.1,0.1-2.2,0.1-3.3,0c-6.5-0.6-11.5-4.6-11.9-9.2c-4.7,0.5-8.9,3.2-10.4,6.8c0,0.1-0.2,0.2-0.3,0.2
				c-0.1,0-0.2-0.1-0.2-0.2c-0.4-4.8,1.3-7.8,5-10.9c-5.4,2.1-11.4,2.2-17.3-0.5c-0.1-0.1-0.2-0.2-0.1-0.3c0-0.1,0.1-0.2,0.2-0.2
				c4.9-0.2,8.4-1.8,11.7-5.1c-18.3,5.1-33.1-6.2-28-23.1c0-0.1,0.1-0.2,0.3-0.2c0.1,0,0.2,0.1,0.2,0.2c0.9,9.7,7.7,16.1,17.9,17.1
				c-5.4-2.1-11-7-11.6-15.5c0-0.1,0.1-0.2,0.2-0.3c0.1,0,0.2,0,0.3,0.1c2.8,6.2,8.3,9.3,14.2,9.8c-6.3-2.6-10.4-8.6-11.6-16.4
				c0-0.1,0.1-0.2,0.2-0.3c0.1,0,0.2,0,0.3,0.1c3.9,7.6,12.2,12.8,22.4,8.8c10.6-4.1,15.3-16.4,16.3-25c0-0.1,0.1-0.2,0.2-0.2
				c0.1,0,0.2,0.1,0.3,0.2c3.7,15.7-3.6,31.9-16.6,38.8c7.1-2,13.4-6.3,17-13.4c8.3-1,14-3.9,16.9-9.2c0.1-0.1,0.2-0.2,0.3-0.1
				c0.1,0,0.2,0.1,0.2,0.3c-0.2,2.1-0.9,6.3-4.1,8.3c7,0,12.5,0.9,17.8,3C237.2-166.7,237.2-166.6,237.2-166.5z M207.7-219.9
				c0.1,0.1,0.2,0.1,0.3,0c0.1-0.1,0.1-0.2,0-0.3c-1.6-2.8-0.1-6.8,3.1-6.8c5.7,0,8.5,10.8,7.6,20.6c-2.2-5.8-4-8.1-7.3-10.8
				c-0.1-0.1-0.2-0.1-0.3,0c-0.1,0.1-0.1,0.2-0.1,0.3c4.9,9.1,5.9,16.1,5.9,24.1c-1.5-6-3.2-9.3-8.1-14.4c-0.1-0.1-0.2-0.1-0.3,0
				c-0.1,0.1-0.1,0.2-0.1,0.3c5.3,11.6,4.9,24.4,0.9,34.3c0,0.1,0,0.2,0.1,0.3c0.1,0.1,0.2,0.1,0.3,0c5.2-2.6,8.3-4.2,12.8-10.4
				c-1.4-7.4-0.2-11,3.2-17.2c-3.9,9.9-1.8,23.9,8.2,29.6c0.1,0.1,0.2,0,0.3-0.1c0.1-0.1,0.1-0.2,0-0.3c-3.8-4-6.5-10.6-4.2-17.9
				c-1.5,10.4,7.6,19.1,17.8,19.1c9.6,0,16.2-7.5,15.6-14.9c-0.5-7.4-5.4-11-9.7-12.5c-0.1,0-0.2,0-0.3,0.1c-0.1,0.1-0.1,0.2,0,0.3
				c5.6,5.7,6.4,16.5-3.6,19.8c5.9-5.1,3.7-16.8-5.7-17.7c-0.1,0-0.2,0.1-0.3,0.2c0,0.1,0,0.2,0.1,0.3c2,1.3,3.7,3.8,3.7,6.6
				c0,4.7-3.4,6.5-5.7,6.5c-3.4,0-6.3-3.3-6.3-8.2c0-5.8,5.3-10.7,12-11.4c6.6-0.7,12.8,2.2,15.7,6.5c0.1,0.1,0.2,0.1,0.3,0.1
				c0.1-0.1,0.2-0.2,0.1-0.3c-3-11.7-16.8-16.9-26.9-9.5c6.6-7.5,17-7.6,25.7,0.1c0.1,0.1,0.2,0.1,0.3,0c0.1-0.1,0.1-0.2,0.1-0.3
				c-2.7-5.4-9.3-11.8-18.6-10.9c-8.6,0.9-13.5,9-14.5,15.7c-0.6-8.5,1.4-14.5,8.8-20.1c0.1-0.1,0.1-0.2,0.1-0.3s-0.2-0.2-0.3-0.1
				c-6.8,2-12.2,5.4-15,12.5c0-6.2,2.1-12.4,7.5-16.5c0.1-0.1,0.1-0.2,0.1-0.3c-0.1-0.1-0.2-0.2-0.3-0.1c-3.5,1-6.2,2.5-8.1,5.2
				c-1.3-11.1-6.5-17.7-12.5-17.7c-4.1,0-7.2,3-7.2,7.9C202.9-226.1,204.4-222.1,207.7-219.9z M108.5-128.3c3.2,3.9,9.5,5.4,16.4,4
				c-0.5,4.3,0.3,8.8,1.6,11.5c0.1,0.1,0.2,0.2,0.3,0.1c0.1,0,0.2-0.1,0.2-0.3c-0.4-8.8,4.6-15.8,13.4-18.9
				c-6.9,4.8-8.9,14.2-5.6,19.1c0.1,0.1,0.2,0.1,0.3,0.1c0.1,0,0.2-0.2,0.2-0.3c-0.4-2.1,0.6-4.7,2.7-6.7c2.9-2.8,6.8-3.5,8.8-1.4
				c2,2,1.2,5.9-1.7,8.8c-1.1,1-2.3,1.8-3.4,2.2c-0.1,0-0.2,0.2-0.2,0.3c0,0.1,0.1,0.2,0.2,0.2c6.4,0.6,10.8-3.3,13.5-7.9
				c2.8-4.7,7.6-8.4,13.2-7.7c0.1,0,0.2-0.1,0.3-0.2c0-0.1,0-0.2-0.1-0.3c-2.8-1.7-5.9-2.4-9.9-1.1c5.8-4.9,14-7.7,21.8-5.2
				c0.1,0,0.2,0,0.3-0.1c0.1-0.1,0.1-0.2,0-0.3c-5.9-6.6-17.7-6.7-25.1-1.4c3-4.3,7.1-7.5,14.3-8.5c0.1,0,0.2-0.1,0.2-0.2
				c0-0.1-0.1-0.2-0.2-0.3c-8.3-3.1-16.6,0-23.4,8.2c3-6.4,7.9-11.5,14.8-14c0.1,0,0.2-0.2,0.2-0.3c0-0.1-0.1-0.2-0.2-0.2
				c-3.9-0.1-7.5,0.9-12.3,3.6c3.5-5.7,2.7-15.6-2.4-22.3c-0.1-0.1-0.2-0.1-0.3-0.1c-0.1,0-0.2,0.2-0.1,0.3
				c1.2,7.2-1.3,15.3-5.6,19.6c2.2-7.6,0-14.6-5.9-19.6c-0.1-0.1-0.2-0.1-0.3,0c-0.1,0-0.1,0.1-0.2,0.2c-1.2,9.4-11.8,19-20.6,19.8
				c-0.1,0-0.2,0.1-0.2,0.2c0,0.1,0.1,0.2,0.2,0.3c4.3,1,8.7,0.5,12.4-1c-2.7,2.9-5.9,5.1-9.6,6.2c-0.1,0-0.2,0.2-0.2,0.3
				c0,0.1,0.1,0.2,0.2,0.2c4.5,0.3,8.9-1,12.7-3.5c-4.4,6.6-11,11.5-19.4,13.5c-0.1,0-0.2,0.1-0.2,0.3c0,0.1,0.1,0.2,0.2,0.2
				c11.9,1.3,21.7-3.3,28.2-11.9c-1.6,4.9-6.4,9.8-12.9,12.6c-5.8,2.5-11.8,2.9-16.4,1.5c-0.1,0-0.2,0-0.3,0.1
				C108.4-128.5,108.4-128.4,108.5-128.3z M161.4-203.9c-4.8,10.5-4.5,18.7-0.6,29.1c0,0.1,0.2,0.2,0.3,0.2c0.1,0,0.2-0.1,0.2-0.3
				c-0.6-12.6,2.8-21.7,10.3-27.8c-8.3,9.9-4.4,29.6,8.8,29.6c9.6,0,17.5-8,19.5-17.5c0-0.1,0-0.2-0.2-0.3c-0.1,0-0.2,0-0.3,0.1
				c-2.8,4.8-7.4,7.9-12.5,7.9c-8.1,0-10.5-6.5-10.5-11c0-6.2,4.9-11.3,8.7-11.3c3.4,0,5,2.8,5,4.9c0,3.9-3,7.2-6.4,8.2
				c-0.1,0-0.2,0.2-0.2,0.3c0,0.1,0.1,0.2,0.3,0.2c4.1,0,7.6-1.9,9.6-5.6c0.3,2.9,0.3,4.7-0.6,7.7c0,0.1,0,0.2,0.1,0.3
				c0.1,0.1,0.2,0,0.3-0.1c7.4-9.4,3.8-25.6-2-32.4c5.5,4,10.4,12.6,10.3,24.4c0,0.1,0.1,0.2,0.2,0.3c0.1,0,0.2,0,0.3-0.2
				c4.1-10.3,1.9-29.2-9.3-39.9c2.9-0.4,5.9-0.3,9.1,0.7c0.1,0,0.2,0,0.3-0.1c0.1-0.1,0-0.2-0.1-0.3c-4.1-3.5-9.8-4.5-15.3-4.5
				c4.7,5.5,3.1,16.6-4.4,16.6c-5.3,0-7.8-8.3-3.6-12.8c0.1-0.1,0.1-0.2,0-0.3c-0.1-0.1-0.2-0.1-0.3-0.1c-4.8,1.7-9.9,5.8-9.9,11
				c0,5,4.8,9.4,11.8,9.1c-8.8,2.5-18.1-0.3-22.9-6.3c-0.1-0.1-0.2-0.1-0.3-0.1c-0.1,0.1-0.2,0.2-0.1,0.3
				c2.8,10.7,12,15.2,23.4,13.7c-9.3,3.8-23.3,0.5-29.4-7.3c-0.1-0.1-0.2-0.1-0.3-0.1c-0.1,0-0.2,0.2-0.1,0.3
				C152.2-210.8,155.7-205.8,161.4-203.9z"/>
		</g>
		<g>
			<path class="st1" d="M26.7-184.6c0-0.1,0.1-0.2,0.2-0.2c12.9-0.1,24.8-3.3,34-11.5c-8,5.6-22.9,7.5-31.5,3.6
				c-0.1,0-0.2-0.2-0.1-0.3c0-0.1,0.1-0.2,0.3-0.2c10.7,0.3,19.3-3,26-9c-6.9-0.4-12.6-4.7-12.6-9.8c0-0.1,0.1-0.2,0.2-0.2
				c0.1,0,0.2,0,0.3,0.1c1.1,2.5,4.7,3.8,8.6,2.9c4.2-1,7-4.2,6.3-7.2c-0.5-2-2.4-3.4-5-3.8c-0.1,0-0.2-0.1-0.2-0.3
				c0-0.1,0.1-0.2,0.2-0.2c1.1-0.1,2.2-0.1,3.3,0c6.5,0.6,11.5,4.6,11.9,9.2c4.7-0.5,8.9-3.2,10.4-6.8c0-0.1,0.2-0.2,0.3-0.2
				c0.1,0,0.2,0.1,0.2,0.2c0.4,4.8-1.3,7.8-5,10.9c5.4-2.1,11.4-2.2,17.3,0.5c0.1,0,0.2,0.2,0.1,0.3c0,0.1-0.1,0.2-0.2,0.2
				c-4.9,0.2-8.4,1.8-11.7,5.1c18.3-5.1,33.1,6.2,28,23.1c0,0.1-0.1,0.2-0.3,0.2c-0.1,0-0.2-0.1-0.2-0.2
				c-0.9-9.7-7.7-16.1-17.9-17.1c5.4,2.1,11,7,11.6,15.5c0,0.1-0.1,0.2-0.2,0.3c-0.1,0-0.2,0-0.3-0.1c-2.8-6.2-8.3-9.3-14.2-9.8
				c6.3,2.6,10.4,8.6,11.6,16.4c0,0.1-0.1,0.2-0.2,0.3c-0.1,0-0.2,0-0.3-0.1c-3.9-7.6-12.2-12.8-22.4-8.8
				c-10.6,4.1-15.3,16.4-16.3,25c0,0.1-0.1,0.2-0.2,0.2c-0.1,0-0.2-0.1-0.3-0.2c-3.7-15.7,3.6-31.9,16.6-38.8
				c-7.1,2-13.4,6.3-17,13.4c-8.3,1-14,3.9-16.9,9.2c-0.1,0.1-0.2,0.2-0.3,0.1c-0.1,0-0.2-0.1-0.2-0.3c0.2-2.1,0.9-6.3,4.1-8.3
				c-7,0-12.5-0.9-17.8-3C26.7-184.3,26.7-184.5,26.7-184.6z M56.2-131.1c-0.1-0.1-0.2-0.1-0.3,0c-0.1,0.1-0.1,0.2,0,0.3
				c1.6,2.8,0.1,6.8-3.1,6.8c-5.7,0-8.5-10.8-7.6-20.6c2.2,5.8,4,8.1,7.3,10.8c0.1,0.1,0.2,0.1,0.3,0c0.1-0.1,0.1-0.2,0.1-0.3
				c-4.9-9.1-5.9-16.1-5.9-24.1c1.5,6,3.2,9.3,8.1,14.4c0.1,0.1,0.2,0.1,0.3,0c0.1-0.1,0.1-0.2,0.1-0.3c-5.3-11.6-4.9-24.4-0.9-34.3
				c0-0.1,0-0.2-0.1-0.3c-0.1-0.1-0.2-0.1-0.3,0c-5.2,2.6-8.3,4.2-12.8,10.4c1.4,7.4,0.2,11-3.2,17.2c3.9-9.9,1.8-23.9-8.2-29.6
				c-0.1-0.1-0.2,0-0.3,0.1c-0.1,0.1-0.1,0.2,0,0.3c3.8,4,6.5,10.6,4.2,17.9c1.5-10.4-7.6-19.1-17.8-19.1c-9.6,0-16.2,7.5-15.6,14.9
				c0.5,7.4,5.4,11,9.7,12.5c0.1,0,0.2,0,0.3-0.1c0.1-0.1,0-0.2,0-0.3c-5.6-5.7-6.4-16.5,3.6-19.8c-5.9,5.1-3.7,16.8,5.7,17.7
				c0.1,0,0.2-0.1,0.3-0.2c0-0.1,0-0.2-0.1-0.3c-2-1.3-3.7-3.8-3.7-6.6c0-4.7,3.4-6.5,5.7-6.5c3.4,0,6.3,3.3,6.3,8.2
				c0,5.8-5.3,10.7-12,11.4c-6.6,0.7-12.8-2.2-15.7-6.5c-0.1-0.1-0.2-0.1-0.3-0.1C0-156.9,0-156.8,0-156.7
				c3,11.7,16.8,16.9,26.9,9.5c-6.6,7.5-17,7.6-25.7-0.1c-0.1-0.1-0.2-0.1-0.3,0c-0.1,0.1-0.1,0.2-0.1,0.3
				c2.7,5.4,9.3,11.8,18.6,10.9c8.6-0.9,13.5-9,14.5-15.7c0.6,8.5-1.4,14.5-8.8,20.1c-0.1,0.1-0.1,0.2-0.1,0.3
				c0.1,0.1,0.2,0.2,0.3,0.1c6.8-2,12.2-5.4,15-12.5c0,6.2-2.1,12.4-7.5,16.5c-0.1,0.1-0.1,0.2-0.1,0.3c0.1,0.1,0.2,0.2,0.3,0.1
				c3.5-1,6.2-2.5,8.1-5.2c1.3,11.1,6.5,17.7,12.5,17.7c4.1,0,7.2-3,7.2-7.9C61-124.9,59.5-128.9,56.2-131.1z M155.4-222.7
				c-3.2-3.9-9.5-5.4-16.4-4c0.5-4.3-0.3-8.8-1.6-11.5c-0.1-0.1-0.2-0.2-0.3-0.1c-0.1,0-0.2,0.1-0.2,0.3c0.4,8.8-4.6,15.8-13.4,18.9
				c6.9-4.8,8.9-14.2,5.6-19.1c-0.1-0.1-0.2-0.1-0.3-0.1c-0.1,0-0.2,0.2-0.2,0.3c0.4,2.1-0.6,4.7-2.7,6.7c-2.9,2.8-6.8,3.5-8.8,1.4
				c-2-2-1.2-5.9,1.7-8.8c1.1-1,2.3-1.8,3.4-2.2c0.1,0,0.2-0.2,0.2-0.3c0-0.1-0.1-0.2-0.2-0.2c-6.4-0.6-10.8,3.3-13.5,7.9
				c-2.8,4.7-7.6,8.4-13.2,7.7c-0.1,0-0.2,0.1-0.3,0.2c0,0.1,0,0.2,0.1,0.3c2.8,1.7,5.9,2.4,9.9,1.1c-5.8,4.9-14,7.7-21.8,5.2
				c-0.1,0-0.2,0-0.3,0.1c-0.1,0.1-0.1,0.2,0,0.3c5.9,6.6,17.7,6.7,25.1,1.4c-3,4.3-7.1,7.5-14.3,8.5c-0.1,0-0.2,0.1-0.2,0.2
				c0,0.1,0.1,0.2,0.2,0.3c8.3,3.1,16.6,0,23.4-8.2c-3,6.4-7.9,11.5-14.8,14c-0.1,0-0.2,0.2-0.2,0.3c0,0.1,0.1,0.2,0.2,0.2
				c3.9,0.1,7.5-0.9,12.3-3.6c-3.5,5.7-2.7,15.6,2.4,22.3c0.1,0.1,0.2,0.1,0.3,0.1c0.1,0,0.2-0.2,0.1-0.3
				c-1.2-7.2,1.3-15.3,5.6-19.6c-2.2,7.6,0,14.6,5.9,19.6c0.1,0.1,0.2,0.1,0.3,0c0.1,0,0.1-0.1,0.2-0.2c1.2-9.4,11.8-19,20.6-19.8
				c0.1,0,0.2-0.1,0.2-0.2c0-0.1-0.1-0.2-0.2-0.3c-4.3-1-8.7-0.5-12.4,1c2.7-2.9,5.9-5.1,9.6-6.2c0.1,0,0.2-0.2,0.2-0.3
				c0-0.1-0.1-0.2-0.2-0.2c-4.5-0.3-8.9,1-12.7,3.5c4.4-6.6,11-11.5,19.4-13.5c0.1,0,0.2-0.1,0.2-0.3c0-0.1-0.1-0.2-0.2-0.2
				c-11.9-1.3-21.7,3.3-28.2,11.9c1.6-4.9,6.4-9.8,12.9-12.6c5.8-2.5,11.8-2.9,16.4-1.5c0.1,0,0.2,0,0.3-0.1
				C155.5-222.5,155.5-222.6,155.4-222.7z M102.5-147.2c4.8-10.5,4.5-18.7,0.6-29.1c0-0.1-0.2-0.2-0.3-0.2c-0.1,0-0.2,0.1-0.2,0.3
				c0.6,12.6-2.8,21.7-10.3,27.8c8.2-9.9,4.4-29.6-8.8-29.6c-9.6,0-17.5,8-19.5,17.5c0,0.1,0,0.2,0.2,0.3c0.1,0,0.2,0,0.3-0.1
				c2.8-4.8,7.4-7.9,12.5-7.9c8.1,0,10.5,6.5,10.5,11c0,6.2-4.9,11.3-8.7,11.3c-3.4,0-5-2.8-5-4.9c0-3.9,3-7.2,6.4-8.2
				c0.1,0,0.2-0.2,0.2-0.3c0-0.1-0.1-0.2-0.3-0.2c-4.1,0-7.6,1.9-9.6,5.6c-0.3-2.9-0.3-4.7,0.6-7.7c0-0.1,0-0.2-0.1-0.3
				c-0.1-0.1-0.2,0-0.3,0.1c-7.4,9.4-3.8,25.6,2,32.4c-5.5-4-10.4-12.6-10.3-24.4c0-0.1-0.1-0.2-0.2-0.3c-0.1,0-0.2,0-0.3,0.2
				c-4.1,10.3-1.9,29.2,9.3,39.9c-2.9,0.4-5.9,0.3-9.1-0.7c-0.1,0-0.2,0-0.3,0.1c-0.1,0.1,0,0.2,0.1,0.3c4.1,3.5,9.8,4.5,15.3,4.5
				c-4.7-5.5-3.1-16.6,4.4-16.6c5.3,0,7.8,8.3,3.6,12.8c-0.1,0.1-0.1,0.2,0,0.3c0.1,0.1,0.2,0.1,0.3,0.1c4.8-1.7,9.9-5.8,9.9-11
				c0-5-4.8-9.4-11.8-9.1c8.8-2.5,18.1,0.3,22.9,6.3c0.1,0.1,0.2,0.1,0.3,0.1c0.1-0.1,0.2-0.2,0.1-0.3c-2.8-10.7-12-15.2-23.4-13.7
				c9.3-3.8,23.3-0.5,29.4,7.3c0.1,0.1,0.2,0.1,0.3,0.1c0.1-0.1,0.2-0.2,0.1-0.3C111.8-140.3,108.3-145.2,102.5-147.2z"/>
			<path class="st2" d="M128.9-166.5c0,0.1-0.1,0.2-0.2,0.2c-12.9,0.1-24.8,3.3-34,11.5c8-5.6,22.9-7.5,31.5-3.6
				c0.1,0.1,0.2,0.2,0.1,0.3c0,0.1-0.1,0.2-0.3,0.2c-10.7-0.3-19.3,3-26,9c6.9,0.4,12.6,4.7,12.6,9.8c0,0.1-0.1,0.2-0.2,0.2
				c-0.1,0-0.2,0-0.3-0.1c-1.1-2.5-4.7-3.8-8.6-2.9c-4.2,1-7,4.2-6.3,7.2c0.5,2,2.4,3.4,5,3.8c0.1,0,0.2,0.1,0.2,0.3
				c0,0.1-0.1,0.2-0.2,0.2c-1.1,0.1-2.2,0.1-3.3,0c-6.5-0.6-11.5-4.6-11.9-9.2c-4.7,0.5-8.9,3.2-10.4,6.8c0,0.1-0.2,0.2-0.3,0.2
				c-0.1,0-0.2-0.1-0.2-0.2c-0.4-4.8,1.3-7.8,5-10.9c-5.4,2.1-11.4,2.2-17.3-0.5c-0.1-0.1-0.2-0.2-0.1-0.3c0-0.1,0.1-0.2,0.2-0.2
				c4.9-0.2,8.4-1.8,11.7-5.1c-18.3,5.1-33.1-6.2-28-23.1c0-0.1,0.1-0.2,0.3-0.2c0.1,0,0.2,0.1,0.2,0.2c0.9,9.7,7.7,16.1,17.9,17.1
				c-5.4-2.1-11-7-11.6-15.5c0-0.1,0.1-0.2,0.2-0.3c0.1,0,0.2,0,0.3,0.1c2.8,6.2,8.3,9.3,14.2,9.8c-6.3-2.6-10.4-8.6-11.6-16.4
				c0-0.1,0.1-0.2,0.2-0.3c0.1,0,0.2,0,0.3,0.1c3.9,7.6,12.2,12.8,22.4,8.8c10.6-4.1,15.3-16.4,16.3-25c0-0.1,0.1-0.2,0.2-0.2
				c0.1,0,0.2,0.1,0.3,0.2c3.7,15.7-3.6,31.9-16.6,38.8c7.1-2,13.4-6.3,17-13.4c8.3-1,14-3.9,16.9-9.2c0.1-0.1,0.2-0.2,0.3-0.1
				c0.1,0,0.2,0.1,0.2,0.3c-0.2,2.1-0.9,6.3-4.1,8.3c7,0,12.5,0.9,17.8,3C128.8-166.7,128.9-166.6,128.9-166.5z M99.4-219.9
				c0.1,0.1,0.2,0.1,0.3,0c0.1-0.1,0.1-0.2,0-0.3c-1.6-2.8-0.1-6.8,3.1-6.8c5.7,0,8.5,10.8,7.6,20.6c-2.2-5.8-4-8.1-7.3-10.8
				c-0.1-0.1-0.2-0.1-0.3,0c-0.1,0.1-0.1,0.2-0.1,0.3c4.9,9.1,5.9,16.1,5.9,24.1c-1.5-6-3.2-9.3-8.1-14.4c-0.1-0.1-0.2-0.1-0.3,0
				c-0.1,0.1-0.1,0.2-0.1,0.3c5.3,11.6,4.9,24.4,0.9,34.3c0,0.1,0,0.2,0.1,0.3c0.1,0.1,0.2,0.1,0.3,0c5.2-2.6,8.3-4.2,12.8-10.4
				c-1.4-7.4-0.2-11,3.2-17.2c-3.9,9.9-1.8,23.9,8.2,29.6c0.1,0.1,0.2,0,0.3-0.1c0.1-0.1,0.1-0.2,0-0.3c-3.8-4-6.5-10.6-4.2-17.9
				c-1.5,10.4,7.6,19.1,17.8,19.1c9.6,0,16.2-7.5,15.6-14.9c-0.5-7.4-5.4-11-9.7-12.5c-0.1,0-0.2,0-0.3,0.1c-0.1,0.1-0.1,0.2,0,0.3
				c5.6,5.7,6.4,16.5-3.6,19.8c5.9-5.1,3.7-16.8-5.7-17.7c-0.1,0-0.2,0.1-0.3,0.2c0,0.1,0,0.2,0.1,0.3c2,1.3,3.7,3.8,3.7,6.6
				c0,4.7-3.4,6.5-5.7,6.5c-3.4,0-6.3-3.3-6.3-8.2c0-5.8,5.3-10.7,12-11.4c6.6-0.7,12.8,2.2,15.8,6.5c0.1,0.1,0.2,0.1,0.3,0.1
				c0.1-0.1,0.2-0.2,0.1-0.3c-3-11.7-16.8-16.9-26.9-9.5c6.6-7.5,17-7.6,25.7,0.1c0.1,0.1,0.2,0.1,0.3,0c0.1-0.1,0.1-0.2,0.1-0.3
				c-2.7-5.4-9.3-11.8-18.6-10.9c-8.6,0.9-13.5,9-14.5,15.7c-0.6-8.5,1.4-14.5,8.8-20.1c0.1-0.1,0.1-0.2,0.1-0.3s-0.2-0.2-0.3-0.1
				c-6.8,2-12.2,5.4-15,12.5c0-6.2,2.1-12.4,7.5-16.5c0.1-0.1,0.1-0.2,0.1-0.3c-0.1-0.1-0.2-0.2-0.3-0.1c-3.5,1-6.2,2.5-8.1,5.2
				c-1.3-11.1-6.5-17.7-12.5-17.7c-4.1,0-7.2,3-7.2,7.9C94.6-226.1,96.1-222.1,99.4-219.9z M0.2-128.3c3.2,3.9,9.5,5.4,16.4,4
				c-0.5,4.3,0.3,8.8,1.6,11.5c0.1,0.1,0.2,0.2,0.3,0.1c0.1,0,0.2-0.1,0.2-0.3c-0.4-8.8,4.6-15.8,13.4-18.9
				c-6.9,4.8-8.9,14.2-5.6,19.1c0.1,0.1,0.2,0.1,0.3,0.1c0.1,0,0.2-0.2,0.2-0.3c-0.4-2.1,0.6-4.7,2.7-6.7c2.9-2.8,6.8-3.5,8.8-1.4
				c2,2,1.2,5.9-1.7,8.8c-1.1,1-2.3,1.8-3.4,2.2c-0.1,0-0.2,0.2-0.2,0.3c0,0.1,0.1,0.2,0.2,0.2c6.4,0.6,10.8-3.3,13.5-7.9
				c2.8-4.7,7.6-8.4,13.2-7.7c0.1,0,0.2-0.1,0.3-0.2c0-0.1,0-0.2-0.1-0.3c-2.8-1.7-5.9-2.4-9.9-1.1c5.8-4.9,14-7.7,21.8-5.2
				c0.1,0,0.2,0,0.3-0.1c0.1-0.1,0.1-0.2,0-0.3c-5.9-6.6-17.7-6.7-25.1-1.4c3-4.3,7.1-7.5,14.3-8.5c0.1,0,0.2-0.1,0.2-0.2
				c0-0.1-0.1-0.2-0.2-0.3c-8.3-3.1-16.6,0-23.4,8.2c3-6.4,7.9-11.5,14.8-14c0.1,0,0.2-0.2,0.2-0.3c0-0.1-0.1-0.2-0.2-0.2
				c-3.9-0.1-7.5,0.9-12.3,3.6c3.5-5.7,2.7-15.6-2.4-22.3c-0.1-0.1-0.2-0.1-0.3-0.1c-0.1,0-0.2,0.2-0.1,0.3
				c1.2,7.2-1.3,15.3-5.6,19.6c2.2-7.6,0-14.6-5.9-19.6c-0.1-0.1-0.2-0.1-0.3,0c-0.1,0-0.1,0.1-0.2,0.2c-1.2,9.4-11.8,19-20.6,19.8
				c-0.1,0-0.2,0.1-0.2,0.2c0,0.1,0.1,0.2,0.2,0.3c4.3,1,8.7,0.5,12.4-1c-2.7,2.9-5.9,5.1-9.6,6.2c-0.1,0-0.2,0.2-0.2,0.3
				c0,0.1,0.1,0.2,0.2,0.2c4.5,0.3,8.9-1,12.7-3.5c-4.4,6.6-11,11.5-19.4,13.5c-0.1,0-0.2,0.1-0.2,0.3c0,0.1,0.1,0.2,0.2,0.2
				c11.9,1.3,21.7-3.3,28.2-11.9c-1.6,4.9-6.4,9.8-12.9,12.6c-5.8,2.5-11.8,2.9-16.4,1.5c-0.1,0-0.2,0-0.3,0.1
				C0.1-128.5,0.1-128.4,0.2-128.3z M53.1-203.9c-4.8,10.5-4.5,18.7-0.6,29.1c0,0.1,0.2,0.2,0.3,0.2c0.1,0,0.2-0.1,0.2-0.3
				c-0.6-12.6,2.8-21.7,10.3-27.8c-8.3,9.9-4.4,29.6,8.8,29.6c9.6,0,17.5-8,19.5-17.5c0-0.1,0-0.2-0.2-0.3c-0.1,0-0.2,0-0.3,0.1
				c-2.8,4.8-7.4,7.9-12.5,7.9c-8.1,0-10.5-6.5-10.5-11c0-6.2,4.9-11.3,8.7-11.3c3.4,0,5,2.8,5,4.9c0,3.9-3,7.2-6.4,8.2
				c-0.1,0-0.2,0.2-0.2,0.3c0,0.1,0.1,0.2,0.3,0.2c4.1,0,7.6-1.9,9.6-5.6c0.3,2.9,0.3,4.7-0.6,7.7c0,0.1,0,0.2,0.1,0.3
				c0.1,0.1,0.2,0,0.3-0.1c7.4-9.4,3.8-25.6-2-32.4c5.5,4,10.4,12.6,10.3,24.4c0,0.1,0.1,0.2,0.2,0.3c0.1,0,0.2,0,0.3-0.2
				c4.1-10.3,1.9-29.2-9.3-39.9c2.9-0.4,5.9-0.3,9.1,0.7c0.1,0,0.2,0,0.3-0.1c0.1-0.1,0-0.2-0.1-0.3c-4.1-3.5-9.8-4.5-15.3-4.5
				c4.7,5.5,3.1,16.6-4.4,16.6c-5.3,0-7.8-8.3-3.6-12.8c0.1-0.1,0.1-0.2,0-0.3c-0.1-0.1-0.2-0.1-0.3-0.1c-4.8,1.7-9.9,5.8-9.9,11
				c0,5,4.8,9.4,11.8,9.1c-8.8,2.5-18.1-0.3-22.9-6.3c-0.1-0.1-0.2-0.1-0.3-0.1c-0.1,0.1-0.2,0.2-0.1,0.3
				c2.8,10.7,12,15.2,23.4,13.7c-9.3,3.8-23.3,0.5-29.4-7.3c-0.1-0.1-0.2-0.1-0.3-0.1c-0.1,0-0.2,0.2-0.1,0.3
				C43.8-210.8,47.3-205.8,53.1-203.9z"/>
		</g>
	</g>
</pattern>
<g id="Arbeitsfläche_4">
	<g id="Figur_default" class="st3">
		<g class="st4">
			<polyline class="st5" points="125,150 75,150 100,200 			"/>
			<line class="st5" x1="175" y1="150" x2="150" y2="100"/>
			<line class="st5" x1="150" y1="100" x2="125" y2="150"/>
			<polyline class="st5" points="200,200 225,150 175,150 			"/>
			<line class="st5" x1="100" y1="400" x2="125" y2="450"/>
			<line class="st5" x1="125" y1="350" x2="100" y2="400"/>
			<line class="st5" x1="225" y1="250" x2="200" y2="200"/>
			<line class="st5" x1="100" y1="200" x2="75" y2="250"/>
			<line class="st5" x1="200" y1="400" x2="175" y2="350"/>
			<line class="st5" x1="175" y1="450" x2="200" y2="400"/>
			<polyline class="st5" points="175,350 225,350 250,300 			"/>
			<polyline class="st5" points="150,500 250,500 225,450 175,450 			"/>
			<polyline class="st5" points="250,300 250,250 225,250 			"/>
			<polyline class="st5" points="50,300 75,350 125,350 			"/>
			<polyline class="st5" points="75,250 50,250 50,300 			"/>
			<polyline class="st5" points="125,450 75,450 50,500 150,500 			"/>
		</g>
	</g>
	<g id="Arbeitsfläche_4_default" class="st3">
		<line class="st6" x1="50" y1="100" x2="250" y2="100"/>
		<line class="st6" x1="50" y1="150" x2="250" y2="150"/>
		<line class="st6" x1="50" y1="200" x2="250" y2="200"/>
		<line class="st6" x1="50" y1="250" x2="250" y2="250"/>
		<line class="st6" x1="50" y1="350" x2="250" y2="350"/>
		<line class="st6" x1="50" y1="400" x2="250" y2="400"/>
		<line class="st6" x1="50" y1="450" x2="250" y2="450"/>
		<line class="st6" x1="50" y1="500" x2="250" y2="500"/>
		<line class="st6" x1="50" y1="100" x2="50" y2="500"/>
		<line class="st6" x1="250" y1="100" x2="250" y2="500"/>
		<line class="st6" x1="150" y1="100" x2="150" y2="500"/>
		<line class="st6" x1="250" y1="100" x2="150" y2="300"/>
		<line class="st6" x1="50" y1="100" x2="150" y2="300"/>
		<line class="st6" x1="150" y1="300" x2="250" y2="500"/>
		<line class="st6" x1="150" y1="300" x2="50" y2="500"/>
		<line class="st6" x1="250" y1="300" x2="150" y2="500"/>
		<line class="st6" x1="150" y1="100" x2="50" y2="300"/>
		<line class="st6" x1="150" y1="100" x2="250" y2="300"/>
		<line class="st6" x1="50" y1="300" x2="150" y2="500"/>
	</g>
	<g id="Minispiel">
		<g id="Konkave_Linse_2_">
			<path d="M495.5,51c12.6,0,25.2,26.4,34.4,72.4c9.4,47.2,14.6,109.9,14.6,176.6s-5.2,129.4-14.6,176.6
				c-9.2,46-21.7,72.4-34.4,72.4s-25.2-26.4-34.4-72.4c-9.4-47.2-14.6-109.9-14.6-176.6s5.2-129.4,14.6-176.6
				C470.3,77.4,482.9,51,495.5,51 M495.5,50c-27.6,0-50,111.9-50,250s22.4,250,50,250c27.6,0,50-111.9,50-250S523.1,50,495.5,50
				L495.5,50z"/>
		</g>
		<g id="Figur_Ziel">
			<polygon class="st7" points="1359.5,300 1359.5,283.8 1351.4,283.8 1343.3,267.5 1351.4,251.3 1335.1,251.3 1327,235 
				1318.9,251.3 1302.6,251.3 1310.8,267.5 1302.6,283.8 1294.5,283.8 1294.5,300 1302.6,316.3 1318.9,316.3 1310.8,332.5 
				1318.9,348.8 1302.6,348.8 1294.5,365 1327,365 1359.5,365 1351.4,348.8 1335.1,348.8 1343.3,332.5 1335.1,316.3 1351.4,316.3 
							"/>
		</g>
		<g id="Figur_Start">
			<polygon class="st7" points="250,300 250,250 225,250 200,200 225,150 175,150 150,100 125,150 75,150 100,200 75,250 50,250 
				50,300 75,350 125,350 100,400 125,450 75,450 50,500 150,500 250,500 225,450 175,450 200,400 175,350 225,350 			"/>
		</g>
		<g id="Licht2_1_">
			<line class="st8" x1="994.2" y1="361.6" x2="965.5" y2="365.6"/>
			<line id="Erste_9_" class="st8" x1="1291.6" y1="361.6" x2="994.2" y2="361.6"/>
			<line class="st8" x1="991.1" y1="346.2" x2="969.5" y2="348.4"/>
			<line id="_x32__8_" class="st8" x1="1300.1" y1="346.2" x2="991.1" y2="346.2"/>
			<line class="st8" x1="989.2" y1="330.8" x2="971.7" y2="332"/>
			<line id="_x37__5_" class="st8" x1="1307.7" y1="330.8" x2="989.2" y2="330.8"/>
			<line class="st8" x1="988.3" y1="315.4" x2="972.6" y2="316"/>
			<line id="_x36__5_" class="st8" x1="1313.4" y1="315.4" x2="988.3" y2="315.4"/>
			<line class="st8" x1="988.3" y1="284.6" x2="972.6" y2="284"/>
			<line id="_x34__5_" class="st8" x1="1292.5" y1="284.6" x2="988.3" y2="284.6"/>
			<line class="st8" x1="989.2" y1="269.2" x2="971.7" y2="268"/>
			<line id="_x33__5_" class="st8" x1="1306.7" y1="269.2" x2="989.2" y2="269.2"/>
			<line class="st8" x1="991.1" y1="253.8" x2="969.5" y2="251.6"/>
			<line id="_x32__7_" class="st8" x1="1299.1" y1="253.8" x2="991.1" y2="253.8"/>
			<line class="st8" x1="994.2" y1="238.4" x2="965.5" y2="234.4"/>
			<line id="Erste_8_" class="st8" x1="1322.4" y1="238.4" x2="994.2" y2="238.4"/>
		</g>
		<g id="Licht1" class="st3">
			<line id="Erste_11_" class="st9" x1="249.5" y1="500" x2="461" y2="500"/>
			<line class="st9" x1="522.8" y1="491.3" x2="1321" y2="262.5"/>
			<line class="st9" x1="522.8" y1="491.3" x2="461" y2="500"/>
			<line id="_x38__4_" class="st9" x1="224.5" y1="450" x2="456" y2="450"/>
			<line class="st9" x1="535.9" y1="441.6" x2="1322" y2="274.5"/>
			<line class="st9" x1="456" y1="450" x2="535.9" y2="441.6"/>
			<line id="_x37__6_" class="st9" x1="199.5" y1="400" x2="450" y2="400"/>
			<line class="st9" x1="541.1" y1="393.6" x2="1325" y2="283.5"/>
			<line class="st9" x1="450" y1="400" x2="541.1" y2="393.6"/>
			<line id="_x36__6_" class="st9" x1="225.5" y1="350" x2="447" y2="350"/>
			<line class="st9" x1="544.4" y1="346.6" x2="1333" y2="291.5"/>
			<line class="st9" x1="447" y1="350" x2="544.4" y2="346.6"/>
			<line id="Mittellinie_2_" class="st10" x1="100" y1="300" x2="1571" y2="300"/>
			<line id="_x34__6_" class="st9" x1="249.5" y1="250" x2="447" y2="250"/>
			<line class="st9" x1="544.4" y1="253.4" x2="1332" y2="308.5"/>
			<line class="st9" x1="447" y1="250" x2="544.4" y2="253.4"/>
			<line id="_x33__6_" class="st9" x1="200.5" y1="200" x2="450" y2="200"/>
			<line class="st9" x1="541.1" y1="206.4" x2="1325" y2="316.5"/>
			<line class="st9" x1="450" y1="200" x2="541.1" y2="206.4"/>
			<line id="_x32__9_" class="st9" x1="224" y1="150" x2="456" y2="150"/>
			<line class="st9" x1="535.9" y1="158.4" x2="1327" y2="326.5"/>
			<line class="st9" x1="456" y1="150" x2="535.9" y2="158.4"/>
			<line id="Erste_10_" class="st9" x1="150.5" y1="100" x2="466" y2="100"/>
			<line class="st9" x1="527.8" y1="108.7" x2="1319" y2="335.5"/>
			<line class="st9" x1="527.8" y1="108.7" x2="466" y2="100"/>
		</g>
		<g id="Licht1_Kopie">
			<g>
				<line class="st11" x1="461" y1="500" x2="249.5" y2="500"/>
				<line class="st11" x1="965.7" y1="364.4" x2="522.8" y2="491.3"/>
				<path class="st12" d="M965.7,364.4"/>
				<line class="st11" x1="461" y1="500" x2="522.8" y2="491.3"/>
				<line class="st11" x1="456" y1="450" x2="224.5" y2="450"/>
				<line class="st11" x1="535.9" y1="441.6" x2="969" y2="349.5"/>
				<path class="st12" d="M969,349.5"/>
				<line class="st11" x1="456" y1="450" x2="535.9" y2="441.6"/>
				<line class="st11" x1="450" y1="400" x2="199.5" y2="400"/>
				<line class="st11" x1="541.1" y1="393.6" x2="971.1" y2="333.2"/>
				<path class="st12" d="M971.1,333.2"/>
				<line class="st11" x1="450" y1="400" x2="541.1" y2="393.6"/>
				<line class="st11" x1="225.5" y1="350" x2="447" y2="350"/>
				<path class="st12" d="M972.2,316.7"/>
				<line class="st11" x1="544.4" y1="346.6" x2="972.2" y2="316.7"/>
				<line class="st11" x1="447" y1="350" x2="544.4" y2="346.6"/>
				<line class="st11" x1="972.6" y1="300" x2="100" y2="300"/>
				<path class="st12" d="M972.6,300"/>
				<line class="st11" x1="447" y1="250" x2="249.5" y2="250"/>
				<path class="st12" d="M972.2,283.3"/>
				<line class="st11" x1="544.4" y1="253.4" x2="972.2" y2="283.3"/>
				<line class="st11" x1="544.4" y1="253.4" x2="447" y2="250"/>
				<line class="st11" x1="450" y1="200" x2="200.5" y2="200"/>
				<path class="st12" d="M971.1,266.8"/>
				<line class="st11" x1="541.1" y1="206.4" x2="971.1" y2="266.8"/>
				<line class="st11" x1="541.1" y1="206.4" x2="450" y2="200"/>
				<line class="st11" x1="456" y1="150" x2="224" y2="150"/>
				<path class="st12" d="M969,250.4"/>
				<line class="st11" x1="535.9" y1="158.4" x2="969" y2="250.4"/>
				<line class="st11" x1="456" y1="150" x2="535.9" y2="158.4"/>
				<line class="st11" x1="150.5" y1="100" x2="466" y2="100"/>
				<line class="st11" x1="965.2" y1="234.1" x2="527.8" y2="108.7"/>
				<path class="st12" d="M965.2,234.1"/>
				<line class="st11" x1="466" y1="100" x2="527.8" y2="108.7"/>
				<path class="st12" d="M969,349.5L969,349.5c0.8-4.9,1.5-10.4,2.1-16.3"/>
				<path class="st12" d="M969,250.4c-1.1-6.4-2.4-12-3.8-16.4"/>
				<path class="st12" d="M972.6,300c0,5.7-0.1,11.3-0.4,16.7"/>
				<path class="st12" d="M965.7,364.4L965.7,364.4c1.3-4.1,2.4-9.1,3.3-14.8"/>
				<path class="st12" d="M972.2,316.7L972.2,316.7c-0.3,5.8-0.6,11.3-1.1,16.5l0,0"/>
				<path class="st12" d="M971.1,266.8L971.1,266.8c0.5,5.2,0.9,10.8,1.1,16.6l0,0"/>
				<path class="st12" d="M972.6,300c0-5.7-0.1-11.3-0.4-16.7"/>
				<path class="st12" d="M969,250.4L969,250.4c0.8,5,1.5,10.4,2.1,16.4"/>
			</g>
		</g>
		<g id="Ebene_40">
			<g>
				<path d="M999.1,224c-8.1,8.6-12.4,43.2-12.4,76s4.3,67.4,12.4,76h-38.3c8.1-8.6,12.4-43.2,12.4-76s-4.3-67.4-12.4-76H999.1
					 M1003.1,223h-46.2c8.5,0,15.4,34.5,15.4,77s-6.9,77-15.4,77h46.2c-8.5,0-15.4-34.5-15.4-77S994.6,223,1003.1,223L1003.1,223z"
					/>
			</g>
		</g>
		<g id="Text">
			<rect x="868" y="29.8" class="st0" width="723.1" height="162"/>
			<text transform="matrix(1 0 0 1 868.0303 44.7017)"><tspan x="0" y="0" class="st13 st14">Skizze für Minispiel Linsen (Mikroskop/Fernrohr) </tspan><tspan x="0" y="25.2" class="st13 st14">- Die Lichtstrahlen müssen durch korrekte Anordnung so gebrochen werden, </tspan><tspan x="0" y="50.4" class="st13 st14">damit aus dem Ausgangsbild, das Finale Bild wird</tspan></text>
		</g>
	</g>
</g>
<g id="Arbeitsfläche_3">
	<g id="Licht_1_">
		<g id="Letzte_3_">
			<line id="Erste_4_" class="st15" x1="-1600.5" y1="1132" x2="-1281.5" y2="1132"/>
			<line class="st15" x1="-1219.7" y1="1123.3" x2="-421.5" y2="894.5"/>
			<line class="st15" x1="-1219.7" y1="1123.3" x2="-1281.5" y2="1132"/>
		</g>
		<g id="_x38__2_">
			<line id="_x38__3_" class="st15" x1="-1600.5" y1="1082" x2="-1286.5" y2="1082"/>
			<line class="st15" x1="-1206.6" y1="1073.6" x2="-420.5" y2="906.5"/>
			<line class="st15" x1="-1286.5" y1="1082" x2="-1206.6" y2="1073.6"/>
		</g>
		<g id="_x37__2_">
			<line id="_x37__3_" class="st15" x1="-1600.5" y1="1032" x2="-1292.5" y2="1032"/>
			<line class="st15" x1="-1201.4" y1="1025.6" x2="-417.5" y2="915.5"/>
			<line class="st15" x1="-1292.5" y1="1032" x2="-1201.4" y2="1025.6"/>
		</g>
		<g id="_x36__2_">
			<line id="_x36__3_" class="st15" x1="-1600.5" y1="982" x2="-1295.5" y2="982"/>
			<line class="st15" x1="-1198.1" y1="978.6" x2="-409.5" y2="923.5"/>
			<line class="st15" x1="-1295.5" y1="982" x2="-1198.1" y2="978.6"/>
		</g>
		<line id="Mittellinie_1_" class="st5" x1="-1642.5" y1="932" x2="-171.5" y2="932"/>
		<g id="_x34__3_">
			<line id="_x34__2_" class="st15" x1="-1600.5" y1="882" x2="-1295.5" y2="882"/>
			<line class="st15" x1="-1198.1" y1="885.4" x2="-410.5" y2="940.5"/>
			<line class="st15" x1="-1295.5" y1="882" x2="-1198.1" y2="885.4"/>
		</g>
		<g id="_x33__3_">
			<line id="_x33__2_" class="st15" x1="-1600.5" y1="832" x2="-1292.5" y2="832"/>
			<line class="st15" x1="-1201.4" y1="838.4" x2="-417.5" y2="948.5"/>
			<line class="st15" x1="-1292.5" y1="832" x2="-1201.4" y2="838.4"/>
		</g>
		<g id="_x32__3_">
			<line id="_x32__2_" class="st15" x1="-1600.5" y1="782" x2="-1286.5" y2="782"/>
			<line class="st15" x1="-1206.6" y1="790.4" x2="-415.5" y2="958.5"/>
			<line class="st15" x1="-1286.5" y1="782" x2="-1206.6" y2="790.4"/>
		</g>
		<g id="Erste_3_">
			<line id="Erste_2_" class="st15" x1="-1595.5" y1="732" x2="-1276.5" y2="732"/>
			<line class="st15" x1="-1214.7" y1="740.7" x2="-423.5" y2="967.5"/>
			<line class="st15" x1="-1214.7" y1="740.7" x2="-1276.5" y2="732"/>
		</g>
	</g>
	<g id="Konkave_Linse_1_">
		<g>
			<path d="M-1247,683c12.6,0,25.2,26.4,34.4,72.4c9.4,47.2,14.6,109.9,14.6,176.6s-5.2,129.4-14.6,176.6
				c-9.2,46-21.7,72.4-34.4,72.4s-25.2-26.4-34.4-72.4c-9.4-47.2-14.6-109.9-14.6-176.6s5.2-129.4,14.6-176.6
				C-1272.2,709.4-1259.6,683-1247,683 M-1247,682c-27.6,0-50,111.9-50,250s22.4,250,50,250s50-111.9,50-250S-1219.4,682-1247,682
				L-1247,682z"/>
		</g>
		<line class="st5" x1="-1247" y1="682.5" x2="-1247" y2="1181.5"/>
	</g>
	<g id="Brennpunkt">
		<circle class="st16" cx="-542" cy="932" r="7"/>
	</g>
	<g id="Ebene_29">
		<g>
			<path d="M-755.9,851.9c-4,4.1-6.7,14-8.4,22.6c-3.1,15.4-4.8,35.8-4.8,57.5s1.7,42.2,4.8,57.5c1.7,8.6,4.4,18.4,8.4,22.6h-40.6
				c4-4.1,6.7-14,8.4-22.6c3.1-15.4,4.8-35.8,4.8-57.5s-1.7-42.2-4.8-57.5c-1.7-8.6-4.4-18.4-8.4-22.6H-755.9 M-751.9,850.9h-48.7
				c9,0,16.2,36.3,16.2,81.1c0,44.8-7.3,81.1-16.2,81.1h48.7c-9,0-16.2-36.3-16.2-81.1C-768.1,887.2-760.9,850.9-751.9,850.9
				L-751.9,850.9z"/>
		</g>
		<g id="Licht2">
			<line class="st8" x1="-761.7" y1="996.9" x2="-791.8" y2="1001.1"/>
			<line id="Erste_7_" class="st8" x1="-418" y1="996.9" x2="-761.7" y2="996.9"/>
			<line class="st8" x1="-764.9" y1="980.7" x2="-787.6" y2="982.9"/>
			<line id="_x32__6_" class="st8" x1="-418" y1="980.7" x2="-764.9" y2="980.7"/>
			<line class="st8" x1="-766.8" y1="964.4" x2="-785.3" y2="965.7"/>
			<line id="_x37__4_" class="st8" x1="-418" y1="964.4" x2="-766.8" y2="964.4"/>
			<line class="st8" x1="-767.8" y1="948.2" x2="-784.4" y2="948.9"/>
			<line id="_x36__4_" class="st8" x1="-417" y1="948.2" x2="-767.8" y2="948.2"/>
			<line class="st8" x1="-767.8" y1="915.8" x2="-784.4" y2="915.1"/>
			<line id="_x34__4_" class="st8" x1="-418" y1="915.8" x2="-767.8" y2="915.8"/>
			<line class="st8" x1="-766.8" y1="899.6" x2="-785.3" y2="898.3"/>
			<line id="_x33__4_" class="st8" x1="-417" y1="899.6" x2="-766.8" y2="899.6"/>
			<line class="st8" x1="-764.9" y1="883.3" x2="-787.6" y2="881.1"/>
			<line id="_x32__5_" class="st8" x1="-417" y1="883.3" x2="-764.9" y2="883.3"/>
			<line class="st8" x1="-761.7" y1="867.1" x2="-791.8" y2="862.9"/>
			<line id="Erste_6_" class="st8" x1="-416" y1="867.1" x2="-761.7" y2="867.1"/>
		</g>
	</g>
</g>
<g id="Arbeitsfläche_2">
	<g id="Licht">
		<g id="Letzte">
			<line class="st15" x1="-472" y1="500" x2="-379" y2="513"/>
			<line id="Erste_5_" class="st15" x1="-783.5" y1="500" x2="-472" y2="500"/>
			<line class="st15" x1="-379" y1="513" x2="-93.5" y2="594.9"/>
		</g>
		<g id="_x38__1_">
			<line class="st15" x1="-462" y1="450" x2="-392" y2="457"/>
			<line id="_x32__4_" class="st15" x1="-783.5" y1="450" x2="-462" y2="450"/>
			<line class="st15" x1="-392" y1="457" x2="-31.1" y2="533.7"/>
		</g>
		<g id="_x37__1_">
			<line class="st15" x1="-456" y1="400" x2="-399" y2="404"/>
			<line id="_x37_" class="st15" x1="-783.5" y1="400" x2="-456" y2="400"/>
			<line class="st15" x1="-399" y1="404" x2="-30.6" y2="455.8"/>
		</g>
		<g id="_x36__1_">
			<line class="st15" x1="-453" y1="350" x2="-402" y2="352"/>
			<line id="_x36_" class="st15" x1="-783.5" y1="350" x2="-453" y2="350"/>
			<line class="st15" x1="-402" y1="352" x2="-29" y2="378.1"/>
		</g>
		<line id="Mittellinie" class="st5" x1="-825.5" y1="300" x2="-28.5" y2="300"/>
		<g id="_x34__1_">
			<line class="st15" x1="-453" y1="250" x2="-402" y2="248"/>
			<line id="_x34_" class="st15" x1="-783.5" y1="250" x2="-453" y2="250"/>
			<line class="st15" x1="-402" y1="248" x2="-29" y2="221.9"/>
		</g>
		<g id="_x33__1_">
			<line class="st15" x1="-456" y1="200" x2="-399" y2="196"/>
			<line id="_x33_" class="st15" x1="-783.5" y1="200" x2="-456" y2="200"/>
			<line class="st15" x1="-399" y1="196" x2="-30.6" y2="144.2"/>
		</g>
		<g id="_x32__1_">
			<line class="st15" x1="-462" y1="150" x2="-392" y2="143"/>
			<line id="_x32_" class="st15" x1="-783.5" y1="150" x2="-462" y2="150"/>
			<line class="st15" x1="-392" y1="143" x2="-31.1" y2="66.3"/>
		</g>
		<g id="Erste_1_">
			<line class="st15" x1="-472" y1="100" x2="-379" y2="87"/>
			<line id="Erste" class="st15" x1="-783.5" y1="100" x2="-472" y2="100"/>
			<line class="st15" x1="-379" y1="87" x2="-93.5" y2="5.1"/>
		</g>
	</g>
	<g id="Konvexe_Linse_1_">
		<g>
			<path d="M-358.6,51c-4.8,2.9-9.4,9-13.7,18.2c-6,12.7-11.4,30.8-16,53.8c-9.5,47.3-14.7,110.1-14.7,177s5.2,129.7,14.7,177
				c4.6,23,10,41.1,16,53.8c4.4,9.2,8.9,15.3,13.7,18.2h-136.7c4.8-2.9,9.4-9,13.7-18.2c6-12.7,11.4-30.8,16-53.8
				c9.5-47.3,14.7-110.1,14.7-177s-5.2-129.7-14.7-177c-4.6-23-10-41.1-16-53.8c-4.4-9.2-8.9-15.3-13.7-18.2H-358.6 M-352,50h-150
				c27.6,0,50,111.9,50,250s-22.4,250-50,250h150c-27.6,0-50-111.9-50-250S-379.6,50-352,50L-352,50z"/>
		</g>
		<line class="st17" x1="-427" y1="50.5" x2="-427" y2="549.5"/>
	</g>
</g>
<g id="Arbeitsfläche_1">
	<g id="Dafault">
		<g>
			<rect x="-1321.5" y="50.5" class="st18" width="149" height="499"/>
			<path d="M-1173,51v498h-148V51H-1173 M-1172,50h-150v500h150V50L-1172,50z"/>
		</g>
		<g>
			<path class="st18" d="M-1247,549.5c-27.3,0-49.5-111.9-49.5-249.5c0-137.6,22.2-249.5,49.5-249.5c27.3,0,49.5,111.9,49.5,249.5
				C-1197.5,437.6-1219.7,549.5-1247,549.5z"/>
			<path d="M-1247,51c12.6,0,25.2,26.4,34.4,72.4c9.4,47.2,14.6,109.9,14.6,176.6s-5.2,129.4-14.6,176.6
				c-9.2,46-21.7,72.4-34.4,72.4s-25.2-26.4-34.4-72.4c-9.4-47.2-14.6-109.9-14.6-176.6s5.2-129.4,14.6-176.6
				C-1272.2,77.4-1259.6,51-1247,51 M-1247,50c-27.6,0-50,111.9-50,250s22.4,250,50,250s50-111.9,50-250S-1219.4,50-1247,50
				L-1247,50z"/>
		</g>
		<line class="st5" x1="-1247" y1="50.5" x2="-1247" y2="549.5"/>
	</g>
	<g id="Konkave_Linse">
		<g>
			<path class="st18" d="M-1047,549.5c-27.3,0-49.5-111.9-49.5-249.5c0-137.6,22.2-249.5,49.5-249.5s49.5,111.9,49.5,249.5
				C-997.5,437.6-1019.7,549.5-1047,549.5z"/>
			<path d="M-1047,51c12.6,0,25.2,26.4,34.4,72.4c9.4,47.2,14.6,109.9,14.6,176.6s-5.2,129.4-14.6,176.6
				c-9.2,46-21.7,72.4-34.4,72.4s-25.2-26.4-34.4-72.4c-9.4-47.2-14.6-109.9-14.6-176.6s5.2-129.4,14.6-176.6
				C-1072.2,77.4-1059.6,51-1047,51 M-1047,50c-27.6,0-50,111.9-50,250s22.4,250,50,250s50-111.9,50-250S-1019.4,50-1047,50
				L-1047,50z"/>
		</g>
		<line class="st5" x1="-1047" y1="50.5" x2="-1047" y2="549.5"/>
	</g>
	<g id="Konvexe_Linse">
		<g>
			<path class="st18" d="M-1517.4,549.5c11.9-5.2,22.8-30.5,31.3-72.6c9.4-47.3,14.7-110.1,14.7-176.9s-5.2-129.6-14.7-176.9
				c-8.4-42.1-19.4-67.4-31.3-72.6h140.8c-11.9,5.2-22.8,30.5-31.3,72.6c-9.4,47.3-14.7,110.1-14.7,176.9s5.2,129.6,14.7,176.9
				c8.4,42.1,19.4,67.4,31.3,72.6H-1517.4z"/>
			<path d="M-1378.6,51c-4.8,2.9-9.4,9-13.7,18.2c-6,12.7-11.4,30.8-16,53.8c-9.5,47.3-14.7,110.1-14.7,177s5.2,129.7,14.7,177
				c4.6,23,10,41.1,16,53.8c4.4,9.2,8.9,15.3,13.7,18.2h-136.7c4.8-2.9,9.4-9,13.7-18.2c6-12.7,11.4-30.8,16-53.8
				c9.5-47.3,14.7-110.1,14.7-177s-5.2-129.7-14.7-177c-4.6-23-10-41.1-16-53.8c-4.4-9.2-8.9-15.3-13.7-18.2H-1378.6 M-1372,50h-150
				c27.6,0,50,111.9,50,250s-22.4,250-50,250h150c-27.6,0-50-111.9-50-250S-1399.6,50-1372,50L-1372,50z"/>
		</g>
		<line class="st5" x1="-1447.3" y1="51" x2="-1447.3" y2="550"/>
	</g>
</g>
<g id="Hilfslinien">
</g>
</svg>
